<svg width="40" height="40" viewBox="0 0 40 40" xmlns="http://www.w3.org/2000/svg">
    <g fill="none" fill-rule="evenodd">
        <rect stroke="#DEE3EA" fill="#FFF" x=".5" y=".5" width="39" height="39" rx="6"/>
        <g fill="#EB9B74" fill-rule="nonzero">
            <path d="M30.034 7H10.84c-1.07.076-1.912.994-1.835 2.065v3.44c-.077 1.071.765 2.066 1.835 2.142h19.194c1.07-.076 1.912-.994 1.912-2.141V9.065c.077-1.071-.765-1.989-1.912-2.065zm-8.947 4.588h-8.03c-.458 0-.764-.306-.764-.765 0-.458.306-.764.765-.764h8.03c.458 0 .764.306.764.764 0 .46-.306.765-.765.765zm7.036 0h-.765v.765c0 .459-.306.765-.765.765-.458 0-.764-.306-.764-.765v-.765h-.765c-.46 0-.765-.306-.765-.765 0-.458.306-.764.765-.764h.765v-.765c0-.459.306-.765.764-.765.46 0 .765.306.765.765v.765h.765c.459 0 .765.306.765.764 0 .46-.306.765-.765.765zM21.087 23.823h-8.03c-.458 0-.764-.306-.764-.764 0-.46.306-.765.765-.765h8.03c.458 0 .764.306.764.765s-.382.764-.765.764z"/>
            <path d="M31.186 29.942c.459 0 .765-.306.765-.765l-.005-10.324c.077-1.453-1.07-2.6-2.523-2.677H11.528c-1.453.077-2.523 1.224-2.523 2.677v11.47A2.534 2.534 0 0 0 11.528 33h17.895c1.453 0 2.6-1.224 2.523-2.676v-1.912c0-.46-.306-.765-.765-.765-.458 0-.764.306-.764.765v1.912c.076.611-.383 1.07-.995 1.147H11.528c-.612-.077-1.07-.536-.994-1.147V18.853c0-.612.382-1.07.994-1.147h17.894c.612.076 1.07.535.995 1.147l.004 10.324c0 .459.306.765.765.765z"/>
            <path d="M28.123 20.765h-3.059c-.459 0-.765-.306-.765-.765s.306-.765.765-.765h3.059c.459 0 .765.306.765.765s-.306.765-.765.765zM18.029 26.883h-4.97c-.46 0-.766-.306-.766-.765 0-.46.306-.765.765-.765h4.97c.46 0 .765.306.765.765a.767.767 0 0 1-.764.765zM20.323 29.942h-7.265c-.459 0-.765-.306-.765-.765s.306-.765.765-.765h7.265c.459 0 .765.306.765.765a.767.767 0 0 1-.765.765zM21.087 20.765h-8.03c-.458 0-.764-.306-.764-.765s.306-.765.765-.765h8.03c.458 0 .764.306.764.765a.766.766 0 0 1-.765.765z"/>
        </g>
    </g>
</svg>
