<svg width="40" height="40" viewBox="0 0 40 40" xmlns="http://www.w3.org/2000/svg">
    <g fill="none" fill-rule="evenodd">
        <rect stroke="#DEE3EA" fill="#FFF" x=".5" y=".5" width="39" height="39" rx="6"/>
        <path d="M21.83 10.052A2.099 2.099 0 0 0 20 9a2.1 2.1 0 0 0-1.83 1.052L8.292 26.988a2.097 2.097 0 0 0-.007 2.123 2.097 2.097 0 0 0 1.838 1.064h19.754c.769 0 1.455-.397 1.838-1.064.383-.666.38-1.46-.007-2.123L21.83 10.052zm-.695 8.53-.415 4.126a.722.722 0 0 1-.72.65.722.722 0 0 1-.72-.65l-.414-4.125a11.681 11.681 0 0 1-.058-1.167v-1.083c0-.306.249-.556.555-.556h1.275c.306 0 .555.25.555.556v1.083c0 .388-.02.78-.058 1.167zm.058 7.389a1.194 1.194 0 0 1-2.385 0c0-.658.535-1.193 1.192-1.193.658 0 1.193.535 1.193 1.193z" fill="#F28686" fill-rule="nonzero"/>
    </g>
</svg>
