<svg width="40" height="40" viewBox="0 0 40 40" xmlns="http://www.w3.org/2000/svg">
    <g fill="none" fill-rule="evenodd">
        <rect stroke="#DEE3EA" fill="#FFF" x=".5" y=".5" width="39" height="39" rx="6"/>
        <path d="M14.297 22.86c-.319 0-.637-.127-.892-.382l-2.517-2.49c-2.517-2.522-2.517-6.607 0-9.097 2.517-2.521 6.595-2.521 9.08 0l2.517 2.522c.51.51.51 1.308 0 1.82-.51.51-1.306.51-1.816 0l-2.517-2.522a3.882 3.882 0 0 0-2.74-1.15 3.827 3.827 0 0 0-2.74 1.15c-1.53 1.532-1.53 3.99 0 5.49l2.517 2.521c.51.511.51 1.309 0 1.82-.223.191-.574.319-.892.319zM24.556 31c-1.657 0-3.282-.639-4.556-1.883l-2.517-2.522a1.273 1.273 0 0 1 0-1.82c.51-.51 1.306-.51 1.816 0l2.517 2.522c1.53 1.532 3.983 1.532 5.48 0 1.53-1.532 1.53-3.99 0-5.49l-2.517-2.522a1.273 1.273 0 0 1 0-1.819c.51-.51 1.306-.51 1.816 0l2.517 2.522c2.517 2.521 2.517 6.607 0 9.097C27.838 30.36 26.212 31 24.556 31zm-3.41-8.076c.256.256.574.383.893.383.35 0 .67-.127.924-.35.51-.512.51-1.31 0-1.82l-4.11-4.118a1.268 1.268 0 0 0-1.816 0c-.51.51-.51 1.309 0 1.82l4.11 4.085z" fill="#EB9B74" fill-rule="nonzero"/>
    </g>
</svg>
