<svg width="40" height="40" viewBox="0 0 40 40" xmlns="http://www.w3.org/2000/svg">
    <defs>
        <linearGradient x1="50%" y1="0%" x2="50%" y2="100%" id="fiqawnhhha">
            <stop stop-color="#5575AF" stop-opacity=".3" offset="0%"/>
            <stop stop-color="#2B4077" stop-opacity=".3" offset="100%"/>
        </linearGradient>
    </defs>
    <g fill="none" fill-rule="evenodd">
        <rect stroke="#445C9B" fill="url(#fiqawnhhha)" x=".5" y=".5" width="39" height="39" rx="6"/>
        <path d="M9.705 10a.704.704 0 0 0-.705.705v18.252c0 .39.315.705.705.705h20.59c.39 0 .705-.315.705-.705a.703.703 0 0 0-.705-.697H10.402V10.705A.703.703 0 0 0 9.705 10zm17.083 2.58a1.883 1.883 0 0 0-1.875 1.873c0 .357.108.68.29.97l-2.612 3.724c-.083-.017-.165-.017-.248-.017-.456 0-.88.166-1.203.44l-1.65-.97a1.883 1.883 0 0 0-1.833-2.28c-1.02 0-1.874.845-1.874 1.873 0 .357.108.689.29.97l-2.612 3.724c-.082-.008-.165-.008-.248-.008a1.881 1.881 0 0 0-1.874 1.865c0 1.029.845 1.875 1.874 1.875a1.883 1.883 0 0 0 1.874-1.875c0-.423-.15-.829-.398-1.144l2.52-3.599c.142.033.29.066.448.066.374 0 .73-.116 1.029-.306l1.79 1.044c-.007.067-.007.133-.007.2 0 1.02.845 1.874 1.874 1.874 1.02 0 1.865-.855 1.865-1.875 0-.43-.14-.829-.39-1.152l2.513-3.599c.15.041.299.066.456.066a1.881 1.881 0 0 0 1.875-1.865c.008-1.186-.938-1.891-1.875-1.874zm0 1.4c.265 0 .464.2.464.473a.454.454 0 0 1-.464.465.46.46 0 0 1-.473-.465c0-.273.207-.472.473-.472zm-9.13 3.749a.46.46 0 0 1 .472.464.467.467 0 0 1-.473.473.46.46 0 0 1-.464-.473c0-.265.199-.464.464-.464zm4.685 2.803a.46.46 0 0 1 .464.472.454.454 0 0 1-.464.465.455.455 0 0 1-.473-.465c0-.265.199-.472.473-.472zm-9.13 3.748c.265 0 .464.2.464.465a.455.455 0 0 1-.464.472.456.456 0 0 1-.465-.472c0-.266.2-.465.465-.465z" fill="#75C5D3" fill-rule="nonzero"/>
    </g>
</svg>
