<svg width="40" height="40" viewBox="0 0 40 40" xmlns="http://www.w3.org/2000/svg">
    <g fill="none" fill-rule="evenodd">
        <rect stroke="#DEE3EA" fill="#FFF" x=".5" y=".5" width="39" height="39" rx="6"/>
        <g fill="#7DB0FF" fill-rule="nonzero">
            <path d="M9.085 9.204c-1.213.087-2.166 1.127-2.08 2.34v1.817c-.086 1.213.867 2.34 2.08 2.426h21.744c1.212-.086 2.166-1.126 2.166-2.426v-1.817c.086-1.213-.867-2.253-2.166-2.34H9.085zm15.188 4.157h-9.096c-.52 0-.866-.347-.866-.867s.346-.867.866-.867h9.096c.52 0 .867.347.867.867s-.347.867-.867.867zM9.085 17.004c-1.213.087-2.166 1.127-2.08 2.34v1.817c-.086 1.213.867 2.34 2.08 2.426h21.744c1.212-.086 2.166-1.126 2.166-2.426v-1.817c.086-1.213-.867-2.253-2.166-2.34H9.085zm15.188 4.157h-9.096c-.52 0-.866-.347-.866-.867s.346-.867.866-.867h9.096c.52 0 .867.347.867.867s-.347.867-.867.867zM9.085 24.804c-1.213.087-2.166 1.127-2.08 2.34v1.817c-.086 1.213.867 2.34 2.08 2.426h21.744c1.212-.086 2.166-1.126 2.166-2.426v-1.817c.086-1.213-.867-2.253-2.166-2.34H9.085zm15.188 4.157h-9.096c-.52 0-.866-.347-.866-.867s.346-.867.866-.867h9.096c.52 0 .867.347.867.867s-.347.867-.867.867z"/>
        </g>
    </g>
</svg>
