<svg width="40" height="40" viewBox="0 0 40 40" xmlns="http://www.w3.org/2000/svg">
    <defs>
        <linearGradient x1="50%" y1="0%" x2="50%" y2="100%" id="yu992ecmpa">
            <stop stop-color="#5575AF" stop-opacity=".3" offset="0%"/>
            <stop stop-color="#2B4077" stop-opacity=".3" offset="100%"/>
        </linearGradient>
    </defs>
    <g fill="none" fill-rule="evenodd">
        <rect stroke="#445C9B" fill="url(#yu992ecmpa)" x=".5" y=".5" width="39" height="39" rx="6"/>
        <g fill="#769DCB" fill-rule="nonzero">
            <path d="m28.839 14.372-2.762 2.762-3.217-3.217 2.762-2.762a2.295 2.295 0 0 1 3.234 0c.446.446.66 1.023.66 1.61a2.275 2.275 0 0 1-.677 1.607z"/>
            <path d="m28.493 14.029-2.419 2.418-.34.341h.689l-3.22-3.22v.69a43207232.486 43207232.486 0 0 1 2.625-2.626l.117-.117.02-.019a2.279 2.279 0 0 1 .158-.141c.073-.066-.075.05.012-.01.095-.066.188-.127.29-.18l.076-.037c.031-.014.09-.058-.008.003.054-.032.13-.051.19-.069.107-.034.215-.056.324-.075.095-.017-.031.005-.031.005a.42.42 0 0 1 .1-.01c.065-.005.13-.007.2-.005.055 0 .109.003.165.008.022.002.046.007.065.007-.124.005-.039-.005.003.002.114.02.229.049.338.086.027.01.054.017.078.029.01.005.105.05.034.014-.07-.039.027.013.035.017.024.013.05.025.075.04.1.053.222.114.302.192-.09-.088-.01-.005.01.012a2.62 2.62 0 0 1 .278.283c-.04-.05.046.068.055.077.04.059.076.122.11.185.015.03.03.056.044.086.02.044.053.095.012.024.037.063.054.146.073.217a1.818 1.818 0 0 1 .059.27 1.795 1.795 0 0 1 .005.392c0 .015-.02.161-.008.088.012-.08-.01.044-.01.049-.007.036-.014.075-.024.112a1.629 1.629 0 0 1-.066.219c-.007.02-.05.141-.007.027a2.094 2.094 0 0 1-.207.375c-.012.02-.117.148-.044.06-.046.062-.1.122-.158.18-.178.184-.195.51 0 .69a.495.495 0 0 0 .69 0c.472-.48.752-1.093.808-1.763a2.711 2.711 0 0 0-.483-1.77 2.839 2.839 0 0 0-1.454-1.063 2.789 2.789 0 0 0-1.634 0 2.818 2.818 0 0 0-1.157.702c-.114.112-.226.226-.34.34l-1.394 1.394-1.015 1.015a.495.495 0 0 0 0 .69l3.22 3.22a.495.495 0 0 0 .689 0l2.418-2.42.341-.34c.18-.18.195-.511 0-.69a.493.493 0 0 0-.69-.004zM19.83 17.555l2.606 2.606-8.653 8.658s-.799.227-1.493.45c-.694.225-1.288.449-1.651.089-.334-.334-.051-.943.141-1.598.224-.76.397-1.55.397-1.55l8.653-8.655z"/>
            <path d="m19.487 17.901 2.287 2.287.321.322v-.69l-7.594 7.595c-.348.348-.713.686-1.047 1.047l-.015.014.215-.124c-.298.085-.592.17-.887.26-.485.15-.97.35-1.469.44-.012.002-.121.007-.038.007.073 0 0-.003-.02 0-.049.002-.095 0-.144.002-.082.002.027 0 .04.007-.015-.01-.054-.01-.074-.014-.014-.005-.058-.025-.068-.022.027-.008.107.044.012-.003-.06-.029.034-.01.027.025a.639.639 0 0 0-.046-.042c-.066-.053.024.015.02.03a.994.994 0 0 0-.037-.064c-.034-.041.026.112.012.022-.003-.01-.01-.056-.012-.058.034.034.005.102.007.039 0-.032-.002-.064 0-.098 0 0 0-.063.005-.068l-.007.06c.002-.016.004-.036.01-.053.01-.056.021-.11.036-.165a6 6 0 0 1 .11-.373c.085-.265.165-.528.238-.796.102-.38.2-.763.283-1.147l-.125.214.86-.86 2.07-2.07 2.499-2.499 2.165-2.165c.348-.348.706-.69 1.047-1.047l.015-.015c.18-.18.195-.511 0-.689a.497.497 0 0 0-.69 0l-8.365 8.366c-.12.12-.28.243-.368.39-.073.124-.087.292-.121.43-.064.264-.13.529-.2.79-.083.304-.176.601-.27.9-.088.276-.176.57-.169.863.013.667.573 1.12 1.225 1.081.592-.036 1.165-.287 1.725-.458.238-.073.477-.143.716-.214.163-.046.336-.078.465-.197.027-.025.054-.054.08-.08a22977784.76 22977784.76 0 0 0 4.267-4.268l4.238-4.237.073-.073a.495.495 0 0 0 0-.69l-2.287-2.287-.321-.321c-.18-.18-.512-.195-.69 0-.185.202-.197.504-.005.697z"/>
            <path d="M25.49 21.62c-.44.44-1.155.44-1.595 0l-5.497-5.497a1.127 1.127 0 0 1 0-1.595l1.739-1.739c.44-.44 1.154-.44 1.595 0l5.497 5.497c.44.44.44 1.154 0 1.595l-1.74 1.74z"/>
            <path d="M25.144 21.277c-.017.017-.037.031-.051.048-.078.08.06-.036.002 0-.044.027-.085.056-.131.08-.017.01-.05.018-.061.03.012-.012.102-.034.022-.012-.04.01-.132.017-.164.041.008-.007.12-.01.03-.005-.022.003-.044.003-.066.005-.044.003-.088-.002-.134-.005-.11-.004.083.02.015 0l-.066-.014-.08-.025c-.086-.021.058.032.007.005-.046-.024-.093-.046-.134-.073-.007-.005-.056-.039-.059-.039.008-.002.088.078.017.01l-.056-.051c-.014-.012-.026-.027-.039-.04l-.518-.518-4.299-4.298-.57-.57-.053-.054-.01-.01-.002-.002-.05-.051c-.063-.064.03.049 0 .002-.026-.044-.055-.085-.08-.131-.01-.017-.017-.049-.029-.061.01.012.037.102.012.022-.012-.044-.024-.085-.034-.13-.027-.094.005.035.003.032-.012-.007-.008-.08-.008-.1-.002-.05.003-.1.005-.148.005-.068-.02.095-.002.032l.014-.066c.008-.027.018-.054.025-.08.01-.037 0-.069-.012.021.007-.048.053-.11.08-.15.005-.008.039-.057.039-.06.002.008-.078.089-.01.018.017-.017.032-.037.049-.054l.027-.026.136-.137.5-.499 1.013-1.013.073-.073c.017-.017.043-.054.065-.059-.007.003-.092.061-.014.012.039-.024.078-.048.117-.07.012-.007.043-.027.06-.03-.09.013-.058.023-.021.013.012-.003.155-.054.163-.042.002.003-.11.008-.03.005a.944.944 0 0 1 .083-.005c.02 0 .14-.007.149.008.002.005-.127-.027-.032-.003l.066.015a.481.481 0 0 1 .063.02c.108.031-.09-.05.01.002.041.022.08.041.12.066.01.007.048.026.058.039-.044-.064-.044-.04-.017-.01l.056.053c.129.127.258.259.385.385l2.006 2.007 2.25 2.25.695.694.144.144.01.01.048.051c.078.083-.049-.083.01.012.024.04.049.078.07.117.008.012.027.044.03.061-.013-.09-.022-.058-.013-.022.013.049.025.097.04.146.019.068-.005-.124 0-.014 0 .026.004.056.004.082 0 .02.008.14-.007.149-.005.002.027-.127.002-.032l-.014.066c-.005.022-.015.044-.02.063-.022.08.003-.01.013-.022-.035.04-.052.105-.08.151-.008.01-.028.05-.04.059.078-.054.027-.037-.002-.003a.608.608 0 0 1-.04.042l-.028.03-.366.364a6900334.393 6900334.393 0 0 1-1.344 1.345c-.18.18-.195.511 0 .689a.497.497 0 0 0 .69 0c.576-.577 1.16-1.15 1.73-1.732a1.64 1.64 0 0 0 .003-2.296c-.139-.141-.282-.283-.421-.422l-2.124-2.123-2.265-2.265-.611-.612a2.273 2.273 0 0 0-.178-.165c-.419-.339-.989-.475-1.51-.307-.497.158-.83.565-1.186.92l-1.106 1.106c-.165.166-.328.339-.426.558a1.633 1.633 0 0 0 .063 1.525c.134.226.332.404.517.586l1.975 1.976 2.353 2.352.73.73c.285.286.587.542 1.001.612a1.65 1.65 0 0 0 1.454-.44c.183-.178.193-.514 0-.69a.493.493 0 0 0-.69-.002z"/>
        </g>
    </g>
</svg>
