<svg width="40" height="40" viewBox="0 0 40 40" xmlns="http://www.w3.org/2000/svg">
    <g fill="none" fill-rule="evenodd">
        <rect stroke="#DEE3EA" fill="#FFF" x=".5" y=".5" width="39" height="39" rx="6"/>
        <g fill-rule="nonzero">
            <path d="M29.786 31c.67 0 1.214-.544 1.214-1.214V10.214C31 9.544 30.456 9 29.786 9H10.214C9.544 9 9 9.544 9 10.214v19.572c0 .67.543 1.214 1.214 1.214h19.572z" fill="#448AC5"/>
            <path d="M24.18 31v-8.52h2.86l.427-3.32H24.18v-2.12c0-.96.266-1.616 1.645-1.616h1.758v-2.97c-.304-.04-1.348-.131-2.562-.131-2.535 0-4.27 1.547-4.27 4.389v2.448h-2.867v3.32h2.867V31h3.429z" fill="#FFF"/>
        </g>
    </g>
</svg>
