<svg width="40" height="40" viewBox="0 0 40 40" xmlns="http://www.w3.org/2000/svg">
    <defs>
        <linearGradient x1="50%" y1="0%" x2="50%" y2="100%" id="ognri6y51a">
            <stop stop-color="#5575AF" stop-opacity=".3" offset="0%"/>
            <stop stop-color="#2B4077" stop-opacity=".3" offset="100%"/>
        </linearGradient>
    </defs>
    <g fill="none" fill-rule="evenodd">
        <rect stroke="#445C9B" fill="url(#ognri6y51a)" x=".5" y=".5" width="39" height="39" rx="6"/>
        <path d="M12.964 9A1.97 1.97 0 0 0 11 10.964v18.072A1.97 1.97 0 0 0 12.964 31h13.357a1.97 1.97 0 0 0 1.965-1.964V16.439a2.92 2.92 0 0 1-.393.025H23.57a2.763 2.763 0 0 1-2.75-2.75V9h-7.857zm8.643 0v4.714a1.97 1.97 0 0 0 1.964 1.965h4.715v-.393a2.29 2.29 0 0 0-.671-1.62l-3.996-3.995A2.29 2.29 0 0 0 21.999 9h-.392zm-4.306 11.786c.307.004.6.128.818.345l2.752 2.752c.457.457.457 1.21 0 1.667a1.185 1.185 0 0 1-1.667 0l-.74-.74v2.654c0 .647-.532 1.179-1.178 1.179a1.185 1.185 0 0 1-1.179-1.179V24.81l-.74.74a1.185 1.185 0 0 1-1.667 0 1.185 1.185 0 0 1 0-1.667l2.752-2.752c.225-.225.531-.35.85-.345H17.3z" fill="#75C5D3" fill-rule="nonzero"/>
    </g>
</svg>
