<svg width="40" height="40" viewBox="0 0 40 40" xmlns="http://www.w3.org/2000/svg">
    <defs>
        <linearGradient x1="50%" y1="0%" x2="50%" y2="100%" id="5z75d6y2aa">
            <stop stop-color="#5575AF" stop-opacity=".3" offset="0%"/>
            <stop stop-color="#2B4077" stop-opacity=".3" offset="100%"/>
        </linearGradient>
    </defs>
    <g fill="none" fill-rule="evenodd">
        <rect stroke="#445C9B" fill="url(#5z75d6y2aa)" x=".5" y=".5" width="39" height="39" rx="6"/>
        <g fill="#FFF" fill-rule="nonzero">
            <path d="M31.14 21.375h-2.825v-2.87a.284.284 0 0 0-.287-.287h-3.169a.284.284 0 0 0-.287.287v2.87h-2.669v-2.87a.284.284 0 0 0-.287-.287h-3.169a.284.284 0 0 0-.287.287v3.169c0 .16.126.287.287.287h2.876v2.87c0 .16.127.287.287.287h2.888v2.508H18.28a.284.284 0 0 0-.287.287v3.169c0 .16.126.287.287.287h6.492c.161 0 .287-.126.287-.287v-2.836h2.56v2.836c0 .16.127.287.288.287h3.168c.161 0 .287-.126.287-.287v-3.169a.284.284 0 0 0-.287-.287H28.24v-2.508h2.9c.16 0 .286-.127.286-.287v-3.169a.292.292 0 0 0-.287-.287zM15.319 21.96c.16 0 .287-.126.287-.287v-3.168a.284.284 0 0 0-.287-.288H12.15a.284.284 0 0 0-.287.288v3.168c0 .161.127.287.287.287h3.169zM18.447 15.715h3.17c.16 0 .286-.126.286-.287V12.26a.284.284 0 0 0-.287-.287h-3.169a.284.284 0 0 0-.287.287v3.17c0 .16.127.286.287.286zM15.457 8H8.86A.86.86 0 0 0 8 8.861v6.59a.86.86 0 0 0 .861.86h6.59a.86.86 0 0 0 .86-.86V8.86A.855.855 0 0 0 15.458 8zm-.861 6.596H9.722V9.722h4.868v4.874h.006zM15.457 23.688H8.86A.86.86 0 0 0 8 24.55v6.59a.86.86 0 0 0 .861.86h6.59a.86.86 0 0 0 .86-.86v-6.59a.851.851 0 0 0-.854-.86zm-.861 6.596H9.722v-4.868h4.868v4.868h.006zM31.145 8h-6.596a.86.86 0 0 0-.86.861v6.59a.86.86 0 0 0 .86.86h6.59a.86.86 0 0 0 .86-.86V8.86A.859.859 0 0 0 31.146 8zm-.861 6.596h-4.868V9.722h4.868v4.874z"/>
            <path d="M11.14 11.14h2.038v2.038H11.14zM26.931 11.14h2.038v2.038h-2.038zM11.14 26.777h2.038v2.038H11.14z"/>
        </g>
    </g>
</svg>
