<svg width="40" height="40" viewBox="0 0 40 40" xmlns="http://www.w3.org/2000/svg">
    <g fill="none" fill-rule="evenodd">
        <rect stroke="#DEE3EA" fill="#FFF" x=".5" y=".5" width="39" height="39" rx="6"/>
        <g fill="#A97DFF" fill-rule="nonzero">
            <path d="M10.571 9h6.286c.868 0 1.571.868 1.571 1.571v6.286c0 .868-.703 1.571-1.571 1.571h-6.286C9.703 18.428 9 17.56 9 16.857v-6.286C9 9.703 9.703 9 10.571 9zM10.571 22.358h6.286c.868 0 1.571.868 1.571 1.571v6.286c0 .868-.703 1.57-1.571 1.57h-6.286c-.868 0-1.571-.867-1.571-1.57v-6.286c0-.868.703-1.571 1.571-1.571zM23.143 9h6.286C30.297 9 31 9.868 31 10.571v6.286c0 .868-.703 1.571-1.571 1.571h-6.286c-.868 0-1.571-.868-1.571-1.571v-6.286c0-.868.703-1.571 1.571-1.571zM23.143 22.358h6.286c.868 0 1.571.868 1.571 1.571v6.286c0 .868-.703 1.57-1.571 1.57h-6.286c-.868 0-1.571-.867-1.571-1.57v-6.286c0-.868.703-1.571 1.571-1.571z"/>
        </g>
    </g>
</svg>
