<svg width="40" height="40" viewBox="0 0 40 40" xmlns="http://www.w3.org/2000/svg">
    <g fill="none" fill-rule="evenodd">
        <rect stroke="#DEE3EA" fill="#FFF" x=".5" y=".5" width="39" height="39" rx="6"/>
        <g fill="#7D89FF" fill-rule="nonzero">
            <path d="M12 13.5a2.5 2.5 0 1 1-5 0 2.5 2.5 0 0 1 5 0M12 20.5a2.5 2.5 0 1 1-5 0 2.5 2.5 0 0 1 5 0M12 27.5a2.5 2.5 0 1 1-5 0 2.5 2.5 0 0 1 5 0M17.308 15h14.384c.467 0 .9-.286 1.133-.75a1.692 1.692 0 0 0 0-1.5c-.234-.464-.666-.75-1.133-.75H17.308c-.467 0-.9.286-1.133.75a1.692 1.692 0 0 0 0 1.5c.234.464.666.75 1.133.75zM31.692 19H17.308c-.467 0-.9.286-1.133.75a1.693 1.693 0 0 0 0 1.5c.234.464.666.75 1.133.75h14.384c.467 0 .9-.286 1.133-.75a1.693 1.693 0 0 0 0-1.5c-.234-.464-.666-.75-1.133-.75zM31.692 26H17.308c-.467 0-.9.286-1.133.75a1.692 1.692 0 0 0 0 1.5c.234.464.666.75 1.133.75h14.384c.467 0 .9-.286 1.133-.75a1.692 1.692 0 0 0 0-1.5c-.234-.464-.666-.75-1.133-.75z"/>
        </g>
    </g>
</svg>
