<svg width="40" height="40" viewBox="0 0 40 40" xmlns="http://www.w3.org/2000/svg">
    <defs>
        <linearGradient x1="50%" y1="0%" x2="50%" y2="100%" id="r07rhedmoa">
            <stop stop-color="#5575AF" stop-opacity=".3" offset="0%"/>
            <stop stop-color="#2B4077" stop-opacity=".3" offset="100%"/>
        </linearGradient>
    </defs>
    <g fill="none" fill-rule="evenodd">
        <rect stroke="#445C9B" fill="url(#r07rhedmoa)" x=".5" y=".5" width="39" height="39" rx="6"/>
        <g fill-rule="nonzero">
            <path d="M30 11H10a2 2 0 0 0-2 2v1.13h24V13a2 2 0 0 0-2-2zM9.565 12.043a.522.522 0 1 1 0 1.045.522.522 0 0 1 0-1.045zm2.087 0a.522.522 0 1 1 0 1.045.522.522 0 0 1 0-1.045zm2.087 0a.522.522 0 1 1 0 1.045.522.522 0 0 1 0-1.045zM32 14.652H8v12.609a2 2 0 0 0 2 2h20a2 2 0 0 0 2-2V14.652zm-5.478 3.13a.783.783 0 1 1 0 1.566.783.783 0 0 1 0-1.565z" fill="#7D89FF"/>
            <path d="M24.715 18.304H13.217v7.826h13.566v-5.758a1.827 1.827 0 0 1-2.068-2.068z" fill="#233762"/>
            <path d="M22.609 23a.522.522 0 0 1 0 1.043H17.39a.522.522 0 0 1 0-1.043zm1.565-2.609a.522.522 0 0 1 0 1.044h-8.348a.522.522 0 0 1 0-1.044z" fill="#7D89FF"/>
        </g>
    </g>
</svg>
