<svg width="40" height="40" viewBox="0 0 40 40" xmlns="http://www.w3.org/2000/svg">
    <g fill="none" fill-rule="evenodd">
        <rect stroke="#DEE3EA" fill="#FFF" x=".5" y=".5" width="39" height="39" rx="6"/>
        <g fill="#C75398" fill-rule="nonzero">
            <path d="M12.838 14h-.003a5.835 5.835 0 0 0-5.834 5.739l-.001.1c0 1.329.64 2.78 1.691 3.907 1.11 1.19 2.568 1.913 4.098 1.927h.05c3.19 0 5.782-2.56 5.834-5.738v-.1c0-1.33-.64-2.78-1.69-3.908C15.86 14.725 14.384 14 12.837 14zm-.003 1.477h.003c1.11 0 2.207.54 3.064 1.458.8.858 1.283 1.943 1.294 2.869v.034a4.358 4.358 0 0 1-4.286 4.358h-.075c-1.11 0-2.206-.539-3.063-1.458-.8-.858-1.284-1.943-1.295-2.868v-.035a4.358 4.358 0 0 1 4.358-4.358zM27.165 14A5.835 5.835 0 1 0 33 19.835 5.844 5.844 0 0 0 27.165 14zm-1.64 5.835a1.64 1.64 0 1 1 3.28 0 1.64 1.64 0 0 1-3.28 0z"/>
        </g>
    </g>
</svg>
