<svg width="40" height="40" viewBox="0 0 40 40" xmlns="http://www.w3.org/2000/svg">
    <defs>
        <linearGradient x1="50%" y1="0%" x2="50%" y2="100%" id="p12d634wfa">
            <stop stop-color="#5575AF" stop-opacity=".3" offset="0%"/>
            <stop stop-color="#2B4077" stop-opacity=".3" offset="100%"/>
        </linearGradient>
    </defs>
    <g fill="none" fill-rule="evenodd">
        <rect stroke="#445C9B" fill="url(#p12d634wfa)" x=".5" y=".5" width="39" height="39" rx="6"/>
        <g fill="#65B1CA" fill-rule="nonzero">
            <path d="M29.273 16h-9.818a2.73 2.73 0 0 0-2.728 2.727v6.546A2.73 2.73 0 0 0 19.455 28h5.5l2.376 2.375a.818.818 0 0 0 1.396-.579V28h.546A2.73 2.73 0 0 0 32 25.273v-6.546A2.73 2.73 0 0 0 29.273 16zm-2.182 5.182h-.305a4.897 4.897 0 0 1-1.451 2.964c.468.202.973.307 1.483.308a.562.562 0 0 1 .565.546.528.528 0 0 1-.526.545 4.98 4.98 0 0 1-2.483-.669 4.872 4.872 0 0 1-2.465.67.562.562 0 0 1-.565-.546.528.528 0 0 1 .526-.546c.527.001 1.05-.105 1.534-.312a4.845 4.845 0 0 1-1.023-1.404.545.545 0 1 1 .985-.467c.236.494.575.932.994 1.283a3.799 3.799 0 0 0 1.324-2.372h-4.048a.545.545 0 1 1 0-1.091h2.182V19a.545.545 0 0 1 1.091 0v1.09h2.182a.545.545 0 0 1 0 1.092zM15.636 14.591l-.888 1.955h1.578a4.08 4.08 0 0 1 .123-.166l-.813-1.789z"/>
            <path d="M20.546 10h-9.819A2.731 2.731 0 0 0 8 12.727v6.546A2.73 2.73 0 0 0 10.727 22h.546v1.796a.817.817 0 0 0 1.396.579L15.044 22h.592v-3.273c0-.37.055-.737.161-1.09h-1.545l-.846 1.861a.545.545 0 1 1-.993-.451l2.727-6a.545.545 0 0 1 .993 0l1.155 2.54a3.796 3.796 0 0 1 2.167-.678h3.818v-2.182A2.731 2.731 0 0 0 20.546 10z"/>
        </g>
    </g>
</svg>
