<svg width="40" height="40" viewBox="0 0 40 40" xmlns="http://www.w3.org/2000/svg">
    <g fill="none" fill-rule="evenodd">
        <rect stroke="#DEE3EA" fill="#FFF" x=".5" y=".5" width="39" height="39" rx="6"/>
        <path d="M31.304 17.826H18.53A4.506 4.506 0 0 0 14.348 15a4.505 4.505 0 0 0-4.183 2.826h-1.47A1.7 1.7 0 0 0 7 19.522a1.7 1.7 0 0 0 1.696 1.696h1.47a4.506 4.506 0 0 0 4.182 2.826 4.505 4.505 0 0 0 4.182-2.826h12.774A1.7 1.7 0 0 0 33 19.522a1.7 1.7 0 0 0-1.696-1.696zm-16.956 4.522a2.834 2.834 0 0 1-2.826-2.826 2.834 2.834 0 0 1 2.826-2.826 2.834 2.834 0 0 1 2.826 2.826 2.834 2.834 0 0 1-2.826 2.826z" fill="#6AB3D0" fill-rule="nonzero"/>
    </g>
</svg>
