<svg width="40" height="40" viewBox="0 0 40 40" xmlns="http://www.w3.org/2000/svg">
    <g fill="none" fill-rule="evenodd">
        <rect stroke="#DEE3EA" fill="#FFF" x=".5" y=".5" width="39" height="39" rx="6"/>
        <g fill-rule="nonzero">
            <path d="M31.551 11.315H8.463a2 2 0 0 0-2 2V27a2 2 0 0 0 2 2h23.088a2 2 0 0 0 2-2V13.315a2 2 0 0 0-2-2z" fill="#93B254"/>
            <path d="M30.174 23.72V25h-1.167a.566.566 0 0 0 0 1.13h1.732a.566.566 0 0 0 .565-.565v-1.844a.566.566 0 0 0-1.13 0zM11.141 19.402a.816.816 0 0 0 0 1.63h1.63a.816.816 0 0 0 0-1.63v-4.076h.816a.816.816 0 0 0 1.63 0v-.815a.816.816 0 0 0-.815-.815H9.511a.816.816 0 0 0-.815.815v.815a.816.816 0 0 0 1.63 0h.815v4.076z" fill="#FFF"/>
        </g>
    </g>
</svg>
