<svg width="40" height="40" viewBox="0 0 40 40" xmlns="http://www.w3.org/2000/svg">
    <defs>
        <linearGradient x1="50%" y1="0%" x2="50%" y2="100%" id="96v8dm280a">
            <stop stop-color="#5575AF" stop-opacity=".3" offset="0%"/>
            <stop stop-color="#2B4077" stop-opacity=".3" offset="100%"/>
        </linearGradient>
    </defs>
    <g fill="none" fill-rule="evenodd">
        <rect stroke="#445C9B" fill="url(#96v8dm280a)" x=".5" y=".5" width="39" height="39" rx="6"/>
        <g fill="#7D89FF" fill-rule="nonzero">
            <path d="M9.924 8.944h7.896c.509 0 .924.416.924.924v4.93a.926.926 0 0 1-.924.924H9.924A.926.926 0 0 1 9 14.798v-4.93c0-.508.416-.924.924-.924zM9.924 16.946h4.384c.508 0 .924.416.924.924a.926.926 0 0 1-.924.924H9.924A.926.926 0 0 1 9 17.87c0-.508.416-.924.924-.924zM9.924 21.506h7.896c.509 0 .924.416.924.924v4.93a.926.926 0 0 1-.924.924H9.924A.926.926 0 0 1 9 27.36v-4.93c0-.509.416-.924.924-.924zM9.924 29.507h4.866c.508 0 .923.416.923.924a.926.926 0 0 1-.923.924H9.924A.926.926 0 0 1 9 30.431c0-.508.416-.924.924-.924z"/>
            <g>
                <path d="M22.18 8.944h7.896c.509 0 .924.416.924.924v4.93a.926.926 0 0 1-.924.924H22.18a.926.926 0 0 1-.924-.924v-4.93c0-.508.416-.924.924-.924zM22.18 16.946h4.308c.508 0 .924.416.924.924a.926.926 0 0 1-.924.924H22.18a.926.926 0 0 1-.924-.924c0-.508.416-.924.924-.924z"/>
            </g>
            <g>
                <path d="M22.18 21.506h7.896c.509 0 .924.416.924.924v4.93a.926.926 0 0 1-.924.924H22.18a.926.926 0 0 1-.924-.924v-4.93c0-.509.416-.924.924-.924zM22.18 29.507h4.42c.509 0 .924.416.924.924a.926.926 0 0 1-.924.924h-4.42a.926.926 0 0 1-.924-.924c0-.508.416-.924.924-.924z"/>
            </g>
        </g>
    </g>
</svg>
