<svg width="40" height="40" viewBox="0 0 40 40" xmlns="http://www.w3.org/2000/svg">
    <g fill="none" fill-rule="evenodd">
        <rect stroke="#DEE3EA" fill="#FFF" x=".5" y=".5" width="39" height="39" rx="6"/>
        <g fill="#7DB0FF" fill-rule="nonzero">
            <path d="M25.57 25.486a.786.786 0 0 1-.637-1.24 7.345 7.345 0 0 0 1.352-4.26 7.26 7.26 0 0 0-1.47-4.336.788.788 0 1 1 1.258-.95 8.798 8.798 0 0 1 .133 10.441.786.786 0 0 1-.636.346z"/>
            <path d="M28.642 27.843a.784.784 0 0 1-.346-.078.786.786 0 0 1-.44-1.045 15.48 15.48 0 0 0 0-13.467.787.787 0 0 1 1.423-.676 17.283 17.283 0 0 1 1.72 7.22 17.174 17.174 0 0 1-1.689 7.598.784.784 0 0 1-.668.448zM12.873 16.058H9.786a.786.786 0 0 0-.786.786v7.071a.786.786 0 0 0 .786.786h3.087v-8.643zM23.582 9.074a.787.787 0 0 0-.785.07l-8.352 6.176v10.017l8.351 5.5a.784.784 0 0 0 .81.039.786.786 0 0 0 .408-.692V9.773a.787.787 0 0 0-.432-.7z"/>
        </g>
    </g>
</svg>
