<svg width="32" height="32" viewBox="0 0 32 32" fill="none" xmlns="http://www.w3.org/2000/svg">
<path d="M1.40039 29V1C1.40039 0.668629 1.66863 0.400391 2 0.400391C2.33137 0.400391 2.59961 0.668629 2.59961 1V29C2.59961 29.7732 3.2268 30.4004 4 30.4004H28C28.7732 30.4004 29.4004 29.7732 29.4004 29V1C29.4004 0.668629 29.6686 0.400391 30 0.400391C30.3314 0.400391 30.5996 0.668629 30.5996 1V29C30.5996 30.4359 29.4359 31.5996 28 31.5996H4C2.56406 31.5996 1.40039 30.4359 1.40039 29Z" fill="#8A8A8A"/>
<path d="M29.4004 10C29.4004 8.12223 27.8778 6.59961 26 6.59961H6C4.12223 6.59961 2.59961 8.12223 2.59961 10V14H1.40039V10C1.40039 7.45949 3.45949 5.40039 6 5.40039H26C28.5405 5.40039 30.5996 7.45949 30.5996 10V14H29.4004V10Z" fill="#8A8A8A"/>
<path d="M9 22.8837C9 22.5369 9.28112 22.2558 9.62789 22.2558H22.3721C22.7189 22.2558 23 22.5369 23 22.8837C23 23.2304 22.7189 23.5116 22.3721 23.5116H9.62789C9.28112 23.5116 9 23.2304 9 22.8837Z" fill="#8A8A8A"/>
<path d="M13 26.1395C13 25.7927 13.2811 25.5116 13.6279 25.5116H18.3721C18.7189 25.5116 19 25.7927 19 26.1395C19 26.4862 18.7189 26.7673 18.3721 26.7673H13.6279C13.2811 26.7673 13 26.4862 13 26.1395Z" fill="#8A8A8A"/>
<path d="M14 8.62789C14 8.28112 14.2811 8 14.6279 8H17.3721C17.7189 8 18 8.28112 18 8.62789C18 8.97467 17.7189 9.25578 17.3721 9.25578H14.6279C14.2811 9.25578 14 8.97467 14 8.62789Z" fill="#8A8A8A"/>
<path d="M18.4873 16.7441C18.3592 15.4836 17.2944 14.5 16 14.5C14.6193 14.5 13.5 15.6193 13.5 17C13.5 18.3807 14.6193 19.5 16 19.5C17.3807 19.5 18.5 18.3807 18.5 17L18.4873 16.7441ZM19.4951 17.1797C19.4016 19.0292 17.8727 20.5 16 20.5C14.067 20.5 12.5 18.933 12.5 17C12.5 15.067 14.067 13.5 16 13.5C17.933 13.5 19.5 15.067 19.5 17L19.4951 17.1797Z" fill="#8A8A8A"/>
<path d="M16.4683 15.9639C16.6581 15.7271 17.0037 15.6886 17.2408 15.878C17.478 16.0678 17.5165 16.4142 17.3267 16.6514L16.0963 18.1895C15.934 18.3924 15.6563 18.4507 15.4303 18.3428L15.3365 18.2862L14.7213 17.8243C14.4785 17.6421 14.429 17.2977 14.6109 17.0548C14.7932 16.8118 15.1384 16.7622 15.3814 16.9444L15.5699 17.086L16.4683 15.9639Z" fill="#8A8A8A"/>
</svg>
