<svg width="40" height="40" viewBox="0 0 40 40" xmlns="http://www.w3.org/2000/svg">
    <defs>
        <linearGradient x1="50%" y1="0%" x2="50%" y2="100%" id="bsld6o405a">
            <stop stop-color="#5575AF" stop-opacity=".3" offset="0%"/>
            <stop stop-color="#2B4077" stop-opacity=".3" offset="100%"/>
        </linearGradient>
    </defs>
    <g fill="none" fill-rule="evenodd">
        <rect stroke="#445C9B" fill="url(#bsld6o405a)" x=".5" y=".5" width="39" height="39" rx="6"/>
        <g fill="#3FABF9" fill-rule="nonzero">
            <path d="M20.895 16.907a4.66 4.66 0 0 0-4.117 2.477 4.659 4.659 0 0 0-6.913-1.545v-3.926a.933.933 0 0 0-1.865 0v7.732h.002a4.66 4.66 0 0 0 8.776 2.107 4.66 4.66 0 1 0 4.117-6.845zm-8.234 7.457a2.795 2.795 0 1 1 0-5.591 2.795 2.795 0 0 1 0 5.59zm8.234 0a2.795 2.795 0 1 1 0-5.591 2.795 2.795 0 0 1 0 5.59z"/>
            <path d="m31.825 24.762-2.387-3.19 2.387-3.191a.933.933 0 0 0-1.49-1.12h-.001l-2.06 2.753-2.06-2.753a.932.932 0 0 0-1.491 1.12l2.386 3.19-2.387 3.19v.001a.932.932 0 0 0 1.491 1.12l2.06-2.754 2.06 2.754h.001a.933.933 0 0 0 1.49-1.12h.001z"/>
        </g>
    </g>
</svg>
