<svg width="40" height="40" viewBox="0 0 40 40" xmlns="http://www.w3.org/2000/svg">
    <g fill="none" fill-rule="evenodd">
        <rect stroke="#DEE3EA" fill="#FFF" x=".5" y=".5" width="39" height="39" rx="6"/>
        <path d="M16.605 9a1 1 0 0 0-1 1v.54a.576.576 0 0 1-.576.577h-1.46A4.558 4.558 0 0 0 9 15.685v.008c0 .506.41.916.915.916h20.169c.505 0 .915-.41.915-.916v-.008a4.558 4.558 0 0 0-4.568-4.568h-.46a.576.576 0 0 0-.577.576v.393a.5.5 0 1 1-1 0V10a1 1 0 1 0-2 0v.54a.576.576 0 0 1-.576.577H19.18a.576.576 0 0 0-.576.576v.393a.5.5 0 1 1-1 0V10a1 1 0 0 0-1-1h.001zm-5.842 9.608c-.973 0-1.763.79-1.763 1.763v6.06a4.558 4.558 0 0 0 4.569 4.568h12.863A4.558 4.558 0 0 0 31 26.431v-6.06c0-.973-.79-1.763-1.763-1.763H10.763zm2.129 2.882h1.114c.346 0 .625.278.625.624v1.115a.623.623 0 0 1-.625.624h-1.114a.624.624 0 0 1-.625-.624v-1.115c0-.345.279-.624.625-.624zm4.367 0h1.114c.346 0 .625.278.625.624v1.115a.623.623 0 0 1-.625.624H17.26a.624.624 0 0 1-.625-.624v-1.115c0-.345.279-.624.625-.624zm4.368 0h1.114c.346 0 .624.278.624.624v1.115a.623.623 0 0 1-.624.624h-1.114a.624.624 0 0 1-.625-.624v-1.115c0-.345.278-.624.625-.624zm4.367 0h1.114c.346 0 .625.278.625.624v1.115a.623.623 0 0 1-.625.624h-1.114a.623.623 0 0 1-.625-.624v-1.115c0-.345.279-.624.625-.624zm-13.102 3.895h1.114c.346 0 .625.28.625.625v1.114a.623.623 0 0 1-.625.625h-1.114a.624.624 0 0 1-.625-.625V26.01c0-.346.279-.625.625-.625zm4.367 0h1.114c.346 0 .625.28.625.625v1.114a.623.623 0 0 1-.625.625H17.26a.624.624 0 0 1-.625-.625V26.01c0-.346.279-.625.625-.625zm4.368 0h1.114c.346 0 .624.28.624.625v1.114a.623.623 0 0 1-.624.625h-1.114a.624.624 0 0 1-.625-.625V26.01c0-.346.278-.625.625-.625zm4.367 0h1.114c.346 0 .625.28.625.625v1.114a.623.623 0 0 1-.625.625h-1.114a.623.623 0 0 1-.625-.625V26.01c0-.346.279-.625.625-.625z" fill="#A97DFF" fill-rule="nonzero"/>
    </g>
</svg>
