<svg width="40" height="40" viewBox="0 0 40 40" xmlns="http://www.w3.org/2000/svg">
    <g fill="none" fill-rule="evenodd">
        <rect stroke="#DEE3EA" fill="#FFF" x=".5" y=".5" width="39" height="39" rx="6"/>
        <path d="M30.829 16H9.085c-1.213.086-2.166 1.126-2.08 2.339v3.898c-.086 1.213.867 2.34 2.08 2.426h21.744c1.212-.087 2.166-1.126 2.166-2.426V18.34c.086-1.213-.867-2.253-2.166-2.339zm-10.136 5.198h-9.096c-.52 0-.867-.347-.867-.867s.347-.866.867-.866h9.096c.52 0 .866.347.866.866 0 .52-.346.867-.866.867zm7.97 0h-.866v.866c0 .52-.347.867-.866.867-.52 0-.867-.347-.867-.867v-.866h-.866c-.52 0-.867-.347-.867-.867s.347-.866.867-.866h.866v-.866c0-.52.347-.867.867-.867s.866.347.866.867v.866h.866c.52 0 .867.347.867.866 0 .52-.347.867-.867.867z" fill="#EB9B74" fill-rule="nonzero"/>
    </g>
</svg>
