<svg width="40" height="40" viewBox="0 0 40 40" xmlns="http://www.w3.org/2000/svg">
    <defs>
        <linearGradient x1="50%" y1="0%" x2="50%" y2="100%" id="vu11abqy0a">
            <stop stop-color="#5575AF" stop-opacity=".3" offset="0%"/>
            <stop stop-color="#2B4077" stop-opacity=".3" offset="100%"/>
        </linearGradient>
    </defs>
    <g fill="none" fill-rule="evenodd">
        <rect stroke="#445C9B" fill="url(#vu11abqy0a)" x=".5" y=".5" width="39" height="39" rx="6"/>
        <g fill="#76CB89" fill-rule="nonzero">
            <path d="M31.08 12H8.947A1.934 1.934 0 0 0 7 13.946v11.735c0 1.084.862 1.946 1.946 1.946h22.107a1.934 1.934 0 0 0 1.946-1.946V13.946c.028-1.084-.862-1.946-1.918-1.946zm-4.92 7.814a6.147 6.147 0 0 1-6.146 6.145 6.147 6.147 0 0 1-6.146-6.145 6.147 6.147 0 0 1 6.146-6.146 6.147 6.147 0 0 1 6.145 6.146z"/>
            <path d="m18.568 21.482-.223-.306-.695.89.139.167a2.797 2.797 0 0 0 1.835 1.084v.862h.974v-.862c1.307-.222 1.78-1.195 1.78-2.03 0-1.362-1.03-1.807-1.78-2.057v-1.78c.306.111.584.306.806.584l.222.306.723-.862-.139-.195c-.389-.5-.945-.834-1.585-.945v-.89h-.973v.89c-1.029.167-1.724.918-1.724 1.919 0 1.251.945 1.64 1.724 1.89v2.058c-.556-.139-.918-.5-1.084-.723zm2.03-1c.5.222.667.444.667.833a.91.91 0 0 1-.667.89v-1.724zm-1.613-2.253c0-.39.25-.668.64-.807v1.474c-.473-.167-.64-.361-.64-.667z"/>
        </g>
    </g>
</svg>
