<svg width="40" height="40" viewBox="0 0 40 40" xmlns="http://www.w3.org/2000/svg">
    <defs>
        <linearGradient x1="50%" y1="0%" x2="50%" y2="100%" id="apimvdbaha">
            <stop stop-color="#5575AF" stop-opacity=".3" offset="0%"/>
            <stop stop-color="#2B4077" stop-opacity=".3" offset="100%"/>
        </linearGradient>
    </defs>
    <g fill="none" fill-rule="evenodd">
        <rect stroke="#445C9B" fill="url(#apimvdbaha)" x=".5" y=".5" width="39" height="39" rx="6"/>
        <path d="m30.405 31.11-2.339-8.632a.685.685 0 0 0-.668-.501h-4.232c1.42-2.84 2.84-6.125 2.84-7.907 0-3.592-2.729-6.07-6.07-6.07h-.445c-3.341 0-6.07 2.478-6.07 6.07 0 1.782 1.42 5.095 2.84 7.907H12.03a.72.72 0 0 0-.668.5L9.02 31.11a.773.773 0 0 0 .112.612c.14.168.334.279.557.279h20.046a.726.726 0 0 0 .557-.279c.14-.167.168-.39.112-.612zM19.714 11.257a2.923 2.923 0 1 1 0 5.846 2.923 2.923 0 0 1 0-5.846zm7.155 12.111 1.225 4.483H26.48l-1.503-4.483h1.893zm-14.31 0h1.781l.891 2.812h-3.425l.752-2.812zm-1.95 7.239.808-3.035h4.26l.974 3.035h-6.042zm5.179-7.239h1.197c.724 1.364 1.364 2.534 1.754 3.174.195.334.557.557.975.557h.055c.39 0 .752-.223.975-.557.362-.64 1.03-1.81 1.754-3.174h1.058l1.448 4.483h-7.768l-1.448-4.483zm2.339 7.239-.446-1.364h3.87l.418 1.364h-3.842zm5.29 0-.39-1.364h5.457l.362 1.364h-5.43z" fill="#93B254" fill-rule="nonzero"/>
    </g>
</svg>
