<svg width="40" height="40" viewBox="0 0 40 40" xmlns="http://www.w3.org/2000/svg">
    <defs>
        <linearGradient x1="50%" y1="0%" x2="50%" y2="100%" id="sx9smnym1a">
            <stop stop-color="#5575AF" stop-opacity=".3" offset="0%"/>
            <stop stop-color="#2B4077" stop-opacity=".3" offset="100%"/>
        </linearGradient>
    </defs>
    <g fill="none" fill-rule="evenodd">
        <rect stroke="#445C9B" fill="url(#sx9smnym1a)" x=".5" y=".5" width="39" height="39" rx="6"/>
        <g fill-rule="nonzero">
            <path d="M30 11H10a2 2 0 0 0-2 2v1.13h24V13a2 2 0 0 0-2-2zM9.565 12.043a.522.522 0 1 1 0 1.045.522.522 0 0 1 0-1.045zm2.087 0a.522.522 0 1 1 0 1.045.522.522 0 0 1 0-1.045zm2.087 0a.522.522 0 1 1 0 1.045.522.522 0 0 1 0-1.045zM32 14.652H8v12.609a2 2 0 0 0 2 2h20a2 2 0 0 0 2-2V14.652zm-5.478 3.13a.783.783 0 1 1 0 1.566.783.783 0 0 1 0-1.565z" fill="#F28686"/>
            <path d="M24.715 18.304H13.217v7.826h13.566v-5.758a1.827 1.827 0 0 1-2.068-2.068z" fill="#FFF"/>
            <g fill="#F28686">
                <path d="M22.144 21.152a.375.375 0 0 1-.075.468l-.062.044-4.64 2.679a.375.375 0 0 1-.436-.606l.062-.044 4.64-2.678a.375.375 0 0 1 .511.137z"/>
                <path d="M21.917 20.977a.375.375 0 0 1 .278.374l-.013.085-.915 3.415a.375.375 0 0 1-.737-.108l.012-.086.818-3.052-3.052-.819a.375.375 0 0 1-.278-.373l.012-.086a.375.375 0 0 1 .374-.278l.086.013 3.415.915z"/>
            </g>
        </g>
    </g>
</svg>
