<svg width="40" height="40" viewBox="0 0 40 40" xmlns="http://www.w3.org/2000/svg">
    <defs>
        <linearGradient x1="50%" y1="0%" x2="50%" y2="100%" id="g08niv0jca">
            <stop stop-color="#5575AF" stop-opacity=".3" offset="0%"/>
            <stop stop-color="#2B4077" stop-opacity=".3" offset="100%"/>
        </linearGradient>
    </defs>
    <g fill="none" fill-rule="evenodd">
        <rect stroke="#445C9B" fill="url(#g08niv0jca)" x=".5" y=".5" width="39" height="39" rx="6"/>
        <path d="M30.255 9.745A2.5 2.5 0 0 0 28.468 9h-7.002c-.805.03-1.55.357-2.116.924l-9.265 9.266c-1.4 1.43-1.46 3.664-.09 5.035l5.81 5.81c.655.655 1.55.983 2.413.983a3.68 3.68 0 0 0 2.592-1.073l9.266-9.266A3.15 3.15 0 0 0 31 18.534v-7.002a2.5 2.5 0 0 0-.745-1.787zM26.83 17.61c-.596.626-1.4.924-2.205.924a3.02 3.02 0 0 1-2.205-.924c-1.221-1.191-1.221-3.188 0-4.409 1.192-1.222 3.188-1.222 4.41 0 1.222 1.192 1.222 3.188 0 4.41z" fill="#EB9B74" fill-rule="nonzero"/>
    </g>
</svg>
