<svg width="40" height="40" viewBox="0 0 40 40" xmlns="http://www.w3.org/2000/svg">
    <g fill="none" fill-rule="evenodd">
        <rect stroke="#DEE3EA" fill="#FFF" x=".5" y=".5" width="39" height="39" rx="6"/>
        <g fill-rule="nonzero">
            <path d="M9 10.576C9 9.706 9.728 9 10.626 9h18.748C30.272 9 31 9.706 31 10.576v18.848c0 .87-.728 1.576-1.626 1.576H10.626C9.728 31 9 30.295 9 29.425v-18.85z" fill="#168ECA"/>
            <path d="M15.686 27.411v-9.904h-3.293v9.904h3.293zM14.04 16.155c1.148 0 1.863-.761 1.863-1.711-.022-.973-.715-1.712-1.84-1.712-1.128 0-1.864.74-1.864 1.711 0 .95.715 1.711 1.82 1.711h.021zm3.468 11.256H20.8v-5.53c0-.296.021-.592.108-.804.238-.591.78-1.204 1.69-1.204 1.19 0 1.667.908 1.667 2.24v5.298h3.292v-5.679c0-3.042-1.624-4.458-3.79-4.458-1.776 0-2.556.993-2.989 1.669h.022v-1.436h-3.292c.043.93 0 9.904 0 9.904z" fill="#FFF"/>
        </g>
    </g>
</svg>
