<svg width="40" height="40" viewBox="0 0 40 40" xmlns="http://www.w3.org/2000/svg">
    <defs>
        <linearGradient x1="50%" y1="0%" x2="50%" y2="100%" id="imzxqc6z9a">
            <stop stop-color="#5575AF" stop-opacity=".3" offset="0%"/>
            <stop stop-color="#2B4077" stop-opacity=".3" offset="100%"/>
        </linearGradient>
    </defs>
    <g fill="none" fill-rule="evenodd">
        <rect stroke="#445C9B" fill="url(#imzxqc6z9a)" x=".5" y=".5" width="39" height="39" rx="6"/>
        <g fill="#7D89FF" fill-rule="nonzero">
            <path d="M16.084 14.275h14.249c.934 0 1.667-.758 1.667-1.667 0-.91-.758-1.668-1.667-1.668H16.084c-.934 0-1.667.758-1.667 1.668 0 .91.733 1.667 1.667 1.667zM30.333 17.913H16.084c-.934 0-1.667.758-1.667 1.667 0 .91.758 1.668 1.667 1.668h14.249c.934 0 1.667-.758 1.667-1.668 0-.909-.758-1.667-1.667-1.667zM30.333 24.886H16.084c-.934 0-1.667.758-1.667 1.667 0 .935.758 1.668 1.667 1.668h14.249c.934 0 1.667-.758 1.667-1.668 0-.91-.758-1.667-1.667-1.667zM12.345 11.9l-3.158-1.793A.791.791 0 0 0 8 10.789v3.587c0 .607.657 1.01 1.187.682l3.133-1.793c.556-.278.556-1.061.025-1.365zM12.345 18.898 9.187 17.08A.791.791 0 0 0 8 17.762v3.587c0 .606.657 1.01 1.187.682l3.133-1.794c.556-.278.556-1.035.025-1.339zM12.345 25.87l-3.158-1.793A.791.791 0 0 0 8 24.76v3.588c0 .606.657 1.01 1.187.682l3.133-1.794c.556-.278.556-1.061.025-1.364z"/>
        </g>
    </g>
</svg>
