<svg width="40" height="40" viewBox="0 0 40 40" xmlns="http://www.w3.org/2000/svg">
    <defs>
        <linearGradient x1="50%" y1="0%" x2="50%" y2="100%" id="37qt2obtta">
            <stop stop-color="#5575AF" stop-opacity=".3" offset="0%"/>
            <stop stop-color="#2B4077" stop-opacity=".3" offset="100%"/>
        </linearGradient>
    </defs>
    <g fill="none" fill-rule="evenodd">
        <rect stroke="#445C9B" fill="url(#37qt2obtta)" x=".5" y=".5" width="39" height="39" rx="6"/>
        <g fill-rule="nonzero">
            <path d="M27.736 10H12.264A3.269 3.269 0 0 0 9 13.264v8.703a3.27 3.27 0 0 0 2.901 3.244v3.525c0 .3.382.474.604.27l4.197-3.775h11.034A3.269 3.269 0 0 0 31 21.967v-8.703A3.269 3.269 0 0 0 27.736 10z" fill="#F2A868"/>
            <path d="M25.802 15.352H14.198c-.198 0-.363-.227-.363-.5 0-.274.165-.5.363-.5h11.604c.198 0 .363.226.363.5 0 .273-.165.5-.363.5zM25.802 18.352H14.198c-.198 0-.363-.227-.363-.5 0-.274.165-.5.363-.5h11.604c.198 0 .363.226.363.5 0 .273-.165.5-.363.5zM25.802 21.352H14.198c-.198 0-.363-.227-.363-.5 0-.274.165-.5.363-.5h11.604c.198 0 .363.226.363.5 0 .273-.165.5-.363.5z" fill="#FFF"/>
        </g>
    </g>
</svg>
