<svg width="40" height="40" viewBox="0 0 40 40" xmlns="http://www.w3.org/2000/svg">
    <defs>
        <linearGradient x1="50%" y1="0%" x2="50%" y2="100%" id="tkhk04jm6a">
            <stop stop-color="#5575AF" stop-opacity=".3" offset="0%"/>
            <stop stop-color="#2B4077" stop-opacity=".3" offset="100%"/>
        </linearGradient>
    </defs>
    <g fill="none" fill-rule="evenodd">
        <rect stroke="#445C9B" fill="url(#tkhk04jm6a)" x=".5" y=".5" width="39" height="39" rx="6"/>
        <path d="M10.63 14.26h18.74a1.63 1.63 0 0 0 .001-3.26H10.63a1.63 1.63 0 1 0 0 3.26zm18.74 4.073H10.63a1.63 1.63 0 0 0 0 3.26h18.74a1.63 1.63 0 0 0 0-3.26zm0 7.333H10.63a1.63 1.63 0 0 0 0 3.26h18.74a1.63 1.63 0 0 0 0-3.26z" fill="#93B254" fill-rule="nonzero"/>
    </g>
</svg>
