<svg width="40" height="40" viewBox="0 0 40 40" xmlns="http://www.w3.org/2000/svg">
    <defs>
        <linearGradient x1="50%" y1="0%" x2="50%" y2="100%" id="artl0qb85a">
            <stop stop-color="#5575AF" stop-opacity=".3" offset="0%"/>
            <stop stop-color="#2B4077" stop-opacity=".3" offset="100%"/>
        </linearGradient>
    </defs>
    <g fill="none" fill-rule="evenodd">
        <rect stroke="#445C9B" fill="url(#artl0qb85a)" x=".5" y=".5" width="39" height="39" rx="6"/>
        <g fill="#7D89FF" fill-rule="nonzero">
            <path d="M30.98 13.404c-.01-1.719-.72-2.394-2.428-2.397-5.704-.009-11.409-.01-17.113 0-1.702.004-2.41.683-2.42 2.406-.026 4.262-.023 8.526-.004 12.788.007 1.58.747 2.28 2.334 2.286 2.852.008 5.704.002 8.556.002 2.884 0 5.768.004 8.652-.002 1.694-.003 2.411-.668 2.422-2.388.028-4.231.027-8.464.001-12.694zm-2.64 13.631c-2.79-.042-5.58-.015-8.37-.015v-.007c-2.76 0-5.518-.025-8.277.014-.862.012-1.234-.22-1.225-1.159.038-4.075.035-8.15-.004-12.226-.008-.906.306-1.193 1.199-1.188 5.549.03 11.098.012 16.647.016 1.152 0 1.208.06 1.209 1.238.004 4.045-.019 8.089.017 12.133.007.9-.297 1.207-1.196 1.194z"/>
            <path d="M27.432 19.943c-1.15-1.155-2.324-2.286-3.445-3.468-.5-.528-.849-.56-1.37-.016-1.233 1.291-2.525 2.527-3.79 3.79-1.32 1.317-1.32 1.322-2.68.074-.29-.266-.555-.55-.946-.157-.972.977-1.98 1.923-2.907 2.941-.536.59-.406 1.392-.192 2.06.177.556.815.326 1.256.33 2.193.02 4.387.009 6.58.009V25.5c2.35 0 4.7.005 7.051-.005.388-.002.945.1.965-.475.05-1.438.025-2.88 0-4.32-.005-.328-.301-.537-.522-.757zM14.104 18.226c1.16.007 2.189-.997 2.194-2.142.005-1.129-.946-2.075-2.102-2.09-1.221-.017-2.153.883-2.182 2.107-.025 1.083.993 2.118 2.09 2.125z"/>
        </g>
    </g>
</svg>
