<svg width="40" height="40" viewBox="0 0 40 40" xmlns="http://www.w3.org/2000/svg">
    <g fill="none" fill-rule="evenodd">
        <rect stroke="#DEE3EA" fill="#FFF" x=".5" y=".5" width="39" height="39" rx="6"/>
        <path d="M32 22.182a9.818 9.818 0 1 1-19.636 0 1.09 1.09 0 0 1 1.09-1.091h7.637v-7.636a1.091 1.091 0 0 1 1.09-1.091A9.818 9.818 0 0 1 32 22.182zm-13.09-4.364V9.091A1.09 1.09 0 0 0 17.817 8 9.818 9.818 0 0 0 8 17.818a1.09 1.09 0 0 0 1.091 1.091h8.727a1.09 1.09 0 0 0 1.091-1.09v-.001z" fill="#93B254" fill-rule="nonzero"/>
    </g>
</svg>
