<svg width="40" height="40" viewBox="0 0 40 40" xmlns="http://www.w3.org/2000/svg">
    <g fill="none" fill-rule="evenodd">
        <rect stroke="#DEE3EA" fill="#FFF" x=".5" y=".5" width="39" height="39" rx="6"/>
        <path d="M24.815 17.217H14.272a1.055 1.055 0 0 0 0 2.109h10.543a1.055 1.055 0 0 0 0-2.109zm0-4.217h-14.76a1.055 1.055 0 0 0 0 2.108h14.76a1.055 1.055 0 0 0 0-2.108zm0 8.435H14.272a1.055 1.055 0 0 0 0 2.108h10.543a1.055 1.055 0 0 0 0-2.108zm0 4.217h-14.76a1.055 1.055 0 0 0 0 2.109h14.76a1.055 1.055 0 0 0 0-2.109zm6.074-5.595-2.495-3.208a.527.527 0 0 0-.943.323v6.417c0 .502.635.72.943.323l2.495-3.207a.528.528 0 0 0 0-.648z" fill="#F28686" fill-rule="nonzero"/>
    </g>
</svg>
