<svg width="40" height="40" viewBox="0 0 40 40" xmlns="http://www.w3.org/2000/svg">
    <defs>
        <linearGradient x1="50%" y1="0%" x2="50%" y2="100%" id="bq9aqrbr0a">
            <stop stop-color="#5575AF" stop-opacity=".3" offset="0%"/>
            <stop stop-color="#2B4077" stop-opacity=".3" offset="100%"/>
        </linearGradient>
    </defs>
    <g fill="none" fill-rule="evenodd">
        <rect stroke="#445C9B" fill="url(#bq9aqrbr0a)" x=".5" y=".5" width="39" height="39" rx="6"/>
        <path d="M26.903 24.665a9.915 9.915 0 0 0 1.86-5.768c0-5.453-4.445-9.897-9.898-9.897C13.413 9 9 13.444 9 18.897s4.444 9.897 9.897 9.897c2.143 0 4.16-.694 5.768-1.86l3.593 3.593c.315.316.725.473 1.103.473s.82-.158 1.103-.473a1.56 1.56 0 0 0 0-2.238l-3.561-3.624zm-14.751-5.768a6.753 6.753 0 0 1 6.745-6.745 6.753 6.753 0 0 1 6.745 6.745 6.753 6.753 0 0 1-6.745 6.745c-3.72-.032-6.745-3.057-6.745-6.745z" fill="#76CB89" fill-rule="nonzero"/>
    </g>
</svg>
