<svg width="40" height="40" viewBox="0 0 40 40" xmlns="http://www.w3.org/2000/svg">
    <defs>
        <linearGradient x1="50%" y1="0%" x2="50%" y2="100%" id="x82xp78e3a">
            <stop stop-color="#5575AF" stop-opacity=".3" offset="0%"/>
            <stop stop-color="#2B4077" stop-opacity=".3" offset="100%"/>
        </linearGradient>
    </defs>
    <g fill="none" fill-rule="evenodd">
        <rect stroke="#445C9B" fill="url(#x82xp78e3a)" x=".5" y=".5" width="39" height="39" rx="6"/>
        <g fill="#93B254" fill-rule="nonzero">
            <path d="M20.53 19.691a.53.53 0 1 1-1.06 0v-3.887a.53.53 0 1 1 1.06 0v3.887z"/>
            <path d="M27.643 19.691a.53.53 0 0 1-.53.53H12.886a.53.53 0 1 1 0-1.06h14.226a.53.53 0 0 1 .53.53z"/>
            <path d="M13.418 23.578a.53.53 0 1 1-1.06 0v-3.887a.53.53 0 1 1 1.06 0v3.887zM27.643 23.578a.53.53 0 1 1-1.06 0v-3.887a.53.53 0 1 1 1.06 0v3.887zM21.767 9h-3.534c-1.17 0-2.12.952-2.12 2.12v3.093c0 1.169.951 2.12 2.12 2.12h3.534c1.17 0 2.12-.951 2.12-2.12V11.12c0-1.168-.95-2.12-2.12-2.12z"/>
            <path d="M14.654 23.214H11.12c-1.168 0-2.12.951-2.12 2.12v3.093c0 1.17.952 2.12 2.12 2.12h3.534c1.17 0 2.12-.95 2.12-2.12v-3.092c0-1.17-.95-2.12-2.12-2.12zM28.88 23.214h-3.534c-1.17 0-2.12.952-2.12 2.12v3.092c0 1.17.95 2.12 2.12 2.12h3.534c1.17 0 2.12-.95 2.12-2.12v-3.092c0-1.169-.95-2.12-2.12-2.12z"/>
        </g>
    </g>
</svg>
