<svg width="28" height="28" viewBox="0 0 28 28" fill="none" xmlns="http://www.w3.org/2000/svg">
<path opacity="0.2" d="M13.9998 14C19.3155 14 23.6248 11.6495 23.6248 8.75C23.6248 5.85051 19.3155 3.5 13.9998 3.5C8.68402 3.5 4.37476 5.85051 4.37476 8.75C4.37476 11.6495 8.68402 14 13.9998 14Z" fill="#0B63E5"/>
<path d="M13.9998 14C19.3155 14 23.6248 11.6495 23.6248 8.75C23.6248 5.85051 19.3155 3.5 13.9998 3.5C8.68402 3.5 4.37476 5.85051 4.37476 8.75C4.37476 11.6495 8.68402 14 13.9998 14Z" stroke="#0B63E5" stroke-width="1.75" stroke-linecap="round" stroke-linejoin="round"/>
<path d="M4.37476 8.75V14C4.37476 16.8995 8.68402 19.25 13.9998 19.25C19.3155 19.25 23.6248 16.8995 23.6248 14V8.75" stroke="#0B63E5" stroke-width="1.75" stroke-linecap="round" stroke-linejoin="round"/>
<path d="M4.37476 14V19.25C4.37476 22.1495 8.68402 24.5 13.9998 24.5C19.3155 24.5 23.6248 22.1495 23.6248 19.25V14" stroke="#0B63E5" stroke-width="1.75" stroke-linecap="round" stroke-linejoin="round"/>
</svg>
