<svg width="28" height="28" viewBox="0 0 28 28" fill="none" xmlns="http://www.w3.org/2000/svg">
<path opacity="0.2" d="M8.41522 17.857C7.39812 17.0626 6.57432 16.048 6.00573 14.8895C5.43715 13.7309 5.13858 12.4585 5.13246 11.168C5.10683 6.53161 8.84465 2.67749 13.4798 2.5684C15.276 2.52515 17.0401 3.04855 18.5221 4.06435C20.004 5.08016 21.1285 6.53679 21.736 8.22763C22.3435 9.91847 22.4032 11.7577 21.9066 13.4843C21.41 15.211 20.3823 16.7375 18.9694 17.8472C18.6581 18.0884 18.4058 18.3971 18.2315 18.7501C18.0571 19.103 17.9653 19.491 17.963 19.8847L17.963 20.5288C17.963 20.7557 17.8728 20.9733 17.7124 21.1337C17.552 21.2941 17.3344 21.3842 17.1076 21.3842H10.2646C10.0377 21.3842 9.82013 21.2941 9.65972 21.1337C9.4993 20.9733 9.40918 20.7557 9.40918 20.5288L9.40917 19.884C9.4082 19.4928 9.31819 19.1071 9.14598 18.7559C8.97377 18.4047 8.72387 18.0973 8.41522 17.857V17.857Z" fill="#0B63E5"/>
<path d="M9.40918 24.8057H17.9629" stroke="#0B63E5" stroke-width="1.90083" stroke-linecap="round" stroke-linejoin="round"/>
<path d="M13.686 21.3846V15.397" stroke="#0B63E5" stroke-width="1.90083" stroke-linecap="round" stroke-linejoin="round"/>
<path d="M10.2644 11.9751L13.6859 15.3966L17.1074 11.9751" stroke="#0B63E5" stroke-width="1.90083" stroke-linecap="round" stroke-linejoin="round"/>
<path d="M8.41522 17.857C7.39812 17.0626 6.57432 16.048 6.00573 14.8895C5.43715 13.7309 5.13858 12.4585 5.13246 11.168C5.10683 6.53161 8.84465 2.67749 13.4798 2.5684C15.276 2.52515 17.0401 3.04855 18.5221 4.06435C20.004 5.08016 21.1285 6.53679 21.736 8.22763C22.3435 9.91847 22.4032 11.7577 21.9066 13.4843C21.41 15.211 20.3823 16.7375 18.9694 17.8472C18.6581 18.0884 18.4058 18.3971 18.2315 18.7501C18.0571 19.103 17.9653 19.491 17.963 19.8847L17.963 20.5288C17.963 20.7557 17.8728 20.9733 17.7124 21.1337C17.552 21.2941 17.3344 21.3842 17.1076 21.3842H10.2646C10.0377 21.3842 9.82013 21.2941 9.65972 21.1337C9.4993 20.9733 9.40918 20.7557 9.40918 20.5288L9.40917 19.884C9.4082 19.4928 9.31819 19.1071 9.14598 18.7559C8.97377 18.4047 8.72387 18.0973 8.41522 17.857V17.857Z" stroke="#0B63E5" stroke-width="1.90083" stroke-linecap="round" stroke-linejoin="round"/>
</svg>
