<svg width="28" height="28" viewBox="0 0 28 28" fill="none" xmlns="http://www.w3.org/2000/svg">
<path opacity="0.2" d="M3.62092 8.16113C3.54157 8.29573 3.49973 8.44914 3.49976 8.60539V19.3944C3.49976 19.5497 3.54107 19.7021 3.61945 19.8361C3.69783 19.9702 3.81046 20.0809 3.94578 20.157L13.5708 25.5711C13.7017 25.6448 13.8495 25.6835 13.9998 25.6835L14.0009 25.6835L14.1036 13.9999L3.62094 8.16115L3.62092 8.16113Z" fill="#0B63E5"/>
<path d="M24.4998 19.3945V8.60547C24.4998 8.45021 24.4584 8.29775 24.3801 8.16373C24.3017 8.02971 24.1891 7.91896 24.0537 7.84284L14.4287 2.42878C14.2978 2.35511 14.15 2.31641 13.9998 2.31641C13.8495 2.31641 13.7017 2.35511 13.5708 2.42878L3.94578 7.84284C3.81046 7.91896 3.69783 8.02971 3.61945 8.16373C3.54107 8.29775 3.49976 8.45021 3.49976 8.60547V19.3945C3.49976 19.5497 3.54107 19.7022 3.61945 19.8362C3.69783 19.9702 3.81046 20.081 3.94578 20.1571L13.5708 25.5712C13.7017 25.6448 13.8495 25.6835 13.9998 25.6835C14.15 25.6835 14.2978 25.6448 14.4287 25.5712L24.0537 20.1571C24.1891 20.081 24.3017 19.9702 24.3801 19.8362C24.4584 19.7022 24.4998 19.5497 24.4998 19.3945Z" stroke="#0B63E5" stroke-width="1.75" stroke-linecap="round" stroke-linejoin="round"/>
<path d="M19.3615 16.6809V10.9934L8.74976 5.14062" stroke="#0B63E5" stroke-width="1.75" stroke-linecap="round" stroke-linejoin="round"/>
<path d="M24.379 8.16223L14.1035 13.9999L3.62085 8.16113" stroke="#0B63E5" stroke-width="1.75" stroke-linecap="round" stroke-linejoin="round"/>
<path d="M14.1037 14L14.001 25.6836" stroke="#0B63E5" stroke-width="1.75" stroke-linecap="round" stroke-linejoin="round"/>
</svg>
