<svg width="28" height="28" viewBox="0 0 28 28" fill="none" xmlns="http://www.w3.org/2000/svg">
<path opacity="0.2" d="M23.1206 13.9382L20.1252 7.87549H7.87524L4.87981 13.9382C4.80874 14.0821 4.7786 14.2427 4.79268 14.4026C4.80676 14.5624 4.86453 14.7153 4.95966 14.8446L14.0002 27.1255L23.0408 14.8445C23.1359 14.7153 23.1937 14.5624 23.2078 14.4025C23.2218 14.2427 23.1917 14.082 23.1206 13.9382ZM14.0002 16.6255C13.5676 16.6255 13.1447 16.4972 12.7849 16.2568C12.4252 16.0165 12.1448 15.6748 11.9792 15.2751C11.8137 14.8754 11.7704 14.4356 11.8548 14.0112C11.9392 13.5869 12.1475 13.1971 12.4534 12.8912C12.7594 12.5853 13.1491 12.3769 13.5735 12.2925C13.9978 12.2081 14.4376 12.2514 14.8374 12.417C15.2371 12.5826 15.5787 12.8629 15.8191 13.2227C16.0594 13.5824 16.1877 14.0053 16.1877 14.438C16.1877 14.7253 16.1312 15.0097 16.0212 15.2751C15.9113 15.5405 15.7502 15.7817 15.547 15.9848C15.3439 16.1879 15.1028 16.3491 14.8374 16.459C14.572 16.5689 14.2875 16.6255 14.0002 16.6255Z" fill="#0B63E5"/>
<path d="M14.0005 16.6255L14.0005 27.1255" stroke="#0B63E5" stroke-width="1.75" stroke-linecap="round" stroke-linejoin="round"/>
<path d="M14.0002 16.6255C15.2084 16.6255 16.1877 15.6461 16.1877 14.438C16.1877 13.2299 15.2084 12.2505 14.0002 12.2505C12.7921 12.2505 11.8127 13.2299 11.8127 14.438C11.8127 15.6461 12.7921 16.6255 14.0002 16.6255Z" stroke="#0B63E5" stroke-width="1.75" stroke-linecap="round" stroke-linejoin="round"/>
<path d="M7.87524 7.87549V3.50049C7.87524 3.26842 7.96743 3.04586 8.13153 2.88177C8.29562 2.71768 8.51818 2.62549 8.75024 2.62549H19.2502C19.4823 2.62549 19.7049 2.71768 19.869 2.88177C20.0331 3.04586 20.1252 3.26842 20.1252 3.50049V7.87549" stroke="#0B63E5" stroke-width="1.75" stroke-linecap="round" stroke-linejoin="round"/>
<path d="M7.87524 7.87549L4.87983 13.9382C4.80875 14.0821 4.7786 14.2427 4.79268 14.4026C4.80676 14.5624 4.86452 14.7153 4.95965 14.8445L14.0002 27.1255L23.0408 14.8445C23.1359 14.7153 23.1937 14.5624 23.2078 14.4025C23.2218 14.2427 23.1917 14.082 23.1206 13.9382L20.1252 7.87549H7.87524Z" stroke="#0B63E5" stroke-width="1.75" stroke-linecap="round" stroke-linejoin="round"/>
</svg>
