<svg width="32" height="33" viewBox="0 0 32 33" fill="none" xmlns="http://www.w3.org/2000/svg">
<path d="M24.9684 10.9501L25.0061 10.9876C25.0944 11.082 25.2178 11.1364 25.3475 11.1383C26.0709 11.1545 26.7903 11.2494 27.4928 11.4212C28.4777 11.6346 29.4335 11.9634 30.3401 12.4008C30.748 12.6346 31.2611 12.5815 31.6116 12.2692C31.9745 11.9977 32.1005 11.5134 31.9152 11.1015C30.096 5.65376 25.5 1.57342 19.8425 0.383311C15.8397 -0.507205 11.645 0.16737 8.13039 2.26681C2.79606 5.35268 -0.336234 11.1533 0.0287554 17.27C0.393744 23.3867 4.19399 28.78 9.85802 31.2195C9.61142 31.0689 9.3078 30.8616 8.92792 30.5787C3.38194 26.3387 2.33776 18.4453 6.59306 12.9284C7.28875 12.0308 8.099 11.2268 9.00347 10.5364C10.1 9.70648 11.3243 9.05758 12.6291 8.61469C13.9459 8.18074 15.3226 7.95193 16.7101 7.9364C17.5965 7.94241 18.48 8.03719 19.3472 8.21932C21.4268 8.63341 23.3632 9.57414 24.9684 10.9501Z" fill="#45AAF4"/>
<path d="M10.214 28.4659C11.1091 30.3346 12.7386 31.7494 14.7151 32.374C15.7149 32.71 16.7726 32.8398 17.824 32.7555C15.6367 31.085 14.9557 28.0913 16.2054 25.64C17.4552 23.1886 20.2788 21.9796 22.9166 22.7664C23.3036 22.9096 23.7383 22.7675 23.9658 22.4235C24.232 22.1136 24.2703 21.6685 24.0611 21.3177C22.951 19.2115 20.9312 17.7345 18.5867 17.3145C16.7352 16.9454 14.8126 17.2928 13.2076 18.2865C9.66098 20.3449 8.34585 24.8169 10.214 28.4659Z" fill="#097FD5"/>
<path d="M20.7766 17.2059C22.143 16.8049 23.5883 16.7527 24.9801 17.0541C25.5461 17.1833 26.0997 17.3613 26.6348 17.586C27.0151 17.7862 27.4825 17.7087 27.7775 17.3963C28.0949 17.0914 28.1863 16.6203 28.006 16.2191C27.2762 14.3779 26.0998 12.7466 24.5823 11.4717C23.0657 10.1874 21.2568 9.294 19.314 8.8698C16.2722 8.18892 13.084 8.74215 10.4507 10.4078C6.50211 12.8213 4.28431 17.2773 4.74225 21.8771C5.20018 26.477 8.25313 30.4099 12.6003 32.0001C12.3889 31.8599 12.1858 31.7078 11.9918 31.5445C10.2435 30.1679 9.11459 28.1542 8.85367 25.9464C8.59276 23.7387 9.22119 21.5179 10.6006 19.7729C11.0857 19.1502 11.6638 18.6058 12.3146 18.1586C13.7383 17.1206 15.4588 16.5678 17.2216 16.582C17.7321 16.573 18.2422 16.6175 18.7434 16.7147C19.3189 16.8298 19.8847 16.9885 20.436 17.1895C20.5424 17.2418 20.6657 17.2478 20.7766 17.2059Z" fill="#1794EF"/>
</svg>
