<svg id="Layer_21_copy" data-name="Layer 21 copy" xmlns="http://www.w3.org/2000/svg" viewBox="0 0 373 167"><defs><style>.cls-1,.cls-2{fill:#52c299;}.cls-17,.cls-2,.cls-4,.cls-8{fill-rule:evenodd;}.cls-3,.cls-4{fill:#fff;}.cls-5{fill:#360d60;}.cls-6{fill:#53cef4;}.cls-7{fill:#1a79d5;}.cls-15,.cls-8{fill:#3a1078;}.cls-8{opacity:0.3;}.cls-9{fill:#553a9c;}.cls-10{fill:#8777e1;}.cls-11{fill:#92cdda;}.cls-12,.cls-14{fill:#2441ba;}.cls-13{fill:#b5b5b5;stroke:#ececd2;opacity:0.66;}.cls-13,.cls-16,.cls-17{stroke-linecap:round;stroke-linejoin:round;}.cls-14,.cls-18{stroke:#fff;stroke-miterlimit:10;}.cls-14{stroke-width:0.75px;}.cls-15,.cls-16{opacity:0.73;}.cls-16,.cls-17,.cls-18{fill:none;}.cls-16{stroke:#3a1078;stroke-width:3px;}.cls-17{stroke:#75268d;stroke-width:0.99px;}</style></defs><title>Learning page illustrations_v001</title><rect class="cls-1" x="252.51" y="104.7" width="113.1" height="47.51" transform="translate(-9.83 26.83) rotate(-4.89)"/><path class="cls-2" d="M46.85,140a8.44,8.44,0,0,0-7.51-15l-.07-.14A10.06,10.06,0,0,0,22,135.15a.22.22,0,0,0,.05.08,8.45,8.45,0,0,0,9.61,13.84l14.88-8.83h0l.35-.21Z"/><path class="cls-3" d="M32.19,142.49l7.68-4.4-7.59-4.37Z"/><path class="cls-4" d="M34.41,139.93l2.43-1.44L40.12,144l-2.42,1.44Z"/><rect class="cls-5" x="131.01" y="34.15" width="93.95" height="190.94" rx="11.76" transform="translate(-14.54 22.78) rotate(-7.04)"/><rect class="cls-6" x="123.27" y="28.11" width="93.95" height="190.94" rx="11.76" transform="translate(-13.86 21.79) rotate(-7.04)"/><rect class="cls-3" x="123.08" y="45.42" width="82.49" height="56.62" transform="translate(-7.8 20.69) rotate(-7.04)"/><rect class="cls-7" x="134.46" y="109.97" width="82.49" height="91.95" transform="translate(-17.78 22.7) rotate(-7.04)"/><path class="cls-8" d="M145.11,144.35l60.44-8.12,1.1,8.24-60.43,8.12Z"/><path class="cls-8" d="M147,158.37l60.43-8.12,1.11,8.23L148.1,166.6Z"/><path class="cls-8" d="M148.77,171.56l60.43-8.12,1.11,8.23-60.43,8.12Z"/><path class="cls-9" d="M90.32,90.07,79.75,103.83c-.49.63-.69.45-1,.24s-.53-.34,0-1L89.31,89.33c.48-.63.69-.45,1-.24S90.8,89.43,90.32,90.07Z"/><path class="cls-9" d="M95.68,93.86,85.11,107.62c-.49.63-.69.45-1,.25s-.53-.35,0-1L94.67,93.13c.48-.63.69-.45,1-.25S96.16,93.23,95.68,93.86Z"/><path class="cls-9" d="M101.14,98.1,90.57,111.86c-.49.63-.69.45-1,.25s-.53-.35,0-1l10.57-13.76c.48-.63.69-.45,1-.25S101.62,97.47,101.14,98.1Z"/><path class="cls-10" d="M298.62,13.31a145.06,145.06,0,0,1,24.76,40.35q2.78,6.87,4.87,14a.75.75,0,0,0,1.45-.4,147.81,147.81,0,0,0-22.07-45q-3.76-5.17-7.95-10c-.63-.73-1.69.34-1.06,1.06Z"/><path class="cls-11" d="M237.44,13.23l-9.05-.59-1,8.93a.6.6,0,0,1-.2.47c-.17.15-.43.36-.66.26A.73.73,0,0,1,226,22a.74.74,0,0,1-.2-.58l1-9.83a.56.56,0,0,1,.19-.46c.17-.15.43-.36.66-.26l9.85.66c.09-.07.32,0,.39.12s.38.43.28.66a.66.66,0,0,1-.11.4,1,1,0,0,1-.6.51Zm4.12,14.24,1-9.9a.75.75,0,0,0-.35-.75.61.61,0,0,0-.47-.21.82.82,0,0,0-.66.26.59.59,0,0,0-.19.47l-.9,9L231,25.77c-.32,0-.56,0-.66.27a.46.46,0,0,0-.12.55.45.45,0,0,0,.12.49.75.75,0,0,0,.54.3l9.85.66.09-.08A.88.88,0,0,0,241.56,27.47Z"/><rect class="cls-12" x="240.27" y="80.29" width="98.21" height="11.73"/><rect class="cls-13" x="42.8" y="11.78" width="35.23" height="83.76" transform="translate(43.15 -25.28) rotate(36.05)"/><line class="cls-14" x1="70.96" y1="9.47" x2="49.68" y2="98.05"/><line class="cls-14" x1="99.19" y1="30.03" x2="21.9" y2="77.17"/><circle class="cls-15" cx="149.36" cy="39.53" r="2.02"/><line class="cls-16" x1="156.09" y1="38.45" x2="172.27" y2="36.19"/><path class="cls-17" d="M126.68,100.51s3.62-6.17,7.69-7.66c8.18-3,24.84-.12,30.55-3.19,8.4-4.51,3.17-22.78,13.46-25.14,8-1.82,11.37,5.56,13.21,7.89s7.61,9.08,14.95,10.46"/><rect class="cls-18" x="261.41" y="113.23" width="33.69" height="33.69" transform="translate(-10.08 24.21) rotate(-4.89)"/><line class="cls-18" x1="259.96" y1="114.82" x2="296.39" y2="145.36"/><line class="cls-18" x1="293.57" y1="111.78" x2="263.19" y2="148.03"/></svg>