<svg id="Layer_21_copy" data-name="Layer 21 copy" xmlns="http://www.w3.org/2000/svg" xmlns:xlink="http://www.w3.org/1999/xlink" viewBox="0 0 373 167"><defs><style>.cls-1,.cls-11,.cls-16,.cls-17,.cls-18,.cls-19,.cls-2,.cls-21,.cls-22{fill:none;}.cls-1{clip-rule:evenodd;}.cls-12,.cls-13,.cls-2,.cls-21,.cls-22,.cls-3,.cls-4,.cls-7,.cls-8{fill-rule:evenodd;}.cls-3{fill:#eac386;}.cls-4{fill:#52c299;}.cls-5{opacity:0.5;}.cls-6{clip-path:url(#clip-path);}.cls-7{fill:#357569;}.cls-8{fill:#2441ba;}.cls-9{fill:#5bc1f4;}.cls-10{fill:#5cc1f3;}.cls-12,.cls-14{fill:#fff;}.cls-13{fill:#ff5454;}.cls-15{stroke:#5bc1f4;stroke-width:0.75px;}.cls-15,.cls-16,.cls-17,.cls-18,.cls-19,.cls-21,.cls-22{stroke-miterlimit:10;}.cls-16{stroke:#7fcdf4;stroke-width:0.86px;}.cls-17,.cls-18{stroke:#52c299;}.cls-17{stroke-linecap:round;stroke-width:2px;}.cls-19{stroke:#ad48ba;}.cls-20{fill:#ad48ba;}.cls-21{stroke:#42210b;opacity:0.45;}.cls-21,.cls-22{stroke-width:0.42px;}.cls-22{stroke:#eddd73;}</style><clipPath id="clip-path"><path class="cls-1" d="M113.84,32.12l151,7.2c2.29.11,4,1.66,3.9,3.46l-8,103.27c-.14,1.81-2.11,3.18-4.41,3.07l-151-7.2c-2.3-.11-4.05-1.66-3.91-3.46l8-103.27C109.57,33.38,111.55,32,113.84,32.12Z"/></clipPath></defs><title>Learning page illustrations_v001</title><path class="cls-2" d="M243.66,33.66V46.2H117.9V33.66a5,5,0,0,1,5.1-5H238.56A5,5,0,0,1,243.66,33.66Z"/><path class="cls-3" d="M124.08,31.56l159,17.6a3.29,3.29,0,0,1,3,3.56l-9.3,103a3.27,3.27,0,0,1-3.55,3l-159-17.61a3.27,3.27,0,0,1-3-3.55l9.29-103A3.28,3.28,0,0,1,124.08,31.56Z"/><path class="cls-4" d="M113.84,32.12l151,7.2c2.29.11,4,1.66,3.9,3.46l-8,103.27c-.14,1.81-2.11,3.18-4.41,3.07l-151-7.2c-2.3-.11-4.05-1.66-3.91-3.46l8-103.27C109.57,33.38,111.55,32,113.84,32.12Z"/><g class="cls-5"><g class="cls-6"><path class="cls-7" d="M92.21,34.31H244.55c3.7,0,6.71,2.28,6.71,5.09v99.84c0,2.8-3,5.08-6.71,5.08H92.21c-3.71,0-6.72-2.28-6.72-5.08V39.4C85.49,36.59,88.5,34.31,92.21,34.31Z"/></g></g><path class="cls-8" d="M80.18,46.43v87.13c0,2.81,3,5.09,6.62,5.09h150c3.65,0,6.61-2.28,6.61-5.09V46.43Z"/><path class="cls-8" d="M243.41,33.72V46.38H80.19V33.72c0-2.8,3-5.08,6.61-5.08h150C240.45,28.64,243.41,30.92,243.41,33.72Z"/><path id="cross" class="cls-9" d="M226.07,42.25a.93.93,0,0,1,0-1.32l7.84-8.06a.93.93,0,0,1,1.34,1.3l-7.83,8.06A.94.94,0,0,1,226.07,42.25Z"/><path id="cross-2" data-name="cross" class="cls-10" d="M234,42.14,226,34.3a.93.93,0,0,1,0-1.32.94.94,0,0,1,1.33,0l8.06,7.83A.94.94,0,0,1,234,42.14Z"/><rect class="cls-11" x="95.46" y="39.86" width="138.44" height="115.17"/><path class="cls-9" d="M217.92,38.29l-11.22.2c-.52,0-.51-.17-.52-.39s0-.41.48-.42l11.22-.19c.52,0,.51.17.52.39S218.43,38.29,217.92,38.29Z"/><path class="cls-12" d="M95.45,59.18H228.14V125.9H95.45Z"/><path class="cls-13" d="M148.71,80.38l26.08-.1a3.34,3.34,0,0,1,3.36,3.33l.07,17.73a3.34,3.34,0,0,1-3.33,3.36l-26.09.1a3.35,3.35,0,0,1-3.36-3.33l-.07-17.73A3.36,3.36,0,0,1,148.71,80.38Z"/><path class="cls-14" d="M158.25,99.06l-.11-12.64,11,6.22Z"/><line class="cls-15" x1="81" y1="45.27" x2="243.41" y2="46.63"/><rect class="cls-16" x="31.78" y="34.27" width="16.62" height="16.62" transform="translate(-11.48 15) rotate(-18.58)"/><polyline class="cls-17" points="35.65 43.4 41.16 45.25 48.5 29.46"/><rect class="cls-18" x="337.96" y="94.44" width="5.55" height="5.55" transform="translate(26 -65.56) rotate(11.42)"/><rect class="cls-18" x="324.24" y="103.7" width="5.55" height="5.55" transform="translate(27.56 -62.66) rotate(11.42)"/><polyline class="cls-19" points="337.7 97.09 334.98 96.54 332.8 107.33 330.25 106.81"/><path class="cls-20" d="M60.14,146.57l-11.51-5.1a6.09,6.09,0,0,0-4.94,11.13l11.14,4.94a6.1,6.1,0,0,0,7.87-2.72l.16-.37A6.19,6.19,0,0,0,60.14,146.57Zm-8.36,3.07A6.41,6.41,0,0,0,52,155l-7.7-3.42a4.76,4.76,0,0,1-2.43-6.29,4.84,4.84,0,0,1,6.3-2.43l7.7,3.42A6,6,0,0,0,51.78,149.64Zm6.51,7.11-.27.1-.09,0-.09,0a4.78,4.78,0,1,1,1.26-9.1,5.09,5.09,0,0,1,2.08,1.81l.1.27a5,5,0,0,1-3,7Z"/><path class="cls-21" d="M16.25,125.9s46.5-47.77,75.57-41.05c51.63,11.94,35.53,88.59,94.29,68C266.5,124.6,267.56,32.75,368.67,14.68"/><path class="cls-22" d="M4.41,122.79S50.9,75,80,81.75c51.64,11.94,35.54,88.59,94.29,68,80.39-28.22,81.45-120.06,182.57-138.13"/></svg>