<svg id="Layer_21_copy" data-name="Layer 21 copy" xmlns="http://www.w3.org/2000/svg" viewBox="0 0 373 167"><defs><style>.cls-1,.cls-10,.cls-11,.cls-19,.cls-2,.cls-3,.cls-4,.cls-6,.cls-7,.cls-8,.cls-9{fill:none;}.cls-1,.cls-14{stroke:#f9b9c3;}.cls-1,.cls-10,.cls-11,.cls-12,.cls-13,.cls-14,.cls-15,.cls-16,.cls-19,.cls-2,.cls-3,.cls-4,.cls-5,.cls-6,.cls-7,.cls-8{stroke-miterlimit:10;}.cls-1,.cls-10,.cls-11,.cls-13,.cls-14,.cls-16,.cls-2,.cls-4,.cls-5,.cls-7,.cls-9{stroke-width:2px;}.cls-1,.cls-17,.cls-18,.cls-19,.cls-2,.cls-21,.cls-3{fill-rule:evenodd;}.cls-2{stroke:#2441ba;}.cls-10,.cls-16,.cls-3{stroke:#e8b167;}.cls-10,.cls-19,.cls-3,.cls-4,.cls-6,.cls-7,.cls-8,.cls-9{stroke-linecap:round;}.cls-3,.cls-6{stroke-width:2.46px;}.cls-11,.cls-4{stroke:#18c4a3;}.cls-12,.cls-13,.cls-14,.cls-16,.cls-5{fill:#f2f2f2;}.cls-5{stroke:#20e2bd;}.cls-13,.cls-6,.cls-7,.cls-8,.cls-9{stroke:#b5b5b5;}.cls-8{stroke-width:1.23px;}.cls-9{stroke-linejoin:round;opacity:0.66;}.cls-12{stroke:#a7cafc;}.cls-12,.cls-15{stroke-width:3px;}.cls-15,.cls-21,.cls-22{fill:#fff;}.cls-15{stroke:#1a79d5;}.cls-17{fill:#182997;}.cls-18{fill:#5bc1f4;}.cls-19{stroke:#fff;stroke-width:1.34px;}.cls-20{fill:#75268d;}.cls-23{fill:#1a79d5;}.cls-24{fill:#20e2bd;}.cls-25{fill:#e8b167;}.cls-26{fill:#b5b5b5;}.cls-27{fill:#f9b9c3;}</style></defs><title>Learning page illustrations_v001</title><path class="cls-1" d="M217.61,20.65a44.53,44.53,0,0,1,14.73,5.12c9.63,5.68,27.72,18.43,35.14,21.41,10.91,4.39,18,1.35,23.42,2.17,7.22,1.09,10.91,9.11,12.2,11a51.77,51.77,0,0,0,13.32,12.84"/><path class="cls-2" d="M114.76,137c-5.87-8.35-16.91-25.17-21.42-30.85-6.62-8.35-10.83-10.57-14.11-14-4.36-4.55-6.69-10.92-7.49-12.63a111.09,111.09,0,0,0-8.18-14.25"/><path class="cls-3" d="M283.46,141.73a101.19,101.19,0,0,1-17.73,2c-17.47.09-50.69-3.19-63.15-2.75-18.33.65-26.82,5-35,6.34-8.52,1.41-18-1.75-23.95-3.15-10.49-2.47-14.92-2.59-28.26-.53"/><line class="cls-4" x1="61.13" y1="62.39" x2="195.54" y2="89.59"/><line class="cls-5" x1="119.07" y1="37.43" x2="70.94" y2="58.09"/><line class="cls-6" x1="125.6" y1="34.71" x2="216.68" y2="22.03"/><line class="cls-7" x1="318.04" y1="70.51" x2="196.46" y2="89.21"/><line class="cls-8" x1="224.9" y1="86.79" x2="113.24" y2="138.37"/><line class="cls-9" x1="219.14" y1="19.51" x2="197.64" y2="91.52"/><line class="cls-10" x1="120.81" y1="41.11" x2="180.6" y2="80.63"/><line class="cls-11" x1="195.8" y1="92.28" x2="281.24" y2="138.33"/><line class="cls-12" x1="315.6" y1="72.44" x2="282.59" y2="136.31"/><circle class="cls-13" cx="218.89" cy="21.02" r="8.87"/><circle class="cls-14" cx="315.35" cy="71.15" r="11.89"/><circle class="cls-5" cx="118.15" cy="39.77" r="11.41"/><circle class="cls-15" cx="62.53" cy="62.52" r="11.36"/><circle class="cls-15" cx="280.69" cy="138.17" r="9.49"/><circle class="cls-16" cx="116.07" cy="137.48" r="14.63"/><path class="cls-17" d="M145.72,49.16H254.13v87.69H145.72Z"/><path class="cls-18" d="M139.61,42.86H248v87.68H139.61Z"/><path class="cls-19" d="M191.94,73.92H154"/><path class="cls-19" d="M205.35,83.28H154"/><path class="cls-19" d="M232.17,92H154"/><path class="cls-19" d="M232.17,100.69H154"/><path class="cls-19" d="M232.17,109.62H154"/><rect class="cls-20" x="139.51" y="42.84" width="108.52" height="16.08"/><path class="cls-21" d="M226.83,51v-.7h7V51Z"/><path id="cross" class="cls-22" d="M237.52,53.45a.56.56,0,0,1,0-.79l4.65-4.78a.56.56,0,0,1,.79,0,.56.56,0,0,1,0,.79l-4.65,4.78A.55.55,0,0,1,237.52,53.45Z"/><path id="cross-2" data-name="cross" class="cls-22" d="M242.23,53.38l-4.78-4.65a.55.55,0,0,1,.77-.79L243,52.58a.56.56,0,0,1,0,.79A.56.56,0,0,1,242.23,53.38Z"/><circle class="cls-23" cx="62.53" cy="62.52" r="7.17"/><circle class="cls-24" cx="118.04" cy="39.81" r="7.22"/><circle class="cls-25" cx="116.07" cy="137.48" r="9.14"/><circle class="cls-26" cx="218.89" cy="21.02" r="5.13"/><circle class="cls-23" cx="280.69" cy="138.17" r="3.88"/><circle class="cls-27" cx="315.35" cy="71.15" r="5.97"/></svg>