<svg width="69" height="65" viewBox="0 0 69 65" xmlns="http://www.w3.org/2000/svg">
    <g stroke="#B3D4FF" stroke-width="1.2" fill="none" fill-rule="evenodd" stroke-linecap="round" stroke-linejoin="round">
        <path d="M51 64c9.389 0 17-7.611 17-17s-7.611-17-17-17-17 7.611-17 17 7.611 17 17 17z"/>
        <path d="M41.836 46.734a.797.797 0 0 1 0-1.593M42.04 46.734a.797.797 0 0 0 0-1.593M55.25 42.75l-6.375-1.14 4.774-5.235M50.908 55.224c2.06-.831 2.821-3.284 1.698-5.478-1.123-2.195-3.704-3.3-5.764-2.47-2.06.831-2.821 3.284-1.698 5.478 1.123 2.195 3.704 3.3 5.764 2.47zM61 14H1V6.2C1 3.328 3.336 1 6.217 1h49.566C58.664 1 61 3.328 61 6.2V14z"/>
        <path d="M29.696 54H6.217C3.336 54 1 51.627 1 48.7V6.3C1 3.373 3.336 1 6.217 1h49.566C58.664 1 61 3.373 61 6.3v18.55"/>
        <path d="M10.5 6.75a.75.75 0 1 1 0 1.5.75.75 0 0 1 0-1.5M1 14.5h60M18.5 6.75a.75.75 0 1 1 0 1.5.75.75 0 0 1 0-1.5M25.5 6.75a.75.75 0 1 1 0 1.5.75.75 0 0 1 0-1.5"/>
    </g>
</svg>
