<svg width="345" height="343" viewBox="0 0 345 343" xmlns="http://www.w3.org/2000/svg">
    <defs>
        <linearGradient x1="50%" y1="0%" x2="50%" y2="100%" id="paxsyt6fwa">
            <stop stop-color="#65C9FF" offset="0%"/>
            <stop stop-color="#BEE3FF" offset="100%"/>
        </linearGradient>
    </defs>
    <g fill="none" fill-rule="evenodd">
        <path d="M2.038 190.508c-3.63-17.015-2.635-35.005 4.797-53.335C16.405 113.561 36.968 96.786 60 86.997c33.48-14.23 66.339-14.494 93.556-42.372 8.392-8.599 15.435-18.446 24.01-26.862 25.286-24.836 62.296-21.819 89.935-2.125 57.657 41.082 78.386 122.445 75.18 189.711-1.442 30.185-15.883 58.28-38.742 78.089-51.699 44.794-139.488 37.262-198.868 13.881-44.276-17.437-92.636-58.114-103.034-106.81z" fill="#7BBAE9" fill-rule="nonzero" opacity=".1"/>
        <g stroke="#263238" stroke-linejoin="round">
            <path d="M265.969 47.097h-2.916"/>
            <path stroke-dasharray="6.9903,6.9903" d="M257.231 47.097H73.83"/>
            <path d="M70.915 47.097H68"/>
            <g>
                <path d="M268.068 284v-2.912"/>
                <path stroke-dasharray="7.0633,7.0633" d="M268.068 275.215V54.875"/>
                <path d="M268.068 51.937v-2.91"/>
            </g>
            <path d="M265.969 45H270v4.026h-4.031z"/>
        </g>
        <path d="M301 58.602 271 46l12.605 30 3.477-10.148 6.7 6.697 3.766-3.766-6.699-6.697z" stroke="#263238" stroke-linecap="round" stroke-linejoin="round"/>
        <g stroke="#263238" stroke-linecap="round" stroke-linejoin="round">
            <path d="M244.32 316h-28.733c-2.034 0-3.945-1.647-4.267-3.675l-3.201-20.08c-.323-2.028 1.067-3.675 3.093-3.675h28.732c2.035 0 3.945 1.647 4.268 3.675l3.2 20.08c.332 2.028-1.058 3.675-3.092 3.675z"/>
            <path d="M244.32 316a3.68 3.68 0 0 0 3.68-3.683V289.67c0-1.945-1.514-3.518-3.416-3.658l-.893-2.301a1.113 1.113 0 0 0-1.042-.712h-9.396c-.463 0-.876.281-1.042.712l-.885 2.276h-15.73a3.695 3.695 0 0 0-3.49 2.5M136.247 316h-28.732c-2.035 0-3.945-1.647-4.268-3.675l-3.2-20.08c-.323-2.028 1.066-3.675 3.093-3.675h28.732c2.035 0 3.945 1.647 4.268 3.675l3.2 20.08c.331 2.028-1.058 3.675-3.093 3.675z"/>
            <path d="M136.247 316a3.68 3.68 0 0 0 3.68-3.683V289.67c0-1.945-1.513-3.518-3.415-3.658l-.893-2.301a1.113 1.113 0 0 0-1.043-.712h-9.395c-.463 0-.877.281-1.042.712l-.885 2.276h-15.73a3.695 3.695 0 0 0-3.491 2.5"/>
            <g>
                <path d="M190.287 316h-28.732c-2.034 0-3.945-1.647-4.267-3.675l-3.201-20.08c-.323-2.028 1.067-3.675 3.093-3.675h28.732c2.035 0 3.945 1.647 4.268 3.675l3.2 20.08c.323 2.028-1.058 3.675-3.093 3.675z"/>
                <path d="M190.287 316a3.68 3.68 0 0 0 3.68-3.683V289.67c0-1.945-1.513-3.518-3.415-3.658l-.893-2.301a1.113 1.113 0 0 0-1.042-.712h-9.396c-.463 0-.876.281-1.042.712l-.885 2.276h-15.73a3.695 3.695 0 0 0-3.49 2.5"/>
            </g>
        </g>
        <path d="m206.112 91.302 7.835-9.674a9.375 9.375 0 0 0 1.88-7.879L208.4 39.301a5.747 5.747 0 0 0-5.614-4.529H188.38a9.298 9.298 0 0 0-3.01.499L46.092 92.266l35.296 183.16c4.948 7.43 144.21-40.648 144.21-40.648a9.361 9.361 0 0 0 6.146-11.045l-28.492-119.874a14.636 14.636 0 0 1 2.86-12.557z" stroke="#263238" fill="#7BBAE9" fill-rule="nonzero" stroke-linecap="round" stroke-linejoin="round"/>
        <path d="m185.745 38.844 44.086 188.803s-149.058 55.483-142.03 38.32c0 0-35.471-168.665-32.486-169.288 2.994-.632 130.43-57.835 130.43-57.835z" fill="#89B5D6" fill-rule="nonzero" opacity=".3"/>
        <path d="m222.546 224.281-128.55 40.781-31.47-163.87-1.788-9.325 114.52-55.375c2.295-1.113 5.198.308 5.855 2.876l2.37 9.25 42.989 168.367c.815 3.2-.874 6.324-3.926 7.296z" fill="#FFF" fill-rule="nonzero"/>
        <path d="m183.483 48.618-120.034 54.9-2.711-11.66 114.52-55.374c2.295-1.114 5.198.308 5.855 2.876l2.37 9.258z" fill="#263238" fill-rule="nonzero"/>
        <path d="M177.462 44.562c0 1.679-1.19 2.95-2.662 2.85-1.472-.1-2.661-1.545-2.661-3.216 0-1.678 1.19-2.95 2.661-2.85 1.472.1 2.662 1.537 2.662 3.216zM170.609 47.953c0 1.554-1.106 2.742-2.47 2.643-1.364-.092-2.47-1.43-2.47-2.992 0-1.554 1.106-2.743 2.47-2.643 1.364.1 2.47 1.438 2.47 2.992zM164.13 50.887c0 1.454-1.031 2.56-2.312 2.476-1.272-.091-2.312-1.338-2.312-2.792 0-1.455 1.031-2.56 2.312-2.477 1.28.083 2.312 1.338 2.312 2.793z" stroke="#263238" fill="#92E3A9" fill-rule="nonzero" stroke-linecap="round" stroke-linejoin="round"/>
        <path d="m222.546 224.281-128.55 40.781-31.47-163.87-1.788-9.325 114.52-55.375c2.295-1.113 5.198.308 5.855 2.876l2.37 9.25 42.989 168.367c.815 3.2-.874 6.324-3.926 7.296z" fill-opacity=".7" fill="#000" fill-rule="nonzero" opacity=".3"/>
        <path d="m222.546 224.281-128.55 40.781-31.47-163.87-1.788-9.325 114.52-55.375c2.295-1.113 5.198.308 5.855 2.876l2.37 9.25 42.989 168.367c.815 3.2-.874 6.324-3.926 7.296z" stroke-linecap="round" stroke-linejoin="round" stroke="#CBD3DB"/>
        <g>
            <path d="M214.936 216.203 88.124 265.96 57.078 104.283l-1.763-9.2 112.982-63.37c2.262-1.28 5.123-.057 5.771 2.469l2.337 9.084 42.407 165.366a6.432 6.432 0 0 1-3.876 7.571z" stroke="#263238" fill="#FFF" fill-rule="nonzero" stroke-linecap="round" stroke-linejoin="round"/>
            <path d="M176.397 43.274 57.985 106.56l-2.67-11.469 112.982-63.369c2.262-1.28 5.123-.058 5.771 2.468l2.33 9.084z" fill="#263238" fill-rule="nonzero"/>
            <path d="M170.467 39.634c0 1.679-1.172 3.033-2.62 3.033-1.446 0-2.62-1.354-2.62-3.033 0-1.679 1.174-3.034 2.62-3.034 1.448 0 2.62 1.355 2.62 3.034zM163.698 43.498c0 1.554-1.09 2.818-2.437 2.818-1.347 0-2.437-1.264-2.437-2.818s1.09-2.817 2.437-2.817c1.347.008 2.437 1.263 2.437 2.817zM157.31 46.89c0 1.453-1.022 2.634-2.278 2.634s-2.279-1.18-2.279-2.635c0-1.454 1.023-2.634 2.279-2.634s2.278 1.18 2.278 2.634z" stroke="#263238" fill="#5290BF" fill-rule="nonzero" stroke-linecap="round" stroke-linejoin="round"/>
            <path d="m175.058 47.363 37.342 146.11a1.27 1.27 0 0 1-.715 1.472l-3.41 1.504a1.24 1.24 0 0 1-1.713-.84L170.218 50.338c-.191-.748.15-1.53.823-1.911l2.811-1.58a.823.823 0 0 1 1.206.516z" fill-opacity=".7" fill="#000" fill-rule="nonzero" opacity=".3"/>
            <path d="m171.856 51.585 2.063-1.139a1.469 1.469 0 0 1 2.137.93l3.817 15.31a1.725 1.725 0 0 1-.864 1.936l-2.512 1.338a1.062 1.062 0 0 1-1.53-.682l-3.942-15.765c-.2-.765.15-1.554.831-1.928z" stroke="#263238" fill="#BFBFBF" fill-rule="nonzero" stroke-linecap="round" stroke-linejoin="round"/>
            <path stroke="#000" stroke-width="2" opacity=".4" stroke-linecap="round" stroke-linejoin="round" d="m190.502 215.172-81.686 33.617M201.546 204.925 97.78 248.79"/>
            <g fill="#B5C0CD" fill-opacity=".7" fill-rule="nonzero">
                <path d="m191.35 160.82-8.374-35.586-22.688 10.837 8.292 35.462zM151.04 96.537l7.876 33.692 22.662-10.962-8.125-34.523zM172.738 81.694 166.1 53.488l-22.397 11.718 6.637 28.364zM169.403 175.049l7.635 32.628 22.97-10.056-7.718-32.803z"/>
            </g>
        </g>
        <g fill-rule="nonzero">
            <path d="m0 75.266 35.296 183.16c11.294-12.89 91.998-71.955 91.998-71.955a19.367 19.367 0 0 0 7.527-19.962L97.446 6.411c-1.38-6.1-8.799-8.485-13.481-4.33 0 0-75.041 47.114-83.965 73.185z" stroke="#263238" fill="url(#paxsyt6fwa)" stroke-linecap="round" stroke-linejoin="round" transform="translate(46.092 17)"/>
            <g fill="#FFF" opacity=".7">
                <path d="M174.51 189.227a2.36 2.36 0 0 1-2.296-1.804 636.234 636.234 0 0 1-1.871-7.87 2.366 2.366 0 0 1 4.607-1.08c.607 2.61 1.23 5.219 1.863 7.828a2.373 2.373 0 0 1-1.738 2.86 2.689 2.689 0 0 1-.566.066zM169.677 168.184a2.36 2.36 0 0 1-2.303-1.837l-32.377-142.03a.27.27 0 0 0-.175-.208c-.141-.058-.233.009-.266.025-8.308 5.527-36.443 24.376-49.475 34.797-8.3 6.915-15.91 14.852-24.643 25.705a2.366 2.366 0 0 1-3.326.366 2.362 2.362 0 0 1-.366-3.324c8.932-11.112 16.75-19.256 25.34-26.412 12.858-10.28 39.139-27.949 49.842-35.07a5.008 5.008 0 0 1 4.64-.483 5.03 5.03 0 0 1 3.036 3.549l32.377 142.03a2.369 2.369 0 0 1-2.304 2.892z"/>
            </g>
        </g>
        <g>
            <path d="M75.35 342.992c-1.114-10.04-2.62-23.993-3.925-37.282-1.897-19.397-3.377-37.365-2.57-39.634 1.83-5.161 1.464-8.876 1.464-8.876 3.95-.44 5.721-5.834 5.721-5.834l-2.12-18.965s1.322-36.301-.308-46.615c-1.638-10.322-8.25-17.228-8.392-19.97-.133-2.743 5.165-14.81 6.903-18.26 1.738-3.456.74-22.887-2.07-28.962-.824-1.762-1.963-2.767-3.178-3.3-2.96-1.32-6.337.167-6.337.167-.773 11.394-4.133 18.99-7.252 24.408v.009c-2.728 4.737-5.248 7.795-5.705 10.297-.973 5.352-12.791 19.173-15.028 26.32-2.23 7.147-2.953 31.448-6.462 41.013-1.647 4.513-7.593 18.865-9.157 62.655C16.036 305.319 12.144 328.14 9 343h66.35v-.008z" fill="#FFF" fill-rule="nonzero"/>
            <path d="M72.123 147.557c-1.746 3.457-7.044 15.524-6.903 18.258.142 2.751 6.754 9.658 8.392 19.971 1.63 10.314.308 46.615.308 46.615l2.12 18.965s-1.771 5.394-5.721 5.834c0 0 .365 3.715-1.464 8.876-.807 2.269.673 20.237 2.57 39.634-1.98-8.37-3.61-14.843-3.61-14.843s-.873 10.313-1.987 18.441c-1.115 8.128-3.81 19.705-3.81 19.705s-5.946-56.006-4.565-65.364c1.372-9.358 4.79-7.828 2.154-12.3-2.628-4.47-18.63-8.352-17.066-11.726 1.53-3.308 14.072 2.61 14.587 2.859-.424-.34-7.368-5.9-7.318-8.477.058-2.651 11.152 4.147 11.152 4.147s4.624-2.743 8.018-6.632c3.393-3.89-1.639-41.096-2.587-43.773-.948-2.684-6.894-2.302-8.633-4.537-1.738-2.236 2.986-3.233 2.08-6.649-.907-3.415-3.344-3.108-3.344-3.108s3.91-5.701 3.551-10.68c-.34-4.986 6.122-10.978 5.656-14.568-1.822-13.987-10.147-4.346-12.409-8.327v-.009c3.12-5.41 6.479-13.006 7.252-24.408 0 0 3.377-1.488 6.338-.166 1.214.532 2.353 1.537 3.177 3.299 2.802 6.075 3.809 25.506 2.062 28.963z" fill="#7BBAE9" fill-rule="nonzero" opacity=".4"/>
            <g stroke="#263238" stroke-linecap="round" stroke-linejoin="round">
                <path d="M11.695 329.021c2.37-13.638 4.59-30.641 5.247-48.867 1.564-43.789 7.51-58.15 9.165-62.654 3.502-9.566 4.233-33.875 6.462-41.022 2.23-7.147 14.055-20.968 15.02-26.32.965-5.352 11.51-13.347 12.957-34.714 0 0 6.695-2.933 9.515 3.142 2.819 6.075 3.817 25.505 2.079 28.963-1.747 3.457-7.044 15.516-6.911 18.258.141 2.743 6.753 9.657 8.383 19.97 1.63 10.314.308 46.624.308 46.624l2.12 18.957s-1.763 5.402-5.721 5.834c0 0 .374 3.715-1.464 8.876-1.248 3.523 2.977 44.711 5.796 70.533"/>
                <path d="M65.22 165.815s-2.087 5.81-6.129 5.801"/>
                <path d="M63.873 168.417s1.231 7.064-3.135 11.56M49.07 146.693s4.906-.965 7.983.88M45.66 240.845s15.943 5.003 18.463 7.537c2.52 2.535 6.187 8.818 6.187 8.818M58.11 238.393c2.337 2.634 7.576 5.643 10.063 7.978 2.486 2.336 3.709 7.546 3.709 7.546M68.58 237.163s3.685-1.828 5.58-7.588M64.28 258.389c-3.492 1.753-3.584 21.774-1.746 44.429M66.11 262.536c.034 2.219 3.003 19.106 4.375 33.292"/>
            </g>
        </g>
        <g>
            <path d="M206.984 126.153s-6.54 11.897-6.473 14.59c.067 2.691 12.488 21.376 12.847 23.486.35 2.119 9.344 6.215 12.622 8.375 3.287 2.16 7.442-13.55 6.908-24.866-.534-11.316-25.904-21.585-25.904-21.585z" fill="#FFF" fill-rule="nonzero"/>
            <path d="M206.984 126.153s-6.54 11.897-6.473 14.59c.067 2.691 12.488 21.376 12.847 23.486.35 2.119 9.344 6.215 12.622 8.375 3.287 2.16 7.442-13.55 6.908-24.866-.534-11.316-25.904-21.585-25.904-21.585z" fill="#7BBAE9" fill-rule="nonzero" opacity=".5"/>
            <path d="M206.984 126.153s-6.54 11.897-6.473 14.59c.067 2.691 12.488 21.376 12.847 23.486.35 2.119 9.344 6.215 12.622 8.375 3.287 2.16 7.442-13.55 6.908-24.866-.534-11.316-25.904-21.585-25.904-21.585z" stroke-linecap="round" stroke-linejoin="round" stroke="#263238"/>
            <path d="M211.456 148.261s6.424-2.908 13.406 4.844" stroke="#263238" stroke-linecap="round" stroke-linejoin="round"/>
            <g>
                <path d="M344 258.9 304.774 303s-6.449-8-14.516-17.771c-11.47-13.891-26.203-31.355-30.374-34.545-5.09-3.888-38.175-26.42-47.31-37.578a208.02 208.02 0 0 1-3.454-4.312v-.008c-6.04-7.735-7.233-11.058-10.236-21.867-3.495-12.628-7.341-19.599-8.317-24.268-.025-.141-.059-.283-.084-.432-1.01-5.184-2.778-20.779-5.072-24.742-2.37-4.087 7.041-6.065 10.628-3.788 3.588 2.268 12.53 13.318 11.972 22.83 0 0 7.032 17.256 10.62 16.791 0 0-.468-17.289-2.845-21.51-1.418-2.509-1.786-4.835-1.836-6.305-.05-.997.05-1.604.05-1.604s-11.062-11.88-14.307-19.881c-3.253-8.001-9.627-20.314-10.853-32.294 0 0-1.427-8.615 3.812-12.52 2.002-1.496 3.846-1.911 5.706.664.76 1.072 1.535 2.642 2.328 4.86 7.85 22.067 17.552 30.525 17.552 30.525s6.424 1.636 11.087 3.83c.668.307 1.427.772 2.27 1.337h.016v.009c2.06 1.379 4.564 3.381 7.15 5.333 3.729 2.817 7.6 5.542 10.52 6.182 10.144 2.193 15.024 7.327 15.024 7.327s6.74-1.429 10.311 4.82c3.454 6.048 5.364 7.252 5.364 7.252.05 0 2.545.025 4.589 4.47 3.604 7.843 14.432 49.616 14.958 51.303 4.354 13.816 17.31 28.646 32.118 41.64 0 0 0 .008.008.008 3.996 3.531 8.167 6.93 12.347 10.144z" fill="#FFF" fill-rule="nonzero"/>
                <g fill-rule="nonzero" opacity=".4">
                    <path d="M231.578 120.412s-.008 0-.017-.008c.009 0 .009 0 .017.008z" fill="#92E3A9"/>
                    <path d="M242.49 137.344s-11.73-2.11-14.04-7.402c-2.303-5.3-12.13-16.608-14.475-17.348-2.344-.739-3.82.906-3.82.906s-4.063-6.406-7.125-11.922c-2.903-5.25-17.277-20.995-4.697-21.71.76 1.072 1.535 2.643 2.328 4.86 7.85 22.067 17.552 30.525 17.552 30.525s6.424 1.637 11.087 3.83c.668.307 1.427.773 2.27 1.338-.3-.075-4.998-1.238-4.063 1.154.95 2.476 8.6 9.372 12.613 12.396 4.005 3.016 2.37 3.373 2.37 3.373zM331.612 248.74c-6.633-3.614-16.652-9.588-19.997-14.282-5.164-7.236-8.985-10.85-12.422-15.046-3.445-4.187-9.944-7.61-8.417-7.037 1.526.573 8.417 2.933 8.417 2.933s-5.164-6.356-9.177-17.024c-4.012-10.659-11.32-48.153-16.751-52.324-5.431-4.163 0 36.797 0 36.797s-5.23-11.507-7.717-24.958c-2.486-13.46-4.755-20.064-7.692-21.884-2.936-1.81-8.559 2.01-10.086 0-1.526-2.01.192-2.75-9.034-10.177 3.729 2.816 7.6 5.541 10.52 6.181 10.144 2.193 15.024 7.328 15.024 7.328s6.74-1.43 10.311 4.819c3.454 6.048 5.364 7.253 5.364 7.253.05 0 2.545.024 4.589 4.47 3.604 7.842 14.432 49.615 14.958 51.302 4.346 13.825 17.293 28.655 32.11 41.649zM222.476 181.261c-.425 2.526-3.587-4.869-3.87-3.722-.284 1.147-1.135 4.893-1.185 3.722-.042-1.171-6.74-4.869-7.892-10.385-1.143-5.525-1.91-7.885-2.478-9.272-.575-1.396-1.593.922-1.66-2.426-.058-3-9.752-6.156-14.916 3.05-1.01-5.185-2.778-20.78-5.072-24.742-2.37-4.088 7.04-6.065 10.628-3.789 3.587 2.268 12.53 13.318 11.971 22.83 0 0 7.033 17.257 10.62 16.791 0 0-.467-17.289-2.845-21.51-1.418-2.508-1.785-4.835-1.835-6.305l3.496.465c.942 2.069-.901 4.993 0 6.48.909 1.48 6.548 12.313 4.68 17.921-1.894 5.591.784 8.366.358 10.892zM290.25 285.22c-11.47-13.89-26.204-31.354-30.375-34.545-5.089-3.888-38.175-26.42-47.31-37.577a208.023 208.023 0 0 1-3.453-4.312c4.863 5.915 10.812 9.03 13.414 10.435 4.589 2.467 17.878 4.603 27.147 14.622 4.504 4.869 7.074 8.408 12.622 14.506 5.539 6.09 13.573 6.472 18.345 14.855 2.394 4.212 6.373 13.675 9.61 22.017z" fill="#7BBAE9"/>
                </g>
                <g stroke-linecap="round" stroke-linejoin="round">
                    <path d="M304.766 303s-37.791-46.891-44.89-52.316c-5.09-3.888-38.176-26.42-47.319-37.578-9.143-11.158-10.194-13.559-13.69-26.187-3.495-12.628-7.341-19.599-8.325-24.268-.985-4.67-2.795-21.086-5.164-25.174-2.37-4.08 7.04-6.056 10.628-3.788 3.587 2.268 12.53 13.326 11.971 22.839 0 0 7.033 17.256 10.62 16.79 0 0-.467-17.289-2.853-21.51-2.386-4.22-1.777-7.909-1.777-7.909s-11.062-11.88-14.315-19.88c-3.254-8.002-9.628-20.314-10.854-32.295 0 0-1.426-8.607 3.813-12.52 2.82-2.102 5.33-2.077 8.033 5.525 7.85 22.066 17.553 30.524 17.553 30.524s6.423 1.637 11.087 3.822c4.671 2.185 14.19 11.606 19.955 12.86 10.144 2.194 15.024 7.337 15.024 7.337s6.741-1.43 10.312 4.818c3.453 6.057 5.355 7.262 5.355 7.262s2.528-.017 4.589 4.461c3.612 7.843 14.432 49.616 14.966 51.311 5.548 17.58 25.019 36.814 44.507 51.793" stroke="#7BBAE9"/>
                    <path d="M218.205 115.245s9.602 13.243 16.326 15.777M234.006 133.955c6.473 2.068 10.653 3.298 11.846 8.158 1.193 4.86 4.655 15.852 6.323 20.18 1.669 4.32 5.673 15.246 5.673 15.246M218.605 173.318s4.405 5.708 3.32 11.308M216.737 172.396s-.192 6.206 1.376 10.36M213.975 143.9s3.538 1.902 4.38 4.137M216.545 153.894s1.577 3.415 3.287 5.284c1.71 1.87 2.51 7.943 2.51 7.943M190.55 162.65s3.812-4.27 7.75-4.851M208.595 114.406s4.43-3.307 7.8-1.022M282.425 162.094c.884 2.418 5.422 24.252 6.565 27.359M251.391 137.07s4.171-2.974 9.394.673c5.23 3.647 5.23 5.409 8.45 4.553 3.212-.856 5.348 1.778 5.348 1.778M268.21 152.448c.834 4.902 4.37 28.855 6.08 34.861" stroke="#263238"/>
                </g>
            </g>
        </g>
    </g>
</svg>
