<svg width="1238" height="386" viewBox="0 0 1238 386" xmlns="http://www.w3.org/2000/svg" xmlns:xlink="http://www.w3.org/1999/xlink">
    <defs>
        <filter x="-9%" y="-9%" width="118%" height="118%" filterUnits="objectBoundingBox" id="m3ef5yfnmf">
            <feMorphology radius=".842" operator="dilate" in="SourceAlpha" result="shadowSpreadOuter1"/>
            <feOffset in="shadowSpreadOuter1" result="shadowOffsetOuter1"/>
            <feGaussianBlur stdDeviation="2" in="shadowOffsetOuter1" result="shadowBlurOuter1"/>
            <feComposite in="shadowBlurOuter1" in2="SourceAlpha" operator="out" result="shadowBlurOuter1"/>
            <feColorMatrix values="0 0 0 0 0 0 0 0 0 0 0 0 0 0 0 0 0 0 0.03 0" in="shadowBlurOuter1"/>
        </filter>
        <filter x="-9%" y="-9%" width="118%" height="118%" filterUnits="objectBoundingBox" id="eq6jazpm6h">
            <feMorphology radius=".842" operator="dilate" in="SourceAlpha" result="shadowSpreadOuter1"/>
            <feOffset in="shadowSpreadOuter1" result="shadowOffsetOuter1"/>
            <feGaussianBlur stdDeviation="2" in="shadowOffsetOuter1" result="shadowBlurOuter1"/>
            <feComposite in="shadowBlurOuter1" in2="SourceAlpha" operator="out" result="shadowBlurOuter1"/>
            <feColorMatrix values="0 0 0 0 0 0 0 0 0 0 0 0 0 0 0 0 0 0 0.03 0" in="shadowBlurOuter1"/>
        </filter>
        <filter x="-9%" y="-9%" width="118%" height="118%" filterUnits="objectBoundingBox" id="xtrya1dxfj">
            <feMorphology radius=".842" operator="dilate" in="SourceAlpha" result="shadowSpreadOuter1"/>
            <feOffset in="shadowSpreadOuter1" result="shadowOffsetOuter1"/>
            <feGaussianBlur stdDeviation="2" in="shadowOffsetOuter1" result="shadowBlurOuter1"/>
            <feComposite in="shadowBlurOuter1" in2="SourceAlpha" operator="out" result="shadowBlurOuter1"/>
            <feColorMatrix values="0 0 0 0 0 0 0 0 0 0 0 0 0 0 0 0 0 0 0.03 0" in="shadowBlurOuter1"/>
        </filter>
        <filter x="-9%" y="-9%" width="118%" height="118%" filterUnits="objectBoundingBox" id="e5w077ctol">
            <feMorphology radius=".842" operator="dilate" in="SourceAlpha" result="shadowSpreadOuter1"/>
            <feOffset in="shadowSpreadOuter1" result="shadowOffsetOuter1"/>
            <feGaussianBlur stdDeviation="2" in="shadowOffsetOuter1" result="shadowBlurOuter1"/>
            <feComposite in="shadowBlurOuter1" in2="SourceAlpha" operator="out" result="shadowBlurOuter1"/>
            <feColorMatrix values="0 0 0 0 0 0 0 0 0 0 0 0 0 0 0 0 0 0 0.03 0" in="shadowBlurOuter1"/>
        </filter>
        <filter x="-10.7%" y="-10.7%" width="121.4%" height="121.4%" filterUnits="objectBoundingBox" id="ltljul3mon">
            <feMorphology radius=".842" operator="dilate" in="SourceAlpha" result="shadowSpreadOuter1"/>
            <feOffset in="shadowSpreadOuter1" result="shadowOffsetOuter1"/>
            <feGaussianBlur stdDeviation="2" in="shadowOffsetOuter1" result="shadowBlurOuter1"/>
            <feComposite in="shadowBlurOuter1" in2="SourceAlpha" operator="out" result="shadowBlurOuter1"/>
            <feColorMatrix values="0 0 0 0 0 0 0 0 0 0 0 0 0 0 0 0 0 0 0.03 0" in="shadowBlurOuter1"/>
        </filter>
        <filter x="-10.7%" y="-10.7%" width="121.4%" height="121.4%" filterUnits="objectBoundingBox" id="313qtv8xdp">
            <feMorphology radius=".842" operator="dilate" in="SourceAlpha" result="shadowSpreadOuter1"/>
            <feOffset in="shadowSpreadOuter1" result="shadowOffsetOuter1"/>
            <feGaussianBlur stdDeviation="2" in="shadowOffsetOuter1" result="shadowBlurOuter1"/>
            <feComposite in="shadowBlurOuter1" in2="SourceAlpha" operator="out" result="shadowBlurOuter1"/>
            <feColorMatrix values="0 0 0 0 0 0 0 0 0 0 0 0 0 0 0 0 0 0 0.03 0" in="shadowBlurOuter1"/>
        </filter>
        <circle id="f2py5j6sqg" cx="38" cy="38" r="38"/>
        <circle id="iagwekkasi" cx="38" cy="38" r="38"/>
        <circle id="y7hq0ba4ik" cx="38" cy="38" r="38"/>
        <circle id="ese9m8s58m" cx="38" cy="38" r="38"/>
        <circle id="6sshyy39lo" cx="32" cy="32" r="32"/>
        <circle id="b4dpxjoooq" cx="32" cy="32" r="32"/>
        <linearGradient x1="50%" y1="0%" x2="50%" y2="100%" id="oqiuyf4rqc">
            <stop stop-color="#1565D8" offset="0%"/>
            <stop stop-color="#F8FBFF" offset="59.738%"/>
            <stop stop-color="#FFF" offset="100%"/>
        </linearGradient>
        <linearGradient x1="50%" y1="0%" x2="50%" y2="100%" id="uthuclw78d">
            <stop stop-color="#1565D8" offset="0%"/>
            <stop stop-color="#F8FBFF" offset="59.738%"/>
            <stop stop-color="#FFF" offset="100%"/>
        </linearGradient>
        <linearGradient x1="50%" y1="0%" x2="50%" y2="100%" id="r6e0oj4g9e">
            <stop stop-color="#1565D8" offset="0%"/>
            <stop stop-color="#F8FBFF" offset="59.738%"/>
            <stop stop-color="#FFF" offset="100%"/>
        </linearGradient>
        <linearGradient x1=".333%" y1="99.884%" x2="100.095%" y2="99.884%" id="d1qpu95fjr">
            <stop stop-color="#E96F0B" offset="0%"/>
            <stop stop-color="#F37901" offset="100%"/>
        </linearGradient>
        <path d="M10 0h1218c5.523 0 10 4.477 10 10v368a8 8 0 0 1-8 8H8a8 8 0 0 1-8-8V10C0 4.477 4.477 0 10 0z" id="98kf5almda"/>
    </defs>
    <g fill="none" fill-rule="evenodd">
        <mask id="obiefx1m8b" fill="#fff">
            <use xlink:href="#98kf5almda"/>
        </mask>
        <use fill="#FBFDFF" xlink:href="#98kf5almda"/>
        <g mask="url(#obiefx1m8b)">
            <g stroke-width="1.538">
                <path d="M993.646 552.77c0-177.582-141.078-321.54-315.108-321.54-174.029 0-315.107 143.958-315.107 321.54" stroke="url(#oqiuyf4rqc)" opacity=".1" transform="matrix(0 -1 -1 0 1193.538 871.538)"/>
                <path d="M1069.8 572c0-198.823-157.954-360-352.8-360S364.2 373.177 364.2 572" stroke="url(#uthuclw78d)" opacity=".2" transform="matrix(0 -1 -1 0 1232 910)"/>
                <path d="M1159 592c0-220.914-175.504-400-392-400S375 371.086 375 592" stroke="url(#r6e0oj4g9e)" opacity=".4" transform="matrix(0 -1 -1 0 1282 960)"/>
                <path d="M603.57 552.77c0-177.582-141.08-321.54-315.108-321.54-174.03 0-315.108 143.958-315.108 321.54" stroke="url(#oqiuyf4rqc)" opacity=".1" transform="rotate(-90 250.462 231)"/>
                <path d="M602.8 572c0-198.823-157.954-360-352.8-360s-352.8 161.177-352.8 360" stroke="url(#uthuclw78d)" opacity=".2" transform="rotate(-90 212 231)"/>
                <path d="M592 592c0-220.914-175.504-400-392-400s-392 179.086-392 400" stroke="url(#r6e0oj4g9e)" opacity=".4" transform="rotate(-90 162 231)"/>
            </g>
            <g transform="translate(1052 166)">
                <use fill="#000" filter="url(#m3ef5yfnmf)" xlink:href="#f2py5j6sqg"/>
                <use stroke="#FFF" stroke-width="1.684" fill="#FFF" xlink:href="#f2py5j6sqg"/>
            </g>
            <g fill-rule="nonzero">
                <path fill="#9EA9B8" opacity=".048" d="m1089.93 181-21.93 7.718 3.465 28.731 18.488 10.161 18.583-10.299 3.464-28.73z"/>
                <path fill="#FFACAA" d="m1109.813 190.241-19.934-6.797v41.739l16.705-9.246 3.229-25.696z"/>
                <path fill="#FFD0CF" d="m1070.46 190.364 2.97 25.696 16.448 9.123v-41.74l-19.417 6.92z"/>
                <path d="m1095.366 205.663-5.487 2.566h-5.784l-2.718 6.8-5.057.094 13.559-30.164 5.487 20.704zm-.53-1.292-4.92-9.74-4.037 9.573h4l4.956.168z" fill="#FFF" opacity=".902"/>
                <path fill="#FFF" d="m1089.878 184.96.037 9.67 4.58 9.581h-4.606l-.01 4.012 6.368.006 2.976 6.895 4.839.09-14.184-30.255z"/>
            </g>
            <g transform="translate(217 138)">
                <use fill="#000" filter="url(#eq6jazpm6h)" xlink:href="#iagwekkasi"/>
                <use stroke="#FFF" stroke-width="1.684" fill="#FFF" xlink:href="#iagwekkasi"/>
            </g>
            <path d="M245.561 160.003a17.392 17.392 0 0 0-1.1.013c-2.557.147-4.091 1.35-4.513 3.84-.299 1.736-.25 3.518-.372 5.263-.033.913-.13 1.818-.299 2.708-.348 1.589-1.032 2.082-2.642 2.165a6.873 6.873 0 0 0-.635.11v3.817c2.929.143 3.324 1.179 3.563 4.25.086 1.119-.033 2.238.04 3.357.046 1.06.19 2.108.405 3.13.674 2.805 3.4 3.745 6.698 3.178v-3.347c-.528 0-.997.013-1.452 0-1.118-.034-1.537-.313-1.644-1.395-.145-1.396-.109-2.818-.195-4.227-.166-2.611-.455-5.186-2.999-6.848 1.309-.966 2.258-2.119 2.557-3.647.216-1.07.349-2.142.432-3.228.073-1.082-.06-2.191.036-3.26.156-1.736.266-2.445 2.341-2.375.312 0 .611-.044.96-.07v-3.418c-.416 0-.806-.01-1.18-.016zm19.75.024a11.013 11.013 0 0 0-2.115.156v3.324c.637 0 1.128 0 1.62.013.853.01 1.5.34 1.587 1.289.083.866.08 1.745.166 2.625.17 1.745.263 3.514.564 5.236.266 1.419 1.236 2.478 2.448 3.347-2.125 1.432-2.75 3.477-2.856 5.778-.06 1.576-.096 3.165-.18 4.754-.072 1.445-.577 1.915-2.028 1.951-.408.01-.806.047-1.259.073v3.405c.85 0 1.63.05 2.411 0 2.424-.144 3.889-1.323 4.37-3.684.203-1.299.322-2.609.359-3.924.083-1.202.072-2.418.192-3.61.18-1.866 1.033-2.635 2.892-2.758.177-.022.35-.062.518-.12v-3.817c-.312-.036-.53-.07-.757-.083-1.394-.06-2.091-.53-2.437-1.852a13.463 13.463 0 0 1-.395-2.591c-.097-1.612-.086-3.238-.193-4.853-.208-3.11-2.065-4.573-4.908-4.66zm-17.921 13.775a2.198 2.198 0 0 0-2.195 2.093 2.2 2.2 0 0 0 1.979 2.3h.143a2.161 2.161 0 0 0 2.28-2.035v-.12a2.201 2.201 0 0 0-2.158-2.238h-.05zm7.571 0a2.104 2.104 0 0 0-2.17 2.035c0 .07 0 .13.011.203 0 1.313.89 2.155 2.234 2.155 1.32 0 2.149-.866 2.149-2.225-.013-1.312-.89-2.181-2.224-2.168zm7.707 0a2.242 2.242 0 0 0-2.279 2.178c0 1.226.983 2.215 2.208 2.215h.024c1.105.193 2.218-.879 2.291-2.165.06-1.192-1.02-2.228-2.244-2.228z" fill="#ABC9EF" fill-rule="nonzero"/>
            <g transform="translate(907 242)">
                <use fill="#000" filter="url(#xtrya1dxfj)" xlink:href="#y7hq0ba4ik"/>
                <use stroke="#FFF" stroke-width="1.684" fill="#FFF" xlink:href="#y7hq0ba4ik"/>
            </g>
            <g fill="#ABC9EF" fill-rule="nonzero">
                <path d="M947.9 286c-1.967.004-3.883-.579-5.456-1.659a.993.993 0 0 1-.432-.656.939.939 0 0 1 .2-.743c.028-.036 1.275-1.184 1.275-1.184.173-.17.406-.277.657-.305.251-.027.505.027.717.154 1.01.659 2.242.97 3.478.877 1.236-.092 2.397-.581 3.276-1.38l5.905-5.398c1.787-1.634 2.227-4.235.814-6.15-1.605-2.208-5.117-3.036-7.9-.802-.298.242-3.498 3.095-3.498 3.095-.2.183-.471.286-.754.286-.283 0-.555-.103-.754-.286l-1.18-1.08a.938.938 0 0 1-.313-.69c0-.26.112-.508.312-.691l3.047-2.782c3.33-3.05 8.77-3.555 12.402-.81 1.854 1.394 3.027 3.403 3.26 5.586.235 2.184-.489 4.363-2.012 6.058-.189.209-6.66 6.142-6.66 6.142-1.692 1.549-3.99 2.419-6.384 2.418z"/>
                <path d="M943.813 274c2.065-.007 4.075.578 5.722 1.666a.987.987 0 0 1 .452.653.904.904 0 0 1-.209.742 100.98 100.98 0 0 1-1.335 1.187c-.18.167-.422.273-.683.3a1.26 1.26 0 0 1-.746-.149c-1.056-.66-2.347-.97-3.64-.878-1.295.092-2.51.582-3.43 1.382l-6.18 5.395c-1.89 1.63-2.356 4.23-.873 6.147 1.677 2.205 5.356 3.036 8.268.802.314-.24 3.663-3.097 3.663-3.097.209-.183.493-.286.789-.286.296 0 .58.103.79.286l1.235 1.08a.928.928 0 0 1 .324.692.928.928 0 0 1-.324.692l-3.189 2.78c-3.485 3.05-9.18 3.554-12.982.81-1.942-1.391-3.172-3.399-3.419-5.581-.247-2.183.508-4.362 2.1-6.059.199-.212 6.972-6.14 6.972-6.14 1.773-1.553 4.182-2.425 6.694-2.424z"/>
            </g>
            <g>
                <g transform="translate(109 11)">
                    <use fill="#000" filter="url(#e5w077ctol)" xlink:href="#ese9m8s58m"/>
                    <use stroke="#FFF" stroke-width="1.684" fill="#FFF" xlink:href="#ese9m8s58m"/>
                </g>
                <g fill="#ABC9EF" fill-rule="nonzero">
                    <path d="M158.576 44.99 154.534 41 153 42.515 156.53 46 153 49.485 154.535 51l4.041-3.99a1.415 1.415 0 0 0 0-2.02zM135.515 43 134 44.535l3.99 4.041a1.415 1.415 0 0 0 2.02 0l3.99-4.042L142.485 43 139 46.53 135.515 43zM145 53h2.173L150 39h-2.173z"/>
                    <path d="M162 31h-30c-1.65 0-3 1.35-3 3v24c0 1.65 1.35 3 3 3h13.5v3H141c-1.657 0-3 1.342-3 3l18-.003a3 3 0 0 0-3-3h-4.5V61H162c1.65 0 3-1.35 3-3V34c0-1.65-1.35-3-3-3zm0 27h-30V34h30v24z"/>
                </g>
            </g>
            <g>
                <g transform="translate(975 74)">
                    <use fill="#000" filter="url(#ltljul3mon)" xlink:href="#6sshyy39lo"/>
                    <use stroke="#FFF" stroke-width="1.684" fill="#FFF" xlink:href="#6sshyy39lo"/>
                </g>
                <g transform="translate(985 86)" fill="#61DAFB" fill-rule="nonzero">
                    <path d="M44 19.596c0-2.914-3.65-5.677-9.247-7.39 1.292-5.704.718-10.242-1.811-11.695-.583-.34-1.265-.502-2.01-.502v2c.413 0 .745.08 1.023.233 1.22.7 1.749 3.363 1.336 6.79a27.61 27.61 0 0 1-.457 2.636 43.464 43.464 0 0 0-5.695-.977 43.75 43.75 0 0 0-3.73-4.485C26.331 3.49 29.075 2 30.941 2V0c-2.467 0-5.695 1.758-8.96 4.807C18.717 1.776 15.49.036 13.022.036v2c1.857 0 4.61 1.48 7.534 4.18a42.36 42.36 0 0 0-3.704 4.475 41.881 41.881 0 0 0-5.704.986 27.057 27.057 0 0 1-.466-2.6c-.422-3.427.098-6.09 1.309-6.799.27-.161.619-.233 1.031-.233v-2c-.753 0-1.435.161-2.026.502C8.476 2 7.91 6.53 9.21 12.215 3.632 13.937 0 16.691 0 19.596c0 2.915 3.65 5.678 9.247 7.39-1.292 5.705-.718 10.243 1.811 11.696.583.34 1.265.502 2.018.502 2.467 0 5.695-1.758 8.96-4.807 3.264 3.031 6.493 4.771 8.96 4.771.753 0 1.434-.161 2.026-.502 2.52-1.453 3.086-5.982 1.785-11.668C40.367 25.265 44 22.502 44 19.596zm-11.677-5.982a40.393 40.393 0 0 1-1.21 3.543 42.444 42.444 0 0 0-1.176-2.153 48.527 48.527 0 0 0-1.291-2.098 40.47 40.47 0 0 1 3.677.708zm-4.108 9.552a47.78 47.78 0 0 1-2.161 3.426 46.666 46.666 0 0 1-8.09.009 49.439 49.439 0 0 1-2.17-3.408 46.716 46.716 0 0 1-1.866-3.57 46.769 46.769 0 0 1 1.857-3.578 47.78 47.78 0 0 1 2.161-3.426 46.666 46.666 0 0 1 8.09-.01 49.439 49.439 0 0 1 2.17 3.409 46.716 46.716 0 0 1 1.866 3.57 50.216 50.216 0 0 1-1.857 3.578zM31.112 22a38.436 38.436 0 0 1 1.238 3.57c-1.175.287-2.413.529-3.695.717.44-.69.879-1.4 1.291-2.126.413-.717.798-1.444 1.166-2.161zm-9.094 9.57a36.974 36.974 0 0 1-2.493-2.87 55.52 55.52 0 0 0 2.466.062c.843 0 1.677-.018 2.493-.062a35.007 35.007 0 0 1-2.466 2.87zm-6.673-5.283a40.47 40.47 0 0 1-3.677-.709c.332-1.156.745-2.35 1.21-3.542.369.717.754 1.435 1.176 2.152a59.4 59.4 0 0 0 1.291 2.099zm6.628-18.664c.834.861 1.668 1.82 2.493 2.87A55.52 55.52 0 0 0 22 10.43c-.843 0-1.677.018-2.493.063a35.007 35.007 0 0 1 2.466-2.87zm-6.637 5.283a49.547 49.547 0 0 0-2.457 4.278 38.436 38.436 0 0 1-1.238-3.57 43.556 43.556 0 0 1 3.695-.708zM7.22 24.135c-3.175-1.355-5.229-3.13-5.229-4.539 0-1.408 2.054-3.192 5.229-4.538a27.635 27.635 0 0 1 2.484-.906 43.075 43.075 0 0 0 2.018 5.462 42.468 42.468 0 0 0-1.991 5.435 27.245 27.245 0 0 1-2.511-.914zm4.825 12.816c-1.22-.7-1.749-3.364-1.336-6.79.098-.843.26-1.73.457-2.636 1.758.43 3.677.762 5.695.977a43.75 43.75 0 0 0 3.73 4.485c-2.923 2.717-5.667 4.206-7.533 4.206-.403-.01-.744-.09-1.013-.242zm21.273-6.834c.422 3.426-.098 6.09-1.309 6.798-.27.161-.619.233-1.031.233-1.857 0-4.61-1.48-7.534-4.18a42.36 42.36 0 0 0 3.704-4.475 41.881 41.881 0 0 0 5.704-.986c.206.906.368 1.776.466 2.61zm3.453-5.982c-.771.331-1.614.627-2.484.905a43.075 43.075 0 0 0-2.018-5.462 42.468 42.468 0 0 0 1.991-5.435c.888.279 1.731.583 2.52.915 3.175 1.355 5.229 3.13 5.229 4.538-.009 1.408-2.063 3.193-5.238 4.539z"/>
                    <circle cx="21.991" cy="19.596" r="4.099"/>
                </g>
            </g>
            <g>
                <g transform="translate(185 272)">
                    <use fill="#000" filter="url(#313qtv8xdp)" xlink:href="#b4dpxjoooq"/>
                    <use stroke="#FFF" stroke-width="1.684" fill="#FFF" xlink:href="#b4dpxjoooq"/>
                </g>
                <path d="M215.194 322h-13.25a2.94 2.94 0 0 1-2.944-2.94v-6.343a2.94 2.94 0 0 1 2.944-2.94h8.369v-9.282a2.94 2.94 0 0 1 2.944-2.94h9.299v24.368h-7.362V322z" fill="#FFE599"/>
                <path d="M232.007 322h-9.451v-33.039c0-1.636 1.339-2.961 2.993-2.961h6.458c1.654 0 2.993 1.325 2.993 2.961v30.078c-.079 1.636-1.417 2.961-2.993 2.961z" fill="#FFBC76"/>
                <path d="M36 23.778v9.283C36 34.685 34.661 36 33.007 36h-9.451V11.556L36 23.778z" fill="url(#d1qpu95fjr)" opacity=".181" transform="translate(199 286)"/>
            </g>
        </g>
    </g>
</svg>
