<svg width="1238" height="386" viewBox="0 0 1238 386" xmlns="http://www.w3.org/2000/svg" xmlns:xlink="http://www.w3.org/1999/xlink">
    <defs>
        <filter x="-9%" y="-9%" width="118%" height="118%" filterUnits="objectBoundingBox" id="ttnf0oon6f">
            <feMorphology radius=".842" operator="dilate" in="SourceAlpha" result="shadowSpreadOuter1"/>
            <feOffset in="shadowSpreadOuter1" result="shadowOffsetOuter1"/>
            <feGaussianBlur stdDeviation="2" in="shadowOffsetOuter1" result="shadowBlurOuter1"/>
            <feComposite in="shadowBlurOuter1" in2="SourceAlpha" operator="out" result="shadowBlurOuter1"/>
            <feColorMatrix values="0 0 0 0 0 0 0 0 0 0 0 0 0 0 0 0 0 0 0.03 0" in="shadowBlurOuter1"/>
        </filter>
        <filter x="-9%" y="-9%" width="118%" height="118%" filterUnits="objectBoundingBox" id="6ie229dxuh">
            <feMorphology radius=".842" operator="dilate" in="SourceAlpha" result="shadowSpreadOuter1"/>
            <feOffset in="shadowSpreadOuter1" result="shadowOffsetOuter1"/>
            <feGaussianBlur stdDeviation="2" in="shadowOffsetOuter1" result="shadowBlurOuter1"/>
            <feComposite in="shadowBlurOuter1" in2="SourceAlpha" operator="out" result="shadowBlurOuter1"/>
            <feColorMatrix values="0 0 0 0 0 0 0 0 0 0 0 0 0 0 0 0 0 0 0.03 0" in="shadowBlurOuter1"/>
        </filter>
        <filter x="-9%" y="-9%" width="118%" height="118%" filterUnits="objectBoundingBox" id="o0db8kx3wj">
            <feMorphology radius=".842" operator="dilate" in="SourceAlpha" result="shadowSpreadOuter1"/>
            <feOffset in="shadowSpreadOuter1" result="shadowOffsetOuter1"/>
            <feGaussianBlur stdDeviation="2" in="shadowOffsetOuter1" result="shadowBlurOuter1"/>
            <feComposite in="shadowBlurOuter1" in2="SourceAlpha" operator="out" result="shadowBlurOuter1"/>
            <feColorMatrix values="0 0 0 0 0 0 0 0 0 0 0 0 0 0 0 0 0 0 0.03 0" in="shadowBlurOuter1"/>
        </filter>
        <filter x="-9%" y="-9%" width="118%" height="118%" filterUnits="objectBoundingBox" id="fk3xiu2qdl">
            <feMorphology radius=".842" operator="dilate" in="SourceAlpha" result="shadowSpreadOuter1"/>
            <feOffset in="shadowSpreadOuter1" result="shadowOffsetOuter1"/>
            <feGaussianBlur stdDeviation="2" in="shadowOffsetOuter1" result="shadowBlurOuter1"/>
            <feComposite in="shadowBlurOuter1" in2="SourceAlpha" operator="out" result="shadowBlurOuter1"/>
            <feColorMatrix values="0 0 0 0 0 0 0 0 0 0 0 0 0 0 0 0 0 0 0.03 0" in="shadowBlurOuter1"/>
        </filter>
        <filter x="-10.7%" y="-10.7%" width="121.4%" height="121.4%" filterUnits="objectBoundingBox" id="vte8av1gpn">
            <feMorphology radius=".842" operator="dilate" in="SourceAlpha" result="shadowSpreadOuter1"/>
            <feOffset in="shadowSpreadOuter1" result="shadowOffsetOuter1"/>
            <feGaussianBlur stdDeviation="2" in="shadowOffsetOuter1" result="shadowBlurOuter1"/>
            <feComposite in="shadowBlurOuter1" in2="SourceAlpha" operator="out" result="shadowBlurOuter1"/>
            <feColorMatrix values="0 0 0 0 0 0 0 0 0 0 0 0 0 0 0 0 0 0 0.03 0" in="shadowBlurOuter1"/>
        </filter>
        <filter x="-10.7%" y="-10.7%" width="121.4%" height="121.4%" filterUnits="objectBoundingBox" id="f7td9ofnlp">
            <feMorphology radius=".842" operator="dilate" in="SourceAlpha" result="shadowSpreadOuter1"/>
            <feOffset in="shadowSpreadOuter1" result="shadowOffsetOuter1"/>
            <feGaussianBlur stdDeviation="2" in="shadowOffsetOuter1" result="shadowBlurOuter1"/>
            <feComposite in="shadowBlurOuter1" in2="SourceAlpha" operator="out" result="shadowBlurOuter1"/>
            <feColorMatrix values="0 0 0 0 0 0 0 0 0 0 0 0 0 0 0 0 0 0 0.03 0" in="shadowBlurOuter1"/>
        </filter>
        <circle id="ry5844a71g" cx="38" cy="38" r="38"/>
        <circle id="c5co8lg4bi" cx="38" cy="38" r="38"/>
        <circle id="8rx3xvgbtk" cx="38" cy="38" r="38"/>
        <circle id="pjd11bfx3m" cx="38" cy="38" r="38"/>
        <circle id="0286xa9ewo" cx="32" cy="32" r="32"/>
        <circle id="noma1tevfq" cx="32" cy="32" r="32"/>
        <linearGradient x1="50%" y1="0%" x2="50%" y2="100%" id="6u494454hc">
            <stop stop-color="#1565D8" offset="0%"/>
            <stop stop-color="#F8FBFF" offset="59.738%"/>
            <stop stop-color="#FFF" offset="100%"/>
        </linearGradient>
        <linearGradient x1="50%" y1="0%" x2="50%" y2="100%" id="wvyymnp57d">
            <stop stop-color="#1565D8" offset="0%"/>
            <stop stop-color="#F8FBFF" offset="59.738%"/>
            <stop stop-color="#FFF" offset="100%"/>
        </linearGradient>
        <linearGradient x1="50%" y1="0%" x2="50%" y2="100%" id="37rlzcqohe">
            <stop stop-color="#1565D8" offset="0%"/>
            <stop stop-color="#F8FBFF" offset="59.738%"/>
            <stop stop-color="#FFF" offset="100%"/>
        </linearGradient>
        <linearGradient x1=".333%" y1="99.884%" x2="100.095%" y2="99.884%" id="lp3vua2ckr">
            <stop stop-color="#E96F0B" offset="0%"/>
            <stop stop-color="#F37901" offset="100%"/>
        </linearGradient>
        <path d="M10 0h1218c5.523 0 10 4.477 10 10v368a8 8 0 0 1-8 8H8a8 8 0 0 1-8-8V10C0 4.477 4.477 0 10 0z" id="su6f98ff0a"/>
    </defs>
    <g fill="none" fill-rule="evenodd">
        <mask id="7jw51x26ob" fill="#fff">
            <use xlink:href="#su6f98ff0a"/>
        </mask>
        <use fill="#FBFDFF" xlink:href="#su6f98ff0a"/>
        <g mask="url(#7jw51x26ob)">
            <g stroke-width="1.538">
                <path d="M993.646 552.77c0-177.582-141.078-321.54-315.108-321.54-174.029 0-315.107 143.958-315.107 321.54" stroke="url(#6u494454hc)" opacity=".1" transform="matrix(0 -1 -1 0 1195.538 871.538)"/>
                <path d="M1069.8 572c0-198.823-157.954-360-352.8-360S364.2 373.177 364.2 572" stroke="url(#wvyymnp57d)" opacity=".2" transform="matrix(0 -1 -1 0 1234 910)"/>
                <path d="M1159 592c0-220.914-175.504-400-392-400S375 371.086 375 592" stroke="url(#37rlzcqohe)" opacity=".4" transform="matrix(0 -1 -1 0 1284 960)"/>
                <path d="M603.57 552.77c0-177.582-141.08-321.54-315.108-321.54-174.03 0-315.108 143.958-315.108 321.54" stroke="url(#6u494454hc)" opacity=".1" transform="rotate(-90 251.462 230)"/>
                <path d="M602.8 572c0-198.823-157.954-360-352.8-360s-352.8 161.177-352.8 360" stroke="url(#wvyymnp57d)" opacity=".2" transform="rotate(-90 213 230)"/>
                <path d="M592 592c0-220.914-175.504-400-392-400s-392 179.086-392 400" stroke="url(#37rlzcqohe)" opacity=".4" transform="rotate(-90 163 230)"/>
            </g>
            <g transform="translate(1054 166)">
                <use fill="#000" filter="url(#ttnf0oon6f)" xlink:href="#ry5844a71g"/>
                <use stroke="#FFF" stroke-width="1.684" fill="#FFF" xlink:href="#ry5844a71g"/>
            </g>
            <g fill-rule="nonzero">
                <path d="M1086.637 218.13s-1.788 1.04 1.272 1.393c3.708.423 5.602.363 9.688-.412 0 0 1.074.675 2.574 1.259-9.159 3.93-20.727-.228-13.534-2.24m-1.12-5.13s-2.004 1.486 1.058 1.804c3.96.409 7.088.442 12.5-.601 0 0 .748.76 1.925 1.175-11.073 3.243-23.406.256-15.482-2.378" fill="#5382A1"/>
                <path d="M1095.182 203.994c2.378 2.635-.625 5.006-.625 5.006s6.04-3 3.266-6.756c-2.591-3.503-4.578-5.243 6.177-11.244 0 0-16.881 4.056-8.818 12.994" fill="#E76F00"/>
                <path d="M1106.927 222.242s1.381 1.133-1.52 2.009c-5.52 1.663-22.97 2.166-27.818.066-1.743-.755 1.525-1.802 2.553-2.021 1.072-.232 1.685-.189 1.685-.189-1.938-1.358-12.527 2.668-5.379 3.821 19.494 3.147 35.536-1.416 30.48-3.686m-20.43-14.772s-8.876 2.098-3.143 2.86c2.42.322 7.247.25 11.741-.125 3.674-.309 7.363-.964 7.363-.964s-1.295.552-2.233 1.188c-9.014 2.36-26.427 1.262-21.414-1.151 4.24-2.04 7.687-1.808 7.687-1.808m15.923 8.858c9.164-4.739 4.927-9.293 1.97-8.68-.725.15-1.048.28-1.048.28s.269-.419.783-.6c5.85-2.047 10.349 6.037-1.889 9.239 0 0 .142-.126.184-.239" fill="#5382A1"/>
                <path d="M1096.76 180s4.835 5.115-4.588 12.982c-7.556 6.31-1.723 9.907-.003 14.018-4.41-4.208-7.648-7.912-5.476-11.36 3.187-5.06 12.017-7.514 10.066-15.64" fill="#E76F00"/>
                <path d="M1087.782 228.834c8.638.608 21.904-.337 22.218-4.834 0 0-.604 1.705-7.14 3.058-7.372 1.527-16.466 1.349-21.86.37 0 0 1.104 1.006 6.782 1.406" fill="#5382A1"/>
            </g>
            <g transform="translate(219 138)">
                <use fill="#000" filter="url(#6ie229dxuh)" xlink:href="#c5co8lg4bi"/>
                <use stroke="#FFF" stroke-width="1.684" fill="#FFF" xlink:href="#c5co8lg4bi"/>
            </g>
            <path d="M247.561 160.003a17.392 17.392 0 0 0-1.1.013c-2.557.147-4.091 1.35-4.513 3.84-.299 1.736-.25 3.518-.372 5.263-.033.913-.13 1.818-.299 2.708-.348 1.589-1.032 2.082-2.642 2.165a6.873 6.873 0 0 0-.635.11v3.817c2.929.143 3.324 1.179 3.563 4.25.086 1.119-.033 2.238.04 3.357.046 1.06.19 2.108.405 3.13.674 2.805 3.4 3.745 6.698 3.178v-3.347c-.528 0-.997.013-1.452 0-1.118-.034-1.537-.313-1.644-1.395-.145-1.396-.109-2.818-.195-4.227-.166-2.611-.455-5.186-2.999-6.848 1.309-.966 2.258-2.119 2.557-3.647.216-1.07.349-2.142.432-3.228.073-1.082-.06-2.191.036-3.26.156-1.736.266-2.445 2.341-2.375.312 0 .611-.044.96-.07v-3.418c-.416 0-.806-.01-1.18-.016zm19.75.024a11.013 11.013 0 0 0-2.115.156v3.324c.637 0 1.128 0 1.62.013.853.01 1.5.34 1.587 1.289.083.866.08 1.745.166 2.625.17 1.745.263 3.514.564 5.236.266 1.419 1.236 2.478 2.448 3.347-2.125 1.432-2.75 3.477-2.856 5.778-.06 1.576-.096 3.165-.18 4.754-.072 1.445-.577 1.915-2.028 1.951-.408.01-.806.047-1.259.073v3.405c.85 0 1.63.05 2.411 0 2.424-.144 3.889-1.323 4.37-3.684.203-1.299.322-2.609.359-3.924.083-1.202.072-2.418.192-3.61.18-1.866 1.033-2.635 2.892-2.758.177-.022.35-.062.518-.12v-3.817c-.312-.036-.53-.07-.757-.083-1.394-.06-2.091-.53-2.437-1.852a13.463 13.463 0 0 1-.395-2.591c-.097-1.612-.086-3.238-.193-4.853-.208-3.11-2.065-4.573-4.908-4.66zm-17.921 13.775a2.198 2.198 0 0 0-2.195 2.093 2.2 2.2 0 0 0 1.979 2.3h.143a2.161 2.161 0 0 0 2.28-2.035v-.12a2.201 2.201 0 0 0-2.158-2.238h-.05zm7.571 0a2.104 2.104 0 0 0-2.17 2.035c0 .07 0 .13.011.203 0 1.313.89 2.155 2.234 2.155 1.32 0 2.149-.866 2.149-2.225-.013-1.312-.89-2.181-2.224-2.168zm7.707 0a2.242 2.242 0 0 0-2.279 2.178c0 1.226.983 2.215 2.208 2.215h.024c1.105.193 2.218-.879 2.291-2.165.06-1.192-1.02-2.228-2.244-2.228z" fill="#1794EF" fill-rule="nonzero"/>
            <g transform="translate(909 242)">
                <use fill="#000" filter="url(#o0db8kx3wj)" xlink:href="#8rx3xvgbtk"/>
                <use stroke="#FFF" stroke-width="1.684" fill="#FFF" xlink:href="#8rx3xvgbtk"/>
            </g>
            <g fill="#183B56" fill-rule="nonzero">
                <path d="M949.9 286c-1.967.004-3.883-.579-5.456-1.659a.993.993 0 0 1-.432-.656.939.939 0 0 1 .2-.743c.028-.036 1.275-1.184 1.275-1.184.173-.17.406-.277.657-.305.251-.027.505.027.717.154 1.01.659 2.242.97 3.478.877 1.236-.092 2.397-.581 3.276-1.38l5.905-5.398c1.787-1.634 2.227-4.235.814-6.15-1.605-2.208-5.117-3.036-7.9-.802-.298.242-3.498 3.095-3.498 3.095-.2.183-.471.286-.754.286-.283 0-.555-.103-.754-.286l-1.18-1.08a.938.938 0 0 1-.313-.69c0-.26.112-.508.312-.691l3.047-2.782c3.33-3.05 8.77-3.555 12.402-.81 1.854 1.394 3.027 3.403 3.26 5.586.235 2.184-.489 4.363-2.012 6.058-.189.209-6.66 6.142-6.66 6.142-1.692 1.549-3.99 2.419-6.384 2.418z"/>
                <path d="M945.813 274c2.065-.007 4.075.578 5.722 1.666a.987.987 0 0 1 .452.653.904.904 0 0 1-.209.742 100.98 100.98 0 0 1-1.335 1.187c-.18.167-.422.273-.683.3a1.26 1.26 0 0 1-.746-.149c-1.056-.66-2.347-.97-3.64-.878-1.295.092-2.51.582-3.43 1.382l-6.18 5.395c-1.89 1.63-2.356 4.23-.873 6.147 1.677 2.205 5.356 3.036 8.268.802.314-.24 3.663-3.097 3.663-3.097.209-.183.493-.286.789-.286.296 0 .58.103.79.286l1.235 1.08a.928.928 0 0 1 .324.692.928.928 0 0 1-.324.692l-3.189 2.78c-3.485 3.05-9.18 3.554-12.982.81-1.942-1.391-3.172-3.399-3.419-5.581-.247-2.183.508-4.362 2.1-6.059.199-.212 6.972-6.14 6.972-6.14 1.773-1.553 4.182-2.425 6.694-2.424z"/>
            </g>
            <g>
                <g transform="translate(111 11)">
                    <use fill="#000" filter="url(#fk3xiu2qdl)" xlink:href="#pjd11bfx3m"/>
                    <use stroke="#FFF" stroke-width="1.684" fill="#FFF" xlink:href="#pjd11bfx3m"/>
                </g>
                <g fill="#183B56" fill-rule="nonzero">
                    <path d="M160.576 44.99 156.534 41 155 42.515 158.53 46 155 49.485 156.535 51l4.041-3.99a1.415 1.415 0 0 0 0-2.02zM137.515 43 136 44.535l3.99 4.041a1.415 1.415 0 0 0 2.02 0l3.99-4.042L144.485 43 141 46.53 137.515 43zM147 53h2.173L152 39h-2.173z"/>
                    <path d="M164 31h-30c-1.65 0-3 1.35-3 3v24c0 1.65 1.35 3 3 3h13.5v3H143c-1.657 0-3 1.342-3 3l18-.003a3 3 0 0 0-3-3h-4.5V61H164c1.65 0 3-1.35 3-3V34c0-1.65-1.35-3-3-3zm0 27h-30V34h30v24z"/>
                </g>
            </g>
            <g>
                <g transform="translate(977 74)">
                    <use fill="#000" filter="url(#vte8av1gpn)" xlink:href="#0286xa9ewo"/>
                    <use stroke="#FFF" stroke-width="1.684" fill="#FFF" xlink:href="#0286xa9ewo"/>
                </g>
                <g fill="#1794EF" fill-rule="nonzero">
                    <path d="M1009.5 91.5H999a1.5 1.5 0 0 0-1.5 1.5v27a1.5 1.5 0 0 0 1.5 1.5h21a1.5 1.5 0 0 0 1.5-1.5v-16.5a1.5 1.5 0 0 0-.44-1.06l-10.5-10.5a1.5 1.5 0 0 0-1.06-.44zm-.621 3 9.621 9.621V118.5h-18v-24h8.379z"/>
                    <path d="M1014.125 113.19a1.5 1.5 0 0 1 .144 2.993l-.144.007h-8.748a1.5 1.5 0 0 1-.144-2.994l.144-.006h8.748zM1014.125 107.99a1.5 1.5 0 0 1 .144 2.992l-.144.007h-8.748a1.5 1.5 0 0 1-.144-2.993l.144-.007h8.748zM1009.5 91.5a1.5 1.5 0 0 1 1.493 1.356L1011 93v9h9a1.5 1.5 0 0 1 1.493 1.356l.007.144a1.5 1.5 0 0 1-1.356 1.493L1020 105h-10.5a1.5 1.5 0 0 1-1.493-1.356l-.007-.144V93a1.5 1.5 0 0 1 1.5-1.5z"/>
                </g>
            </g>
            <g>
                <g transform="translate(187 272)">
                    <use fill="#000" filter="url(#f7td9ofnlp)" xlink:href="#noma1tevfq"/>
                    <use stroke="#FFF" stroke-width="1.684" fill="#FFF" xlink:href="#noma1tevfq"/>
                </g>
                <path d="M217.194 322h-13.25a2.94 2.94 0 0 1-2.944-2.94v-6.343a2.94 2.94 0 0 1 2.944-2.94h8.369v-9.282a2.94 2.94 0 0 1 2.944-2.94h9.299v24.368h-7.362V322z" fill="#FFC517"/>
                <path d="M234.007 322h-9.451v-33.039c0-1.636 1.339-2.961 2.993-2.961h6.458c1.654 0 2.993 1.325 2.993 2.961v30.078c-.079 1.636-1.417 2.961-2.993 2.961z" fill="#F57E02"/>
                <path d="M36 23.778v9.283C36 34.685 34.661 36 33.007 36h-9.451V11.556L36 23.778z" fill="url(#lp3vua2ckr)" transform="translate(201 286)"/>
            </g>
        </g>
    </g>
</svg>
