<svg width="40" height="40" viewBox="0 0 40 40" xmlns="http://www.w3.org/2000/svg">
    <g fill="none" fill-rule="evenodd">
        <rect stroke="#DEE3EA" fill="#FFF" x=".5" y=".5" width="39" height="39" rx="6"/>
        <g fill="#7D89FF" fill-rule="nonzero">
            <path d="M29.9 31H10.1A1.1 1.1 0 0 1 9 29.9V10.1A1.1 1.1 0 0 1 10.1 9h19.8a1.1 1.1 0 0 1 1.1 1.1v19.8a1.1 1.1 0 0 1-1.1 1.1zm-18.7-2.2h17.6V11.2H11.2v17.6z"/>
            <path d="M13.4 21.1h2.2c.608 0 1.1.607 1.1 1.1v4.4a1.1 1.1 0 0 1-1.1 1.1h-2.2c-.608 0-1.1-.608-1.1-1.1v-4.4a1.1 1.1 0 0 1 1.1-1.1zM24.4 16.7h2.2c.607 0 1.1.608 1.1 1.1v8.8a1.1 1.1 0 0 1-1.1 1.1h-2.2c-.608 0-1.1-.607-1.1-1.1v-8.8a1.1 1.1 0 0 1 1.1-1.1zM18.9 12.3h2.2c.608 0 1.1.608 1.1 1.1v13.2a1.1 1.1 0 0 1-1.1 1.1h-2.2c-.607 0-1.1-.607-1.1-1.1V13.4a1.1 1.1 0 0 1 1.1-1.1z"/>
        </g>
    </g>
</svg>
