<svg width="40" height="40" viewBox="0 0 40 40" xmlns="http://www.w3.org/2000/svg">
    <g fill="none" fill-rule="evenodd">
        <rect stroke="#DEE3EA" fill="#FFF" x=".5" y=".5" width="39" height="39" rx="6"/>
        <path d="M29.198 22.91a.8.8 0 0 1 1.6 0v3.194c0 .531-.216 1.013-.565 1.362-.35.35-.83.565-1.362.565h-3.195a.8.8 0 0 1 0-1.6h3.194a.327.327 0 0 0 .327-.327V22.91zm-16.336 1.868h.46v-3.962h1.6v3.962h2.257v-3.962h1.6v3.962h2.258v-3.962h1.6v3.962h2.258v-3.962h1.6v3.962h.479c.275 0 .5-.224.5-.5v-3.462H31.2a.8.8 0 1 0 0-1.6H8.8a.8.8 0 0 0 0 1.6h3.561v3.462c0 .276.225.5.501.5zm.46-7.162v-2.362h-.46c-.275 0-.5.224-.5.5v1.862h.96zm3.857 0v-2.362h-2.257v2.362h2.257zm3.858 0v-2.362h-2.258v2.362h2.258zm3.858 0v-2.362h-2.258v2.362h2.258zm2.58 0v-1.862c0-.276-.225-.5-.5-.5h-.48v2.362h.98zm-13.15 8.816a.8.8 0 0 1 0 1.6h-3.194a1.922 1.922 0 0 1-1.362-.565 1.921 1.921 0 0 1-.565-1.362V22.91a.8.8 0 0 1 1.6 0v3.194a.327.327 0 0 0 .327.327h3.194zm-3.422-9.31a.8.8 0 0 1-1.6 0v-3.194c0-.532.216-1.013.565-1.362.349-.35.83-.566 1.362-.566h3.194a.8.8 0 0 1 0 1.6H11.23a.328.328 0 0 0-.327.328v3.194zM25.775 13.6a.8.8 0 0 1 0-1.6h3.194c.531 0 1.013.216 1.362.565.349.35.565.83.565 1.362v3.194a.8.8 0 0 1-1.6 0v-3.193a.327.327 0 0 0-.327-.327h-3.194z" fill="#000" fill-rule="nonzero"/>
    </g>
</svg>
