<svg width="40" height="40" viewBox="0 0 40 40" xmlns="http://www.w3.org/2000/svg">
    <defs>
        <linearGradient x1="50%" y1="0%" x2="50%" y2="100%" id="68x4ssm51a">
            <stop stop-color="#5575AF" stop-opacity=".3" offset="0%"/>
            <stop stop-color="#2B4077" stop-opacity=".3" offset="100%"/>
        </linearGradient>
    </defs>
    <g fill="none" fill-rule="evenodd">
        <rect stroke="#445C9B" fill="url(#68x4ssm51a)" x=".5" y=".5" width="39" height="39" rx="6"/>
        <g fill="#F28686" fill-rule="nonzero">
            <path d="M31.272 15H24.76a.728.728 0 0 0-.728.728l2.185 4.735-2.185 4.734a.729.729 0 0 0 .728.729h6.512a.729.729 0 0 0 .728-.729v-9.469a.729.729 0 0 0-.728-.728zM20.28 17.578a.728.728 0 0 0-.662-.393h-2.6a.728.728 0 0 0-.65 1.063l.977 1.85c.109.21.109.46 0 .67l-.976 1.88a.729.729 0 0 0 .648 1.092h2.6a.728.728 0 0 0 .649-.393l1.34-2.52a.729.729 0 0 0 0-.67l-1.326-2.579zM12.05 17.578a.729.729 0 0 0-.649-.393H8.728a.728.728 0 0 0-.728.67v5.193c.02.388.34.693.728.692h2.673a.73.73 0 0 0 .649-.393l1.318-2.52a.728.728 0 0 0 0-.67l-1.318-2.579z"/>
        </g>
    </g>
</svg>
