<svg width="40" height="40" viewBox="0 0 40 40" xmlns="http://www.w3.org/2000/svg">
    <g fill="none" fill-rule="evenodd">
        <rect stroke="#DEE3EA" fill="#FFF" x=".5" y=".5" width="39" height="39" rx="6"/>
        <g fill="#B189FF" fill-rule="nonzero">
            <path d="m30.796 28.236-1.709-1.709a.587.587 0 1 0-.83.832l.731.731H11.91V11.013l.732.731a.586.586 0 0 0 .832 0 .588.588 0 0 0 0-.831l-1.71-1.709a.584.584 0 0 0-.882-.001l-1.71 1.71a.588.588 0 1 0 .832.83l.731-.73v17.665c0 .324.263.587.588.587h17.665l-.731.732a.587.587 0 1 0 .831.83l1.709-1.708a.585.585 0 0 0 .204-.442.583.583 0 0 0-.205-.441z"/>
            <path d="M17.94 15.086a2.5 2.5 0 1 1-5 0 2.5 2.5 0 0 1 5 0M19.524 24.367a2.075 2.075 0 1 1-4.15 0 2.075 2.075 0 0 1 4.15 0M27.228 15.336a3.5 3.5 0 1 1-7 0 3.5 3.5 0 0 1 7 0M20.129 19.369a.76.76 0 1 1-1.522 0 .76.76 0 0 1 1.522 0M27.673 23.058a2 2 0 1 1-4 0 2 2 0 0 1 4 0"/>
        </g>
    </g>
</svg>
