<svg width="40" height="40" viewBox="0 0 40 40" xmlns="http://www.w3.org/2000/svg">
    <g fill="none" fill-rule="evenodd">
        <rect stroke="#DEE3EA" fill="#FFF" x=".5" y=".5" width="39" height="39" rx="6"/>
        <g fill="#93B254" fill-rule="nonzero">
            <path d="M29.75 9h-19.5C8.975 9 8 9.975 8 11.25v12c0 1.275.975 2.25 2.25 2.25h19.5c1.275 0 2.25-.975 2.25-2.25v-12C32 9.975 31.025 9 29.75 9zm-15.975 9.225c.3.3.3.75 0 1.05a.68.68 0 0 1-.525.225.68.68 0 0 1-.525-.225l-1.5-1.5c-.3-.3-.3-.75 0-1.05l1.5-1.5c.3-.3.75-.3 1.05 0 .3.3.3.75 0 1.05l-.975.975.975.975zm15-.45-1.5 1.5a.68.68 0 0 1-.525.225.68.68 0 0 1-.525-.225c-.3-.3-.3-.75 0-1.05l.975-.975-.975-.975c-.3-.3-.3-.75 0-1.05.3-.3.75-.3 1.05 0l1.5 1.5c.3.3.3.75 0 1.05zM21.5 28.5a1.5 1.5 0 1 1-3 0 1.5 1.5 0 0 1 3 0"/>
            <path d="M17 28.5a1.5 1.5 0 1 1-3 0 1.5 1.5 0 0 1 3 0M26 28.5a1.5 1.5 0 1 1-3 0 1.5 1.5 0 0 1 3 0" opacity=".3"/>
        </g>
    </g>
</svg>
