<svg width="40" height="40" viewBox="0 0 40 40" xmlns="http://www.w3.org/2000/svg">
    <g fill="none" fill-rule="evenodd">
        <rect stroke="#DEE3EA" fill="#FFF" x=".5" y=".5" width="39" height="39" rx="6"/>
        <g fill="#7D89FF" fill-rule="nonzero">
            <path d="M17.567 9h-6.604a1.813 1.813 0 0 0-1.815 1.815v6.604c0 1.004.811 1.815 1.815 1.815h6.604a1.813 1.813 0 0 0 1.815-1.815v-6.604c0-.985-.83-1.815-1.815-1.815zm-4.383 7.936-.02-.02-.057.059-2.337-2.356 1.1-1.081 1.256 1.255 3.533-3.534 1.101 1.1-4.576 4.577zM28.638 9A2.362 2.362 0 0 1 31 11.362v5.51a2.362 2.362 0 0 1-2.362 2.362h-5.51a2.362 2.362 0 0 1-2.362-2.362v-5.51A2.362 2.362 0 0 1 23.128 9h5.51zm0 1.574h-5.51a.787.787 0 0 0-.785.729l-.002.059v5.51c0 .415.32.755.728.785l.059.002h5.51a.787.787 0 0 0 .785-.728l.003-.059v-5.51a.787.787 0 0 0-.729-.785l-.059-.003zM28.638 20.415A2.362 2.362 0 0 1 31 22.776v5.51a2.362 2.362 0 0 1-2.362 2.362h-5.51a2.362 2.362 0 0 1-2.362-2.361v-5.51a2.362 2.362 0 0 1 2.362-2.362h5.51zm0 1.574h-5.51a.787.787 0 0 0-.785.728l-.002.06v5.51c0 .415.32.755.728.785l.059.002h5.51a.787.787 0 0 0 .785-.729l.003-.058v-5.51a.787.787 0 0 0-.729-.786l-.059-.002zM16.872 20.415a2.362 2.362 0 0 1 2.362 2.361v5.51a2.362 2.362 0 0 1-2.362 2.362h-5.51A2.362 2.362 0 0 1 9 28.287v-5.51a2.362 2.362 0 0 1 2.362-2.362h5.51zm0 1.574h-5.51a.787.787 0 0 0-.785.728l-.003.06v5.51c0 .415.322.755.729.785l.059.002h5.51a.787.787 0 0 0 .785-.729l.002-.058v-5.51a.787.787 0 0 0-.728-.786l-.059-.002z"/>
        </g>
    </g>
</svg>
