<svg width="22" height="22" viewBox="0 0 22 22" xmlns="http://www.w3.org/2000/svg">
    <g fill="#FFF" fill-rule="nonzero">
        <path d="M10.473.342A.938.938 0 0 1 11.71.255l.089.078 9.66 9.528a1.599 1.599 0 0 1 .11 2.16l-.109.118-9.661 9.528a.938.938 0 0 1-1.396-1.247l.079-.087L19.944 11l-9.462-9.333a.938.938 0 0 1-.087-1.236l.078-.09z"/>
        <path d="M.333.342A.938.938 0 0 1 1.569.255l.09.078 9.66 9.528a1.599 1.599 0 0 1 .109 2.16l-.108.118-9.662 9.528A.938.938 0 0 1 .263 20.42l.079-.087 9.462-9.334L.342 1.667A.938.938 0 0 1 .255.431L.333.34z"/>
    </g>
</svg>
