<svg width="40" height="40" viewBox="0 0 40 40" xmlns="http://www.w3.org/2000/svg">
    <g fill="none" fill-rule="evenodd">
        <rect stroke="#DEE3EA" fill="#FFF" x=".5" y=".5" width="39" height="39" rx="6"/>
        <g fill="#76CB89" fill-rule="nonzero">
            <path d="M8 27.764h24V19.48l-2.927 2.405a.261.261 0 0 1-.07.04l-.005.002a.252.252 0 0 1-.188-.009c-.017-.008-.03-.022-.044-.033-.015-.011-.032-.019-.043-.033l-.002-.002-1.836-2.203-3.379 2.252c-.005.003-.01.002-.014.005a.246.246 0 0 1-.124.037.25.25 0 0 1-.103-.025c-.01-.004-.017-.01-.025-.014-.01-.006-.02-.009-.029-.015l-2.093-1.668-1.46 1.64c-.013.013-.03.02-.044.031-.01.008-.018.016-.03.022a.25.25 0 0 1-.113.03h-.001a.247.247 0 0 1-.105-.027c-.005-.002-.01-.001-.014-.003l-2.32-1.269-2.047 1.862c-.011.01-.025.015-.037.023l-.028.017a.253.253 0 0 1-.104.025.248.248 0 0 1-.123-.038c-.005-.002-.011-.001-.016-.005l-2.829-1.907L8 22.19v5.574z"/>
            <path d="m8 21.649 3.783-1.543c.008-.003.016-.002.024-.004a.243.243 0 0 1 .097-.01.252.252 0 0 1 .092.03c.007.003.014.004.021.008l2.776 1.872 2.034-1.85.008-.004c.014-.012.03-.02.047-.028.013-.007.024-.015.037-.02.016-.004.032-.005.048-.007.016-.001.031-.005.047-.004.013.001.026.007.04.01.018.005.037.008.054.017.002.001.005 0 .007.002l2.302 1.258 1.487-1.667c.01-.012.024-.018.036-.028.012-.009.024-.02.037-.027.016-.009.033-.012.05-.016.014-.004.028-.01.041-.01.017-.002.034.001.052.003.015.002.03.002.044.006.016.005.031.015.047.024.011.007.025.01.035.019l2.136 1.702 3.413-2.276c.01-.007.022-.008.033-.013.015-.008.03-.015.046-.02.016-.003.032-.003.048-.004a.254.254 0 0 1 .047 0c.016.002.03.008.045.013.016.005.03.01.045.018.014.008.027.02.04.032.009.008.02.012.027.022l1.823 2.186L32 18.833v-5.904l-3.883 2.216-3.666-3.087-.003-.002c-.015-.012-.033-.02-.051-.028-.012-.006-.023-.014-.036-.018-.012-.004-.026-.003-.04-.004-.018-.003-.036-.007-.055-.006l-.028.008a.23.23 0 0 0-.065.021l-.004.001-4.844 2.663-2.18-1.62c-.006-.003-.013-.004-.018-.008a.24.24 0 0 0-.046-.021.235.235 0 0 0-.044-.013c-.016-.003-.032-.003-.048-.002a.233.233 0 0 0-.046.004c-.015.004-.03.01-.045.016a.215.215 0 0 0-.043.023c-.006.004-.013.005-.018.01l-3.073 2.53-1.501-.84c-.01-.007-.022-.007-.033-.011-.018-.008-.036-.016-.056-.019-.017-.002-.032.001-.049.002-.015.001-.031 0-.046.004-.019.005-.035.015-.051.023-.011.006-.024.008-.034.016L8 17.697v3.952z" opacity=".5"/>
        </g>
    </g>
</svg>
