<svg width="40" height="40" viewBox="0 0 40 40" xmlns="http://www.w3.org/2000/svg">
    <defs>
        <linearGradient x1="50%" y1="0%" x2="50%" y2="100%" id="jea9wv58da">
            <stop stop-color="#5575AF" stop-opacity=".3" offset="0%"/>
            <stop stop-color="#2B4077" stop-opacity=".3" offset="100%"/>
        </linearGradient>
    </defs>
    <g fill="none" fill-rule="evenodd">
        <rect stroke="#445C9B" fill="url(#jea9wv58da)" x=".5" y=".5" width="39" height="39" rx="6"/>
        <path d="M26.5 11.2h1.1a2.2 2.2 0 0 1 2.2 2.2v15.4a2.2 2.2 0 0 1-2.2 2.2H12.2a2.2 2.2 0 0 1-2.2-2.2V13.4a2.2 2.2 0 0 1 2.2-2.2h1.1v-1.1a1.1 1.1 0 1 1 2.2 0v1.1h8.8v-1.1a1.1 1.1 0 0 1 2.2 0v1.1zm1.1 3.85v1.65H12.2v12.1h15.4V15.05zM14.4 18.9h4.4v4.4h-4.4v-4.4z" fill="#B9CE5B" fill-rule="nonzero"/>
    </g>
</svg>
