<svg width="40" height="40" viewBox="0 0 40 40" xmlns="http://www.w3.org/2000/svg">
    <g fill="none" fill-rule="evenodd">
        <rect stroke="#DEE3EA" fill="#FFF" x=".5" y=".5" width="39" height="39" rx="6"/>
        <g fill="#EB9B74" fill-rule="nonzero">
            <path d="M29.945 12.094c-.256-.863-1.014-1.576-1.92-1.704-.476-.068-.965-.038-1.446-.038h-.143c-.395 0-.773.348-.755.756.017.41.332.755.755.755h.662c.212 0 .428-.013.64.002a.662.662 0 0 1-.033-.007c-.008-.003-.013-.003-.02-.003-.013-.002-.023-.005-.036-.005l.172.023-.083-.008c.08.015.158.038.234.066a1.482 1.482 0 0 0-.111-.05l.181.075c-.023-.01-.048-.018-.07-.028a2.232 2.232 0 0 1 .188.108c-.007-.007-.022-.015-.03-.022-.01-.01-.025-.015-.025-.018h.005c.003.003.008.003.01.008l.005.002.058.046-.023-.016c.033.028.063.056.094.086.025.025.045.048.068.073l-.016-.028c.008.015.02.028.03.043l.018.02c.025.028.04.063.03.053.026.04.048.083.068.126a.912.912 0 0 0-.027-.075l.075.18-.048-.105c.033.093.058.189.073.287a2.57 2.57 0 0 0-.012-.138c.01.068.012.133.023.201-.003-.02-.005-.043-.01-.063.01.166.007.332.007.498v1.99H10.51v-2.362c0-.05.003-.1.005-.151l-.015.088c.008-.068.015-.133.026-.201-.005.037-.008.075-.01.113.017-.088.04-.174.067-.257-.017.033-.032.068-.047.103l.075-.181a.964.964 0 0 0-.028.078 1.76 1.76 0 0 1 .114-.196c-.008.007-.015.017-.023.025l-.018.02.04-.05c.003-.003.006-.005.008-.01.003-.003.005-.008.008-.01l-.015.022c.027-.033.058-.065.088-.095.025-.026.048-.046.073-.068a.275.275 0 0 1-.028.015l.043-.03.02-.018c.028-.025.06-.04.053-.03.04-.026.083-.048.126-.068a.912.912 0 0 0-.076.027l.182-.075c-.036.015-.07.033-.106.048.073-.026.148-.048.224-.063l-.076.007.05-.007c.041-.005.081-.013.12-.018l-.039.008c-.007 0-.012.002-.02.005l-.035.007c.194-.015.39-.005.584-.005h.602c.395 0 .772-.347.755-.755-.018-.41-.332-.755-.755-.755h-.735c-.345 0-.695-.003-1.028.103a2.462 2.462 0 0 0-1.716 2.349C9 13.76 9 14.713 9 15.667V26.54c0 .838.388 1.576 1.065 2.064.453.327 1.002.426 1.546.426h8.707c-.027-.048-.058-.094-.083-.141l-.03-.053a.673.673 0 0 0-.033-.058l-.005-.01a6.905 6.905 0 0 1-.244-.494c-.013-.027-.023-.053-.035-.08-.008-.015-.013-.03-.02-.046-.008-.02-.018-.042-.025-.063l-.026-.062a4.957 4.957 0 0 1-.09-.25c0-.002-.003-.005-.003-.01a6.478 6.478 0 0 1-.345-2.487c.076-1.241.484-2.472 1.226-3.477.383-.516.81-.969 1.32-1.362a6.698 6.698 0 0 1 1.681-.944c1.269-.5 2.721-.556 4.036-.206.302.08.604.184.893.31.08.035.161.07.242.11l.01.005.12.06c.041.021.081.044.122.064l.15.083c.039.02.074.043.112.065.125.076.251.161.37.245.02.015.04.022.06.047.02 0 .04.026.06.04.005.003.008.003.01.006.086.063.172.126.252.194v-7.213c.003-.405.018-.816-.098-1.208z"/>
            <path d="M17.658 11.863h3.798c.396 0 .773-.348.756-.755-.018-.41-.333-.756-.756-.756h-3.798c-.396 0-.773.348-.756.756.02.41.333.755.756.755zM16.175 14.103h-2.208c-.423 0-.738-.347-.755-.755-.018-.408.36-.755.755-.755h.37V9.756c0-.423.348-.738.755-.755.408-.018.756.36.756.755v2.837h.327c.423 0 .737.347.755.755.018.408-.36.755-.755.755zM30.957 24.95a5.98 5.98 0 0 0-.347-1.283 6.018 6.018 0 0 0-.627-1.088l-.06-.08a.157.157 0 0 0 .022.03c-.012-.018-.028-.035-.035-.045a5.54 5.54 0 0 0-.723-.738c-.037-.033-.075-.063-.113-.096-.007-.005-.015-.012-.025-.017l-.003-.003-.007-.007-.003-.003-.012-.007-.015-.013c-.046-.033-.091-.068-.139-.1a6.054 6.054 0 0 0-.956-.54 5.934 5.934 0 0 0-1.294-.352 6.09 6.09 0 0 0-1.355 0 5.935 5.935 0 0 0-1.294.353 5.9 5.9 0 0 0-1.123.657l-.055.045a6.016 6.016 0 0 0-.753.738c-.035.04-.136.128-.146.178 0 .003.003 0 .005-.002-.007.012-.017.023-.025.035a6.002 6.002 0 0 0-.602 1.047 5.892 5.892 0 0 0-.352 1.29c-.05.447-.05.9 0 1.349v.002c.068.44.184.871.35 1.284v.003c.146.33.322.647.526.946.043.063.088.123.134.186l.005.005.09.111a5.976 5.976 0 0 0 .76.75c.038.03.076.058.111.089-.012-.013-.025-.02-.037-.03.01.007.02.014.025.02a5.603 5.603 0 0 0 1.095.632c.41.163.838.279 1.274.347.453.053.908.053 1.362 0a5.935 5.935 0 0 0 1.294-.353 5.9 5.9 0 0 0 1.125-.657l.055-.045a5.989 5.989 0 0 0 .75-.738c.036-.04.136-.126.146-.178 0-.003-.002 0-.005.002l.026-.035a6.002 6.002 0 0 0 .602-1.047c.165-.416.284-.849.352-1.29.025-.223.037-.45.04-.677a7.583 7.583 0 0 0-.043-.674zm-2.452 3.238c-.277.302-.788.28-1.067 0-.25-.246-.499-.496-.745-.742-.343-.34-.683-.68-1.025-1.022-.086-.084-.171-.167-.252-.252a.84.84 0 0 1-.231-.554c-.003-.04.005-.08.005-.118v-2.301c0-.423.347-.738.755-.756.408-.017.755.36.755.756v2.124l.023.023c.594.592 1.188 1.186 1.785 1.777.297.295.274.763-.003 1.065zM25 14.103h-2.207c-.423 0-.738-.347-.755-.755-.018-.408.36-.755.755-.755h.355v-2.8c0-.422.347-.737.755-.755.408-.017.755.36.755.756v2.799h.343c.423 0 .737.347.755.755.018.408-.36.755-.755.755z"/>
        </g>
    </g>
</svg>
