<svg width="40" height="40" viewBox="0 0 40 40" xmlns="http://www.w3.org/2000/svg">
    <defs>
        <linearGradient x1="50%" y1="0%" x2="50%" y2="100%" id="5kthhvdn6a">
            <stop stop-color="#5575AF" stop-opacity=".3" offset="0%"/>
            <stop stop-color="#2B4077" stop-opacity=".3" offset="100%"/>
        </linearGradient>
    </defs>
    <g fill="none" fill-rule="evenodd">
        <rect stroke="#445C9B" fill="url(#5kthhvdn6a)" x=".5" y=".5" width="39" height="39" rx="6"/>
        <path d="M30 11H10a2 2 0 0 0-2 2v1.13h24V13a2 2 0 0 0-2-2zM9.565 12.043a.522.522 0 1 1 0 1.045.522.522 0 0 1 0-1.045zm2.087 0a.522.522 0 1 1 0 1.045.522.522 0 0 1 0-1.045zm2.087 0a.522.522 0 1 1 0 1.045.522.522 0 0 1 0-1.045zM32 14.652v12.609a2 2 0 0 1-1.85 1.994l-.15.006H10a2 2 0 0 1-1.995-1.85L8 27.26V14.652h24zm-1 1H9v11.609a1 1 0 0 0 .883.993l.117.007h20a1 1 0 0 0 .993-.884l.007-.116V15.652z" fill="#F28686" fill-rule="nonzero"/>
        <path d="M24.715 18.304H13.217v7.826h13.566v-5.758a1.827 1.827 0 0 1-2.068-2.068z" fill="#F28686" fill-rule="nonzero"/>
        <path d="M22.609 23a.522.522 0 0 1 0 1.043H17.39a.522.522 0 0 1 0-1.043zm1.565-2.609a.522.522 0 0 1 0 1.044h-8.348a.522.522 0 0 1 0-1.044z" fill="#FFF" fill-rule="nonzero"/>
        <path d="M26.522 17.783a.783.783 0 1 1 0 1.565.783.783 0 0 1 0-1.565z" fill="#F28686"/>
    </g>
</svg>
