<svg width="40" height="40" viewBox="0 0 40 40" xmlns="http://www.w3.org/2000/svg">
    <g fill="none" fill-rule="evenodd">
        <rect stroke="#DEE3EA" fill="#FFF" x=".5" y=".5" width="39" height="39" rx="6"/>
        <g fill="#F2A868" fill-rule="nonzero">
            <path d="M25.089 13.705a.365.365 0 0 0 .123.496c1.767 1.302 2.945 3.41 2.945 5.765 0 .186 0 .403-.031.589-.031.186.124.372.31.402l3.068.59c.217.03.434-.094.434-.31.062-.403.062-.837.062-1.271 0-3.782-1.89-7.098-4.804-9.081-.186-.124-.434-.062-.527.124l-1.58 2.696z"/>
            <path d="M23.353 26.691c-.96.341-2.015.465-3.1.372-3.44-.34-6.198-3.223-6.384-6.694-.248-4.122 3.037-7.532 7.128-7.532.9 0 1.736.155 2.542.465.186.062.372 0 .465-.155l1.58-2.696c.124-.186.031-.434-.155-.527a11.343 11.343 0 0 0-5.238-.899c-5.423.372-9.793 4.742-10.165 10.166-.434 6.415 4.649 11.777 10.971 11.777 1.488 0 2.913-.31 4.215-.837a.383.383 0 0 0 .186-.527l-1.55-2.727c-.123-.155-.31-.248-.495-.186z"/>
            <path d="M27.692 22.414c-.496 1.395-1.457 2.573-2.634 3.41-.156.123-.217.34-.124.495l1.55 2.697c.092.186.34.248.526.124a11.158 11.158 0 0 0 4.494-5.92c.062-.217-.062-.434-.279-.465l-3.1-.588c-.185-.031-.34.061-.433.247z"/>
        </g>
    </g>
</svg>
