<svg width="40" height="40" viewBox="0 0 40 40" xmlns="http://www.w3.org/2000/svg">
    <defs>
        <linearGradient x1="50%" y1="0%" x2="50%" y2="100%" id="mt49xp3cva">
            <stop stop-color="#5575AF" stop-opacity=".3" offset="0%"/>
            <stop stop-color="#2B4077" stop-opacity=".3" offset="100%"/>
        </linearGradient>
    </defs>
    <g fill="none" fill-rule="evenodd">
        <rect stroke="#445C9B" fill="url(#mt49xp3cva)" x=".5" y=".5" width="39" height="39" rx="6"/>
        <g fill-rule="nonzero">
            <path d="M8.6 17.4h16.8c.331 0 .6.331.6.6v2.4a.6.6 0 0 1-.6.6H8.6c-.331 0-.6-.331-.6-.6V18a.6.6 0 0 1 .6-.6zM8 10.189C8 9.532 8.546 9 9.19 9h21.62c.657 0 1.19.541 1.19 1.189v4.822c0 .657-.546 1.19-1.19 1.19H9.19c-.657 0-1.19-.542-1.19-1.19V10.19zM8.6 22.2h16.8c.331 0 .6.331.6.6v2.4a.6.6 0 0 1-.6.6H8.6c-.331 0-.6-.331-.6-.6v-2.4a.6.6 0 0 1 .6-.6zM8.6 27h16.8c.331 0 .6.331.6.6V30a.6.6 0 0 1-.6.6H8.6c-.331 0-.6-.331-.6-.6v-2.4a.6.6 0 0 1 .6-.6z" fill="#7DB0FF"/>
            <path d="M24.8 10.2V15H9.2v-4.8h15.6zm6 0V15H26v-4.8h4.8z" fill="#2F4572"/>
            <path fill="#7DB0FF" d="m28.425 12 1.211 1.3H27.2z"/>
        </g>
    </g>
</svg>
