<svg width="49" height="50" viewBox="0 0 49 50" xmlns="http://www.w3.org/2000/svg">
    <g stroke="#1794EF" stroke-width="1.2" fill="none" fill-rule="evenodd">
        <path stroke-linecap="round" stroke-linejoin="round" d="M19.595 7.4h3.156M29.063 7.4h3.156M19.595 20.2h3.156M8.548 39.4h7.89V26.6M38.532 7.4a6.445 6.445 0 0 1-1.85 4.525A6.269 6.269 0 0 1 32.22 13.8H6.97a6.269 6.269 0 0 1-4.463-1.875A6.445 6.445 0 0 1 .658 7.4c0-1.697.665-3.325 1.848-4.525A6.269 6.269 0 0 1 6.97 1h25.25c1.673 0 3.279.674 4.463 1.875A6.446 6.446 0 0 1 38.532 7.4h0z"/>
        <path d="M19.55 26.6H6.97a6.269 6.269 0 0 1-4.464-1.874A6.446 6.446 0 0 1 .658 20.2c0-1.697.665-3.325 1.848-4.525A6.269 6.269 0 0 1 6.97 13.8h25.25c1.108 0 2.197.295 3.158.856A6.358 6.358 0 0 1 37.69 17M35.375 49C42.348 49 48 43.27 48 36.2s-5.652-12.8-12.625-12.8c-6.972 0-12.624 5.73-12.624 12.8S28.403 49 35.375 49z" stroke-linecap="round" stroke-linejoin="round"/>
        <path d="m41.002 32.48-6.113 8.262a1.585 1.585 0 0 1-1.15.635 1.562 1.562 0 0 1-1.23-.462l-3.156-3.2" stroke-linecap="round" stroke-linejoin="round"/>
        <path d="M8.546 8.2a.795.795 0 0 1-.79-.8c0-.442.354-.8.79-.8"/>
        <path d="M8.546 8.2a.795.795 0 0 0 .789-.8c0-.442-.353-.8-.79-.8M8.546 21a.794.794 0 0 1-.79-.8c0-.442.354-.8.79-.8"/>
        <path d="M8.546 21a.794.794 0 0 0 .789-.8c0-.442-.353-.8-.79-.8M1.447 39.4a.794.794 0 0 1-.79-.8c0-.442.354-.8.79-.8"/>
        <path d="M1.447 39.4a.794.794 0 0 0 .789-.8c0-.442-.354-.8-.79-.8"/>
    </g>
</svg>
