<svg width="50" height="50" viewBox="0 0 50 50" xmlns="http://www.w3.org/2000/svg">
    <g stroke="#1794EF" stroke-width="1.875" fill="none" fill-rule="evenodd">
        <path stroke-linecap="round" stroke-linejoin="round" d="M20.595 7.4h3.156M30.063 7.4h3.156M20.595 20.2h3.156M9.548 39.4h7.89V26.6M39.532 7.4a6.445 6.445 0 0 1-1.85 4.525A6.269 6.269 0 0 1 33.22 13.8H7.97a6.269 6.269 0 0 1-4.463-1.875A6.445 6.445 0 0 1 1.658 7.4c0-1.697.665-3.325 1.848-4.525A6.269 6.269 0 0 1 7.97 1h25.25c1.673 0 3.279.674 4.463 1.875A6.446 6.446 0 0 1 39.532 7.4h0z"/>
        <path d="M20.55 26.6H7.97a6.269 6.269 0 0 1-4.464-1.874A6.446 6.446 0 0 1 1.658 20.2c0-1.697.665-3.325 1.848-4.525A6.269 6.269 0 0 1 7.97 13.8h25.25c1.108 0 2.197.295 3.158.856A6.358 6.358 0 0 1 38.69 17M36.375 49C43.348 49 49 43.27 49 36.2s-5.652-12.8-12.625-12.8c-6.972 0-12.624 5.73-12.624 12.8S29.403 49 36.375 49z" stroke-linecap="round" stroke-linejoin="round"/>
        <path d="m42.002 32.48-6.113 8.262a1.585 1.585 0 0 1-1.15.635 1.562 1.562 0 0 1-1.23-.462l-3.156-3.2" stroke-linecap="round" stroke-linejoin="round"/>
        <path d="M9.546 8.2a.795.795 0 0 1-.79-.8c0-.442.354-.8.79-.8"/>
        <path d="M9.546 8.2a.795.795 0 0 0 .789-.8c0-.442-.353-.8-.79-.8M9.546 21a.794.794 0 0 1-.79-.8c0-.442.354-.8.79-.8"/>
        <path d="M9.546 21a.794.794 0 0 0 .789-.8c0-.442-.353-.8-.79-.8M2.447 39.4a.794.794 0 0 1-.79-.8c0-.442.354-.8.79-.8"/>
        <path d="M2.447 39.4a.794.794 0 0 0 .789-.8c0-.442-.354-.8-.79-.8"/>
    </g>
</svg>
