<svg id="Layer_21_copy" data-name="Layer 21 copy" xmlns="http://www.w3.org/2000/svg" xmlns:xlink="http://www.w3.org/1999/xlink" viewBox="0 0 741.99 380.29"><defs><style>.cls-1,.cls-10,.cls-13,.cls-15,.cls-16,.cls-17,.cls-18,.cls-19,.cls-2,.cls-20,.cls-22,.cls-23,.cls-24,.cls-25,.cls-26,.cls-27,.cls-28,.cls-3,.cls-30,.cls-35,.cls-38,.cls-4,.cls-5,.cls-6,.cls-8,.cls-9{fill:none;}.cls-1,.cls-10,.cls-13,.cls-15,.cls-16,.cls-17,.cls-18,.cls-19,.cls-2,.cls-23,.cls-24,.cls-25,.cls-27,.cls-28,.cls-3,.cls-30,.cls-35,.cls-38,.cls-4,.cls-5,.cls-6,.cls-8,.cls-9{stroke-miterlimit:10;}.cls-1{stroke-width:3px;stroke:url(#linear-gradient);}.cls-13,.cls-15,.cls-2,.cls-20,.cls-22,.cls-23,.cls-24,.cls-26,.cls-27,.cls-35,.cls-4,.cls-5{stroke-linecap:round;}.cls-10,.cls-18,.cls-19,.cls-2,.cls-20,.cls-26,.cls-27,.cls-3,.cls-35,.cls-4,.cls-5,.cls-6,.cls-8,.cls-9{stroke-width:2px;}.cls-19,.cls-2,.cls-3,.cls-5{opacity:0.25;}.cls-2{stroke:url(#linear-gradient-2);}.cls-3{stroke:url(#linear-gradient-3);}.cls-4{stroke:url(#linear-gradient-4);}.cls-5{stroke:url(#linear-gradient-5);}.cls-20,.cls-6{stroke:#32ccc8;}.cls-7{fill:#32ccc8;}.cls-28,.cls-8{stroke:#45aaf4;}.cls-27,.cls-9{stroke:#eac386;}.cls-10{stroke:#61bbf2;}.cls-11{fill:#39d8c5;}.cls-12{fill:#176b61;opacity:0.45;}.cls-13,.cls-19,.cls-24{stroke:#2e3192;}.cls-13{stroke-width:1.43px;}.cls-14{fill:#28c8ff;}.cls-15,.cls-17,.cls-18,.cls-25,.cls-26,.cls-30{stroke:#7fcdf4;}.cls-15,.cls-16,.cls-17,.cls-22,.cls-23,.cls-25,.cls-38{stroke-width:1.27px;}.cls-16{stroke:#132c63;}.cls-16,.cls-17{opacity:0.15;}.cls-20,.cls-22,.cls-26{stroke-linejoin:round;}.cls-21{fill:#aa2eaa;}.cls-22{stroke:#341368;}.cls-23{stroke:#fff;}.cls-29{fill:#45aaf4;}.cls-31{fill:#eac386;}.cls-32{fill:url(#linear-gradient-6);}.cls-33{fill:url(#linear-gradient-7);}.cls-34{fill:url(#linear-gradient-8);}.cls-35{stroke:url(#linear-gradient-9);}.cls-36{fill:#097fd5;}.cls-37{fill:#1794ef;}.cls-38{stroke:#39d8c5;}.cls-39{fill:#92cdda;}.cls-40{fill:url(#linear-gradient-10);}</style><linearGradient id="linear-gradient" x1="253.16" y1="145.74" x2="496.58" y2="145.74" gradientUnits="userSpaceOnUse"><stop offset="0" stop-color="#3e53c3"/><stop offset="1" stop-color="#45aaf4"/></linearGradient><linearGradient id="linear-gradient-2" x1="265.14" y1="92.82" x2="294.12" y2="92.82" xlink:href="#linear-gradient"/><linearGradient id="linear-gradient-3" x1="353.26" y1="45.45" x2="424.37" y2="45.45" xlink:href="#linear-gradient"/><linearGradient id="linear-gradient-4" x1="339.33" y1="289.14" x2="432.63" y2="289.14" xlink:href="#linear-gradient"/><linearGradient id="linear-gradient-5" x1="293.21" y1="312.48" x2="383.48" y2="312.48" xlink:href="#linear-gradient"/><linearGradient id="linear-gradient-6" x1="463.8" y1="277.41" x2="554.38" y2="277.41" xlink:href="#linear-gradient"/><linearGradient id="linear-gradient-7" x1="460.1" y1="115.87" x2="648.99" y2="115.87" xlink:href="#linear-gradient"/><linearGradient id="linear-gradient-8" x1="330.06" y1="63.69" x2="363.33" y2="63.69" gradientUnits="userSpaceOnUse"><stop offset="0" stop-color="#45aaf4"/><stop offset="1" stop-color="#3e53c3"/></linearGradient><linearGradient id="linear-gradient-9" x1="259.85" y1="112.51" x2="449.5" y2="112.51" gradientTransform="translate(514.8 530.42) rotate(-132.72)" xlink:href="#linear-gradient"/><linearGradient id="linear-gradient-10" x1="299.04" y1="271.18" x2="272.81" y2="251.14" xlink:href="#linear-gradient"/></defs><title>Hero img-blue logo-WM learning center</title><path class="cls-1" d="M254.66,172.79a120.26,120.26,0,1,1,226.09,62"/><path class="cls-2" d="M266.14,106.94a121.06,121.06,0,0,1,27-28.25"/><path class="cls-3" d="M353.43,42.15a121.55,121.55,0,0,1,21.39-1.89A119.88,119.88,0,0,1,424,50.72"/><path class="cls-4" d="M431.63,282.35a120.61,120.61,0,0,1-91.3,8.16"/><path class="cls-5" d="M382.48,324.43a120.7,120.7,0,0,1-88.27-24.73"/><polygon class="cls-6" points="539.98 96.23 508.94 54.42 538.29 32.45 549.49 47.66 545.9 54.84 564.06 78.49 539.98 96.23"/><line class="cls-6" x1="527.1" y1="42.49" x2="558.15" y2="82.41"/><polygon class="cls-7" points="459.73 70.67 486.99 39.32 476.84 19.79 448.53 51.44 459.73 70.67"/><polyline class="cls-8" points="471.75 24.94 464.58 17.82 436.78 48.71 459.48 70.12"/><circle class="cls-9" cx="494.77" cy="68.38" r="1.79"/><circle class="cls-10" cx="608.29" cy="36.67" r="3.5"/><rect class="cls-11" x="196.04" y="87.17" width="36.49" height="35.66" transform="translate(-20.37 61.64) rotate(-15.64)"/><rect class="cls-12" x="202.34" y="108.62" width="12.77" height="12.77" transform="translate(-23.27 60.52) rotate(-15.64)"/><rect class="cls-12" x="218.32" y="104.14" width="12.77" height="12.77" transform="translate(-21.48 64.66) rotate(-15.64)"/><line class="cls-13" x1="202.27" y1="93.47" x2="205.58" y2="105.29"/><line class="cls-13" x1="218.09" y1="89.04" x2="221.4" y2="100.86"/><polygon class="cls-8" points="303.63 53.32 279.2 12.92 273.14 17.51 269.09 10.89 242.42 27.11 271.4 74.19 303.63 53.32"/><path class="cls-14" d="M36.63,345.43l18.24-9.6a6.11,6.11,0,0,0-5.78-10.76l-17.88,9.4a6.13,6.13,0,0,0-2.69,7.92l.2.35A6.19,6.19,0,0,0,36.63,345.43Zm2.71-8.51a6.38,6.38,0,0,0-4.32-3.1l14.56-7.62a4.77,4.77,0,0,1,6.48,1.95,4.85,4.85,0,0,1-2,6.48l-14.57,7.62A6.07,6.07,0,0,0,39.34,336.92Zm-9.63.79.08-.28.09-.05.09-.05a4.91,4.91,0,0,1,1.91-1.83,4.78,4.78,0,1,1,4.52,8.43,5,5,0,0,1-2.71.54l-.28-.09a5,5,0,0,1-3.7-6.67Z"/><line class="cls-15" x1="498.67" y1="308.07" x2="515.66" y2="319.4"/><line class="cls-15" x1="496.47" y1="311.98" x2="513.46" y2="323.31"/><line class="cls-15" x1="494.01" y1="315.98" x2="511.01" y2="327.31"/><circle class="cls-16" cx="543.62" cy="226.28" r="8.11"/><circle class="cls-17" cx="446.94" cy="301.13" r="6.58"/><circle class="cls-18" cx="201.03" cy="323.92" r="6.58"/><circle class="cls-19" cx="321.32" cy="295.26" r="3.69"/><line class="cls-20" x1="625.34" y1="280.21" x2="617.95" y2="305.61"/><line class="cls-20" x1="633.85" y1="296.52" x2="609.38" y2="288.97"/><polygon class="cls-21" points="551.78 138.73 555.2 176.28 585.73 173.44 582.13 135.7 551.78 138.73"/><line class="cls-22" x1="572.84" y1="136.64" x2="576.63" y2="173.82"/><line class="cls-23" x1="580.95" y1="144.31" x2="586.28" y2="143.73"/><line class="cls-23" x1="581.8" y1="164.16" x2="587.13" y2="163.59"/><polygon class="cls-6" points="429.73 369.09 433 316.32 394.47 314.22 391.47 367.26 429.73 369.09"/><line class="cls-24" x1="401.16" y1="326.9" x2="423.67" y2="328.07"/><line class="cls-24" x1="400.81" y1="335.43" x2="423.32" y2="336.6"/><line class="cls-24" x1="400.64" y1="343.72" x2="423.15" y2="344.89"/><polygon class="cls-25" points="660.75 95.84 646.68 92.68 614.57 108.33 621.79 123.91 655.08 108.21 660.75 95.84"/><circle class="cls-25" cx="650.69" cy="100.68" r="3.05"/><polygon class="cls-18" points="694.07 255.18 671.8 252.66 674.99 222.86 697.26 225.37 694.07 255.18"/><circle class="cls-18" cx="688" cy="242.31" r="2.5"/><polyline class="cls-26" points="682.57 223.81 687.79 234.97 679.48 240.92 683.34 246.64 676.42 252.6"/><line class="cls-27" x1="222.95" y1="160.41" x2="225.82" y2="167.8"/><line class="cls-27" x1="220.76" y1="165.34" x2="228.01" y2="162.87"/><rect class="cls-28" x="132.55" y="125.19" width="37.44" height="6.5" rx="3.04" transform="translate(74.52 -54.56) rotate(26.91)"/><circle class="cls-29" cx="137.47" cy="121.54" r="4"/><circle class="cls-30" cx="137.05" cy="48.97" r="3.48"/><polyline class="cls-27" points="129.17 181.66 100.9 192.58 130.45 203.5"/><path class="cls-31" d="M564.68,324.33a34.56,34.56,0,0,1,15.38,14.78c.58,1.09,2.23.12,1.65-1a36.3,36.3,0,0,0-16.07-15.47c-1.1-.54-2.07,1.11-1,1.65Z"/><path class="cls-32" d="M463.15,240.36c-1,8.7-.17,18.68,6.35,25.22s16,7.34,24.63,7.48c8.25.14,17.18-.42,24.7,3.62a17,17,0,0,1,8,9.14c1.6,4.22,2.16,8.75,3.67,13a20.65,20.65,0,0,0,9.22,11.28c4.39,2.56,9.36,3.92,14.09,5.69,1.81.68,2.59-2.22.8-2.89-4.1-1.54-8.36-2.74-12.25-4.77a17.69,17.69,0,0,1-8.57-9c-1.68-4.12-2.24-8.59-3.62-12.8A21,21,0,0,0,523.34,276c-6.44-5-15.19-5.85-23.08-6-8.34-.1-17.61.52-25.08-3.88-9-5.31-10.08-16.43-9-25.85.21-1.92-2.79-1.9-3,0Z"/><path class="cls-33" d="M461.07,167.74c9.39-4.49,18.61-9.36,27.82-14.2Q509.1,142.9,529.17,132q22.51-12.15,45-24.38,21-11.41,41.94-22.86,15.39-8.4,30.8-16.76l2.62-1.41c1.7-.92.18-3.51-1.52-2.6q-14.54,7.83-29,15.77-20.44,11.15-40.89,22.29-22.5,12.25-45,24.43-20.66,11.14-41.39,22.15C481.85,153.87,472,159.08,462,164l-2.44,1.18c-1.74.84-.22,3.42,1.51,2.59Z"/><path class="cls-34" d="M329.21,30.11q12.35,26.84,25.06,53.48,3.64,7.6,7.31,15.21c.84,1.74,3.43.22,2.59-1.52Q351.33,70.7,338.88,43.91q-3.56-7.65-7.08-15.31c-.8-1.76-3.39-.23-2.59,1.51Z"/><path class="cls-7" d="M178.81,294.6l-.58,6.26-.36,3.86a9.25,9.25,0,0,1-.45,2.78c-.75,1.79-2.66,2.11-4.38,1.77-2.58-.5-5-1.55-7.55-2.27a15.78,15.78,0,0,0-7.08-.68,12.63,12.63,0,0,0-6.24,3.47c-4.91,4.43-9.58,9.14-14.36,13.71-.89.85.47,2.2,1.35,1.35q6.65-6.35,13.27-12.69c2-1.92,4.15-3.81,7-4.07s5.45.7,8,1.54c3.33,1.1,8.4,3.27,11.06-.28,1.41-1.89,1.26-4.89,1.47-7.16l.71-7.59c.11-1.22-1.8-1.22-1.92,0Z"/><path class="cls-35" d="M435.81,248.33A93.87,93.87,0,1,1,351.64,85.86"/><g id="Layer_32" data-name="Layer 32"><path class="cls-29" d="M417.68,138.44a56.9,56.9,0,0,0-54.26-14.67c-28.42,7.23-46.9,35.18-42.34,64a56.34,56.34,0,0,0,59.05,47.5,26.85,26.85,0,0,1-3.95-.59,43.45,43.45,0,0,1-34.54-51.37,46.51,46.51,0,0,1,3.87-11.15,44.28,44.28,0,0,1,19.92-19.91,39.42,39.42,0,0,1,8.63-3.16,44.89,44.89,0,0,1,21.76-.11,2,2,0,0,1,.76.26,39.59,39.59,0,0,1,7.67-2.85A41.09,41.09,0,0,1,414.72,145,3.89,3.89,0,0,0,417.68,138.44Z"/><path class="cls-36" d="M390.75,210.08a19.81,19.81,0,0,1,16.41-21.51,3.49,3.49,0,0,0,1.37-6.25,26.76,26.76,0,0,0-23.16-4,26.89,26.89,0,1,0,21.21,48.9A19.65,19.65,0,0,1,390.75,210.08Z"/><path class="cls-37" d="M412.82,160.44a41.65,41.65,0,0,0-38.2-9.26c-21.46,5.54-35.26,27.19-30.87,48.9A41.78,41.78,0,0,0,389,233.24a19.92,19.92,0,0,1-2.61-.46,29,29,0,0,1-22.22-34.54,27.94,27.94,0,0,1,2.9-7.65,29,29,0,0,1,12.81-12.39,32.37,32.37,0,0,1,4.92-2,38.19,38.19,0,0,1,6.64-1.06,30.87,30.87,0,0,1,13.36-7.42,27.14,27.14,0,0,1,5.94-.87A3.65,3.65,0,0,0,412.82,160.44Z"/></g><circle class="cls-38" cx="219.39" cy="217.08" r="3.46"/><polyline class="cls-38" points="222.46 199.3 221.71 209.34 228.49 209.72 225.6 225.16 239.79 226.04"/><circle class="cls-38" cx="226.3" cy="215.96" r="17.1"/><path class="cls-39" d="M313,344.19l-20.88,10-10-20.88a.67.67,0,0,1,.33-.92.66.66,0,0,1,.83.36l9.45,19.72L312.41,343a.67.67,0,0,1,.89.24A.68.68,0,0,1,313,344.19Zm-19.48,6,18.82-9-1.93-4-5.86-5.57-4.14,5.62-10-4.12L288.6,340l0,.09Z"/><path class="cls-40" d="M247.79,287l60.67-38.2L325.58,238c1.63-1,.13-3.62-1.51-2.59L263.4,273.58l-17.13,10.78c-1.63,1-.12,3.63,1.52,2.59Z"/></svg>