<svg width="40" height="40" viewBox="0 0 40 40" xmlns="http://www.w3.org/2000/svg">
    <defs>
        <linearGradient x1="50%" y1="0%" x2="50%" y2="100%" id="ws010ccw4a">
            <stop stop-color="#5575AF" stop-opacity=".3" offset="0%"/>
            <stop stop-color="#2B4077" stop-opacity=".3" offset="100%"/>
        </linearGradient>
    </defs>
    <g fill="none" fill-rule="evenodd">
        <rect stroke="#445C9B" fill="url(#ws010ccw4a)" x=".5" y=".5" width="39" height="39" rx="6"/>
        <path d="M27.274 26.342v-6.677H9v6.677h18.274zm-3.967-4.996a.668.668 0 1 1 1.337 0v2.647h1.07a.669.669 0 0 1 0 1.337h-1.738a.667.667 0 0 1-.669-.668v-3.316zm-4.894 0a.67.67 0 0 1 1.204-.406l.887 1.168.887-1.168a.67.67 0 0 1 1.203.406v3.316a.669.669 0 0 1-1.337 0v-1.333l-.214.28-.009.01a.623.623 0 0 1-.152.142.362.362 0 0 1-.089.054h-.004a.437.437 0 0 1-.147.049.547.547 0 0 1-.276 0 .03.03 0 0 1-.027-.005.433.433 0 0 1-.12-.044h-.005a.365.365 0 0 1-.09-.054.618.618 0 0 1-.151-.143l-.009-.008-.214-.28v1.332a.669.669 0 0 1-1.337 0v-3.316zm-3.53-.669h2.113a.668.668 0 1 1 0 1.337h-.388v2.648a.669.669 0 0 1-1.337 0v-2.648h-.388a.669.669 0 0 1 0-1.337zm-1.578 3.985a.668.668 0 1 1-1.337 0v-.99h-.74v.99a.669.669 0 0 1-1.337 0v-3.316a.668.668 0 1 1 1.338 0v.99h.74v-.99a.669.669 0 0 1 1.336 0v3.316zm17.606-8.197v14.09a.444.444 0 0 1-.446.445h-16.25a.447.447 0 0 1-.446-.446V27.68h14.173a.667.667 0 0 0 .669-.668v-8.014a.668.668 0 0 0-.669-.668H13.77V9.446c0-.246.2-.445.446-.446h10.05l5.767 6.128h-4.809v-3.307a.669.669 0 0 0-1.337 0v3.976a.667.667 0 0 0 .669.668h6.356z" fill="#B189FF" fill-rule="nonzero"/>
    </g>
</svg>
