<svg width="40" height="40" viewBox="0 0 40 40" xmlns="http://www.w3.org/2000/svg">
    <g fill="none" fill-rule="evenodd">
        <rect stroke="#DEE3EA" fill="#FFF" x=".5" y=".5" width="39" height="39" rx="6"/>
        <path d="M20 9C13.933 9 9 13.933 9 20s4.933 11 11 11 11-4.933 11-11S26.067 9 20 9zm2.64 5.257c.81 0 1.459.648 1.459 1.459 0 .81-.648 1.459-1.459 1.459-.81 0-1.459-.649-1.459-1.46 0-.81.648-1.458 1.459-1.458zm2.941 9.68H14.42c-.672 0-1.065-.764-.672-1.297l4.123-5.743a.823.823 0 0 1 1.343 0l2.385 3.335a.281.281 0 0 0 .463 0l.556-.765a.823.823 0 0 1 1.343 0l2.293 3.173c.393.533 0 1.297-.672 1.297z" fill="#769DCB" fill-rule="nonzero"/>
    </g>
</svg>
