<svg width="40" height="40" viewBox="0 0 40 40" xmlns="http://www.w3.org/2000/svg">
    <g fill="none" fill-rule="evenodd">
        <rect stroke="#DEE3EA" fill="#FFF" x=".5" y=".5" width="39" height="39" rx="6"/>
        <g fill="#79D499" fill-rule="nonzero">
            <path d="m15.136 15.065-1.138-1.061c-.202-.203-.53-.177-.733.025l-5.132 5.436a.538.538 0 0 0 0 .708l5.132 5.436c.203.202.531.227.733.025l1.138-1.062c.202-.202.228-.531.025-.733l-3.792-4.02 3.793-4.02a.544.544 0 0 0-.026-.734zM31.848 19.465l-5.132-5.436c-.202-.202-.531-.228-.733-.025l-1.138 1.062c-.202.202-.228.53-.025.733l3.792 4.02-3.792 4.02c-.203.202-.177.53.025.733l1.138 1.062c.202.202.53.177.733-.026l5.132-5.435a.489.489 0 0 0 0-.708zM22.443 13.397l-1.517-.38a.52.52 0 0 0-.632.38l-3.135 12.212a.52.52 0 0 0 .379.632l1.517.379a.52.52 0 0 0 .632-.38l3.135-12.211a.542.542 0 0 0-.38-.632z"/>
        </g>
    </g>
</svg>
