<svg width="40" height="40" viewBox="0 0 40 40" xmlns="http://www.w3.org/2000/svg">
    <g fill="none" fill-rule="evenodd">
        <rect stroke="#DEE3EA" fill="#FFF" x=".5" y=".5" width="39" height="39" rx="6"/>
        <g transform="translate(8 11)">
            <path d="M22 0H2a2 2 0 0 0-2 2v1.13h24V2a2 2 0 0 0-2-2zM1.565 1.043a.522.522 0 1 1 0 1.045.522.522 0 0 1 0-1.045zm2.087 0a.522.522 0 1 1 0 1.045.522.522 0 0 1 0-1.045zm2.087 0a.522.522 0 1 1 0 1.045.522.522 0 0 1 0-1.045zM24 3.652H0v12.609a2 2 0 0 0 2 2h20a2 2 0 0 0 2-2V3.652z" fill="#7D89FF" fill-rule="nonzero"/>
            <path d="M13.466 4.923h8a1 1 0 0 1 1 1v9.92a1 1 0 0 1-1 1h-8a1 1 0 0 1-1-1v-9.92a1 1 0 0 1 1-1z" fill="#FFF"/>
            <rect fill="#7D89FF" x="14" y="6" width="7" height="1" rx=".5"/>
            <rect fill="#7D89FF" x="14" y="8.2" width="7" height="1" rx=".5"/>
            <rect fill="#7D89FF" x="14" y="10.4" width="7" height="1" rx=".5"/>
            <rect fill="#7D89FF" x="14" y="12.6" width="7" height="1" rx=".5"/>
            <rect fill="#FFF" x="3" y="12.6" width="7" height="1" rx=".5"/>
            <rect fill="#7D89FF" x="14" y="14.8" width="4" height="1" rx=".5"/>
            <rect fill="#FFF" x="3" y="14.8" width="4" height="1" rx=".5"/>
            <g fill="#FFF" fill-rule="nonzero">
                <path d="m4.676 5.775-.427-.399c-.075-.076-.199-.066-.274.01L2.05 7.424a.202.202 0 0 0 0 .266l1.925 2.038c.075.076.199.086.274.01l.427-.398c.076-.076.085-.2.01-.275L3.263 7.557 4.686 6.05a.204.204 0 0 0-.01-.275zM10.94 7.424 9.015 5.386c-.075-.076-.199-.085-.274-.01l-.427.399c-.076.075-.085.199-.01.275l1.423 1.507-1.423 1.508c-.075.075-.066.199.01.275l.427.398c.075.076.199.066.274-.01L10.94 7.69a.183.183 0 0 0 0-.266zM7.416 5.149l-.569-.142a.195.195 0 0 0-.237.142l-1.175 4.58a.195.195 0 0 0 .142.236l.569.143a.195.195 0 0 0 .237-.143l1.175-4.58a.203.203 0 0 0-.142-.236z"/>
            </g>
        </g>
    </g>
</svg>
