<svg width="40" height="40" viewBox="0 0 40 40" xmlns="http://www.w3.org/2000/svg">
    <defs>
        <radialGradient cx="6.472%" cy="97.809%" fx="6.472%" fy="97.809%" r="126.963%" id="fd9aiynd8b">
            <stop stop-color="#FA8F21" offset="9%"/>
            <stop stop-color="#D82D7E" offset="78%"/>
        </radialGradient>
        <radialGradient cx="2.682%" cy="96.591%" fx="2.682%" fy="96.591%" r="123.794%" gradientTransform="rotate(-43.711 .01 .973) scale(1 1.01445)" id="2cbc6hq0dc">
            <stop stop-color="#B65ED6" stop-opacity="0" offset="0%"/>
            <stop stop-color="#8C3AAA" offset="100%"/>
        </radialGradient>
        <linearGradient x1="50%" y1="0%" x2="50%" y2="100%" id="tg63x0z3ia">
            <stop stop-color="#5575AF" stop-opacity=".3" offset="0%"/>
            <stop stop-color="#2B4077" stop-opacity=".3" offset="100%"/>
        </linearGradient>
    </defs>
    <g fill="none" fill-rule="evenodd">
        <rect stroke="#445C9B" fill="url(#tg63x0z3ia)" x=".5" y=".5" width="39" height="39" rx="6"/>
        <g fill-rule="nonzero">
            <path d="M5.579 21.922c-1.309-.06-2.02-.277-2.492-.461a4.169 4.169 0 0 1-1.543-1.004A4.137 4.137 0 0 1 .54 18.914c-.184-.472-.402-1.183-.462-2.491C.013 15.008 0 14.584 0 11c0-3.583.014-4.007.078-5.422.06-1.309.278-2.018.461-2.492a4.185 4.185 0 0 1 1.004-1.544c.47-.47.916-.761 1.543-1.004C3.56.355 4.27.137 5.578.078 6.993.013 7.418 0 11 0c3.583 0 4.006.014 5.422.078 1.308.06 2.018.278 2.492.461a4.153 4.153 0 0 1 1.543 1.004c.47.47.76.917 1.004 1.543.184.473.402 1.184.461 2.492C21.987 6.994 22 7.418 22 11s-.013 4.007-.078 5.423c-.06 1.308-.278 2.019-.461 2.491a4.161 4.161 0 0 1-1.004 1.543c-.47.47-.917.76-1.543 1.004-.473.184-1.184.402-2.492.461-1.414.065-1.84.078-5.422.078s-4.007-.012-5.421-.078" fill="url(#fd9aiynd8b)" transform="translate(9 9)"/>
            <path d="M5.579 21.922c-1.309-.06-2.02-.277-2.492-.461a4.169 4.169 0 0 1-1.543-1.004A4.137 4.137 0 0 1 .54 18.914c-.184-.472-.402-1.183-.462-2.491C.013 15.008 0 14.584 0 11c0-3.583.014-4.007.078-5.422.06-1.309.278-2.018.461-2.492a4.185 4.185 0 0 1 1.004-1.544c.47-.47.916-.761 1.543-1.004C3.56.355 4.27.137 5.578.078 6.993.013 7.418 0 11 0c3.583 0 4.006.014 5.422.078 1.308.06 2.018.278 2.492.461a4.153 4.153 0 0 1 1.543 1.004c.47.47.76.917 1.004 1.543.184.473.402 1.184.461 2.492C21.987 6.994 22 7.418 22 11s-.013 4.007-.078 5.423c-.06 1.308-.278 2.019-.461 2.491a4.161 4.161 0 0 1-1.004 1.543c-.47.47-.917.76-1.543 1.004-.473.184-1.184.402-2.492.461-1.414.065-1.84.078-5.422.078s-4.007-.012-5.421-.078" fill="url(#2cbc6hq0dc)" transform="translate(9 9)"/>
            <path d="M17.299 20.047a2.724 2.724 0 1 1 5.448 0 2.724 2.724 0 0 1-5.448 0m-1.473 0a4.197 4.197 0 1 0 8.393 0 4.197 4.197 0 0 0-8.393 0m7.58-4.363a.98.98 0 1 0 .98-.98.981.981 0 0 0-.98.98M16.72 26.7c-.797-.037-1.23-.17-1.518-.282a2.54 2.54 0 0 1-.94-.61 2.522 2.522 0 0 1-.611-.94c-.112-.288-.245-.721-.281-1.518-.04-.862-.048-1.12-.048-3.303s.009-2.44.048-3.303c.036-.797.17-1.23.28-1.518a2.54 2.54 0 0 1 .612-.94c.286-.286.558-.463.94-.611.288-.112.721-.245 1.518-.281.861-.04 1.12-.048 3.302-.048s2.44.009 3.303.048c.797.036 1.229.17 1.518.281.381.148.653.325.94.611.286.286.462.559.611.94.112.288.245.721.281 1.518.04.862.048 1.12.048 3.303s-.008 2.44-.048 3.303c-.036.797-.17 1.23-.281 1.518a2.532 2.532 0 0 1-.611.94 2.54 2.54 0 0 1-.94.61c-.288.113-.721.246-1.518.282-.862.04-1.12.047-3.303.047s-2.44-.008-3.302-.047m-.068-14.777c-.87.04-1.464.178-1.984.38a4.012 4.012 0 0 0-1.447.943 3.99 3.99 0 0 0-.943 1.447c-.202.52-.34 1.114-.38 1.984-.04.872-.05 1.15-.05 3.37s.01 2.498.05 3.37c.04.87.178 1.464.38 1.983.209.538.488.994.943 1.448.454.454.91.734 1.447.943.52.202 1.114.34 1.984.38.872.04 1.15.049 3.37.049s2.498-.01 3.37-.05c.87-.04 1.464-.177 1.983-.38a4.02 4.02 0 0 0 1.448-.942c.455-.454.734-.91.943-1.448.202-.52.34-1.113.38-1.984.04-.872.048-1.15.048-3.37 0-2.219-.009-2.497-.049-3.369-.04-.87-.177-1.464-.38-1.984a4.02 4.02 0 0 0-.942-1.447 4 4 0 0 0-1.447-.943c-.52-.202-1.114-.34-1.984-.38-.871-.04-1.15-.05-3.37-.05-2.218 0-2.497.01-3.37.05" fill="#FFF"/>
        </g>
    </g>
</svg>
