<svg width="40" height="41" viewBox="0 0 40 41" xmlns="http://www.w3.org/2000/svg">
    <defs>
        <linearGradient x1="50%" y1="0%" x2="50%" y2="100%" id="6fr6g24upa">
            <stop stop-color="#5575AF" stop-opacity=".3" offset="0%"/>
            <stop stop-color="#2B4077" stop-opacity=".3" offset="100%"/>
        </linearGradient>
    </defs>
    <g transform="translate(0 .333)" fill="none" fill-rule="evenodd">
        <rect stroke="#445C9B" fill="url(#6fr6g24upa)" x=".5" y=".5" width="39" height="39" rx="6"/>
        <g fill="#7D89FF" fill-rule="nonzero">
            <path d="M12 13.5a2.5 2.5 0 1 1-5 0 2.5 2.5 0 0 1 5 0M12 20.5a2.5 2.5 0 1 1-5 0 2.5 2.5 0 0 1 5 0M12 27.5a2.5 2.5 0 1 1-5 0 2.5 2.5 0 0 1 5 0M17.308 15h14.384c.467 0 .9-.286 1.133-.75a1.692 1.692 0 0 0 0-1.5c-.234-.464-.666-.75-1.133-.75H17.308c-.467 0-.9.286-1.133.75a1.692 1.692 0 0 0 0 1.5c.234.464.666.75 1.133.75zM31.692 19H17.308c-.467 0-.9.286-1.133.75a1.693 1.693 0 0 0 0 1.5c.234.464.666.75 1.133.75h14.384c.467 0 .9-.286 1.133-.75a1.693 1.693 0 0 0 0-1.5c-.234-.464-.666-.75-1.133-.75zM31.692 26H17.308c-.467 0-.9.286-1.133.75a1.692 1.692 0 0 0 0 1.5c.234.464.666.75 1.133.75h14.384c.467 0 .9-.286 1.133-.75a1.692 1.692 0 0 0 0-1.5c-.234-.464-.666-.75-1.133-.75z"/>
        </g>
    </g>
</svg>
