<svg width="41" height="40" viewBox="0 0 41 40" xmlns="http://www.w3.org/2000/svg">
    <g transform="translate(.23)" fill="none" fill-rule="evenodd">
        <rect stroke="#DEE3EA" fill="#FFF" x=".5" y=".5" width="39" height="39" rx="6"/>
        <g fill="#A97DFF" fill-rule="nonzero">
            <path d="M28.874 24.559h-2.508c-.354-.915-1.203-1.559-2.2-1.559-.995 0-1.848.644-2.202 1.559h-10.3c-.493 0-.895.422-.895.941 0 .52.402.941.896.941h10.299c.354.915 1.207 1.559 2.203 1.559.996 0 1.845-.644 2.2-1.559h2.507c.494 0 .895-.422.895-.941 0-.52-.401-.941-.895-.941zm-4.707 2.255c-.34 0-.649-.143-.874-.373a1.335 1.335 0 0 1-.38-.941c0-.369.143-.7.38-.941.225-.23.533-.373.874-.373.34 0 .648.143.874.373.233.24.376.572.376.941s-.143.7-.376.941c-.226.23-.534.373-.874.373zM28.874 18.555H18.037c-.354-.91-1.203-1.555-2.196-1.555-.995 0-1.844.645-2.199 1.555h-1.977c-.494 0-.896.422-.896.943 0 .52.402.943.896.943h1.977c.355.914 1.204 1.559 2.2 1.559.992 0 1.84-.645 2.195-1.559h10.837c.494 0 .895-.422.895-.943 0-.52-.401-.943-.895-.943zm-12.17 1.886a1.194 1.194 0 0 1-1.73 0 1.327 1.327 0 0 1-.379-.943c0-.37.143-.706.38-.943a1.193 1.193 0 0 1 1.73 0c.236.237.383.573.383.943 0 .374-.147.71-.383.943zM28.874 12.56h-2.508c-.354-.916-1.203-1.56-2.2-1.56-.995 0-1.848.644-2.202 1.56h-10.3c-.493 0-.895.422-.895.942s.402.942.896.942h10.299c.354.912 1.207 1.556 2.203 1.556.996 0 1.845-.644 2.2-1.556h2.507c.494 0 .895-.422.895-.942s-.401-.942-.895-.942zm-3.837 1.884c-.226.23-.53.373-.87.373-.34 0-.649-.143-.875-.373a1.337 1.337 0 0 1-.38-.942c0-.37.144-.705.38-.942a1.21 1.21 0 0 1 .875-.377c.34 0 .644.143.87.377.236.237.38.573.38.942 0 .37-.144.7-.38.942z"/>
        </g>
    </g>
</svg>
