<svg width="40" height="40" viewBox="0 0 40 40" xmlns="http://www.w3.org/2000/svg">
    <g fill="none" fill-rule="evenodd">
        <rect stroke="#DEE3EA" fill="#FFF" x=".5" y=".5" width="39" height="39" rx="6"/>
        <g fill="#F28686" fill-rule="nonzero">
            <path d="M28 8H12a5.005 5.005 0 0 0-5 5v14a5.005 5.005 0 0 0 5 5h16a5.005 5.005 0 0 0 5-5V13a5.005 5.005 0 0 0-5-5zM9 13a3 3 0 0 1 3-3h16a3 3 0 0 1 3 3v1H9v-1zm19 17H12a3 3 0 0 1-3-3V16h22v11a3 3 0 0 1-3 3z" opacity=".402"/>
            <path d="M13 12a1 1 0 1 1-2 0 1 1 0 0 1 2 0M16 12a1 1 0 1 1-2 0 1 1 0 0 1 2 0" opacity=".402"/>
            <path d="M11.5 27.25h2a.75.75 0 1 0 0-1.5h-2a.75.75 0 1 0 0 1.5zm4 0h2a.75.75 0 1 0 0-1.5h-2a.75.75 0 1 0 0 1.5zm4 0h2a.75.75 0 1 0 0-1.5h-2a.75.75 0 1 0 0 1.5zm4 0h2a.75.75 0 1 0 0-1.5h-2a.75.75 0 1 0 0 1.5zm4 0h1a.75.75 0 1 0 0-1.5h-1a.75.75 0 1 0 0 1.5z"/>
            <path d="M19 12a1 1 0 1 1-2 0 1 1 0 0 1 2 0" opacity=".402"/>
        </g>
    </g>
</svg>
