<svg width="40" height="40" viewBox="0 0 40 40" xmlns="http://www.w3.org/2000/svg">
    <defs>
        <linearGradient x1="50%" y1="0%" x2="50%" y2="100%" id="vn7iji5ira">
            <stop stop-color="#5575AF" stop-opacity=".3" offset="0%"/>
            <stop stop-color="#2B4077" stop-opacity=".3" offset="100%"/>
        </linearGradient>
    </defs>
    <g fill="none" fill-rule="evenodd">
        <rect stroke="#445C9B" fill="url(#vn7iji5ira)" x=".5" y=".5" width="39" height="39" rx="6"/>
        <path d="m9.767 16.263.86 2.67 2.811-.004a.375.375 0 0 1 .222.679l-2.277 1.648.874 2.67a.379.379 0 0 1-.24.476.382.382 0 0 1-.362-.072l-2.246-1.64-2.272 1.658a.376.376 0 0 1-.58-.421l.874-2.671-2.277-1.644a.379.379 0 0 1 .253-.684l2.78.005.86-2.67a.377.377 0 0 1 .72 0zm21.186 0 .86 2.67 2.811-.004a.375.375 0 0 1 .222.679l-2.277 1.648.874 2.67a.379.379 0 0 1-.24.476.382.382 0 0 1-.362-.072l-2.246-1.64-2.268 1.658a.38.38 0 0 1-.53-.082.4.4 0 0 1-.053-.34l.873-2.67-2.272-1.644a.378.378 0 0 1 .249-.683l2.78.004.86-2.67a.377.377 0 0 1 .719 0zm.23 3.164-.588-1.824-.588 1.824a.382.382 0 0 1-.362.263l-1.915-.005 1.553 1.123c.131.095.19.262.14.42l-.597 1.82 1.548-1.127a.373.373 0 0 1 .443 0l1.544 1.128-.588-1.802a.376.376 0 0 1 .131-.44l1.553-1.122-1.897.005a.38.38 0 0 1-.376-.263zM20.36 16.263l.86 2.67 2.811-.004a.375.375 0 0 1 .222.679l-2.277 1.648.874 2.67a.379.379 0 0 1-.24.476.382.382 0 0 1-.362-.072l-2.246-1.64-2.272 1.658a.376.376 0 0 1-.526-.082.4.4 0 0 1-.054-.34l.874-2.67-2.273-1.644a.378.378 0 0 1 .25-.683l2.779.004.86-2.67a.377.377 0 0 1 .72 0z" fill="#DF9734" fill-rule="nonzero"/>
    </g>
</svg>
