<svg width="50" height="47" viewBox="0 0 50 47" xmlns="http://www.w3.org/2000/svg">
    <g transform="translate(1 1)" stroke="#1794EF" stroke-width="1.2" fill="none" fill-rule="evenodd" stroke-linecap="round" stroke-linejoin="round">
        <path d="M35.164 22.19a49.67 49.67 0 0 1 3.113 9.049C44.217 29.406 48 26.393 48 22.734c0-3.73-3.926-6.792-10.069-8.612M12.802 22.19a49.633 49.633 0 0 1-2.774-8.056C3.902 15.954 0 19.01 0 22.734c0 3.653 3.77 6.663 9.693 8.505M18.076 12.612a47.644 47.644 0 0 1 5.92-7.348C19.517.788 15.137-1.143 12.116.685 9.034 2.55 8.468 7.648 10.039 14.138M29.258 32.926a47.726 47.726 0 0 1-5.261 6.546c4.566 4.653 9.046 6.678 12.12 4.816 3.016-1.826 3.615-6.754 2.167-13.05"/>
        <path d="M18.712 32.924a43.869 43.869 0 0 1-9.025-1.697c-1.46 6.314-.854 11.255 2.159 13.086 3.079 1.864 7.57-.17 12.144-4.84M29.894 12.61c2.717.252 5.407.758 8.037 1.512 1.56-6.474.993-11.557-2.082-13.428-3.017-1.817-7.384.094-11.852 4.57"/>
        <path d="M29.894 12.61a59.12 59.12 0 0 0-5.897-.3c-2.057 0-4.03.112-5.921.302a67.93 67.93 0 0 0-2.836 4.684 70.56 70.56 0 0 0-2.438 4.894 66.404 66.404 0 0 0 2.7 5.508 67.863 67.863 0 0 0 3.201 5.226 59.288 59.288 0 0 0 10.547.002 67.183 67.183 0 0 0 3.2-5.205 64.896 64.896 0 0 0 2.71-5.53 68.494 68.494 0 0 0-2.447-4.924 64.887 64.887 0 0 0-2.819-4.657z"/>
        <ellipse cx="23.997" cy="22.734" rx="3.2" ry="3.357"/>
    </g>
</svg>
