<svg width="94" height="83" viewBox="0 0 94 83" xmlns="http://www.w3.org/2000/svg">
    <defs>
        <linearGradient x1="-32.001%" y1="26.355%" x2="60.063%" y2="164.341%" id="kapwj4l9ha">
            <stop stop-color="#FFF" stop-opacity="0" offset="0%"/>
            <stop stop-color="#FFF" offset="100%"/>
        </linearGradient>
        <linearGradient x1="-108.732%" y1="28.074%" x2="69.479%" y2="156.028%" id="n9s87f8u6b">
            <stop stop-color="#FFF" stop-opacity="0" offset="0%"/>
            <stop stop-color="#FFF" offset="100%"/>
        </linearGradient>
        <linearGradient x1="-108.732%" y1="29.728%" x2="69.479%" y2="148.029%" id="wdc5klcrmc">
            <stop stop-color="#FFF" stop-opacity="0" offset="0%"/>
            <stop stop-color="#FFF" offset="100%"/>
        </linearGradient>
        <linearGradient x1="-108.732%" y1="29.689%" x2="69.479%" y2="148.221%" id="t0hph1w5td">
            <stop stop-color="#FFF" stop-opacity="0" offset="0%"/>
            <stop stop-color="#FFF" offset="100%"/>
        </linearGradient>
    </defs>
    <g fill="none" fill-rule="evenodd" stroke-linecap="round" stroke-linejoin="round">
        <g opacity=".117" stroke-width="1.875">
            <path d="M65 40.084A95.623 95.623 0 0 1 70.578 57C81.222 53.573 88 47.941 88 41.1c0-6.974-7.035-12.698-18.041-16.1M23 40.073A95.483 95.483 0 0 1 18.017 25C7.01 28.404 0 34.123 0 41.09 0 47.923 6.774 53.554 17.415 57" stroke="url(#kapwj4l9ha)" transform="rotate(-180 44.5 41)"/>
            <path d="M33.203 23.193A87.487 87.487 0 0 1 44 9.681C35.83 1.45 27.841-2.102 22.332 1.261 16.714 4.689 15.682 14.065 18.546 26" stroke="url(#n9s87f8u6b)" transform="rotate(-180 44.5 41)"/>
            <path d="M53.446 59.071A86.657 86.657 0 0 1 44 70.984c8.197 8.468 16.24 12.154 21.76 8.765C71.173 76.426 72.25 67.457 69.648 56M34.538 59.08A77.757 77.757 0 0 1 18.36 56c-2.615 11.46-1.53 20.43 3.87 23.753 5.52 3.384 13.57-.309 21.77-8.787" stroke="url(#wdc5klcrmc)" transform="rotate(-180 44.5 41)"/>
            <path d="M54.777 23.212A79.65 79.65 0 0 1 69.465 26c2.85-11.93 1.813-21.295-3.805-24.743-5.514-3.349-13.495.173-21.66 8.42" stroke="url(#n9s87f8u6b)" transform="rotate(-180 44.5 41)"/>
            <path d="M54.344 22.547C50.893 22.204 47.3 22 43.529 22c-3.771 0-7.39.204-10.857.55a123.65 123.65 0 0 0-5.2 8.537c-1.678 3.022-3.13 5.991-4.472 8.92a120.704 120.704 0 0 0 4.953 10.037 123.538 123.538 0 0 0 5.87 9.524c3.13.277 6.342.432 9.69.432 3.35 0 6.554-.155 9.65-.428a122.305 122.305 0 0 0 5.868-9.487c1.89-3.393 3.521-6.774 4.969-10.078a124.513 124.513 0 0 0-4.488-8.973 118.111 118.111 0 0 0-5.168-8.487z" stroke="url(#t0hph1w5td)" transform="rotate(-180 44.5 41)"/>
        </g>
        <g transform="rotate(-180 46.5 32)" stroke="#FFF" stroke-width="2">
            <path d="M35.164 22.19a49.67 49.67 0 0 1 3.113 9.049C44.217 29.406 48 26.393 48 22.734c0-3.73-3.926-6.792-10.069-8.612M12.802 22.19a49.633 49.633 0 0 1-2.774-8.056C3.902 15.954 0 19.01 0 22.734c0 3.653 3.77 6.663 9.693 8.505M18.076 12.612a47.644 47.644 0 0 1 5.92-7.348C19.517.788 15.137-1.143 12.116.685 9.034 2.55 8.468 7.648 10.039 14.138M29.258 32.926a47.726 47.726 0 0 1-5.261 6.546c4.566 4.653 9.046 6.678 12.12 4.816 3.016-1.826 3.615-6.754 2.167-13.05"/>
            <path d="M18.712 32.924a43.869 43.869 0 0 1-9.025-1.697c-1.46 6.314-.854 11.255 2.159 13.086 3.079 1.864 7.57-.17 12.144-4.84M29.894 12.61c2.717.252 5.407.758 8.037 1.512 1.56-6.474.993-11.557-2.082-13.428-3.017-1.817-7.384.094-11.852 4.57"/>
            <path d="M29.894 12.61a59.12 59.12 0 0 0-5.897-.3c-2.057 0-4.03.112-5.921.302a67.93 67.93 0 0 0-2.836 4.684 70.56 70.56 0 0 0-2.438 4.894 66.404 66.404 0 0 0 2.7 5.508 67.863 67.863 0 0 0 3.201 5.226 59.288 59.288 0 0 0 10.547.002 67.183 67.183 0 0 0 3.2-5.205 64.896 64.896 0 0 0 2.71-5.53 68.494 68.494 0 0 0-2.447-4.924 64.887 64.887 0 0 0-2.819-4.657z"/>
            <ellipse cx="23.997" cy="22.734" rx="3.2" ry="3.357"/>
        </g>
    </g>
</svg>
