<svg id="Layer_21_copy" data-name="Layer 21 copy" xmlns="http://www.w3.org/2000/svg" viewBox="0 0 373 167"><defs><style>.cls-1{fill:#f0f0f0;}.cls-2{fill:#e8b167;}.cls-3{fill:#009b9b;}.cls-3,.cls-4,.cls-5,.cls-7,.cls-8,.cls-9{fill-rule:evenodd;}.cls-12,.cls-4{fill:#321475;}.cls-5{fill:#75268d;}.cls-6,.cls-9{fill:none;stroke-miterlimit:10;}.cls-6{stroke:#aa2eaa;stroke-linecap:round;}.cls-7{fill:#18c4a3;}.cls-8{fill:#20e2bd;}.cls-9{stroke:#fff;}.cls-10{fill:#eac386;}.cls-11{fill:#360d60;}</style></defs><title>Learning page illustrations_v001</title><rect class="cls-1" width="373" height="167"/><path class="cls-2" d="M177.43,103.61,179,94.73a7.86,7.86,0,0,0-7.32-9.35l-36-2.9a10,10,0,0,0-10.44,7.92l-20.05,111a7.84,7.84,0,0,0,7.31,9.34l4.82.39,40,3.23L251,221.88A10,10,0,0,0,261.39,214l15.33-84.83a7.84,7.84,0,0,0-7.31-9.34L184.74,113A7.85,7.85,0,0,1,177.43,103.61Z"/><path class="cls-3" d="M167.75,77,271,93.81,251.13,215.92,147.9,199.13Z"/><path class="cls-4" d="M121.28,30.05l121.4,20.51a3.38,3.38,0,0,1,2.78,3.9L227.62,160.11a3.4,3.4,0,0,1-3.91,2.78l-121.4-20.5a3.39,3.39,0,0,1-2.78-3.91L117.38,32.83A3.38,3.38,0,0,1,121.28,30.05Z"/><path class="cls-5" d="M134.37,18.82,255.76,39.38a3.38,3.38,0,0,1,2.77,3.91l-17.9,105.64a3.39,3.39,0,0,1-3.9,2.77L115.34,131.14a3.39,3.39,0,0,1-2.78-3.91l17.9-105.64A3.38,3.38,0,0,1,134.37,18.82Z"/><rect class="cls-6" x="130.01" y="41.2" width="103.09" height="127.59" transform="translate(21.18 -30.16) rotate(10.08)"/><path class="cls-7" d="M161.6,46.06,264.83,62.84,245,185,141.74,168.17Z"/><path class="cls-3" d="M204.26,74.73l40.39,6.57-4.59,28.23L199.67,103Z"/><path class="cls-8" d="M213.3,81.63l.11-.66,25.83,4.2-.11.66Z"/><path class="cls-8" d="M212.06,89.27l.11-.66L238,92.81l-.11.66Z"/><path class="cls-8" d="M210.71,97.58l.11-.67,25.83,4.2-.11.67Z"/><path class="cls-8" d="M208.22,79.44A1.34,1.34,0,0,1,209.33,81h0a1.34,1.34,0,1,1-2.65-.43h0A1.35,1.35,0,0,1,208.22,79.44Z"/><path class="cls-8" d="M206.93,87.42A1.33,1.33,0,0,1,208,89h0a1.34,1.34,0,0,1-1.54,1.11,1.35,1.35,0,0,1-1.11-1.54h0A1.33,1.33,0,0,1,206.93,87.42Z"/><path class="cls-8" d="M205.68,95.05a1.34,1.34,0,0,1,1.11,1.54h0a1.34,1.34,0,0,1-2.65-.43h0A1.35,1.35,0,0,1,205.68,95.05Z"/><path class="cls-9" d="M171.06,68.78l25.27,4.11-4.59,28.23L166.47,97Z"/><path class="cls-10" d="M141.08,99.29l-.46-9.17a10.43,10.43,0,0,0-9.32-9.63l-36-2.91a7.61,7.61,0,0,0-8.42,8.2l5.73,114.61a10.45,10.45,0,0,0,9.32,9.63l4.81.39,40.06,3.23,93.54,7.54a7.6,7.6,0,0,0,8.42-8.19l-4.38-87.61a10.42,10.42,0,0,0-9.32-9.63l-84.66-6.83A10.44,10.44,0,0,1,141.08,99.29Z"/><path class="cls-2" d="M30.2-17.67a150.09,150.09,0,0,0-2.34,56.42c2.59,16.68,8.32,33.05,17.68,47.16a91.13,91.13,0,0,0,17.39,19.63c.74.61,1.81-.44,1.07-1.06C51.83,94.29,42.78,80.79,36.87,66.13a132.11,132.11,0,0,1-9.16-51.19,153.23,153.23,0,0,1,3.94-32.21c.22-.94-1.23-1.34-1.45-.4Z"/><path class="cls-2" d="M322.28,146c1-16.69-2.54-33.36-11.75-47.44a80.9,80.9,0,0,0-7.64-9.86c-.64-.71-1.7.35-1.06,1.06a73.29,73.29,0,0,1,18.65,41.15,90.53,90.53,0,0,1,.3,15.09c-.06,1,1.44,1,1.5,0Z"/><path class="cls-11" d="M289.12,83.24l8-5.17L271,68.74l9.33,26.09,5.17-8,5.6,5.6a2.54,2.54,0,0,0,3.59-3.59Z"/><path class="cls-12" d="M139.08,101.29l-.46-9.17a10.43,10.43,0,0,0-9.32-9.63l-36-2.91a7.61,7.61,0,0,0-8.42,8.2l5.73,114.61A10.45,10.45,0,0,0,99.93,212l4.81.39,40.06,3.23,93.54,7.54a7.6,7.6,0,0,0,8.42-8.19l-4.38-87.61a10.42,10.42,0,0,0-9.32-9.63l-84.66-6.83A10.44,10.44,0,0,1,139.08,101.29Z"/></svg>