<svg width="40" height="40" viewBox="0 0 40 40" xmlns="http://www.w3.org/2000/svg">
    <g fill="none" fill-rule="evenodd">
        <rect stroke="#DEE3EA" fill="#FFF" x=".5" y=".5" width="39" height="39" rx="6"/>
        <g fill="#EB9B74" fill-rule="nonzero">
            <path d="M30.059 20.938h-1.8a.94.94 0 1 1 0-1.88h1.8a.94.94 0 0 1 0 1.88z"/>
            <path d="M29.523 25.498a.943.943 0 0 0-.344-1.283l-1.558-.899a.94.94 0 0 0-1.402 1.056.94.94 0 0 0 .463.57l1.558.9a.94.94 0 0 0 1.283-.344zM23.186 27.152c0 .165.043.327.126.47l.899 1.56a.94.94 0 0 0 1.628-.94l-.9-1.56a.94.94 0 0 0-1.753.47z" opacity=".8"/>
            <path d="m20.932 30.06.002-1.801v-.002a.94.94 0 1 0-1.88-.002l-.001 1.8v.002a.94.94 0 1 0 1.88.002zM15.776 29.175l.901-1.558a.94.94 0 1 0-1.626-.94l-.9 1.558h-.001a.94.94 0 0 0 1.626.94z" opacity=".7"/>
            <path d="M13.312 24.933a.94.94 0 0 0-.94-1.63l-1.56.9a.94.94 0 1 0 .94 1.63l1.56-.9zM12.68 19.989v-.002a.94.94 0 0 0-.937-.94l-1.8-.003a.939.939 0 0 0-.941.938v.002c0 .518.42.938.938.94l1.8.003a.94.94 0 0 0 .94-.938z" opacity=".2"/>
            <path d="M13.667 16.33a.94.94 0 0 0-.342-1.286l-1.557-.903a.94.94 0 0 0-.943 1.627l1.557.903a.941.941 0 0 0 1.285-.342zM16.7 12.37l-.898-1.56a.94.94 0 1 0-1.63.937l.897 1.56a.94.94 0 1 0 1.63-.937zM19.078 11.74a.94.94 0 1 0 1.88.001l.003-1.8v-.002a.94.94 0 0 0-1.88-.002l-.003 1.8v.002zM24.96 13.326l.901-1.556a.94.94 0 1 0-1.624-.944l-.904 1.557a.941.941 0 0 0 1.054 1.387.94.94 0 0 0 .571-.444h.001zM29.192 15.807a.94.94 0 1 0-.936-1.63l-1.56.896a.94.94 0 1 0 .935 1.63l1.561-.896z"/>
        </g>
    </g>
</svg>
