<svg width="28" height="28" viewBox="0 0 28 28" xmlns="http://www.w3.org/2000/svg">
    <path d="M13.75 27.5c7.594 0 13.75-6.156 13.75-13.75S21.344 0 13.75 0 0 6.156 0 13.75 6.156 27.5 13.75 27.5zM4.555 13.051a.319.319 0 0 0-.202.293c0 .127.083.247.202.292L8.29 15l7.692-3.973a.192.192 0 0 1 .238.062.192.192 0 0 1-.028.245l-5.177 4.643 5.801 4.671c.083.061.196.076.292.04a.317.317 0 0 0 .196-.22l3.072-12.923a.318.318 0 0 0-.097-.308.318.318 0 0 0-.318-.057L4.555 13.05z" fill="#1794EF" fill-rule="evenodd"/>
</svg>
