<svg width="100" height="92" viewBox="0 0 100 92" xmlns="http://www.w3.org/2000/svg">
    <defs>
        <linearGradient x1="47.563%" y1="0%" x2="53.477%" y2="113.253%" id="gm11lj6uma">
            <stop stop-color="#FFF" offset="0%"/>
            <stop stop-color="#FFF" stop-opacity="0" offset="100%"/>
        </linearGradient>
        <linearGradient x1="0%" y1="44.371%" x2="121.336%" y2="57.121%" id="7kj315hpxb">
            <stop stop-color="#FFF" offset="0%"/>
            <stop stop-color="#FFF" stop-opacity="0" offset="100%"/>
        </linearGradient>
        <linearGradient x1="0%" y1="49.73%" x2="121.336%" y2="50.341%" id="8arit1yx3c">
            <stop stop-color="#FFF" offset="0%"/>
            <stop stop-color="#FFF" stop-opacity="0" offset="100%"/>
        </linearGradient>
        <linearGradient x1="0%" y1="27.484%" x2="121.336%" y2="78.483%" id="r6u0jufcjd">
            <stop stop-color="#FFF" offset="0%"/>
            <stop stop-color="#FFF" stop-opacity="0" offset="100%"/>
        </linearGradient>
    </defs>
    <g fill="none" fill-rule="evenodd" stroke-linecap="round" stroke-linejoin="round">
        <g stroke="#FFF">
            <path stroke-width="2" d="M60.995 66.4 62.894 55M55.296 66.4h7.598M42 44.867h34.723"/>
            <g transform="rotate(-90 45.709 -8.444)" stroke-width="1.875">
                <rect width="12.157" height="32.427" rx="1.5"/>
                <path d="M1.013 6.08h4.052M1.013 12.16h4.052M1.013 18.24h4.052M1.013 24.32h4.052"/>
            </g>
            <path d="M68.593 55H49.598A7.599 7.599 0 0 1 42 47.4V24.6c0-4.197 3.402-7.6 7.598-7.6h41.789a7.599 7.599 0 0 1 7.598 7.6v13.3M97.414 52.77 78.09 72.1 68.593 74l1.9-9.5 19.323-19.33a5.343 5.343 0 0 1 7.598 0h0a5.346 5.346 0 0 1 0 7.6z" stroke-width="2"/>
        </g>
        <g opacity=".1">
            <g stroke-width="1.875">
                <path stroke="url(#gm11lj6uma)" d="m30 78.513 3-18.118" transform="translate(1 1)"/>
                <path stroke="url(#7kj315hpxb)" d="M21 78.513h12" transform="translate(1 1)"/>
                <path stroke="url(#8arit1yx3c)" d="M0 44.289h54.84" transform="translate(1 1)"/>
                <g transform="rotate(-90 26.59 6.558)" stroke="#FFF">
                    <rect width="19.2" height="51.537" rx="1.5"/>
                    <path d="M1.6 9.663H8M1.6 19.326H8M1.6 28.989H8M1.6 38.653H8"/>
                </g>
                <path d="M42 60.395H12c-6.627 0-12-5.408-12-12.08V12.08C0 5.408 5.373 0 12 0h66c6.627 0 12 5.408 12 12.079v21.138" stroke="url(#r6u0jufcjd)" transform="translate(1 1)"/>
            </g>
            <path d="M88.468 57.111 57.612 87.967 42.447 91l3.033-15.165 30.856-30.856a8.533 8.533 0 0 1 12.132 0h0a8.533 8.533 0 0 1 0 12.132z" stroke="#FFF" stroke-width="2"/>
        </g>
    </g>
</svg>
