<svg width="65" height="69" viewBox="0 0 65 69" xmlns="http://www.w3.org/2000/svg">
    <g transform="translate(1 1)" fill="none" fill-rule="evenodd">
        <g fill-rule="nonzero">
            <path d="M54 55.75c0 2.347-1.93 4.25-4.313 4.25H12.313C9.93 60 8 58.097 8 55.75v-1.417h46v1.417z" fill="#FFF"/>
            <path d="M54 30.25c0-2.347-1.93-4.25-4.313-4.25H12.313C9.93 26 8 27.903 8 30.25v24.083h46V30.25z" fill="#FADAB6"/>
            <path d="M45.375 26H12.312C9.931 26 8 27.903 8 30.25v24.083h8.625L45.375 26z" fill="#FEEDDA"/>
        </g>
        <path stroke="#00303E" stroke-linecap="round" stroke-linejoin="round" d="M23 66.5h17M31.5 60v6M8 54.5h46M54 39v16.8c0 2.32-1.93 4.2-4.313 4.2H12.313C9.93 60 8 58.12 8 55.8V39M9 30v-7h7"/>
        <circle stroke="#00303E" fill="#FFF" fill-rule="nonzero" stroke-linecap="round" stroke-linejoin="round" cx="7.5" cy="4.5" r="4.5"/>
        <path d="M13.973 18H.027C-.323 13.456 2.78 9.45 7 9c4.219.45 7.323 4.456 6.973 9h0z" stroke="#00303E" fill="#FFF" fill-rule="nonzero" stroke-linecap="round" stroke-linejoin="round"/>
        <circle stroke="#00303E" fill="#FFF" fill-rule="nonzero" stroke-linecap="round" stroke-linejoin="round" cx="55.5" cy="4.5" r="4.5"/>
        <path d="M62.973 18H49.027c-.35-4.544 2.754-8.55 6.973-9 4.219.45 7.323 4.456 6.973 9h0z" stroke="#00303E" fill="#FFF" fill-rule="nonzero" stroke-linecap="round" stroke-linejoin="round"/>
        <circle stroke="#00303E" fill="#FFF" fill-rule="nonzero" stroke-linecap="round" stroke-linejoin="round" cx="31.5" cy="4.5" r="4.5"/>
        <path d="M37.973 18H24.027c-.35-4.544 2.754-8.55 6.973-9 4.219.45 7.323 4.456 6.973 9h0z" stroke="#00303E" fill="#FFF" fill-rule="nonzero" stroke-linecap="round" stroke-linejoin="round"/>
        <path stroke="#00303E" stroke-linecap="round" stroke-linejoin="round" d="m9 23 14 14M54 30v-7h-7M54 23 40 37M31.5 37V23M26 26.957 31.456 23 37 27"/>
    </g>
</svg>
