<svg width="65" height="69" viewBox="0 0 65 69" xmlns="http://www.w3.org/2000/svg">
    <g transform="translate(1 1)" stroke="#B3D4FF" stroke-width="1.2" fill="none" fill-rule="evenodd" stroke-linecap="round" stroke-linejoin="round">
        <path d="M54 55.75c0 2.347-1.93 4.25-4.313 4.25H12.313C9.93 60 8 58.097 8 55.75v-1.417h46v1.417zM23 66.5h17M31.5 60v6M8 54.5h46"/>
        <path d="M54 39v16.8c0 2.32-1.93 4.2-4.313 4.2H12.313C9.93 60 8 58.12 8 55.8V39M9 30v-7h7"/>
        <circle cx="7.5" cy="4.5" r="4.5"/>
        <path d="M13.973 18H.027C-.323 13.456 2.78 9.45 7 9c4.219.45 7.323 4.456 6.973 9h0z"/>
        <circle cx="55.5" cy="4.5" r="4.5"/>
        <path d="M62.973 18H49.027c-.35-4.544 2.754-8.55 6.973-9 4.219.45 7.323 4.456 6.973 9h0z"/>
        <circle cx="31.5" cy="4.5" r="4.5"/>
        <path d="M37.973 18H24.027c-.35-4.544 2.754-8.55 6.973-9 4.219.45 7.323 4.456 6.973 9h0zM9 23l14 14M54 30v-7h-7M54 23 40 37M31.5 37V23M26 26.957 31.456 23 37 27"/>
    </g>
</svg>
