<svg width="79" height="65" viewBox="0 0 79 65" xmlns="http://www.w3.org/2000/svg">
    <g stroke="#B3D4FF" stroke-width="1.2" fill="none" fill-rule="evenodd" stroke-linecap="round" stroke-linejoin="round">
        <path d="M10.918 59.221c-13.224-13.32-13.224-34.913 0-48.232C24.144-2.33 45.586-2.33 58.81 10.99c13.225 13.319 13.225 34.913.001 48.232A16.138 16.138 0 0 1 47.357 64a16.138 16.138 0 0 1-11.454-4.779l-12.49-12.574a2.93 2.93 0 0 0-4.02.136 2.981 2.981 0 0 0-.136 4.048 5.966 5.966 0 0 1-.004 8.395 5.864 5.864 0 0 1-8.335-.005z"/>
        <path d="M10.918 59.221c-13.224-13.32-13.224-34.913 0-48.232C24.144-2.33 45.586-2.33 58.81 10.99c13.225 13.319 13.225 34.913.001 48.232A16.138 16.138 0 0 1 47.357 64a16.138 16.138 0 0 1-11.454-4.779l-12.49-12.583a2.93 2.93 0 0 0-4.06.105 2.981 2.981 0 0 0-.096 4.088 5.966 5.966 0 0 1-.004 8.395 5.864 5.864 0 0 1-8.335-.005z"/>
        <path d="M41.608 15.79a4.3 4.3 0 0 1-4.698.94 4.324 4.324 0 0 1-2.662-3.995c0-1.749 1.051-3.326 2.662-3.995a4.3 4.3 0 0 1 4.698.94 4.333 4.333 0 0 1 0 6.11zM49.326 43.108c-3.531-.845-6.773-2.492-7.681-5.539a2.772 2.772 0 0 0-2.632-1.982c-.666-.001-1.299.288-1.736.791a2.312 2.312 0 0 0-.544 1.834c.955 7.45 6.6 13.427 13.963 14.788a4.829 4.829 0 0 0 4.926-1.853"/>
        <path d="M50.34 46.341a.911.911 0 0 0 .103 1.717c6.053 1.747 10.721-2.188 11.566-5.222a4.48 4.48 0 0 0-3.099-5.518 4.463 4.463 0 0 0-5.5 3.11c-.778 2.786-.405 4.78-3.07 5.913z"/>
        <path d="m61.837 39.92 15.884-23.082a1.795 1.795 0 0 0-.468-2.419 1.782 1.782 0 0 0-2.432.337L57.7 37.146"/>
        <path d="M50.34 46.341a.911.911 0 0 0 .103 1.717c6.053 1.747 10.721-2.188 11.566-5.222a4.48 4.48 0 0 0-3.099-5.518 4.463 4.463 0 0 0-5.5 3.11c-.778 2.786-.405 4.78-3.07 5.913zM53.335 26.941c1.7 0 3.079-1.382 3.079-3.088a3.083 3.083 0 0 0-3.079-3.088 3.083 3.083 0 0 0-3.078 3.088 3.083 3.083 0 0 0 3.078 3.088zM19.438 18.323a4.334 4.334 0 0 1 .937 4.713 4.31 4.31 0 0 1-3.982 2.67 4.31 4.31 0 0 1-3.983-2.67 4.334 4.334 0 0 1 .937-4.713 4.3 4.3 0 0 1 6.091 0h0zM41.608 15.79a4.3 4.3 0 0 1-4.698.94 4.324 4.324 0 0 1-2.662-3.995c0-1.749 1.051-3.326 2.662-3.995a4.3 4.3 0 0 1 4.698.94 4.333 4.333 0 0 1 0 6.11z"/>
        <path d="M53.335 26.941c1.7 0 3.079-1.382 3.079-3.088a3.083 3.083 0 0 0-3.079-3.088 3.083 3.083 0 0 0-3.078 3.088 3.083 3.083 0 0 0 3.078 3.088zM19.438 18.323a4.334 4.334 0 0 1 .937 4.713 4.31 4.31 0 0 1-3.982 2.67 4.31 4.31 0 0 1-3.983-2.67 4.334 4.334 0 0 1 .937-4.713 4.3 4.3 0 0 1 6.091 0h0z"/>
    </g>
</svg>
