<svg width="40" height="40" viewBox="0 0 40 40" xmlns="http://www.w3.org/2000/svg">
    <g fill="none" fill-rule="evenodd">
        <rect stroke="#DEE3EA" fill="#FFF" x=".5" y=".5" width="39" height="39" rx="6"/>
        <path d="M9.667 14v7.28a2 2 0 0 0 2 2h16.666a2 2 0 0 0 2-2V14a2 2 0 0 0-2-2H11.667a2 2 0 0 0-2 2zm5.52 12.215a1.263 1.263 0 0 1-.04.667h15.52a.333.333 0 1 0 0-.667h-15.48zm-2.48 0H9.333a.333.333 0 1 0 0 .667h3.415a1.26 1.26 0 0 1-.041-.667zm1.24-.341a.597.597 0 0 0-.41.16l-.014.015a.599.599 0 0 0-.015.835l.015.014a.599.599 0 1 0 .848-.849h.001v-.001a.597.597 0 0 0-.425-.174zm8.389-7.945-2.17 1.252-.018.01-2.153 1.243a.333.333 0 0 1-.497-.287h-.002v-5.013a.333.333 0 0 1 .527-.271l2.143 1.237 2.171 1.253a.332.332 0 0 1-.001.576" fill="#EB9B74" fill-rule="nonzero"/>
    </g>
</svg>
