<?xml version="1.0" encoding="UTF-8"?>
<svg width="1366px" height="70px" viewBox="0 0 1366 70" version="1.1" xmlns="http://www.w3.org/2000/svg" xmlns:xlink="http://www.w3.org/1999/xlink">
    <!-- Generator: Sketch 56.3 (81716) - https://sketch.com -->
    <title>Group 3</title>
    <desc>Created with Sketch.</desc>
    <defs>
        <linearGradient x1="0%" y1="49.9047748%" x2="100%" y2="50.0952252%" id="linearGradient-1">
            <stop stop-color="#005DA1" offset="0%"></stop>
            <stop stop-color="#1F97EE" offset="100%"></stop>
        </linearGradient>
        <linearGradient x1="0%" y1="49.8687%" x2="100%" y2="50.1313%" id="linearGradient-2">
            <stop stop-color="#005DA1" offset="0%"></stop>
            <stop stop-color="#1F97EE" offset="100%"></stop>
        </linearGradient>
        <linearGradient x1="0%" y1="49.8730402%" x2="100%" y2="50.1269598%" id="linearGradient-3">
            <stop stop-color="#005DA1" offset="0%"></stop>
            <stop stop-color="#1F97EE" offset="100%"></stop>
        </linearGradient>
    </defs>
    <g id="Page-1" stroke="none" stroke-width="1" fill="none" fill-rule="evenodd" opacity="0.800000012">
        <g id="Waves-footer">
            <g id="Group-3">
                <g id="Group">
                    <path d="M278,11.6666667 C447,1.16666667 593.684777,58.7278964 1046.68922,58.7278964 C1186.07766,58.7278964 1285.99671,54.0507859 1366,47.5755269 L1366,70 L0,70 C67.2359187,38.4485244 159.902585,19.00408 278,11.6666667 Z" id="Fill-1" fill="url(#linearGradient-1)"></path>
                    <path d="M0,0 C310.006432,8.28812488 346.910556,52.4918458 720.373216,52.4918458 C1061.72036,52.4918458 1121.74051,15.5639686 1366,2.88540904 L1366,70 L0,70 L0,0 Z" id="Fill-4" fill="url(#linearGradient-2)"></path>
                    <path d="M1366,53.9040584 C1216.99138,36.772557 1160.50659,1.16666667 925.71692,1.16666667 C616.550982,1.16666667 616.550982,62.9034081 307.38673,62.9034081 C157.857485,62.9034081 74.8446529,48.46169 0,33.5482911 L0,70 L1366,70 L1366,53.9040584 Z" id="Fill-7" fill="url(#linearGradient-3)"></path>
                </g>
            </g>
        </g>
    </g>
</svg>