<svg width="1304" height="301" viewBox="0 0 1304 301" xmlns="http://www.w3.org/2000/svg">
    <defs>
        <path id="vzwg4t2kia" d="M0 0h1293v301H0z"/>
    </defs>
    <g fill="none" fill-rule="evenodd">
        <g opacity=".036" style="mix-blend-mode:multiply" fill="#A0A0A0" fill-rule="nonzero">
            <path d="M1303.936 58.721a560.116 560.116 0 0 0-179.827 10.275c-45.605 10.118-89.07 24.44-134.737 34.468-40.366 8.881-82.04 14.883-124.224 9.825-46.279-5.531-90.09-18.683-133.81-30.15-40.62-10.635-83.763-22.125-127.738-21.832-18.344.112-36.784 2.743-52.986 8.949-20.517 7.846-39.468 16.367-61.935 21.427-35.57 8.004-72.258 7.33-108.307 1.259-34.739-5.846-68.04-15.536-103.356-19.786-20.323-2.428-39.82-2.294-60.21-.517-24.736 2.181-48.992-4.002-70.756-11.759-25.055-8.926-48.065-20.415-73.024-29.499C50.236 23.062 25.63 16.924 0 21.848V7.661C52.508-4.121 104.344 26.053 147.456 42.87c21.189 8.251 44.327 16.46 68.934 17.424 20.71.832 40.651.81 61.169 3.597 35.666 4.835 69.765 13.918 105.301 19.09 35.634 5.17 71.715 4.968 106.454-3.26 20.805-4.925 38.767-12.704 57.781-20.214 17.29-6.812 36.755-10.14 56.474-10.86 42.664-1.528 85.2 7.578 125.181 17.043 44.582 10.545 88.27 23.316 134.002 31.32 40.491 7.105 80.343 7.893 120.77.045 47.427-9.196 90.73-26.35 136.463-38.739 26.046-7.06 52.923-12.703 80.599-15.401 34.58-3.395 69.222-1.867 103.321 3.214.03 4.205.03 8.409.03 12.591z"/>
            <path d="M1303.94 74.956c-56.795-1.417-113.872-.678-169.895 6.633-44.23 5.778-86.959 15.626-129.048 26.642-20.39 5.352-40.683 10.928-60.945 16.504-21.252 5.846-41.162 9.915-64.268 9.173-48.193-1.55-94.086-16.73-137.39-30.375-39.468-12.433-80.631-27.298-124.222-30.69-18.216-1.416-36.976-.27-53.498 5.666-11.633 4.182-22.307 9.487-34.1 13.535a281.216 281.216 0 0 1-32.596 9.06c-37.52 7.938-75.838 6.184-113.197-1.19-34.835-6.88-68.423-18.1-104.664-20.978-19.75-1.551-38.767-.247-56.982 5.329-25.28 7.734-52.444 7.262-78.138.765-26.11-6.61-49.056-17.808-73.216-27.163C49.506 49.256 25.665 42.13.002 46.691V32.505c25.726-4.632 49.951 2.136 72.418 10.703 24.576 9.375 47.49 20.863 73.025 28.936 23.202 7.33 48.768 11.38 73.856 6.655 19.079-3.597 38.222-3.957 57.815-1.978 36.017 3.687 69.669 14.142 104.76 20.505 36.272 6.565 73.375 7.69 109.488-.18 23.298-5.08 42.697-13.94 63.981-21.899 16.65-6.228 35.538-8.252 54.202-7.645 43.144 1.394 84.818 14.075 124.286 25.295 43.975 12.478 89.003 26.62 136.59 30.442 42.602 3.418 84.242-7.24 124.063-16.682 44.295-10.5 87.758-22.934 133.043-31.295 57.877-10.68 116.936-13.063 176.41-8.903v8.497z"/>
            <path d="M1303.936 87.703c-51.964 2.72-103.609.542-155.573 1.125-40.876.474-80.15 5.53-117.863 16.817-21.668 6.476-42.377 14.457-62.447 23.091-21.156 9.128-40.491 16.953-65.864 18.167-48.832 2.293-96.387-14.39-138.604-29.633-40.712-14.705-82.005-33.412-127.418-39.931-17.097-2.45-35.378-2.586-51.421 2.788-12.592 4.227-24 10.16-36.656 14.435a290.793 290.793 0 0 1-33.335 9.105c-40.938 8.5-82.388 5.758-122.56-3.237-34.036-7.622-67.752-20.056-103.993-21.405-20.517-.765-38.83 2.833-55.669 10.973-26.366 12.748-57.014 19.561-88.844 14.907-26.11-3.822-48.962-13.805-72.163-22.551C49.156 73.923 25.73 66.66.036 71.494V57.305c25.726-4.654 49.407 2.585 71.714 11.152 23.362 8.971 45.925 19.493 71.62 24.935a146.676 146.676 0 0 0 84.082-6.633c17.418-6.812 36.53-8.836 56.34-7.577 35.985 2.271 69.381 13.872 103.641 21.066 38.958 8.206 79.002 10.364 118.374 2.001a285.826 285.826 0 0 0 31.862-8.813c12.176-4.136 23.202-9.735 35.25-13.94 15.98-5.576 34.196-6.25 51.613-4.43 44.742 4.633 86.254 21.428 126.492 34.986 42.472 14.322 88.62 30.06 136.75 30.173 24.064.068 43.75-5.487 65.003-12.794 20.613-7.082 41.546-13.804 62.894-19.74a674.157 674.157 0 0 1 123.903-22.506c54.457-4.606 109.681-4.138 164.426-4.587-.064 2.36-.064 4.722-.064 7.105z"/>
            <path d="M1303.937 101.598c-27.006 3.395-54.203 4.16-81.4 1.394-19.048-1.933-37.583-5.508-56.278-8.701-16.746-2.856-33.748-5.216-51.07-4.924-19.335.338-38.029 4.047-55.48 9.803-21.284 7.037-40.712 16.75-58.899 27.162-21.284 12.164-40.235 24.395-67.88 28.69-50.75 7.891-102.458-9.556-146.017-25.992-41.962-15.806-83.156-36.513-129.464-45.575-17.577-3.44-36.848-4.72-53.882.81-13.423 4.362-25.503 10.792-38.926 15.289a292.217 292.217 0 0 1-37.902 10.072c-42.791 8.274-85.744 4.564-127.131-5.622-33.78-8.319-68.646-22.686-105.399-22.169-22.21.315-38.318 7.487-54.68 17.403-26.047 15.806-58.517 29.274-94.054 27.948-27.389-1.035-51.358-10.59-74.91-19.54C48.385 99.217 25.63 91.527 0 96.294V82.105c25.662-4.901 48.864 2.473 71.267 10.838 23.106 8.634 46.211 18.257 72.546 20.91 33.937 3.44 66.025-6.498 92.391-20.955 16.426-8.993 34.132-13.873 55.16-13.513 36.338.63 70.373 13.738 104.185 21.652 41.099 9.6 83.54 12.771 125.661 4.182a288.135 288.135 0 0 0 34.42-9.33c13.007-4.385 24.735-10.545 37.71-14.817 16.17-5.306 34.58-4.7 51.581-1.866 46.052 7.711 87.406 27.654 128.76 43.056 42.346 15.782 91.21 32.916 140.618 28.599 26.365-2.294 45.54-11.894 66.697-22.35 19.526-9.667 40.012-18.549 61.84-25.383 36.24-11.355 73.536-14.188 112.78-11.984 20.518 1.146 40.94 2.968 61.489 3.867a678.095 678.095 0 0 0 86.831-1.776v8.363z"/>
            <path d="M1303.936 121.203c-23.969 4.538-48.193 5.08-71.682-1.034-16.97-4.43-31.926-11.692-46.852-18.752-13.294-6.295-27.069-12.748-42.79-15.536-17.037-3.013-34.133-.697-49.76 4.538-21.508 7.195-39.98 18.73-56.758 30.421-22.275 15.536-41.546 32.129-71.587 40.47-52.348 14.525-108.85-.338-156.468-16.73-45.222-15.559-88.813-37.12-137.898-46.294-18.76-3.508-39.246-4.52-57.046 1.843-14.126 5.037-26.941 11.692-41.29 16.528a293.281 293.281 0 0 1-40.08 10.527c-44.87 8.387-89.58 3.642-132.212-8.094-18.409-5.058-36.241-11.152-54.681-16.165-15.5-4.227-32.214-7.937-49.057-6.858-22.881 1.462-36.848 12.3-52.444 22.979-26.813 18.346-61.392 37.323-100.637 37.729-27.772.292-51.613-9.69-74.24-19.83-20.964-9.376-42.504-19.247-68.39-15.762v-14.187c25.726-4.43 48.033 3.935 69.893 12.613 23.298 9.264 47.33 18.796 74.879 19.067 37.264.36 70.692-15.671 97.09-32.717 16.042-10.364 31.255-19.067 53.882-19.876 36.496-1.282 71.746 13.94 104.983 22.484 42.025 10.815 85.809 14.974 129.591 6.633a293.927 293.927 0 0 0 38.893-10.275c13.806-4.655 26.206-11.22 39.948-15.783 17.322-5.758 37.008-4.407 54.905-.832 47.363 9.443 89.292 30.736 132.466 46.677 44.837 16.57 98.432 33.388 149.853 22.843 28.634-5.868 47.682-19.943 69.222-33.5 17.609-11.062 36.624-21.585 58.036-28.78 16.618-5.576 34.609-8.791 53.084-7.801 16.586.9 32.245 4.901 47.586 9.196 17.161 4.809 34.227 9.87 52.283 12.725 25.727 4.092 51.645 3.328 77.308-.652-.03 4.069-.03 8.141-.03 12.185z"/>
            <path d="M1303.361 142.54c-21.348 2.407-42.313 1.013-61.906-5.621-15.56-5.284-28.955-13.041-42.377-20.573-23.713-13.31-48.544-23.878-79.479-15.963-18.855 4.81-35.314 13.782-50.143 23.046-12.144 7.577-23.072 16.031-36.113 22.888a186.5 186.5 0 0 1-37.264 14.727c-53.626 14.75-111.758 4.674-163.69-8.612-49.28-12.613-97.89-31.027-150.301-36.334-20.933-2.113-42.791-1.394-62.095 5.194-14.318 4.877-27.612 10.95-42.28 15.401a325.366 325.366 0 0 1-37.325 9.063c-44.007 7.892-87.95 4.316-130.614-5.555-33.205-7.667-68.583-20.887-104.536-18.257-23.106 1.686-39.213 10.747-56.023 21.27-27.644 17.245-61.265 32.378-99.327 33.006-28.73.474-54.84-7.712-80.056-16.436-21.955-7.6-44.55-15.918-69.765-13.76v-14.188c25.12-2.743 46.596 6.43 67.369 15.132 23.425 9.803 47.874 19.449 75.965 19.38 38.734-.09 72.737-17.424 99.902-35.231 16.906-11.084 31.639-21.9 55.831-23.338 35.123-2.091 69.798 12.86 101.565 21.247 43.4 11.466 88.46 16.054 133.905 7.6a301.456 301.456 0 0 0 37.743-9.624c14.67-4.721 27.804-11.109 42.09-16.233 18.919-6.79 40.587-6.655 60.976-3.732 50.907 7.33 97.09 27.407 144.548 41.46 49.344 14.636 105.91 26.71 158.386 12.726a168.715 168.715 0 0 0 38.7-15.672c13.518-7.51 24.608-16.773 36.944-25.182 15.82-10.77 33.334-21.36 53.754-27.588 14.925-4.538 31.063-5.913 46.627-2.203 14.477 3.44 26.845 10.185 38.767 16.705 13.774 7.532 27.517 15.267 43.496 20.348 21.572 6.88 44.39 7.375 67.272 3.688-.163 3.712-.29 7.467-.546 11.222z"/>
            <path d="M1301.635 157.358c-20.74 1.169-41.002-.788-60.242-6.453-15.308-4.497-29.146-10.906-43.176-17.043-25.183-11.017-50.814-18.751-80.663-12.456-17.61 3.71-33.652 10.77-48.29 18.437-11.762 6.16-22.5 13.22-34.931 18.774a193.053 193.053 0 0 1-36.085 12.006c-51.261 11.647-105.654 2.428-155-9.465-47.267-11.38-93.833-27.434-143.654-32.49-20.74-2.113-42.377-1.821-62.095 3.643-14.061 3.889-27.133 9.51-41.163 13.535a378.455 378.455 0 0 1-38.925 9.038c-42.6 7.464-85.361 5.576-127.738-1.462-34.323-5.69-69.573-14.794-105.368-11.579-22.818 2.046-41.77 9.128-59.54 19.044-29.56 16.503-64.3 28.42-102.394 29.836-29.594 1.101-58.325-4.07-86.384-10.05-24.672-5.262-49.823-11.467-75.965-9.826V156.66c25.471-1.866 49.024 5.598 72.034 12.253 26.717 7.712 54.202 14.705 83.54 13.873 37.487-1.057 70.98-14.525 99.039-31.208 17.353-10.32 34.579-18.571 57.653-20.437 36.084-2.923 71.587 8.611 105.494 15.536 42.569 8.679 85.968 11.512 129.336 3.822a347.232 347.232 0 0 0 36.976-8.746c14.509-4.272 27.834-10.093 42.09-14.682 19.59-6.318 41.545-7.105 62.637-5.17 51.965 4.74 100.477 22.033 149.568 33.927 51.712 12.524 109.042 21.947 162.253 8.05a192.437 192.437 0 0 0 37.072-13.873c12.687-6.318 23.49-14.12 35.441-21.066 14.541-8.455 30.585-16.436 48.673-20.592 30.168-6.948 54.873 2.855 78.522 15.356 13.423 7.083 26.717 14.39 41.962 19.471 19.079 6.363 39.468 8.184 60.369 6.408-.247 2.582-.63 5.168-1.046 7.776z"/>
            <path d="M1299.27 168.172c-39.309 1.394-74.463-6.097-111.343-14.502-30.36-6.902-60.466-10.296-91.753-4.07-17.673 3.508-34.355 9.264-50.079 15.874-21.699 9.128-40.906 18.841-66.121 22.709-47.395 7.285-95.876-3.44-139.723-15.537-42.696-11.759-84.657-27.272-130.039-33.32-18.823-2.518-38.798-3.08-57.27 1.034-13.135 2.923-25.47 7.846-38.414 11.244-12.368 3.26-24.991 6.093-37.806 8.319-40.907 7.127-82.197 6.97-123.711 2.878-35.28-3.462-70.852-8.814-106.55-4.699-23.617 2.72-44.358 9.24-64.108 18.527-30.425 14.277-65.068 23.225-101.404 26.126-32.342 2.585-64.812.517-96.93-2.473-27.772-2.586-55.831-6.206-83.955-4.632v-14.188c26.846-1.573 53.179 3.553 79.13 7.712 29.753 4.742 60.017 8.612 90.634 6.948 35.946-2.031 71.05-11.781 102.97-28.6a164.442 164.442 0 0 1 61.136-18.458c35.762-3.553 71.172 3.912 105.972 8.656 42.09 5.733 84.241 6.812 126.172-.517 13.103-2.293 25.918-5.261 38.478-8.746 13.774-3.822 26.717-9.263 40.651-12.726 19.367-4.81 40.332-4.741 60.401-2.45 48.098 5.463 92.904 21.156 138.476 32.533 47.235 11.804 99.327 21.405 149.023 11.38 43.879-8.858 73.536-35.704 117.48-44.518 29.944-6.003 56.981-.09 83.922 9.331 14.796 5.193 29.434 10.68 45.061 14.525 19.783 4.877 40.268 6.655 61.169 5.757a275.526 275.526 0 0 1-1.469 5.883z"/>
            <path d="M1296.648 177.593c-77.66 2.856-155.99-10.342-232.21 4.992a487.947 487.947 0 0 0-53.69 14.232c-19.878 6.43-37.967 13.13-60.21 14.457-42.505 2.563-83.987-9.803-121.474-22.462-37.328-12.59-73.76-27.97-113.804-35.974-16.427-3.282-34.291-5.306-51.262-3.103-12.431 1.62-24.544 6.25-36.528 9.106a581.5 581.5 0 0 1-35.985 7.352c-38.51 6.52-77.467 7.802-116.872 6.318-34.994-1.326-69.955-3.575-104.727.813-23.33 2.923-45.475 8.274-66.186 16.3-32.086 12.434-67.624 19.921-103.673 24.17-35.57 4.205-71.715 5.33-107.732 5.555-30.744.203-61.584-.562-92.264 1.169v-14.187c29.146-1.62 58.419.787 87.502 2.18 33.812 1.62 67.88 2.317 101.564-.944 36.177-3.507 71.236-11.713 102.363-25.271a231.654 231.654 0 0 1 65.193-17.673c35.41-4.295 70.852-.382 106.198 2.136 40.78 2.9 81.206 2.361 121.187-4.564a481.594 481.594 0 0 0 37.136-7.959c12.56-3.192 24.799-7.981 37.679-10.363 17.832-3.305 36.88-2.114 54.68.745 43.08 6.902 82.645 22.349 123.04 34.444 41.068 12.322 86.545 23.788 131.862 18.482 23.937-2.788 42.601-11.264 63.534-19.156 16.395-6.183 33.524-11.51 51.453-15.064 32.502-6.452 64.94-5.238 97.729-.697 39.053 5.42 76.892 11.017 117.032 9.646-.639 2.082-.958 3.14-1.535 5.32z"/>
            <path d="M1294.221 188.206c-89.324 3.777-176.826 12.05-262.858 29.745a1992.779 1992.779 0 0 0-57.877 12.839c-18.696 4.429-36.113 8.004-56.087 7.127-37.839-1.664-73.184-14.39-105.782-27.048-33.365-12.95-65.834-27.948-101.692-37.368-15.116-3.958-31.127-6.925-47.33-6.813-11.825.09-24.193 4.385-35.57 6.633a775.279 775.279 0 0 1-31.351 5.508c-35.155 5.374-70.693 7.397-106.613 7.533-33.077.135-66.059-.113-98.784 3.71-22.499 2.63-45.062 6.452-66.058 12.725-33.844 10.093-69.67 16.8-105.527 22.215-71.967 10.86-145.379 16.3-218.66 20.325v-14.188c69.51-3.911 139.18-3.485 207.988-12.635 35.95-4.79 71.683-11.827 104.536-23.338 20.965-7.33 43.4-12.141 66.473-15.02 34.068-4.25 68.327-3.057 102.715-2.473 38.029.653 75.614-1.034 112.78-7.105a624.378 624.378 0 0 0 34.931-6.767c11.537-2.563 23.554-7.037 35.538-8.05 16.459-1.416 33.524 1.147 49.088 4.723 37.967 8.701 72.354 23.968 107.636 36.806 35.155 12.816 73.92 25.698 114.443 25.114 21.127-.315 38.798-5.599 58.037-11.085 18.152-5.193 36.624-9.825 55.447-13.67 80.376-16.392 163.308-12.545 245.888-15.806a149.16 149.16 0 0 0-1.31 6.363z"/>
            <path d="M1292.43 202.617c-100.7 3.733-192.996 31.701-288.68 51.151-37.55 7.622-76.923 16.75-116.297 12.096-35.95-4.25-69.381-15.85-101.468-27.543-32.438-11.848-64.396-24.911-98.943-33.59-15.5-3.89-31.639-6.858-48.097-7.668-10.738-.517-21.892 2.136-32.47 3.486a1100.75 1100.75 0 0 1-27.42 3.17c-58.804 6.028-118.023 3.035-176.922 7.599-57.557 4.474-112.782 16.908-168.805 26.688-42.12 7.352-84.402 14.435-126.907 20.551C71.331 263.616 35.825 268.582 0 270.158v-14.185c75.773-3.957 151.547-13.737 225.499-25.698 35.697-5.779 71.363-12.298 105.814-21.066 20.965-5.33 43.24-8.432 65.227-10.747 31.351-3.305 62.862-3.485 94.47-3.89 33.716-.427 67.144-2.36 100.285-6.88a852.751 852.751 0 0 0 29.847-4.632c10.994-1.888 22.978-5.643 34.291-5.35 16.107.426 31.895 3.529 46.883 7.576 34.802 9.399 66.505 23.81 98.943 36.514 31.798 12.456 65.707 24.957 102.33 28.037 19.4 1.618 36.689-.63 55.257-4.34a8669.141 8669.141 0 0 0 59.379-12.14c90.411-18.662 180.565-35.66 275.098-39.64a300.856 300.856 0 0 0-.892 8.9z"/>
            <path d="M1291.76 223.392c-107.413.677-199.357 45.62-300.794 64.101a434.497 434.497 0 0 1-121.41 5.216c-38.67-3.822-76.188-11.827-113.388-20.01-37.072-8.14-74.144-16.684-112.334-21.812-35.857-4.81-71.427-4.249-107.7-4.991-44.837-.922-89.292-5.171-134.097-6.251-18.76-.45-37.871-1.125-56.599-.382-34.802 1.371-69.573 8.431-103.034 14.772-44.39 8.409-88.365 17.762-132.755 26.126C74.079 286.86 37.135 294.46.063 295v-14.187c36.529-1.26 72.705-7.375 108.18-13.22 43.461-7.173 86.607-15.29 129.815-23.16 34.738-6.34 69.573-12.905 104.887-17.514 19.974-2.608 40.62-3.552 60.881-4.474 53.499-2.406 107.03.293 160.496-3.08a1441.82 1441.82 0 0 0 25.246-1.844c10.227-.831 20.71-2.473 31-2 17.226.787 34.195 3.394 50.686 6.902 35.378 7.51 68.742 19.043 102.363 29.701 33.493 10.612 67.816 21.023 104.216 25.497 40.042 4.924 79.513-1.417 118.119-9.039 98.815-19.493 191.654-55.108 296.03-58.008-.127 4.274-.222 8.546-.222 12.818z"/>
        </g>
    </g>
</svg>
