<svg id="Layer_1" data-name="Layer 1" xmlns="http://www.w3.org/2000/svg" viewBox="0 0 107.46 40.15"><defs><style>.cls-1{fill:#888;}.cls-2{isolation:isolate;}</style></defs><title>WM_logo fina-grey</title><path class="cls-1" d="M19,31.79a6.46,6.46,0,0,1,7.92-3.94,1.16,1.16,0,0,0,1.41-.76,1,1,0,0,0-.1-.85,8.82,8.82,0,1,0-7.06,12.91A6.49,6.49,0,0,1,19,31.79Z"/><path class="cls-1" d="M32.63,20.39a13.7,13.7,0,1,0-17.51,17.9l-.69-.49a9.54,9.54,0,0,1-1.61-13.37,9.67,9.67,0,0,1,2-1.87,9.82,9.82,0,0,1,5.55-1.81,10.41,10.41,0,0,1,1.74.16,10.78,10.78,0,0,1,2.07.62,10.15,10.15,0,0,1,5-.23,10.28,10.28,0,0,1,1.82.6,1.21,1.21,0,0,0,1.58-.62A.94.94,0,0,0,32.63,20.39Z"/><path class="cls-1" d="M37.23,14.64a18.6,18.6,0,1,0-25,23c-.36-.23-.72-.49-1.08-.76A14.35,14.35,0,0,1,8.47,16.76l0,0A14.11,14.11,0,0,1,11.22,14,14.52,14.52,0,0,1,20,11a13,13,0,0,1,3,.33,14.21,14.21,0,0,1,6.37,3.15l.2.16a12.23,12.23,0,0,1,2.66.3,12.79,12.79,0,0,1,3.25,1.15,1.28,1.28,0,0,0,1.71-.53A1.25,1.25,0,0,0,37.23,14.64Z"/><g class="cls-2"><path class="cls-1" d="M28.66,30.89,30.77,38h0l2-7.07H34L36,38h0l2.11-7.07h1.07l-2.66,8.26h-1.1l-2-6.94h0l-2,6.94h-1.1l-2.66-8.26Z"/><path class="cls-1" d="M40.48,32.17a2.36,2.36,0,0,1,.7-.86,2.93,2.93,0,0,1,1-.5,5,5,0,0,1,1.31-.16,5.78,5.78,0,0,1,1.09.1,2.63,2.63,0,0,1,1,.39,2.14,2.14,0,0,1,.7.81,2.91,2.91,0,0,1,.27,1.35v4.38a.53.53,0,0,0,.59.61.78.78,0,0,0,.32-.06v.85l-.31,0-.34,0a1.53,1.53,0,0,1-.62-.1.83.83,0,0,1-.36-.3,1.09,1.09,0,0,1-.17-.46,3.82,3.82,0,0,1,0-.58h0a6.72,6.72,0,0,1-.55.71,2.78,2.78,0,0,1-.62.52,2.9,2.9,0,0,1-.78.32,4.32,4.32,0,0,1-1,.11,4.13,4.13,0,0,1-1.08-.14,2.42,2.42,0,0,1-.88-.43A2.06,2.06,0,0,1,40,38,2.5,2.5,0,0,1,39.83,37a2.14,2.14,0,0,1,.38-1.35,2.42,2.42,0,0,1,1-.74,5.83,5.83,0,0,1,1.42-.36l1.61-.2.56-.08a1,1,0,0,0,.4-.17.79.79,0,0,0,.25-.33,1.41,1.41,0,0,0,.09-.54,1.85,1.85,0,0,0-.17-.84,1.33,1.33,0,0,0-.46-.52,1.86,1.86,0,0,0-.69-.26,4.66,4.66,0,0,0-.84-.07,2.54,2.54,0,0,0-1.57.46,1.79,1.79,0,0,0-.64,1.46h-1A3.35,3.35,0,0,1,40.48,32.17Zm5,2.46a.58.58,0,0,1-.37.26,3.77,3.77,0,0,1-.48.11l-1.32.2a7.34,7.34,0,0,0-1.24.26,2.42,2.42,0,0,0-.92.5,1.2,1.2,0,0,0-.36.94,1.47,1.47,0,0,0,.15.68,1.66,1.66,0,0,0,.41.51,1.8,1.8,0,0,0,.59.33,2.18,2.18,0,0,0,.69.11,3.44,3.44,0,0,0,1.1-.18,2.72,2.72,0,0,0,.92-.51,2.44,2.44,0,0,0,.86-1.9V34.63Z"/><path class="cls-1" d="M48.77,30.89l2.59,7.25h0L54,30.89h1l-3.09,8.26H50.84l-3.18-8.26Z"/><path class="cls-1" d="M56.73,36.42a3.1,3.1,0,0,0,.49,1,2.77,2.77,0,0,0,.85.77,2.37,2.37,0,0,0,1.23.3A2.45,2.45,0,0,0,61,38a3,3,0,0,0,.86-1.54h1a4,4,0,0,1-1.18,2.18,3.51,3.51,0,0,1-2.42.77A3.84,3.84,0,0,1,57.61,39a3.11,3.11,0,0,1-1.16-.94,4.1,4.1,0,0,1-.66-1.39A6.35,6.35,0,0,1,55.57,35a6,6,0,0,1,.22-1.6,4.3,4.3,0,0,1,.66-1.4,3.35,3.35,0,0,1,1.16-1,3.58,3.58,0,0,1,1.69-.38,3.27,3.27,0,0,1,2.84,1.45,4.34,4.34,0,0,1,.63,1.49,6.56,6.56,0,0,1,.16,1.7H56.58A4.47,4.47,0,0,0,56.73,36.42Zm5-3.08a3,3,0,0,0-.52-.94,2.6,2.6,0,0,0-.82-.66,2.34,2.34,0,0,0-1.09-.25,2.38,2.38,0,0,0-1.1.25,2.6,2.6,0,0,0-.82.66,3.27,3.27,0,0,0-.54.94,4.62,4.62,0,0,0-.26,1.1h5.34A3.69,3.69,0,0,0,61.72,33.34Z"/><path class="cls-1" d="M65.22,30.89v1.39h0a3.16,3.16,0,0,1,1-1.2A2.93,2.93,0,0,1,68,30.65a2.81,2.81,0,0,1,1.48.4,2,2,0,0,1,.89,1.22A2.53,2.53,0,0,1,71.43,31a3.12,3.12,0,0,1,1.54-.4q2.74,0,2.74,2.9v5.6h-1V33.59A2.44,2.44,0,0,0,74.26,32a1.85,1.85,0,0,0-1.52-.54,2.16,2.16,0,0,0-1.09.25,1.92,1.92,0,0,0-.69.66,2.8,2.8,0,0,0-.36,1,5.75,5.75,0,0,0-.1,1.11v4.67h-1v-5.6a3.47,3.47,0,0,0-.09-.79,1.84,1.84,0,0,0-.29-.66,1.38,1.38,0,0,0-.54-.44,1.89,1.89,0,0,0-.82-.16,2.5,2.5,0,0,0-1.11.23,2,2,0,0,0-.77.64,2.84,2.84,0,0,0-.44,1,4.75,4.75,0,0,0-.14,1.21v4.61h-1V30.89Z"/><path class="cls-1" d="M77.83,32.17a2.36,2.36,0,0,1,.7-.86,2.92,2.92,0,0,1,1-.5,5,5,0,0,1,1.31-.16,5.78,5.78,0,0,1,1.09.1,2.63,2.63,0,0,1,1,.39,2.14,2.14,0,0,1,.7.81,2.91,2.91,0,0,1,.27,1.35v4.38a.53.53,0,0,0,.59.61.78.78,0,0,0,.32-.06v.85l-.31,0-.34,0a1.53,1.53,0,0,1-.62-.1.83.83,0,0,1-.36-.3,1.09,1.09,0,0,1-.17-.46,3.82,3.82,0,0,1,0-.58h0a6.72,6.72,0,0,1-.55.71,2.78,2.78,0,0,1-.62.52,2.9,2.9,0,0,1-.78.32,4.32,4.32,0,0,1-1,.11,4.13,4.13,0,0,1-1.08-.14A2.42,2.42,0,0,1,78,38.8a2.07,2.07,0,0,1-.59-.75A2.51,2.51,0,0,1,77.17,37a2.13,2.13,0,0,1,.38-1.35,2.41,2.41,0,0,1,1-.74A5.82,5.82,0,0,1,80,34.51l1.61-.2.56-.08a1,1,0,0,0,.4-.17.79.79,0,0,0,.25-.33,1.41,1.41,0,0,0,.09-.54,1.85,1.85,0,0,0-.17-.84,1.33,1.33,0,0,0-.46-.52,1.86,1.86,0,0,0-.69-.26,4.66,4.66,0,0,0-.84-.07,2.55,2.55,0,0,0-1.57.46,1.79,1.79,0,0,0-.64,1.46h-1A3.35,3.35,0,0,1,77.83,32.17Zm5,2.46a.58.58,0,0,1-.37.26A3.77,3.77,0,0,1,82,35l-1.32.2a7.34,7.34,0,0,0-1.24.26,2.42,2.42,0,0,0-.92.5,1.2,1.2,0,0,0-.36.94,1.47,1.47,0,0,0,.15.68,1.66,1.66,0,0,0,.41.51,1.8,1.8,0,0,0,.59.33,2.18,2.18,0,0,0,.69.11,3.44,3.44,0,0,0,1.1-.18,2.72,2.72,0,0,0,.92-.51,2.44,2.44,0,0,0,.86-1.9V34.63Z"/><path class="cls-1" d="M86.93,27.72v7.17l4.58-4h1.34l-3.52,3.06,3.76,5.2H91.83l-3.26-4.5L86.93,36v3.14h-1V27.72Z"/><path class="cls-1" d="M94.67,36.42a3.1,3.1,0,0,0,.49,1,2.77,2.77,0,0,0,.85.77,2.37,2.37,0,0,0,1.23.3A2.45,2.45,0,0,0,99,38a3,3,0,0,0,.86-1.54h1a4,4,0,0,1-1.18,2.18,3.51,3.51,0,0,1-2.42.77A3.84,3.84,0,0,1,95.55,39a3.11,3.11,0,0,1-1.16-.94,4.1,4.1,0,0,1-.66-1.39A6.35,6.35,0,0,1,93.51,35a6,6,0,0,1,.22-1.6,4.3,4.3,0,0,1,.66-1.4,3.35,3.35,0,0,1,1.16-1,3.58,3.58,0,0,1,1.69-.38,3.27,3.27,0,0,1,2.84,1.45,4.34,4.34,0,0,1,.63,1.49,6.56,6.56,0,0,1,.16,1.7H94.52A4.47,4.47,0,0,0,94.67,36.42Zm5-3.08a3,3,0,0,0-.52-.94,2.6,2.6,0,0,0-.82-.66,2.34,2.34,0,0,0-1.09-.25,2.38,2.38,0,0,0-1.1.25,2.6,2.6,0,0,0-.82.66,3.27,3.27,0,0,0-.54.94,4.62,4.62,0,0,0-.26,1.1h5.34A3.69,3.69,0,0,0,99.66,33.34Z"/><path class="cls-1" d="M103.16,30.89v1.94h0a3.17,3.17,0,0,1,1.19-1.55,3.12,3.12,0,0,1,1.93-.5v1a3,3,0,0,0-1.25.18,2.8,2.8,0,0,0-1,.62,2.76,2.76,0,0,0-.63,1,3.19,3.19,0,0,0-.22,1.21v4.4h-1V30.89Z"/></g></svg>