<svg width="32" height="32" viewBox="0 0 32 32" fill="none" xmlns="http://www.w3.org/2000/svg">
<rect width="32" height="32" rx="8" fill="#2563EB"/>
<path d="M23.8503 15.1018C23.9995 15.036 24.1261 14.9279 24.2144 14.7908C24.3028 14.6538 24.3489 14.4938 24.3473 14.3307C24.3456 14.1677 24.2961 14.0087 24.2049 13.8735C24.1138 13.7383 23.985 13.6328 23.8345 13.5701L16.692 10.3168C16.4749 10.2178 16.239 10.1665 16.0003 10.1665C15.7617 10.1665 15.5258 10.2178 15.3087 10.3168L8.16699 13.5668C8.01863 13.6318 7.89242 13.7386 7.80379 13.8741C7.71517 14.0097 7.66797 14.1682 7.66797 14.3301C7.66797 14.4921 7.71517 14.6506 7.80379 14.7861C7.89242 14.9217 8.01863 15.0285 8.16699 15.0935L15.3087 18.3501C15.5258 18.4492 15.7617 18.5004 16.0003 18.5004C16.239 18.5004 16.4749 18.4492 16.692 18.3501L23.8503 15.1018Z" stroke="white" stroke-width="1.66667" stroke-linecap="round" stroke-linejoin="round"/>
<path d="M24.333 14.3335V19.3335" stroke="white" stroke-width="1.66667" stroke-linecap="round" stroke-linejoin="round"/>
<path d="M11 16.4167V19.3333C11 19.9964 11.5268 20.6323 12.4645 21.1011C13.4021 21.5699 14.6739 21.8333 16 21.8333C17.3261 21.8333 18.5979 21.5699 19.5355 21.1011C20.4732 20.6323 21 19.9964 21 19.3333V16.4167" stroke="white" stroke-width="1.66667" stroke-linecap="round" stroke-linejoin="round"/>
</svg>
