<svg width="32" height="32" viewBox="0 0 32 32" fill="none" xmlns="http://www.w3.org/2000/svg">
<g clip-path="url(#clip0_2911_6394)">
<path d="M27.09 18.68V14.79H27.11C27.47 14.61 27.7 14.26 27.7 13.87V13.1C27.7 12.71 27.47 12.36 27.11 12.2L16.27 7.19001C16 7.07001 15.69 7.07001 15.43 7.19001L4.58 12.2C4.23 12.36 4 12.71 4 13.1V13.87C4 14.26 4.23 14.61 4.58 14.78L6.48 15.65L6.42 18.42L7.81 19.05V16.26L9.88 17.22L10.54 17.53L10.43 20.24L7.81 19.05V21.29L9.88 22.25L15.43 24.81C15.69 24.93 16 24.93 16.27 24.81L21.81 22.25L23.88 21.29V16.26L25.85 15.36V18.68C25.31 18.92 24.94 19.45 24.94 20.06C24.94 20.9 25.62 21.57 26.47 21.57C27.32 21.57 28 20.9 28 20.06C28 19.45 27.63 18.92 27.09 18.68Z" fill="#2563EB"/>
<path fill-rule="evenodd" clip-rule="evenodd" d="M27.09 18.68V14.79H27.11C27.47 14.61 27.7 14.26 27.7 13.87V13.1C27.7 12.71 27.47 12.36 27.11 12.2L16.27 7.19001C16 7.07001 15.69 7.07001 15.43 7.19001L4.58 12.2C4.23 12.36 4 12.71 4 13.1V13.87C4 14.26 4.23 14.61 4.58 14.78L6.48 15.65L7.81 16.26L9.88 17.22L10.54 17.53L15.43 19.78C15.69 19.9 16 19.9 16.27 19.78L21.81 17.22V19.99L16.27 22.55C16 22.67 15.69 22.67 15.43 22.55L10.43 20.25L7.81 19.05V21.29L9.88 22.25L15.43 24.81C15.69 24.93 16 24.93 16.27 24.81L21.81 22.25L23.88 21.29V16.26L25.85 15.36V18.68C25.31 18.92 24.94 19.45 24.94 20.06C24.94 20.9 25.62 21.57 26.47 21.57C27.32 21.57 28 20.9 28 20.06C28 19.45 27.63 18.92 27.09 18.68ZM16.27 17.52C16 17.65 15.69 17.65 15.43 17.52L6.68 13.49L15.43 9.45001C15.69 9.33001 16 9.33001 16.27 9.45001L25.02 13.49L16.27 17.52Z" fill="white"/>
<path fill-rule="evenodd" clip-rule="evenodd" d="M27.09 18.68V14.79H27.11C27.47 14.61 27.7 14.26 27.7 13.87V13.1C27.7 12.71 27.47 12.36 27.11 12.2L16.27 7.19001C16 7.07001 15.69 7.07001 15.43 7.19001L4.58 12.2C4.23 12.36 4 12.71 4 13.1V13.87C4 14.26 4.23 14.61 4.58 14.78L6.48 15.65L7.81 16.26L9.88 17.22L10.54 17.53L15.43 19.78C15.69 19.9 16 19.9 16.27 19.78L21.81 17.22V19.99L16.27 22.55C16 22.67 15.69 22.67 15.43 22.55L10.43 20.25L7.81 19.05V21.29L9.88 22.25L15.43 24.81C15.69 24.93 16 24.93 16.27 24.81L21.81 22.25L23.88 21.29V16.26L25.85 15.36V18.68C25.31 18.92 24.94 19.45 24.94 20.06C24.94 20.9 25.62 21.57 26.47 21.57C27.32 21.57 28 20.9 28 20.06C28 19.45 27.63 18.92 27.09 18.68ZM16.27 17.52C16 17.65 15.69 17.65 15.43 17.52L6.68 13.49L15.43 9.45001C15.69 9.33001 16 9.33001 16.27 9.45001L25.02 13.49L16.27 17.52Z" fill="white"/>
<path fill-rule="evenodd" clip-rule="evenodd" d="M10.5399 17.53L10.4299 20.24L9.87988 19.99V17.22L10.5399 17.53Z" fill="#2563EB"/>
<path fill-rule="evenodd" clip-rule="evenodd" d="M24 0H8C3.58 0 0 3.58 0 8V24C0 28.42 3.58 32 8 32H24C28.42 32 32 28.42 32 24V8C32 3.58 28.42 0 24 0ZM26.47 21.57C25.62 21.57 24.94 20.9 24.94 20.06C24.94 19.45 25.31 18.92 25.85 18.68V15.36L23.88 16.26V21.29L21.81 22.25L16.27 24.81C16 24.93 15.69 24.93 15.43 24.81L9.88 22.25L7.81 21.29V19.05L6.42 18.42L6.48 15.65L4.58 14.78C4.23 14.61 4 14.26 4 13.87V13.1C4 12.71 4.23 12.36 4.58 12.2L15.43 7.19C15.69 7.07 16 7.07 16.27 7.19L27.11 12.2C27.47 12.36 27.7 12.71 27.7 13.1V13.87C27.7 14.26 27.47 14.61 27.11 14.78H27.09V18.68C27.63 18.92 28 19.45 28 20.06C28 20.9 27.31 21.57 26.47 21.57Z" fill="#2563EB"/>
<path fill-rule="evenodd" clip-rule="evenodd" d="M23.8796 21.29L21.8096 19.99V17.22L23.8796 16.26V21.29Z" fill="#B2B2B2"/>
<path fill-rule="evenodd" clip-rule="evenodd" d="M7.80957 16.26L9.87957 17.22V19.99L7.80957 21.29V16.26Z" fill="#B2B2B2"/>
</g>
<defs>
<clipPath id="clip0_2911_6394">
<rect width="32" height="32" fill="white"/>
</clipPath>
</defs>
</svg>
