<svg width="103" height="36" viewBox="0 0 103 36" fill="none" xmlns="http://www.w3.org/2000/svg">
<g clip-path="url(#clip0_814_472)">
<g filter="url(#filter0_d_814_472)">
<path d="M6.0102 18.4911C4.62313 19.8777 2.20095 20.8267 -0.00292969 21.2977C2.2014 21.7694 4.62408 22.7175 6.01115 24.1045C7.39726 25.4911 8.34631 27.914 8.81825 30.1174C9.28923 27.9131 10.2377 25.4906 11.6248 24.1041C13.0114 22.7175 15.4341 21.7685 17.638 21.2968C15.4336 20.8258 13.011 19.877 11.6239 18.4907C10.2373 17.1041 9.28873 14.6812 8.81679 12.4778C8.34581 14.6816 7.39681 17.104 6.0102 18.4911Z" fill="url(#paint0_linear_814_472)"/>
</g>
<g filter="url(#filter1_d_814_472)">
<path d="M17.107 9.48546C16.2789 10.3131 14.8311 10.881 13.5146 11.1624C14.8311 11.4443 16.2789 12.0102 17.1074 12.8388C17.9351 13.6674 18.5025 15.1149 18.7844 16.4312C19.0662 15.1145 19.6327 13.6674 20.4612 12.8388C21.2894 12.0102 22.7371 11.4432 24.0536 11.1614C22.7366 10.8801 21.2894 10.3131 20.4608 9.48507C19.6327 8.65695 19.0657 7.20919 18.7834 5.89316C18.5021 7.20913 17.9351 8.6569 17.107 9.48546Z" fill="url(#paint1_linear_814_472)"/>
</g>
<g filter="url(#filter2_d_814_472)">
<path d="M23.0284 24.6196C23.2174 24.8086 23.4738 24.9148 23.7412 24.9148C24.0085 24.9148 24.2649 24.8086 24.4539 24.6196C24.643 24.4305 24.7492 24.1742 24.7492 23.9068V21.8908C24.7492 21.6235 24.643 21.3671 24.4539 21.178C24.2649 20.989 24.0085 20.8828 23.7412 20.8828C23.4738 20.8828 23.2174 20.989 23.0284 21.178C22.8394 21.3671 22.7332 21.6235 22.7332 21.8908V23.9068C22.7332 24.1742 22.8394 24.4305 23.0284 24.6196Z" fill="url(#paint2_linear_814_472)"/>
<path d="M19.7092 26.9308H21.7252C21.9925 26.9308 22.2489 26.8246 22.4379 26.6356C22.627 26.4465 22.7332 26.1902 22.7332 25.9228C22.7332 25.6555 22.627 25.3991 22.4379 25.21C22.2489 25.021 21.9925 24.9148 21.7252 24.9148H19.7092C19.4418 24.9148 19.1854 25.021 18.9964 25.21C18.8074 25.3991 18.7012 25.6555 18.7012 25.9228C18.7012 26.1902 18.8074 26.4465 18.9964 26.6356C19.1854 26.8246 19.4418 26.9308 19.7092 26.9308Z" fill="url(#paint3_linear_814_472)"/>
<path d="M23.0284 30.6676C23.2174 30.8566 23.4738 30.9628 23.7412 30.9628C24.0085 30.9628 24.2649 30.8566 24.4539 30.6676C24.643 30.4785 24.7492 30.2222 24.7492 29.9548V27.9388C24.7492 27.6715 24.643 27.4151 24.4539 27.226C24.2649 27.037 24.0085 26.9308 23.7412 26.9308C23.4738 26.9308 23.2174 27.037 23.0284 27.226C22.8394 27.4151 22.7332 27.6715 22.7332 27.9388V29.9548C22.7332 30.2222 22.8394 30.4785 23.0284 30.6676Z" fill="url(#paint4_linear_814_472)"/>
<path d="M25.7572 26.9308H27.7732C28.0405 26.9308 28.2969 26.8246 28.4859 26.6356C28.675 26.4465 28.7812 26.1902 28.7812 25.9228C28.7812 25.6555 28.675 25.3991 28.4859 25.21C28.2969 25.021 28.0405 24.9148 27.7732 24.9148H25.7572C25.4898 24.9148 25.2334 25.021 25.0444 25.21C24.8554 25.3991 24.7492 25.6555 24.7492 25.9228C24.7492 26.1902 24.8554 26.4465 25.0444 26.6356C25.2334 26.8246 25.4898 26.9308 25.7572 26.9308Z" fill="url(#paint5_linear_814_472)"/>
</g>
</g>
<path d="M47.8545 10.2531L41.7373 28H38.0389L45.7451 7.525H48.1076L47.8545 10.2531ZM52.9732 28L46.842 10.2531L46.5748 7.525H48.9514L56.6857 28H52.9732ZM52.6779 20.4063V23.2047H41.5404V20.4063H52.6779ZM62.7467 7.525V28H59.217V7.525H62.7467ZM67.1342 7.525H74.3764C75.9326 7.525 77.2592 7.75938 78.3561 8.22813C79.4529 8.69688 80.292 9.39063 80.8732 10.3094C81.4639 11.2188 81.7592 12.3438 81.7592 13.6844C81.7592 14.7063 81.5717 15.6063 81.1967 16.3844C80.8217 17.1625 80.292 17.8188 79.6076 18.3531C78.9232 18.8781 78.1076 19.2859 77.1607 19.5766L76.092 20.0969H69.5811L69.5529 17.2984H74.4326C75.2764 17.2984 75.9795 17.1484 76.542 16.8484C77.1045 16.5484 77.5264 16.1406 77.8076 15.625C78.0982 15.1 78.2436 14.5094 78.2436 13.8531C78.2436 13.1406 78.1029 12.5219 77.8217 11.9969C77.5498 11.4625 77.1279 11.0547 76.5561 10.7734C75.9842 10.4828 75.2576 10.3375 74.3764 10.3375H70.6639V28H67.1342V7.525ZM78.8201 28L74.0107 18.8031L77.7092 18.7891L82.5889 27.8172V28H78.8201ZM93.2482 10.2531L87.1311 28H83.4326L91.1389 7.525H93.5014L93.2482 10.2531ZM98.367 28L92.2357 10.2531L91.9686 7.525H94.3451L102.079 28H98.367ZM98.0717 20.4063V23.2047H86.9342V20.4063H98.0717Z" fill="url(#paint6_linear_814_472)"/>
<defs>
<filter id="filter0_d_814_472" x="-43.2029" y="-30.7222" width="104.041" height="104.04" filterUnits="userSpaceOnUse" color-interpolation-filters="sRGB">
<feFlood flood-opacity="0" result="BackgroundImageFix"/>
<feColorMatrix in="SourceAlpha" type="matrix" values="0 0 0 0 0 0 0 0 0 0 0 0 0 0 0 0 0 0 127 0" result="hardAlpha"/>
<feOffset/>
<feGaussianBlur stdDeviation="21.6"/>
<feComposite in2="hardAlpha" operator="out"/>
<feColorMatrix type="matrix" values="0 0 0 0 0.333333 0 0 0 0 0.447647 0 0 0 0 0.956863 0 0 0 0.24 0"/>
<feBlend mode="normal" in2="BackgroundImageFix" result="effect1_dropShadow_814_472"/>
<feBlend mode="normal" in="SourceGraphic" in2="effect1_dropShadow_814_472" result="shape"/>
</filter>
<filter id="filter1_d_814_472" x="-29.6853" y="-37.3069" width="96.9391" height="96.9381" filterUnits="userSpaceOnUse" color-interpolation-filters="sRGB">
<feFlood flood-opacity="0" result="BackgroundImageFix"/>
<feColorMatrix in="SourceAlpha" type="matrix" values="0 0 0 0 0 0 0 0 0 0 0 0 0 0 0 0 0 0 127 0" result="hardAlpha"/>
<feOffset/>
<feGaussianBlur stdDeviation="21.6"/>
<feComposite in2="hardAlpha" operator="out"/>
<feColorMatrix type="matrix" values="0 0 0 0 0.333333 0 0 0 0 0.447647 0 0 0 0 0.956863 0 0 0 0.24 0"/>
<feBlend mode="normal" in2="BackgroundImageFix" result="effect1_dropShadow_814_472"/>
<feBlend mode="normal" in="SourceGraphic" in2="effect1_dropShadow_814_472" result="shape"/>
</filter>
<filter id="filter2_d_814_472" x="-24.4988" y="-22.3172" width="96.4801" height="96.4801" filterUnits="userSpaceOnUse" color-interpolation-filters="sRGB">
<feFlood flood-opacity="0" result="BackgroundImageFix"/>
<feColorMatrix in="SourceAlpha" type="matrix" values="0 0 0 0 0 0 0 0 0 0 0 0 0 0 0 0 0 0 127 0" result="hardAlpha"/>
<feOffset/>
<feGaussianBlur stdDeviation="21.6"/>
<feComposite in2="hardAlpha" operator="out"/>
<feColorMatrix type="matrix" values="0 0 0 0 0.333333 0 0 0 0 0.447647 0 0 0 0 0.956863 0 0 0 0.24 0"/>
<feBlend mode="normal" in2="BackgroundImageFix" result="effect1_dropShadow_814_472"/>
<feBlend mode="normal" in="SourceGraphic" in2="effect1_dropShadow_814_472" result="shape"/>
</filter>
<linearGradient id="paint0_linear_814_472" x1="-0.00292969" y1="30.1174" x2="17.6367" y2="12.4765" gradientUnits="userSpaceOnUse">
<stop stop-color="#EEAD92"/>
<stop offset="1" stop-color="#6018DC"/>
</linearGradient>
<linearGradient id="paint1_linear_814_472" x1="13.5146" y1="16.4312" x2="24.0526" y2="5.89221" gradientUnits="userSpaceOnUse">
<stop stop-color="#EEAD92"/>
<stop offset="1" stop-color="#6018DC"/>
</linearGradient>
<linearGradient id="paint2_linear_814_472" x1="18.7012" y1="20.8828" x2="28.7812" y2="30.9628" gradientUnits="userSpaceOnUse">
<stop stop-color="#EEAD92"/>
<stop offset="1" stop-color="#6018DC"/>
</linearGradient>
<linearGradient id="paint3_linear_814_472" x1="18.7012" y1="20.8828" x2="28.7812" y2="30.9628" gradientUnits="userSpaceOnUse">
<stop stop-color="#EEAD92"/>
<stop offset="1" stop-color="#6018DC"/>
</linearGradient>
<linearGradient id="paint4_linear_814_472" x1="18.7012" y1="20.8828" x2="28.7812" y2="30.9628" gradientUnits="userSpaceOnUse">
<stop stop-color="#EEAD92"/>
<stop offset="1" stop-color="#6018DC"/>
</linearGradient>
<linearGradient id="paint5_linear_814_472" x1="18.7012" y1="20.8828" x2="28.7812" y2="30.9628" gradientUnits="userSpaceOnUse">
<stop stop-color="#EEAD92"/>
<stop offset="1" stop-color="#6018DC"/>
</linearGradient>
<linearGradient id="paint6_linear_814_472" x1="37.7998" y1="0" x2="68.316" y2="55.0987" gradientUnits="userSpaceOnUse">
<stop stop-color="#EEAD92"/>
<stop offset="1" stop-color="#6018DC"/>
</linearGradient>
<clipPath id="clip0_814_472">
<rect width="28.8" height="28.8" fill="white" transform="matrix(0 -1 1 0 0 32.3999)"/>
</clipPath>
</defs>
</svg>
