<svg width="40" height="40" viewBox="0 0 40 40" fill="none" xmlns="http://www.w3.org/2000/svg">
<rect opacity="0.2" width="30.3695" height="31.1103" rx="11.1108" fill="#6863FF"/>
<rect x="9.63049" y="8.88867" width="30.3695" height="31.1103" rx="11.1108" fill="#635FD1"/>
<path d="M33.0288 22.7262L31.8806 22.5357C31.7192 22.5085 31.5868 22.396 31.536 22.2418C31.4145 21.8681 31.2585 21.5016 31.0753 21.1515C30.9973 21.0045 31.01 20.8285 31.1061 20.6925L31.7627 19.7727C31.9913 19.4516 31.9568 19.0162 31.6775 18.7368L30.3697 17.4306C30.0904 17.1512 29.6551 17.1149 29.334 17.3453L28.3582 18.0438C28.2276 18.1381 28.0571 18.1526 27.9138 18.0819C27.6218 17.9403 27.3189 17.817 27.0141 17.7172C26.86 17.6664 26.7475 17.5358 26.7203 17.3725L26.5299 16.2259C26.4646 15.8359 26.1326 15.5547 25.7372 15.5547H23.8889C23.4935 15.5547 23.1616 15.8377 23.0963 16.2259L22.9058 17.3743C22.8786 17.5358 22.768 17.6682 22.6156 17.7172C22.2746 17.8279 21.9373 17.9676 21.6144 18.1327C21.4711 18.2052 21.2988 18.1907 21.1664 18.0964L20.2196 17.4197C19.8985 17.1911 19.4632 17.2256 19.1839 17.5049L17.8761 18.813C17.5968 19.0923 17.5605 19.5278 17.7909 19.8489L18.4674 20.7959C18.5636 20.9301 18.5763 21.1006 18.5037 21.244C18.3405 21.5669 18.2008 21.9043 18.0883 22.2454C18.0394 22.3978 17.907 22.5103 17.7455 22.5357L16.5974 22.7262C16.2074 22.7915 15.9263 23.1235 15.9263 23.519V25.3676C15.9263 25.7631 16.2092 26.0951 16.5974 26.1604L17.7437 26.3509C17.9051 26.3781 18.0375 26.4906 18.0883 26.6448C18.1881 26.9514 18.3096 27.2544 18.4529 27.5447C18.5218 27.688 18.5073 27.8585 18.4148 27.9891L17.7165 28.9652C17.488 29.2863 17.5242 29.7217 17.8018 30.0011L19.1077 31.3091C19.387 31.5885 19.8224 31.6248 20.1434 31.3944L21.063 30.7376C21.199 30.6415 21.3731 30.6288 21.5219 30.7068C21.8702 30.89 22.2365 31.0442 22.612 31.1676C22.7662 31.2184 22.8804 31.3508 22.9058 31.5123L23.0963 32.6607C23.1616 33.0507 23.4935 33.3319 23.8889 33.3319H25.7372C26.1326 33.3319 26.4646 33.0489 26.5299 32.6607L26.7203 31.5123C26.7475 31.3508 26.8582 31.2184 27.0123 31.1694C27.3552 31.0569 27.6925 30.9191 28.0136 30.7539C28.1569 30.6814 28.3292 30.6959 28.4634 30.7902L29.4102 31.4669C29.7312 31.6955 30.1666 31.6611 30.4459 31.3817L31.7536 30.0736C32.033 29.7943 32.0693 29.3589 31.8389 29.0377L31.1623 28.0907C31.0662 27.9565 31.0535 27.7841 31.1261 27.6408C31.2893 27.3197 31.429 26.9823 31.5414 26.6394C31.5904 26.487 31.7228 26.3745 31.8842 26.3473L33.0324 26.1568C33.4224 26.0915 33.7035 25.7595 33.7035 25.364V23.519C33.6999 23.1235 33.4169 22.7897 33.0288 22.7262ZM22.4451 25.7396C22.6737 25.9356 22.6991 26.2784 22.505 26.507C22.398 26.6322 22.2456 26.6975 22.0914 26.6975C21.9663 26.6975 21.8393 26.654 21.7378 26.5669L19.7425 24.8561C19.621 24.7527 19.5521 24.6021 19.5521 24.4425C19.5521 24.2829 19.621 24.1323 19.7425 24.0289L21.7378 22.3181C21.9663 22.1222 22.3091 22.1494 22.505 22.378C22.7009 22.6065 22.6737 22.9494 22.4451 23.1454L20.9324 24.4425L22.4451 25.7396ZM26.421 20.9701L24.2444 28.2269C24.1737 28.4627 23.9578 28.6151 23.7239 28.6151C23.6713 28.6151 23.6187 28.6079 23.5679 28.5916C23.2795 28.5045 23.1162 28.2015 23.2033 27.913L25.3799 20.6563C25.4669 20.3678 25.768 20.2046 26.0583 20.2916C26.3448 20.3787 26.5081 20.6835 26.421 20.9701ZM29.8817 24.856L27.8865 26.5668C27.7831 26.6557 27.658 26.6975 27.5328 26.6975C27.3805 26.6975 27.2263 26.6321 27.1193 26.507C26.9234 26.2784 26.9506 25.9355 27.1791 25.7396L28.6919 24.4424L27.1791 23.1453C26.9506 22.9494 26.9252 22.6065 27.1193 22.3779C27.3152 22.1493 27.658 22.1239 27.8865 22.318L29.8818 24.0288C30.0033 24.1322 30.0722 24.2828 30.0722 24.4424C30.0722 24.602 30.0033 24.7526 29.8817 24.856Z" fill="white"/>
</svg>
