<svg width="40" height="40" viewBox="0 0 40 40" fill="none" xmlns="http://www.w3.org/2000/svg">
<rect width="30.3695" height="31.1103" rx="15" fill="#FBE6E3"/>
<rect x="9.63037" y="8.88867" width="30.3695" height="31.1103" rx="15" fill="#F17E50"/>
<path d="M20.1828 22.5868L16 22.6052L21.0259 17.2658L22.8836 17.2506C21.6221 18.7948 20.6995 20.618 20.1828 22.5868ZM29.8908 17.8147C29.1948 17.8147 28.5963 18.3374 28.4605 19.0625C28.3248 19.7876 28.69 20.5135 29.3336 20.7963C29.9763 21.0792 30.7181 20.8402 31.1051 20.2258C31.4913 19.6107 31.4156 18.7916 30.9236 18.2689C30.6498 17.9772 30.2786 17.8139 29.8908 17.8147ZM33.5448 20.115C33.0573 21.7859 32.1933 23.3063 31.0286 24.5428C30.7286 24.8615 30.4098 25.1603 30.0753 25.4376C29.7956 25.6671 29.5053 25.8822 29.2053 26.0798L23.5712 20.0934C24.6325 18.2783 26.1767 16.8393 28.009 15.9581C29.8405 15.0776 31.8774 14.7956 33.8612 15.1469C34.1222 16.8067 34.0143 18.508 33.5448 20.115ZM31.903 19.3652C31.9023 18.3461 31.2242 17.4696 30.2837 17.2711C29.3432 17.0735 28.4012 17.6082 28.0344 18.55C27.6677 19.4918 27.9782 20.577 28.7762 21.1428C29.5734 21.7085 30.6362 21.5978 31.3143 20.8775C31.6923 20.4767 31.9045 19.9325 31.903 19.3652ZM27.7817 27.1809C27.7682 27.1419 27.7472 27.106 27.7194 27.0773L22.6329 21.6719C22.5241 21.5579 22.3501 21.5579 22.2414 21.6719C22.2091 21.7061 22.1851 21.7491 22.1724 21.7962C21.4899 23.7316 21.3181 25.8272 21.6751 27.8583C21.6954 27.9802 21.7861 28.075 21.9016 28.0949C23.8187 28.4734 25.7964 28.2877 27.6212 27.5579C27.7637 27.5013 27.8357 27.3323 27.7817 27.1809ZM26.7422 29.5563L26.7249 34L31.7508 28.6606L31.7643 26.6869L31.765 26.6861C31.0945 27.3053 30.3655 27.8487 29.59 28.3092C28.6915 28.8439 27.7352 29.2631 26.7422 29.5563ZM19.1235 26.6855L16.7294 29.2297C16.6777 29.2847 16.6492 29.3596 16.6492 29.4369C16.6492 29.515 16.6777 29.5891 16.7294 29.644C16.8374 29.7588 17.0122 29.7588 17.1202 29.644L19.515 27.1006C19.623 26.9859 19.623 26.8002 19.515 26.6855C19.407 26.5707 19.2315 26.5707 19.1235 26.6855ZM22.6103 30.3881L20.2154 32.9324C20.1637 32.9873 20.1344 33.0622 20.1344 33.1403C20.1344 33.2176 20.1629 33.2925 20.2147 33.3475C20.3227 33.4622 20.4974 33.463 20.6054 33.3483L23.0003 30.804C23.1083 30.6893 23.109 30.5036 23.001 30.3889C22.893 30.2742 22.7183 30.2742 22.6103 30.3881ZM18.9421 30.5825L16.5472 33.126C16.4947 33.1809 16.4655 33.2558 16.4655 33.3339C16.4655 33.412 16.4947 33.4861 16.5465 33.5419C16.599 33.5969 16.6695 33.6279 16.7422 33.6279C16.8157 33.6279 16.8862 33.5969 16.938 33.5411L19.3328 30.9968C19.3853 30.9419 19.4138 30.867 19.4138 30.7889C19.4138 30.7116 19.3846 30.6367 19.3328 30.5817C19.281 30.5267 19.2105 30.4957 19.1371 30.4965C19.0643 30.4965 18.9938 30.5276 18.9421 30.5825Z" fill="white"/>
</svg>
