<svg width="32" height="32" viewBox="0 0 32 32" fill="none" xmlns="http://www.w3.org/2000/svg">
<rect width="32" height="32" rx="8" fill="#1794EF"/>
<path d="M24.6668 10.7871H23.3335V9.4538C23.3335 9.28713 23.2102 9.14381 23.0435 9.1238C18.8534 8.5638 16.6934 10.0471 16.0001 10.6571C15.3068 10.0471 13.1468 8.5638 8.95667 9.1238C8.79001 9.1438 8.66667 9.28713 8.66667 9.4538V10.7871H7.33333C7.15 10.7871 7 10.9371 7 11.1205V21.7871C7 21.9705 7.15 22.1205 7.33333 22.1205H24.6667C24.85 22.1205 25 21.9705 25 21.7871V11.1205C25 10.9371 24.8502 10.7871 24.6668 10.7871ZM16.3336 11.2571C16.7369 10.8738 18.6636 9.30046 22.6671 9.74713V19.7437C19.2405 19.377 17.2403 20.3937 16.3336 21.0537V11.2571ZM7.66694 21.4538V11.4538H8.66694V20.1205C8.66694 20.2172 8.70694 20.3072 8.78028 20.3705C8.85361 20.4338 8.95028 20.4638 9.04362 20.4505C12.2003 20.0305 14.1203 20.8505 15.0536 21.4538H7.66694Z" fill="white"/>
</svg>
