<svg width="20" height="32" viewBox="0 0 20 32" fill="none" xmlns="http://www.w3.org/2000/svg">
<rect x="1.25" y="1.25986" width="18" height="25" fill="#1794EF" fill-opacity="0.07"/>
<path fill-rule="evenodd" clip-rule="evenodd" d="M20 22.8218V27.125C20 28.2744 19.5292 29.3219 18.7689 30.0822L18.7651 30.086C18.006 30.8451 16.9586 31.3159 15.8091 31.3159H4.18958C3.03886 31.3159 1.99144 30.8451 1.23237 30.086C0.470753 29.3244 0 28.2783 0 27.1263V4.18958C0 3.03886 0.470753 1.99144 1.22982 1.23237C1.99144 0.470753 3.03759 0 4.18958 0H15.8091C16.9586 0 18.006 0.470753 18.7664 1.2311L18.7702 1.23492C19.5292 1.99399 20 3.04138 20 4.19086V22.8247V22.8218ZM1.30903 22.8218C1.30903 23.6153 1.63307 24.3361 2.15484 24.8579C2.67791 25.3797 3.39871 25.7037 4.19096 25.7037H15.8105C16.6015 25.7037 17.3236 25.3784 17.8454 24.8566C18.3672 24.3348 18.6925 23.6127 18.6925 22.8218V4.18794C18.6925 3.39442 18.3684 2.67362 17.8479 2.15182C17.3249 1.62875 16.6041 1.3047 15.8106 1.3047H4.19099C3.39747 1.3047 2.67667 1.62875 2.1536 2.15052C1.63307 2.67232 1.30779 3.39438 1.30779 4.18791V22.8217L1.30903 22.8218ZM7.64812 29.0859C7.28707 29.0859 6.99493 28.7937 6.99493 28.4327C6.99493 28.0716 7.28708 27.7795 7.64812 27.7795H12.3543C12.7154 27.7795 13.0075 28.0716 13.0075 28.4327C13.0075 28.7937 12.7154 29.0859 12.3543 29.0859H7.64812Z" fill="#1794EF"/>
<path d="M11.9512 7.38118L11.8951 8.73594C11.8944 8.75308 11.8984 8.77007 11.9064 8.7849C11.9144 8.79974 11.9263 8.81181 11.9405 8.81969C11.9547 8.82757 11.9708 8.83093 11.9868 8.82938C12.0027 8.82783 12.0179 8.82143 12.0306 8.81093L12.5259 8.411L12.9464 8.76094C12.9588 8.7698 12.9731 8.77499 12.9879 8.776C13.0027 8.77701 13.0176 8.7738 13.0309 8.76669C13.0442 8.75957 13.0555 8.74882 13.0636 8.73551C13.0717 8.72221 13.0764 8.70683 13.0772 8.69095L13.0305 7.31119L13.6519 7.2612C13.7286 7.25571 13.8056 7.26717 13.878 7.29485C13.9504 7.32253 14.0167 7.36585 14.0728 7.42211C14.1289 7.47837 14.1736 7.54638 14.204 7.6219C14.2345 7.69741 14.2502 7.77883 14.25 7.86109V18.6592C14.2501 18.7406 14.2347 18.8211 14.2048 18.8959C14.1749 18.9707 14.1311 19.0383 14.076 19.0944C14.0209 19.1505 13.9558 19.194 13.8845 19.2224C13.8132 19.2507 13.7372 19.2632 13.6613 19.2591L6.13876 18.8992C5.99732 18.8929 5.86331 18.8297 5.76365 18.7221C5.66398 18.6146 5.60603 18.4707 5.60144 18.3193L5.25101 8.421C5.24659 8.34219 5.25675 8.26322 5.28091 8.18862C5.30507 8.11402 5.34275 8.04526 5.39181 7.98627C5.44086 7.92729 5.50031 7.87925 5.56675 7.8449C5.63319 7.81055 5.70531 7.79057 5.77899 7.78611L11.9465 7.37118L11.9512 7.38118ZM10.5168 11.9104C10.5168 12.1453 11.9932 12.0304 12.1942 11.8704C12.1942 10.2707 11.3905 9.42582 9.92338 9.42582C8.45158 9.42582 7.63392 10.2857 7.63392 11.5704C7.63392 13.7951 10.4373 13.8351 10.4373 15.0498C10.4373 15.3998 10.2878 15.5997 9.94674 15.5997C9.4982 15.5997 9.31597 15.3548 9.33933 14.5199C9.33933 14.34 7.63392 14.28 7.57785 14.5199C7.4517 16.5346 8.61979 17.1195 9.96076 17.1195C11.2644 17.1195 12.2829 16.3746 12.2829 15.0298C12.2829 12.6453 9.43278 12.7103 9.43278 11.5305C9.43278 11.0455 9.76919 10.9806 9.96076 10.9806C10.171 10.9806 10.5448 11.0155 10.5168 11.9154V11.9104Z" fill="#1794EF"/>
</svg>
