<svg width="20" height="32" viewBox="0 0 20 32" fill="none" xmlns="http://www.w3.org/2000/svg">
<rect x="1.25" y="1.25986" width="18" height="25" fill="#1794EF" fill-opacity="0.07"/>
<path fill-rule="evenodd" clip-rule="evenodd" d="M20 22.8218V27.125C20 28.2744 19.5292 29.3219 18.7689 30.0822L18.7651 30.086C18.006 30.8451 16.9586 31.3159 15.8091 31.3159H4.18958C3.03886 31.3159 1.99144 30.8451 1.23237 30.086C0.470753 29.3244 0 28.2783 0 27.1263V4.18958C0 3.03886 0.470753 1.99144 1.22982 1.23237C1.99144 0.470753 3.03759 0 4.18958 0H15.8091C16.9586 0 18.006 0.470753 18.7664 1.2311L18.7702 1.23492C19.5292 1.99399 20 3.04138 20 4.19086V22.8247V22.8218ZM1.30903 22.8218C1.30903 23.6153 1.63307 24.3361 2.15484 24.8579C2.67791 25.3797 3.39871 25.7037 4.19096 25.7037H15.8105C16.6015 25.7037 17.3236 25.3784 17.8454 24.8566C18.3672 24.3348 18.6925 23.6127 18.6925 22.8218V4.18794C18.6925 3.39442 18.3684 2.67362 17.8479 2.15182C17.3249 1.62875 16.6041 1.3047 15.8106 1.3047H4.19099C3.39747 1.3047 2.67667 1.62875 2.1536 2.15052C1.63307 2.67232 1.30779 3.39438 1.30779 4.18791V22.8217L1.30903 22.8218ZM7.64812 29.0859C7.28707 29.0859 6.99493 28.7937 6.99493 28.4327C6.99493 28.0716 7.28708 27.7795 7.64812 27.7795H12.3543C12.7154 27.7795 13.0075 28.0716 13.0075 28.4327C13.0075 28.7937 12.7154 29.0859 12.3543 29.0859H7.64812Z" fill="#1794EF"/>
<path d="M12.6903 7.14153L12.6218 8.72209C12.621 8.74208 12.6258 8.7619 12.6356 8.77921C12.6454 8.79652 12.6599 8.81061 12.6773 8.8198C12.6947 8.82899 12.7143 8.83291 12.7338 8.8311C12.7533 8.82929 12.7719 8.82182 12.7874 8.80958L13.3928 8.34299L13.9067 8.75125C13.9218 8.76159 13.9393 8.76765 13.9574 8.76883C13.9756 8.77001 13.9937 8.76626 14.0099 8.75796C14.0262 8.74966 14.04 8.73711 14.05 8.72159C14.0599 8.70607 14.0657 8.68813 14.0666 8.6696L14.0095 7.05988L14.769 7.00156C14.8628 6.99516 14.9568 7.00852 15.0453 7.04082C15.1338 7.07311 15.2149 7.12365 15.2834 7.18929C15.352 7.25493 15.4066 7.33427 15.4438 7.42237C15.4811 7.51048 15.5002 7.60546 15.5 7.70144V20.2992C15.5001 20.3942 15.4813 20.4881 15.4448 20.5754C15.4082 20.6627 15.3546 20.7415 15.2873 20.8069C15.22 20.8724 15.1404 20.9232 15.0532 20.9562C14.9661 20.9893 14.8733 21.0039 14.7805 20.9991L5.58626 20.5792C5.41339 20.5719 5.2496 20.4981 5.12779 20.3727C5.00598 20.2472 4.93515 20.0793 4.92953 19.9026L4.50123 8.35466C4.49583 8.26271 4.50825 8.17058 4.53778 8.08355C4.56731 7.99652 4.61337 7.91629 4.67332 7.84748C4.73327 7.77867 4.80593 7.72262 4.88714 7.68254C4.96834 7.64247 5.05649 7.61916 5.14654 7.61395L12.6846 7.12987L12.6903 7.14153ZM10.9372 12.4256C10.9372 12.6997 12.7417 12.5656 12.9873 12.379C12.9873 10.5126 12.0051 9.52695 10.2119 9.52695C8.41305 9.52695 7.41368 10.5301 7.41368 12.029C7.41368 14.6244 10.8401 14.6711 10.8401 16.0883C10.8401 16.4966 10.6573 16.7299 10.2405 16.7299C9.69224 16.7299 9.46952 16.4441 9.49808 15.4701C9.49808 15.2601 7.41368 15.1901 7.34515 15.4701C7.19096 17.8205 8.61863 18.5029 10.2576 18.5029C11.8509 18.5029 13.0958 17.6339 13.0958 16.065C13.0958 13.283 9.61229 13.3588 9.61229 11.9824C9.61229 11.4166 10.0235 11.3408 10.2576 11.3408C10.5146 11.3408 10.9714 11.3816 10.9372 12.4314V12.4256Z" fill="#1794EF"/>
</svg>
