<svg width="33" height="30" viewBox="0 0 33 30" fill="none" xmlns="http://www.w3.org/2000/svg">
<path d="M29.1704 0H3.21598C1.45018 0 0.011985 1.43823 0.011985 3.1907L0 23.0527C0 24.8305 1.46219 26.2568 3.228 26.2568H6.5279C6.23759 25.7374 5.97126 25.1808 5.76617 24.6001H3.228C2.36908 24.6001 1.68058 23.9117 1.68058 23.0527L1.66859 8.07385H30.7192V23.0527C30.7192 23.9116 30.0294 24.6001 29.1717 24.6001H26.6336C26.4285 25.1807 26.1622 25.7374 25.8718 26.2568H29.1717C30.9362 26.2568 32.3877 24.8305 32.3877 23.0527L32.3864 3.19207C32.3864 1.43959 30.9362 0.0013637 29.1704 0.0013637L29.1704 0ZM4.3761 5.04171H4.10976C3.55313 5.04171 3.11901 4.59426 3.11901 4.03763C3.11901 3.48099 3.55446 3.03487 4.10976 3.03487H4.3761C4.93273 3.03487 5.37885 3.48232 5.37885 4.03763C5.37885 4.59426 4.93141 5.04171 4.3761 5.04171ZM7.84519 5.04171H7.57885C7.01022 5.04171 6.56411 4.59426 6.56411 4.03763C6.56411 3.48099 7.01155 3.03487 7.57885 3.03487H7.84519C8.37786 3.03487 8.83594 3.48232 8.83594 4.03763C8.83594 4.59426 8.3765 5.04171 7.84519 5.04171ZM11.2795 5.04171H11.0252C10.4938 5.04171 10.0344 4.59426 10.0344 4.03763C10.0344 3.48099 10.4939 3.03487 11.0252 3.03487H11.2795C11.8481 3.03487 12.3076 3.48232 12.3076 4.03763C12.3076 4.59426 11.8481 5.04171 11.2795 5.04171ZM28.5673 4.94449H22.4988C22.0154 4.94449 21.5919 4.54498 21.5919 4.0376C21.5919 3.53023 22.0154 3.14272 22.4988 3.14272H28.5673C29.0627 3.14272 29.4742 3.53023 29.4742 4.0376C29.4742 4.54498 29.0628 4.94449 28.5673 4.94449Z" fill="#B247E8"/>
<path d="M19.4444 13.4643L19.3616 15.3502C19.3606 15.3741 19.3663 15.3977 19.3782 15.4184C19.3901 15.439 19.4076 15.4558 19.4286 15.4668C19.4497 15.4778 19.4734 15.4824 19.497 15.4803C19.5205 15.4781 19.543 15.4692 19.5617 15.4546L20.2934 14.8979L20.9146 15.385C20.9328 15.3973 20.954 15.4046 20.9759 15.406C20.9978 15.4074 21.0197 15.4029 21.0394 15.393C21.059 15.3831 21.0757 15.3681 21.0877 15.3496C21.0998 15.3311 21.1067 15.3097 21.1079 15.2876L21.0389 13.3669L21.9569 13.2973C22.0702 13.2897 22.1839 13.3056 22.2908 13.3441C22.3978 13.3827 22.4957 13.443 22.5786 13.5213C22.6614 13.5996 22.7274 13.6943 22.7725 13.7994C22.8175 13.9045 22.8406 14.0179 22.8404 14.1324V29.1639C22.8405 29.2771 22.8178 29.3892 22.7736 29.4934C22.7294 29.5975 22.6647 29.6915 22.5833 29.7696C22.502 29.8477 22.4057 29.9083 22.3004 29.9478C22.1951 29.9872 22.0829 30.0046 21.9707 29.9989L10.8579 29.4979C10.6489 29.4892 10.451 29.4012 10.3037 29.2514C10.1565 29.1017 10.0709 28.9014 10.0641 28.6906L9.54641 14.9118C9.53988 14.8021 9.55489 14.6922 9.59058 14.5883C9.62627 14.4845 9.68195 14.3887 9.75441 14.3066C9.82687 14.2245 9.91469 14.1577 10.0128 14.1098C10.111 14.062 10.2175 14.0342 10.3264 14.028L19.4375 13.4504L19.4444 13.4643ZM17.3254 19.7692C17.3254 20.0963 19.5065 19.9362 19.8033 19.7135C19.8033 17.4866 18.6161 16.3106 16.4488 16.3106C14.2745 16.3106 13.0666 17.5075 13.0666 19.296C13.0666 22.3927 17.208 22.4484 17.208 24.1394C17.208 24.6266 16.9872 24.9049 16.4833 24.9049C15.8207 24.9049 15.5515 24.5639 15.586 23.4018C15.586 23.1513 13.0666 23.0678 12.9838 23.4018C12.7974 26.2063 14.523 27.0205 16.504 27.0205C18.4298 27.0205 19.9345 25.9836 19.9345 24.1116C19.9345 20.7922 15.724 20.8826 15.724 19.2403C15.724 18.5653 16.221 18.4748 16.504 18.4748C16.8146 18.4748 17.3668 18.5235 17.3254 19.7761V19.7692Z" fill="#B247E8"/>
</svg>
