<svg width="40" height="40" viewBox="0 0 40 40" fill="none" xmlns="http://www.w3.org/2000/svg">
<rect opacity="0.2" width="30.3695" height="31.1103" rx="11.1108" fill="#63B4FF"/>
<rect x="9.63049" y="8.88867" width="30.3695" height="31.1103" rx="11.1108" fill="#5D9DDC"/>
<path fill-rule="evenodd" clip-rule="evenodd" d="M25.9275 30.6267C26.5155 29.0374 28.2348 28.1796 29.8541 28.6686C30.1505 28.7501 30.4584 28.5836 30.5531 28.2909C30.6007 28.1497 30.5823 27.9947 30.5035 27.8685C29.3751 25.7279 26.7297 24.9099 24.5943 26.041C22.459 27.1722 21.643 29.8241 22.7714 31.9646C23.5904 33.5182 25.2562 34.4316 27.0033 34.2845C25.8868 33.4312 25.452 31.9507 25.9275 30.6267Z" fill="white"/>
<path fill-rule="evenodd" clip-rule="evenodd" d="M32.685 24.9608C31.2993 21.4664 27.3499 19.7593 23.8641 21.1484C20.3783 22.5374 18.6757 26.4964 20.0614 29.9907C20.7709 31.7804 22.2032 33.1849 24.0039 33.8568L23.6618 33.6133C21.6157 31.9966 21.2588 29.0256 22.8636 26.9686C23.1487 26.6132 23.4823 26.3001 23.8551 26.0392C24.6603 25.4667 25.6201 25.1531 26.6067 25.1397C26.8958 25.1417 27.1843 25.1685 27.4694 25.2192C27.8209 25.2873 28.1649 25.3901 28.4956 25.5273C29.2998 25.2823 30.152 25.243 30.9745 25.413C31.2839 25.4841 31.5858 25.5835 31.8768 25.7112C32.1783 25.8399 32.5268 25.7028 32.6602 25.4031C32.742 25.2694 32.7514 25.1029 32.685 24.9608Z" fill="white"/>
<mask id="mask0_2617_3658" style="mask-type:luminance" maskUnits="userSpaceOnUse" x="17" y="15" width="18" height="19">
<path fill-rule="evenodd" clip-rule="evenodd" d="M17 15.7998H35V33.534H17V15.7998Z" fill="white"/>
</mask>
<g mask="url(#mask0_2617_3658)">
<path fill-rule="evenodd" clip-rule="evenodd" d="M34.9658 22.1034C33.3441 17.2638 28.1162 14.6581 23.2883 16.2832C18.4604 17.9088 15.861 23.1491 17.4822 27.9892C18.3161 30.4781 20.1664 32.4939 22.5714 33.5341C22.3929 33.4198 22.2144 33.2906 22.0354 33.1564C18.9145 30.7639 18.3186 26.288 20.7053 23.159C20.7058 23.1585 20.7063 23.1575 20.7073 23.157C21.0959 22.6387 21.555 22.177 22.0706 21.7853C23.3195 20.8242 24.849 20.3008 26.4236 20.2944C26.9238 20.2909 27.4231 20.3461 27.9109 20.4584C29.0785 20.7034 30.1652 21.2421 31.069 22.0239L31.1682 22.1034C31.6114 22.1044 32.0541 22.1546 32.4869 22.2525C33.0472 22.3693 33.5891 22.5611 34.0982 22.824C34.4051 22.9821 34.7819 22.8648 34.946 22.5606C35.0105 22.416 35.0174 22.2525 34.9658 22.1034Z" fill="white"/>
</g>
</svg>
