<svg width="40" height="41" viewBox="0 0 40 41" fill="none" xmlns="http://www.w3.org/2000/svg">
<rect opacity="0.5" x="9.34601" y="8.97168" width="30.654" height="31.4016" rx="4.48593" fill="#1794EF" fill-opacity="0.14"/>
<rect width="30.654" height="31.4016" rx="4.48593" fill="#3594E4"/>
<path d="M15.1209 9.43536H17.485V17.9612C17.485 18.8958 17.2641 19.7178 16.8223 20.4272C16.3847 21.1366 15.7687 21.691 14.9744 22.0903C14.18 22.4854 13.2518 22.6829 12.1898 22.6829C11.1235 22.6829 10.1932 22.4854 9.3988 22.0903C8.60442 21.691 7.98845 21.1366 7.5509 20.4272C7.11335 19.7178 6.89458 18.8958 6.89458 17.9612V9.43536H9.25862V17.7637C9.25862 18.3074 9.37756 18.7917 9.61545 19.2165C9.85759 19.6413 10.1974 19.9748 10.635 20.2169C11.0725 20.4548 11.5908 20.5737 12.1898 20.5737C12.7887 20.5737 13.307 20.4548 13.7445 20.2169C14.1863 19.9748 14.5262 19.6413 14.7641 19.2165C15.002 18.7917 15.1209 18.3074 15.1209 17.7637V9.43536ZM22.4185 9.43536V22.4854H20.0545V9.43536H22.4185Z" fill="#FCFDFF"/>
</svg>
