<svg width="32" height="32" viewBox="0 0 32 32" fill="none" xmlns="http://www.w3.org/2000/svg">
<rect width="32" height="32" rx="8" fill="#1794EF"/>
<path d="M24.6671 10.7871H23.3337V9.45379C23.3337 9.28712 23.2104 9.14379 23.0437 9.12378C18.8537 8.56378 16.6937 10.0471 16.0003 10.6571C15.307 10.0471 13.147 8.56378 8.95692 9.12378C8.79025 9.14378 8.66691 9.28711 8.66691 9.45379V10.7871H7.33358C7.15024 10.7871 7.00024 10.9371 7.00024 11.1205V21.7871C7.00024 21.9705 7.15024 22.1205 7.33358 22.1205H24.6669C24.8502 22.1205 25.0002 21.9705 25.0002 21.7871V11.1205C25.0002 10.9371 24.8504 10.7871 24.6671 10.7871ZM16.3339 11.2571C16.7372 10.8738 18.6639 9.30044 22.6673 9.74712V19.7437C19.2407 19.377 17.2405 20.3937 16.3339 21.0537V11.2571ZM7.66719 21.4538V11.4538H8.66719V20.1205C8.66719 20.2171 8.70719 20.3071 8.78052 20.3705C8.85385 20.4338 8.95052 20.4638 9.04386 20.4505C12.2006 20.0305 14.1206 20.8505 15.0539 21.4538H7.66719Z" fill="white"/>
</svg>
