<svg width="32" height="32" viewBox="0 0 32 32" fill="none" xmlns="http://www.w3.org/2000/svg">
<rect width="32" height="32" rx="8" fill="#1794EF"/>
<path d="M10.3125 22.6504C9.93547 22.6504 9.65039 22.9355 9.65039 23.3125C9.65039 23.6895 9.93547 23.9746 10.3125 23.9746H22.1963C21.9543 23.5673 21.9543 23.0577 22.1963 22.6504H10.3125ZM10.3125 8.02539C9.93547 8.02539 9.65039 8.31047 9.65039 8.6875V20.8213C9.86499 20.761 10.0871 20.7281 10.3105 20.7246H22.3496V8.02539H10.3125ZM21.0254 10.1621V12.0879H11.7871V10.1621H21.0254ZM24.2754 25.25C24.2754 25.609 23.984 25.9004 23.625 25.9004H10.3125C8.89309 25.9004 7.72461 24.7319 7.72461 23.3125V8.6875C7.72461 7.26809 8.89309 6.09961 10.3125 6.09961H23.625C23.984 6.09961 24.2754 6.39101 24.2754 6.75V22.5625L24.2314 22.6064C23.8413 22.9966 23.8413 23.6284 24.2314 24.0186L24.2754 24.0625V25.25Z" fill="white" stroke="white" stroke-width="0.3"/>
</svg>
