<svg width="755" height="259" viewBox="0 0 755 259" fill="none" xmlns="http://www.w3.org/2000/svg">
<g opacity="0.36">
<path d="M292.899 247.425C431.827 192.17 571.661 139.021 710.998 84.7477C743.919 92.942 768.17 86.4832 790.808 116.624C816.331 150.63 833.149 160.431 872.363 175.72C919.301 194.023 965.88 211.228 1011.09 233.711C703.883 351.439 396.83 469.589 89.9294 588.163C108.23 557.274 137.895 533.15 152.772 500.705C165.955 472.075 175.144 445.366 191.535 417.94C225.539 360.885 246.063 294.236 292.899 247.425Z" stroke="#D2D2FF" stroke-width="0.355209" stroke-miterlimit="10"/>
<path d="M130.947 532.613C178.018 524.531 228.09 520.91 273.312 504.601C305.138 493.141 332.641 473.282 360.092 454.038C387.902 434.559 415.38 414.886 447.618 403.412C479.856 391.938 514.276 388.386 548.003 383.577C620.332 373.238 683.08 346.172 750.043 318.095C783.091 304.223 817.439 292.434 849.701 276.811C888.273 258.149 922.525 231.474 959.173 209.524" stroke="#D2D2FF" stroke-width="0.355209" stroke-miterlimit="10"/>
<path d="M160.106 481.273C197.064 470.181 235.266 459.734 270.022 442.541C303.724 425.865 333.761 402.705 364.958 381.939C392.074 363.866 421.339 344.084 454.011 338.365C484.081 333.101 514.589 340.153 544.412 343.923C614.132 352.786 669.913 323.924 733.751 299.151C766.38 286.484 799.721 274.955 831.859 261.096C868 245.584 894.722 221.068 923.941 195.285" stroke="#D2D2FF" stroke-width="0.355209" stroke-miterlimit="10"/>
<path d="M181.552 434.634C215.645 421.435 249.242 409.197 280.616 390.096C312.277 370.868 341.616 348.105 373.027 328.476C398.744 312.402 425.496 297.053 456.488 296.104C484.334 295.195 510.932 304.137 537.951 309.419C600.777 321.721 651.742 294.022 709.918 273.177C776.296 249.417 838.348 229.969 892.686 183.593" stroke="#D2D2FF" stroke-width="0.355209" stroke-miterlimit="10"/>
<path d="M202.862 398.915C269.333 373.145 317.332 324.474 377.181 287.707C426.015 257.683 470.475 261.582 525.19 262.979C574.859 264.232 618.006 244.034 664.965 230.571C727.274 212.709 786.791 195.392 844.332 164.762" stroke="#D2D2FF" stroke-width="0.355209" stroke-miterlimit="10"/>
<path d="M221.243 368.091C278.087 339.446 320.774 291.487 375.864 260.451C421.091 235.024 469.617 238.562 519.571 236.303C566.488 234.201 607.994 216.241 652.555 203.138C707.583 186.955 760.919 170.716 813.434 147.252" stroke="#D2D2FF" stroke-width="0.355209" stroke-miterlimit="10"/>
<path d="M236.17 338.788C281.551 308.215 319.282 264.554 368.779 240.34C414.202 218.048 467.124 219.124 516.258 213.024C611.222 201.244 702.711 150.907 792.106 118.483" stroke="#D2D2FF" stroke-width="0.355209" stroke-miterlimit="10"/>
<path d="M247.181 311.105C284.953 280.523 319.106 241.288 364.864 222.493C411.579 203.266 464.867 201.666 514.117 193.323C605.708 177.866 686.661 128.133 773.101 96.4126" stroke="#D2D2FF" stroke-width="0.355209" stroke-miterlimit="10"/>
<path d="M257.508 286.527C295.874 256.407 332.76 222.812 380.468 208.627C423.152 195.941 467.7 190.852 511.238 182.01C596.628 164.703 674.304 122.009 754.92 90.2503" stroke="#D2D2FF" stroke-width="0.355209" stroke-miterlimit="10"/>
<path d="M269.537 270.086C306.343 247.21 342.865 224.892 384.185 211.079C424.781 197.512 466.822 188.91 508.093 177.683C587.363 156.023 662.383 119.646 738.644 89.499" stroke="#D2D2FF" stroke-width="0.355209" stroke-miterlimit="10"/>
<path d="M282.025 258.525C354.483 224.081 429.377 199.724 505.004 173.56C578.961 147.975 651.141 117.023 724.012 88.5339" stroke="#D2D2FF" stroke-width="0.355209" stroke-miterlimit="10"/>
<path d="M672.704 99.6272C702.346 109.517 722.473 107.148 740.186 136.247C748.32 149.63 752.74 165.037 763.374 176.784C777.297 192.112 799.164 200.147 817.37 209.301C837.265 219.299 856.67 229.484 875.772 241.006C891.576 250.508 911.108 255.894 925.946 266.553" stroke="#D2D2FF" stroke-width="0.355209" stroke-miterlimit="10"/>
<path d="M634.497 114.538C661.662 126.456 678.93 124.498 692.132 154.386C696.701 169.942 703.051 184.919 711.055 199.019C724.64 211.451 739.176 222.802 754.53 232.969C784.191 253.876 810.589 280.692 841.064 299.168" stroke="#D2D2FF" stroke-width="0.355209" stroke-miterlimit="10"/>
<path d="M596.355 129.422C623.3 145.228 637.14 145.664 646.337 178.489C655.116 209.646 667.745 229.163 687.972 254.663C708.929 281.101 730.94 309.943 756.467 331.702" stroke="#D2D2FF" stroke-width="0.355209" stroke-miterlimit="10"/>
<path d="M558.244 144.281C579.451 165.697 592.486 163.121 597.063 196.953C601.041 226.266 611.012 249.679 622.557 277.011C635.695 308.111 649.9 339.106 672.157 364.209" stroke="#D2D2FF" stroke-width="0.355209" stroke-miterlimit="10"/>
<path d="M520.242 159.193C524.289 166.354 529.862 172.537 536.567 177.304C541.784 188.299 544.181 200.42 543.542 212.573C545.921 240.19 552.66 264.253 560.78 290.736C571.465 325.428 583.06 360.524 588.065 396.551" stroke="#D2D2FF" stroke-width="0.355209" stroke-miterlimit="10"/>
<path d="M482.219 173.92C485.865 210.614 491.387 247.097 498.763 283.227C508.314 331.402 501.705 379.745 504.397 428.698" stroke="#D2D2FF" stroke-width="0.355209" stroke-miterlimit="10"/>
<path d="M444.107 188.567C441.275 195.552 436.213 198.371 428.923 197.025C422.103 204.325 421.21 212.526 426.243 221.631C430.716 229.837 434.088 238.598 436.269 247.686C435.747 259.131 436.015 270.599 437.071 282.008C439.973 340.974 427.089 402.035 420.812 460.794" stroke="#D2D2FF" stroke-width="0.355209" stroke-miterlimit="10"/>
<path d="M406.102 203.223C395.848 214.984 386.536 204.173 376.298 211.931C363.692 221.5 373.298 231.075 375.72 242.917C380.48 266.297 378.431 284.995 375.956 309.216C372.299 344.837 365.938 379.605 363.653 415.372C362.468 433.561 363.074 450.066 355.034 466.832C350.72 475.89 342.492 483.533 337.856 492.796" stroke="#D2D2FF" stroke-width="0.355209" stroke-miterlimit="10"/>
<path d="M368.368 218.001C356.226 228.402 338.001 221.325 328.594 235.038C322.846 243.413 326.063 260.196 326.722 269.459C328.808 298.361 320.709 324.73 313.57 352.512C303.122 393.089 301.878 423.096 299.564 465.084C298.728 480.346 299.506 489.708 288.886 500.727C279.128 510.901 265.309 514.148 254.914 524.711" stroke="#D2D2FF" stroke-width="0.355209" stroke-miterlimit="10"/>
<path d="M330.504 232.552C318.398 242.795 301.23 246.849 292.394 260.712C284.164 273.604 284.208 292.154 281.348 306.575C275.325 336.799 263.95 364.622 251.699 392.798C246.421 404.939 238.374 417.183 234.605 429.866C228.558 450.311 232.355 471.814 228.402 492.528C222.368 524.266 190.406 532.328 172.259 556.482" stroke="#D2D2FF" stroke-width="0.355209" stroke-miterlimit="10"/>
</g>
</svg>
