<svg width="131" height="58" viewBox="0 0 131 58" fill="none" xmlns="http://www.w3.org/2000/svg">
<g filter="url(#filter0_d_115_298)">
<path d="M19.9767 13.8503L5.51953 5.05029L8.66239 22.0217L12.4338 15.736L19.9767 13.8503Z" fill="#069AFC"/>
<path d="M5.84668 4.51318L20.3037 13.313L21.5879 14.0952L20.1289 14.4604L12.8379 16.2827L9.20117 22.3452L8.34668 23.769L8.04395 22.1362L4.90137 5.16455L4.64551 3.78271L5.84668 4.51318Z" stroke="white" stroke-width="1.25714"/>
</g>
<g filter="url(#filter1_d_115_298)">
<rect width="104.057" height="22.0286" transform="translate(21.8623 27.6787)" fill="#069AFC"/>
<path d="M28.109 44.1929V34.1357H31.5072C32.2962 34.1357 32.9411 34.2781 33.442 34.563C33.9462 34.8445 34.3194 35.2259 34.5616 35.7072C34.8039 36.1884 34.925 36.7253 34.925 37.3179C34.925 37.9104 34.8039 38.449 34.5616 38.9335C34.3227 39.418 33.9527 39.8043 33.4518 40.0924C32.9509 40.3772 32.3093 40.5197 31.5268 40.5197H29.0911V39.4393H31.4875C32.0277 39.4393 32.4615 39.346 32.7889 39.1594C33.1163 38.9728 33.3536 38.7207 33.5009 38.4031C33.6515 38.0823 33.7268 37.7206 33.7268 37.3179C33.7268 36.9152 33.6515 36.5551 33.5009 36.2375C33.3536 35.92 33.1146 35.6711 32.784 35.4911C32.4533 35.3078 32.0146 35.2161 31.4679 35.2161H29.3268V44.1929H28.109ZM37.9578 39.6554V44.1929H36.7989V34.1357H37.9578V37.8286H38.056C38.2328 37.439 38.498 37.1296 38.8515 36.9005C39.2084 36.668 39.6831 36.5518 40.2757 36.5518C40.7896 36.5518 41.2398 36.6549 41.6261 36.8612C42.0124 37.0642 42.312 37.3768 42.5248 37.7991C42.7408 38.2182 42.8489 38.7518 42.8489 39.4V44.1929H41.6899V39.4786C41.6899 38.8795 41.5344 38.4162 41.2234 38.0889C40.9157 37.7582 40.4885 37.5929 39.9417 37.5929C39.562 37.5929 39.2215 37.6731 38.9203 37.8335C38.6224 37.9939 38.3867 38.228 38.2132 38.5357C38.0429 38.8435 37.9578 39.2167 37.9578 39.6554ZM48.1025 44.35C47.4215 44.35 46.8241 44.188 46.3101 43.8639C45.7994 43.5397 45.4 43.0863 45.1119 42.5036C44.8271 41.9208 44.6846 41.2399 44.6846 40.4607C44.6846 39.675 44.8271 38.9892 45.1119 38.4031C45.4 37.8171 45.7994 37.3621 46.3101 37.038C46.8241 36.7139 47.4215 36.5518 48.1025 36.5518C48.7835 36.5518 49.3793 36.7139 49.89 37.038C50.404 37.3621 50.8034 37.8171 51.0882 38.4031C51.3763 38.9892 51.5204 39.675 51.5204 40.4607C51.5204 41.2399 51.3763 41.9208 51.0882 42.5036C50.8034 43.0863 50.404 43.5397 49.89 43.8639C49.3793 44.188 48.7835 44.35 48.1025 44.35ZM48.1025 43.3089C48.6198 43.3089 49.0454 43.1764 49.3793 42.9112C49.7132 42.646 49.9604 42.2973 50.1208 41.8652C50.2812 41.433 50.3614 40.9649 50.3614 40.4607C50.3614 39.9566 50.2812 39.4868 50.1208 39.0514C49.9604 38.6159 49.7132 38.264 49.3793 37.9955C49.0454 37.7271 48.6198 37.5929 48.1025 37.5929C47.5852 37.5929 47.1596 37.7271 46.8257 37.9955C46.4918 38.264 46.2446 38.6159 46.0842 39.0514C45.9238 39.4868 45.8436 39.9566 45.8436 40.4607C45.8436 40.9649 45.9238 41.433 46.0842 41.8652C46.2446 42.2973 46.4918 42.646 46.8257 42.9112C47.1596 43.1764 47.5852 43.3089 48.1025 43.3089ZM56.5211 44.35C55.7943 44.35 55.1674 44.1896 54.6403 43.8688C54.1165 43.5447 53.7122 43.0929 53.4273 42.5134C53.1458 41.9307 53.005 41.253 53.005 40.4804C53.005 39.7078 53.1458 39.0268 53.4273 38.4375C53.7122 37.845 54.1083 37.3833 54.6157 37.0527C55.1264 36.7188 55.7223 36.5518 56.4032 36.5518C56.7961 36.5518 57.184 36.6173 57.5671 36.7482C57.9501 36.8792 58.2988 37.092 58.613 37.3866C58.9273 37.678 59.1778 38.0643 59.3644 38.5456C59.551 39.0268 59.6443 39.6194 59.6443 40.3232V40.8143H53.83V39.8125H58.4657C58.4657 39.3869 58.3806 39.0072 58.2104 38.6732C58.0434 38.3393 57.8044 38.0758 57.4934 37.8826C57.1857 37.6894 56.8223 37.5929 56.4032 37.5929C55.9416 37.5929 55.5422 37.7075 55.205 37.9366C54.8711 38.1625 54.6141 38.4572 54.434 38.8205C54.254 39.1839 54.1639 39.5735 54.1639 39.9893V40.6572C54.1639 41.2268 54.2622 41.7097 54.4586 42.1058C54.6583 42.4987 54.9349 42.7982 55.2885 43.0045C55.6421 43.2075 56.0529 43.3089 56.5211 43.3089C56.8255 43.3089 57.1005 43.2664 57.3461 43.1813C57.5949 43.0929 57.8093 42.9619 57.9894 42.7884C58.1694 42.6116 58.3086 42.3923 58.4068 42.1304L59.5264 42.4447C59.4086 42.8244 59.2105 43.1583 58.9322 43.4464C58.654 43.7313 58.3102 43.9539 57.901 44.1143C57.4918 44.2714 57.0318 44.35 56.5211 44.35ZM62.6353 39.6554V44.1929H61.4764V36.65H62.596V37.8286H62.6942C62.871 37.4456 63.1395 37.1378 63.4996 36.9054C63.8597 36.6697 64.3246 36.5518 64.8942 36.5518C65.405 36.5518 65.8518 36.6566 66.2349 36.8661C66.6179 37.0723 66.9158 37.3866 67.1286 37.8089C67.3414 38.228 67.4478 38.7583 67.4478 39.4V44.1929H66.2889V39.4786C66.2889 38.886 66.135 38.4244 65.8273 38.0938C65.5195 37.7598 65.0972 37.5929 64.5603 37.5929C64.1904 37.5929 63.8597 37.6731 63.5684 37.8335C63.2803 37.9939 63.0527 38.228 62.8858 38.5357C62.7188 38.8435 62.6353 39.2167 62.6353 39.6554ZM69.6347 44.1929V36.65H70.7936V44.1929H69.6347ZM70.224 35.3929C69.9981 35.3929 69.8033 35.3159 69.6396 35.1621C69.4792 35.0082 69.399 34.8232 69.399 34.6072C69.399 34.3911 69.4792 34.2061 69.6396 34.0522C69.8033 33.8984 69.9981 33.8214 70.224 33.8214C70.4499 33.8214 70.643 33.8984 70.8035 34.0522C70.9671 34.2061 71.049 34.3911 71.049 34.6072C71.049 34.8232 70.9671 35.0082 70.8035 35.1621C70.643 35.3159 70.4499 35.3929 70.224 35.3929ZM73.8497 36.65L75.6569 39.7339L77.464 36.65H78.7997L76.364 40.4214L78.7997 44.1929H77.464L75.6569 41.2661L73.8497 44.1929H72.514L74.9104 40.4214L72.514 36.65H73.8497ZM84.6381 44.1929V34.1357H88.1542C88.8548 34.1357 89.4326 34.2569 89.8877 34.4991C90.3427 34.7381 90.6816 35.0606 90.9042 35.4665C91.1268 35.8692 91.2381 36.3161 91.2381 36.8072C91.2381 37.2393 91.1612 37.5961 91.0073 37.8777C90.8567 38.1592 90.657 38.3819 90.4082 38.5456C90.1627 38.7092 89.8959 38.8304 89.6078 38.9089V39.0072C89.9155 39.0268 90.2249 39.1348 90.5359 39.3313C90.8469 39.5277 91.1072 39.8092 91.3167 40.1759C91.5262 40.5426 91.631 40.9911 91.631 41.5214C91.631 42.0256 91.5164 42.479 91.2872 42.8817C91.0581 43.2844 90.6963 43.6036 90.202 43.8393C89.7076 44.075 89.0643 44.1929 88.272 44.1929H84.6381ZM85.856 43.1125H88.272C89.0676 43.1125 89.6323 42.9586 89.9662 42.6509C90.3034 42.3399 90.472 41.9634 90.472 41.5214C90.472 41.181 90.3853 40.8667 90.2118 40.5786C90.0383 40.2872 89.7911 40.0548 89.4703 39.8813C89.1494 39.7045 88.7697 39.6161 88.331 39.6161H85.856V43.1125ZM85.856 38.5554H88.1149C88.4816 38.5554 88.8122 38.4833 89.1069 38.3393C89.4048 38.1953 89.6405 37.9923 89.814 37.7304C89.9908 37.4685 90.0792 37.1607 90.0792 36.8072C90.0792 36.3652 89.9253 35.9903 89.6176 35.6826C89.3098 35.3716 88.822 35.2161 88.1542 35.2161H85.856V38.5554ZM95.7637 44.3697C95.2857 44.3697 94.852 44.2796 94.4624 44.0996C94.0728 43.9162 93.7634 43.6527 93.5343 43.3089C93.3051 42.9619 93.1905 42.5429 93.1905 42.0518C93.1905 41.6197 93.2756 41.2694 93.4459 41.0009C93.6161 40.7292 93.8436 40.5164 94.1285 40.3625C94.4133 40.2086 94.7276 40.0941 95.0713 40.0188C95.4183 39.9402 95.767 39.878 96.1173 39.8322C96.5756 39.7732 96.9472 39.729 97.232 39.6996C97.5201 39.6668 97.7296 39.6128 97.8606 39.5375C97.9948 39.4622 98.0619 39.3313 98.0619 39.1447V39.1054C98.0619 38.6208 97.9293 38.2444 97.6642 37.9759C97.4023 37.7075 97.0045 37.5732 96.4709 37.5732C95.9176 37.5732 95.4838 37.6944 95.1695 37.9366C94.8552 38.1789 94.6343 38.4375 94.5066 38.7125L93.4066 38.3197C93.603 37.8613 93.8649 37.5045 94.1923 37.2491C94.523 36.9905 94.8831 36.8104 95.2727 36.7089C95.6655 36.6042 96.0518 36.5518 96.4316 36.5518C96.6738 36.5518 96.9521 36.5813 97.2664 36.6402C97.584 36.6958 97.8901 36.8121 98.1847 36.9889C98.4826 37.1656 98.7298 37.4325 98.9262 37.7893C99.1227 38.1461 99.2209 38.6241 99.2209 39.2232V44.1929H98.0619V43.1714H98.003C97.9244 43.3351 97.7935 43.5103 97.6102 43.6969C97.4268 43.8835 97.1829 44.0423 96.8785 44.1732C96.574 44.3042 96.2024 44.3697 95.7637 44.3697ZM95.9405 43.3286C96.3988 43.3286 96.7852 43.2386 97.0994 43.0585C97.417 42.8784 97.656 42.646 97.8164 42.3612C97.9801 42.0764 98.0619 41.7768 98.0619 41.4625V40.4018C98.0128 40.4607 97.9048 40.5147 97.7378 40.5639C97.5741 40.6097 97.3843 40.6506 97.1682 40.6866C96.9554 40.7194 96.7475 40.7488 96.5445 40.775C96.3448 40.7979 96.1828 40.8176 96.0584 40.8339C95.7572 40.8732 95.4756 40.9371 95.2137 41.0255C94.9551 41.1106 94.7456 41.2399 94.5852 41.4134C94.428 41.5836 94.3494 41.8161 94.3494 42.1107C94.3494 42.5134 94.4984 42.8179 94.7963 43.0241C95.0975 43.2271 95.4789 43.3286 95.9405 43.3286ZM102.486 41.4429L102.466 40.0089H102.702L106.002 36.65H107.436L103.92 40.2054H103.821L102.486 41.4429ZM101.405 44.1929V34.1357H102.564V44.1929H101.405ZM106.198 44.1929L103.252 40.4607L104.077 39.6554L107.671 44.1929H106.198ZM111.848 44.35C111.122 44.35 110.495 44.1896 109.968 43.8688C109.444 43.5447 109.039 43.0929 108.755 42.5134C108.473 41.9307 108.332 41.253 108.332 40.4804C108.332 39.7078 108.473 39.0268 108.755 38.4375C109.039 37.845 109.436 37.3833 109.943 37.0527C110.454 36.7188 111.05 36.5518 111.73 36.5518C112.123 36.5518 112.511 36.6173 112.894 36.7482C113.277 36.8792 113.626 37.092 113.94 37.3866C114.255 37.678 114.505 38.0643 114.692 38.5456C114.878 39.0268 114.972 39.6194 114.972 40.3232V40.8143H109.157V39.8125H113.793C113.793 39.3869 113.708 39.0072 113.538 38.6732C113.371 38.3393 113.132 38.0758 112.821 37.8826C112.513 37.6894 112.15 37.5929 111.73 37.5929C111.269 37.5929 110.869 37.7075 110.532 37.9366C110.198 38.1625 109.941 38.4572 109.761 38.8205C109.581 39.1839 109.491 39.5735 109.491 39.9893V40.6572C109.491 41.2268 109.589 41.7097 109.786 42.1058C109.986 42.4987 110.262 42.7982 110.616 43.0045C110.969 43.2075 111.38 43.3089 111.848 43.3089C112.153 43.3089 112.428 43.2664 112.673 43.1813C112.922 43.0929 113.137 42.9619 113.317 42.7884C113.497 42.6116 113.636 42.3923 113.734 42.1304L114.854 42.4447C114.736 42.8244 114.538 43.1583 114.259 43.4464C113.981 43.7313 113.637 43.9539 113.228 44.1143C112.819 44.2714 112.359 44.35 111.848 44.35ZM116.804 44.1929V36.65H117.923V37.7893H118.002C118.139 37.4161 118.388 37.1133 118.748 36.8808C119.108 36.6484 119.514 36.5322 119.966 36.5322C120.051 36.5322 120.158 36.5338 120.285 36.5371C120.413 36.5403 120.51 36.5453 120.575 36.5518V37.7304C120.536 37.7205 120.446 37.7058 120.305 37.6862C120.167 37.6633 120.022 37.6518 119.868 37.6518C119.501 37.6518 119.174 37.7287 118.886 37.8826C118.601 38.0332 118.375 38.2427 118.208 38.5112C118.044 38.7764 117.963 39.0792 117.963 39.4197V44.1929H116.804Z" fill="white"/>
</g>
<defs>
<filter id="filter0_d_115_298" x="5.60284e-05" y="0.000362873" width="26.9711" height="30.5453" filterUnits="userSpaceOnUse" color-interpolation-filters="sRGB">
<feFlood flood-opacity="0" result="BackgroundImageFix"/>
<feColorMatrix in="SourceAlpha" type="matrix" values="0 0 0 0 0 0 0 0 0 0 0 0 0 0 0 0 0 0 127 0" result="hardAlpha"/>
<feOffset dy="1.25714"/>
<feGaussianBlur stdDeviation="1.88571"/>
<feColorMatrix type="matrix" values="0 0 0 0 0 0 0 0 0 0 0 0 0 0 0 0 0 0 0.4 0"/>
<feBlend mode="normal" in2="BackgroundImageFix" result="effect1_dropShadow_115_298"/>
<feBlend mode="normal" in="SourceGraphic" in2="effect1_dropShadow_115_298" result="shape"/>
</filter>
<filter id="filter1_d_115_298" x="16.8337" y="25.1644" width="114.114" height="32.086" filterUnits="userSpaceOnUse" color-interpolation-filters="sRGB">
<feFlood flood-opacity="0" result="BackgroundImageFix"/>
<feColorMatrix in="SourceAlpha" type="matrix" values="0 0 0 0 0 0 0 0 0 0 0 0 0 0 0 0 0 0 127 0" result="hardAlpha"/>
<feOffset dy="2.51429"/>
<feGaussianBlur stdDeviation="2.51429"/>
<feColorMatrix type="matrix" values="0 0 0 0 0 0 0 0 0 0 0 0 0 0 0 0 0 0 0.12 0"/>
<feBlend mode="normal" in2="BackgroundImageFix" result="effect1_dropShadow_115_298"/>
<feBlend mode="normal" in="SourceGraphic" in2="effect1_dropShadow_115_298" result="shape"/>
</filter>
</defs>
</svg>
