<svg width="1227" height="406" viewBox="0 0 1227 406" fill="none" xmlns="http://www.w3.org/2000/svg">
<g opacity="0.17" clip-path="url(#clip0_2001_140)">
<path d="M1741.03 -299.195C1775.15 -250.242 1748.44 -178.675 1683.89 -146.028C1616.4 -111.958 1528.12 -121.35 1458.04 -91.0061C1390.81 -61.8802 1354.52 -2.17489 1337 54.8751C1319.47 111.925 1315.69 170.776 1289.06 226.155C1262.43 281.535 1204.27 335.408 1129.7 343.569C1065.13 350.578 1007.72 322.59 951.213 301.769C894.66 281.05 820.501 268.539 768.456 301.303C707.142 339.799 718.807 405.999 701.32 457.619C671.438 545.21 585.905 622.246 475.28 652.204C362.442 682.84 233.654 661.639 155.16 599.564" stroke="#9254FF" stroke-width="2" stroke-miterlimit="10"/>
<path d="M1746.7 -286.447C1778.43 -237.262 1751.01 -166.657 1686.9 -133.883C1634.67 -107.116 1570.06 -105.869 1510.87 -92.6782C1493.97 -88.8765 1477.54 -84.2056 1462 -77.6936C1394.56 -49.2351 1356.83 7.57908 1337.32 61.4052C1324.02 98.2307 1316.85 135.589 1304.96 172.023C1299.47 188.943 1292.89 205.536 1283.91 221.884C1272.56 242.653 1256.22 263.447 1236.05 281.825C1205.92 309.25 1167.82 330.897 1124.21 336.806C1112.93 338.375 1101.98 338.789 1091.08 338.434C1040.96 336.737 993.966 316.773 947.277 300.756C939.908 298.204 932.197 295.807 924.317 293.489C871.497 278.604 810.762 271.834 765.469 298.182C757.637 302.758 751.039 307.688 745.337 313.125C723.463 333.613 714.88 359.367 708.81 386.057C703.972 407.434 700.923 429.494 693.869 449.549C692.126 454.428 690.256 459.283 688.258 464.112C677.291 490.288 661.766 515.461 642.151 538.501C600.751 586.824 540.689 625.499 470.307 645.051C448.763 651.055 426.493 655.14 404.178 657.329C310.238 666.72 214.014 643.236 150.946 593.028" stroke="#9156FF" stroke-width="2" stroke-miterlimit="10"/>
<path d="M1752.34 -273.601C1781.58 -224.31 1753.58 -154.643 1689.87 -121.638C1638.05 -94.6452 1573.93 -92.3994 1514.77 -79.0696C1497.97 -75.2397 1481.56 -70.6677 1465.92 -64.278C1398.19 -36.6151 1359.06 17.5347 1337.56 68.1325C1322.97 102.738 1314.21 137.596 1301.32 171.424C1295.36 187.155 1288.3 202.558 1278.93 217.844C1267.05 237.197 1250.14 256.677 1229.6 274.559C1198.84 301.113 1161.43 323.365 1118.84 330.377C1107.84 332.228 1097.02 333.001 1086.4 332.926C1037.2 332.865 990.374 315.038 943.38 299.957C935.918 297.609 928.199 295.21 920.225 293.095C867.092 278.815 807.441 270.93 762.183 295.427C754.384 299.571 747.737 304.274 741.9 309.357C719.575 328.557 709.958 353.132 702.73 378.952C697.034 399.736 693.341 421.69 686.152 441.737C684.407 446.62 682.535 451.479 680.535 456.312C669.599 482.407 654.611 507.599 635.23 530.709C594.723 579.145 535.023 618.158 464.991 638.033C443.508 644.17 421.47 648.309 399.089 650.602C305.302 660.385 209.059 637.008 146.391 586.627" stroke="#9158FF" stroke-width="2" stroke-miterlimit="10"/>
<path d="M1757.98 -260.732C1784.7 -211.23 1756.03 -142.628 1692.84 -109.366C1641.3 -82.1714 1577.75 -78.797 1518.82 -65.5083C1502.01 -61.675 1485.58 -57.0989 1470.01 -50.9094C1402.12 -24.0177 1361.49 27.337 1338.01 74.7026C1322.11 107.085 1311.77 139.441 1297.75 170.633C1291.31 185.173 1283.77 199.385 1273.92 213.481C1261.39 231.39 1243.99 249.683 1223.13 266.966C1191.82 292.776 1155.18 315.428 1113.49 323.52C1102.77 325.654 1092.23 326.708 1081.86 327.017C1033.59 328.594 986.972 312.805 939.628 298.765C932.115 296.518 924.43 294.348 916.405 292.334C863.044 278.787 804.479 269.785 759.212 292.198C751.404 296.012 744.749 300.385 738.82 305.011C716.213 322.842 705.305 346.187 697.087 371.393C690.402 391.558 686.193 413.431 678.91 433.368C677.164 438.256 675.162 443.093 673.202 447.828C662.253 473.946 647.676 499.133 628.829 522.261C589.174 570.914 529.835 610.268 460.324 630.389C438.945 636.556 416.926 640.929 394.648 643.249C301.185 653.347 204.794 630.053 142.313 579.677" stroke="#905AFF" stroke-width="2" stroke-miterlimit="10"/>
<path d="M1763.63 -247.862C1787.86 -198.253 1758.6 -130.59 1695.77 -96.9923C1644.52 -69.5952 1581.59 -65.1932 1522.68 -51.7648C1505.85 -47.928 1489.58 -43.4259 1473.9 -37.359C1405.82 -11.1369 1363.72 37.3146 1338.25 81.4422C1321.01 111.701 1308.94 141.523 1294.1 170.023C1287.19 183.371 1279.33 196.312 1268.92 209.42C1255.82 226.011 1237.84 242.987 1216.62 259.773C1184.76 284.837 1148.72 307.969 1108.1 317.065C1097.54 319.457 1087.29 320.793 1077.17 321.486C1029.83 324.705 983.245 311.034 935.724 297.96C928.288 295.838 920.51 293.872 912.433 291.96C858.717 279.121 801.413 268.923 756.054 289.454C748.366 292.962 741.447 296.955 735.511 301.251C712.58 317.814 700.506 339.952 691.125 364.286C683.62 383.754 678.724 405.624 671.176 425.529C669.3 430.395 667.424 435.262 665.462 440.001C654.416 466.014 640.507 491.245 621.982 514.572C583.181 563.444 524.378 603.061 455.092 623.48C433.777 629.781 411.861 634.183 389.646 636.633C296.34 647.124 200.103 623.859 137.854 573.387" stroke="#905DFF" stroke-width="2" stroke-miterlimit="10"/>
<path d="M1769.29 -234.977C1791.1 -185.13 1761.04 -118.561 1698.75 -84.7049C1647.92 -57.08 1585.44 -51.5706 1526.72 -38.08C1510 -34.2148 1493.71 -29.7086 1477.97 -23.8676C1409.6 1.55579 1365.97 47.3056 1338.63 88.2148C1319.96 116.219 1306.42 143.554 1290.4 169.512C1283.01 181.665 1274.68 193.411 1263.78 205.324C1250.02 220.467 1231.6 236.148 1210.01 252.437C1177.66 276.651 1142.22 300.263 1102.58 310.571C1092.31 313.246 1082.31 314.968 1072.43 316.047C1026.02 320.91 979.609 309.387 931.782 297.253C924.253 295.336 916.424 293.472 908.467 291.582C854.524 279.48 798.314 268.16 753.034 286.728C745.338 289.905 738.455 293.464 732.342 297.507C709.086 312.801 695.886 333.626 685.383 357.319C677.014 376.191 671.471 397.955 663.787 417.852C661.909 422.723 659.945 427.466 657.939 432.312C646.924 458.246 633.385 483.574 615.397 506.919C577.497 555.907 519.06 595.866 450.087 616.713C428.835 623.148 407.025 627.579 384.872 630.159C291.725 641.044 195.516 617.784 133.63 567.238" stroke="#8F5FFF" stroke-width="2" stroke-miterlimit="10"/>
<path d="M1775 -222.181C1794.3 -172.223 1763.65 -106.593 1701.77 -72.501C1651.18 -44.5683 1589.31 -38.0271 1530.67 -24.4987C1513.93 -20.6298 1497.66 -16.2226 1481.95 -10.4793C1413.42 14.1704 1368.28 57.1126 1339.07 94.7997C1318.96 120.545 1303.87 145.262 1286.93 168.726C1278.93 179.658 1270.25 190.232 1259 200.974C1244.58 214.667 1225.66 229.155 1203.62 244.817C1170.59 268.259 1135.92 292.275 1097.31 303.695C1087.34 306.655 1077.49 308.635 1067.86 310.099C1022.39 316.61 976.015 307.213 928.095 296.175C920.472 294.463 912.763 292.622 904.712 290.937C850.583 279.467 795.468 267.024 750.138 283.601C742.433 286.446 735.542 289.673 729.294 293.361C705.584 307.358 691.213 326.973 679.67 349.818C670.436 368.094 664.287 389.65 656.338 409.516C654.458 414.391 652.492 419.139 650.398 423.861C639.414 449.716 626.417 475.066 608.794 498.507C571.753 547.717 513.682 588.021 445.106 609.092C423.959 615.557 402.169 620.224 380.12 622.832C287.302 634.034 190.946 610.855 129.422 560.234" stroke="#8F61FF" stroke-width="2" stroke-miterlimit="10"/>
<path d="M1780.8 -209.251C1797.56 -159.079 1766.19 -94.4139 1704.88 -60.1645C1654.71 -32.0017 1593.34 -24.4521 1534.85 -10.7573C1518.22 -6.85966 1501.81 -2.47343 1486.17 3.06869C1417.31 27.0212 1370.83 67.0723 1339.57 101.609C1318.16 125.118 1301.46 147.314 1283.39 168.126C1274.91 177.859 1265.74 187.234 1253.96 196.88C1239.02 209.146 1219.52 222.31 1197.12 237.473C1163.53 260.167 1129.48 284.666 1091.94 297.096C1082.26 300.341 1072.66 302.708 1063.19 304.431C1018.62 312.695 972.448 305.349 924.222 295.257C916.677 293.671 908.746 292.009 900.773 290.452C846.288 279.694 792.529 266.175 747.021 280.733C739.308 283.246 732.41 286.141 726.026 289.472C702.033 302.092 686.489 320.494 673.819 342.695C663.717 360.374 656.919 381.825 648.834 401.685C646.823 406.54 644.855 411.292 642.887 416.044C631.892 441.923 619.31 467.268 602.098 490.704C565.918 540.137 508.258 580.682 440.039 602.08C419.085 608.705 397.272 613.376 375.243 616.219C282.586 627.817 186.259 604.64 125.099 553.944" stroke="#8E63FF" stroke-width="2" stroke-miterlimit="10"/>
<path d="M1786.49 -196.329C1800.86 -146.019 1768.77 -82.32 1707.83 -47.73C1657.95 -19.3611 1597.16 -10.6724 1538.86 3.08595C1522.21 6.98736 1505.83 11.2744 1490.13 16.5899C1421.11 39.7663 1373.13 77 1339.86 108.278C1317.13 129.546 1298.87 149.114 1279.71 167.5C1270.92 175.954 1261.1 184.207 1248.96 192.678C1233.35 203.488 1213.37 215.455 1190.6 230.118C1156.46 252.062 1123.06 276.943 1086.51 290.593C1076.99 294.097 1067.81 296.775 1058.58 298.885C1014.83 308.778 968.958 303.616 920.425 294.469C912.786 293.089 904.933 291.554 896.952 289.995C842.282 279.873 789.582 265.329 744.069 277.785C736.39 279.862 729.313 282.503 722.922 285.501C698.603 296.845 681.883 314.032 668.041 335.359C657.07 352.44 649.621 373.785 641.399 393.639C639.386 398.499 637.416 403.255 635.36 407.883C624.396 433.684 612.359 459.051 595.473 482.689C560.071 532.216 502.909 573.133 435.134 594.988C414.244 601.748 392.495 606.552 370.572 609.423C278.076 621.417 181.907 598.269 120.941 547.574" stroke="#8E65FF" stroke-width="2" stroke-miterlimit="10"/>
<path d="M1792.17 -183.407C1803.98 -132.879 1771.21 -70.2489 1710.81 -35.3949C1661.35 -6.79337 1601.01 3.01191 1542.78 16.8092C1526.12 20.7145 1509.85 25.031 1494.09 30.1197C1424.91 52.5193 1375.42 86.9312 1340.09 115.049C1316.01 134.175 1296.22 151.008 1276 166.861C1266.73 174.112 1256.56 181.187 1243.81 188.43C1227.54 197.782 1207.1 208.446 1183.96 222.609C1149.32 243.7 1116.48 269.171 1081.14 283.861C1071.91 287.651 1062.85 290.692 1053.92 293.087C1011.06 304.741 965.317 301.51 916.562 293.439C908.873 292.161 901.098 290.754 892.893 289.375C837.866 279.967 786.442 264.214 740.837 274.772C733.15 276.515 726.108 278.719 719.539 281.464C694.893 291.529 676.995 307.5 661.978 327.95C650.007 344.407 642.035 365.674 633.546 385.497C631.574 390.258 629.43 395.098 627.501 399.755C616.44 425.453 604.906 450.947 588.56 474.605C554.023 524.358 497.36 565.649 429.859 587.705C409.076 594.497 387.39 599.435 365.53 602.436C273.325 614.855 177.055 591.683 116.455 540.909" stroke="#8D67FF" stroke-width="2" stroke-miterlimit="10"/>
<path d="M1797.9 -170.556C1807.19 -119.912 1773.83 -58.224 1713.83 -23.1303C1664.67 5.67953 1604.96 16.5253 1546.88 30.4906C1530.29 34.5287 1513.96 38.6171 1498.22 43.6073C1428.72 65.3072 1377.88 96.8137 1340.54 121.661C1315.14 138.539 1293.91 152.759 1272.38 166.024C1262.67 171.966 1251.97 177.939 1238.82 184.106C1222.01 192.022 1200.95 201.459 1177.49 215.018C1142.16 235.332 1110.24 261.238 1075.81 277.023C1066.87 281.101 1058.06 284.531 1049.38 287.315C1007.42 300.734 961.893 299.566 912.787 292.549C905.176 291.398 897.178 290.171 889.052 288.919C833.84 280.149 783.609 263.392 737.998 271.84C730.304 273.249 723.254 275.12 716.549 277.506C691.618 286.187 672.411 300.913 656.39 320.743C643.547 336.601 634.921 357.763 626.337 377.477C624.234 382.218 622.26 386.984 620.2 391.622C609.17 417.242 598.183 442.758 582.208 466.516C548.539 516.496 492.291 558.034 425.151 580.42C404.433 587.348 382.939 592.444 361.057 595.449C269.059 608.163 172.776 585.097 112.545 534.243" stroke="#8D69FF" stroke-width="2" stroke-miterlimit="10"/>
<path d="M1803.61 -157.61C1810.44 -106.72 1776.28 -46.1273 1716.82 -10.7669C1668.08 18.2778 1608.83 30.245 1550.82 44.2502C1534.21 48.2925 1517.99 52.4105 1502.2 57.1733C1432.54 78.0941 1380.27 106.898 1340.82 128.34C1313.97 142.939 1291.38 154.671 1268.67 165.368C1258.6 170.128 1247.33 174.765 1233.65 179.828C1216.13 186.384 1194.62 194.514 1170.83 207.468C1134.95 227.029 1103.64 253.425 1070.26 270.334C1061.61 274.699 1052.96 278.39 1044.53 281.564C1003.48 296.752 958.032 297.627 908.748 291.586C901.043 290.641 893.123 289.542 884.988 288.289C829.418 280.235 780.427 262.368 734.768 268.807C727.194 269.906 720.007 271.417 713.166 273.443C687.908 280.841 667.518 294.347 650.317 313.297C636.599 328.556 627.362 349.51 618.469 369.298C616.363 374.044 614.258 378.79 612.325 383.457C601.284 409.104 590.716 434.62 575.241 458.503C542.484 508.609 486.609 550.498 419.831 573.216C399.177 580.28 377.791 585.407 355.973 588.544C264.139 601.658 168.015 578.618 108.023 527.658" stroke="#8C6BFF" stroke-width="2" stroke-miterlimit="10"/>
<path d="M1809.32 -144.65C1813.62 -93.641 1778.86 -33.9918 1719.77 1.71471C1671.29 31.0735 1612.66 44.0861 1554.86 58.1566C1538.36 62.2285 1522.04 66.2218 1506.27 70.8858C1436.45 91.0262 1382.66 116.992 1341.15 135.255C1312.98 147.597 1288.95 156.706 1264.91 164.805C1254.49 168.38 1242.6 171.781 1228.52 175.763C1210.34 180.854 1188.37 187.673 1164.17 200.228C1127.74 219.035 1097.04 245.922 1064.74 263.854C1056.22 268.585 1047.99 272.59 1039.72 276.024C999.584 292.985 954.351 295.932 904.76 290.844C897.004 290.003 889.162 289.032 880.933 287.985C825.136 280.675 777.387 261.694 731.594 265.99C724.012 266.753 716.818 267.929 709.84 269.596C684.384 275.733 662.723 287.887 644.384 306.189C629.791 320.846 619.898 341.697 610.866 361.48C608.759 366.231 606.652 370.982 604.587 375.629C593.578 401.2 583.56 426.739 568.327 450.699C536.443 501.034 480.943 543.276 414.528 566.327C393.984 573.424 372.662 578.685 350.908 581.955C259.37 595.495 163.15 572.431 103.485 521.492" stroke="#8C6EFF" stroke-width="2" stroke-miterlimit="10"/>
<path d="M1815.03 -131.664C1816.75 -80.4299 1781.26 -21.7482 1722.77 14.1245C1674.58 43.6958 1616.58 57.7567 1558.93 71.9974C1542.42 76.0738 1526.21 80.0968 1510.38 84.5328C1440.23 103.971 1385.09 127.016 1341.55 141.99C1312.01 152.174 1286.7 158.577 1261.35 164.072C1250.44 166.434 1238.06 168.623 1223.49 171.393C1204.65 175.014 1182.18 180.625 1157.65 192.573C1120.71 210.522 1090.63 237.902 1059.38 256.963C1051.14 261.984 1043.08 266.251 1035.19 270.103C996.092 288.866 950.986 293.76 901.172 289.757C893.452 289.147 885.43 288.254 877.278 287.335C821.252 280.77 774.618 260.647 728.777 262.925C721.187 263.352 714.028 264.088 706.914 265.395C681.128 270.244 658.15 281.147 638.757 298.593C623.329 312.544 612.736 333.395 603.479 353.047C601.24 357.778 599.131 362.534 597.237 367.107C586.259 392.602 576.619 418.246 561.931 442.229C530.92 492.798 475.838 535.292 409.787 558.677C389.308 565.911 368.051 571.308 346.274 574.581C254.901 588.524 158.669 565.564 99.4176 514.436" stroke="#8B70FF" stroke-width="2" stroke-miterlimit="10"/>
<path d="M1820.79 -118.765C1819.97 -67.4093 1783.88 -9.67178 1725.8 26.4463C1678.04 56.2559 1620.51 71.4463 1562.93 85.7282C1546.4 89.8092 1530.21 93.7327 1514.42 98.0695C1444.11 116.725 1387.45 136.922 1341.83 148.703C1310.97 156.62 1284.25 160.623 1257.48 163.379C1246.35 164.577 1233.23 165.5 1218.29 167.08C1198.78 169.229 1175.73 173.498 1150.96 184.968C1113.33 202.135 1084.13 230.061 1053.84 250.125C1045.9 255.435 1038.09 260.095 1030.36 264.21C992.176 284.755 947.156 291.705 897.164 288.684C889.393 288.178 881.407 287.517 873.204 286.702C816.864 280.753 771.563 259.64 725.718 259.792C718.164 259.778 710.955 260.282 703.703 261.227C677.589 264.785 653.422 274.46 632.929 291.152C616.492 304.474 605.371 325.248 595.975 344.896C593.734 349.632 591.622 354.393 589.597 358.947C578.522 384.341 569.563 410.036 555.207 434.226C525.114 484.924 470.539 527.8 404.854 551.521C384.57 558.918 363.292 564.32 341.581 567.726C250.419 581.969 154.178 559.112 95.2988 507.9" stroke="#8B72FF" stroke-width="2" stroke-miterlimit="10"/>
<path d="M1826.53 -105.755C1823.24 -54.1456 1786.34 2.49287 1728.81 38.8835C1681.34 68.9077 1624.4 85.256 1567.03 99.6051C1550.61 103.716 1534.28 107.619 1518.47 111.623C1448 129.494 1389.89 146.966 1342.15 155.315C1309.96 160.961 1281.88 162.453 1253.83 162.49C1242.21 162.47 1228.64 162.07 1213.13 162.642C1193.08 163.34 1169.4 166.37 1144.26 177.335C1106.07 193.745 1077.53 222.063 1048.25 243.366C1040.61 248.967 1033.05 254.021 1025.58 258.529C988.301 280.861 943.541 289.792 893.154 287.94C885.289 287.641 877.251 287.084 869.17 286.293C812.602 281.092 768.422 258.831 722.529 256.956C714.967 256.604 707.621 256.745 700.362 257.353C673.918 259.617 648.602 267.957 626.879 283.869C609.561 296.588 597.823 317.154 588.246 336.903C586.002 341.645 583.802 346.283 581.904 350.867C570.862 376.186 562.326 401.882 548.474 426.201C519.259 477.135 465.061 520.371 399.787 544.324C379.612 551.755 358.357 557.398 336.753 560.833C245.89 575.506 149.683 552.648 91.0475 501.324" stroke="#8A74FF" stroke-width="2" stroke-miterlimit="10"/>
<path d="M1832.27 -92.7433C1826.43 -41.0072 1788.93 14.6871 1731.77 51.4314C1684.73 81.6974 1628.3 99.0774 1571 113.469C1554.56 117.585 1538.39 121.413 1522.47 125.293C1451.68 142.458 1392.21 156.991 1342.39 162.133C1308.82 165.607 1279.32 164.688 1249.95 161.764C1237.97 160.549 1223.78 158.903 1207.9 158.28C1187.18 157.499 1163.05 159.208 1137.41 169.641C1098.66 185.293 1070.74 214.11 1042.56 236.449C1035.08 242.315 1027.82 247.66 1020.6 252.563C984.366 276.711 939.692 287.709 888.997 286.818C881.211 286.649 873.121 286.195 864.816 285.586C807.889 281.11 765.091 257.748 719.021 253.815C711.581 253.15 704.098 252.927 696.701 253.173C669.927 254.14 643.417 261.247 620.59 276.402C602.389 288.516 589.991 308.98 580.187 328.598C577.812 333.32 575.739 337.989 573.71 342.553C562.656 367.902 554.674 393.626 541.24 417.947C512.905 469.119 459.129 512.612 394.179 537.009C374.071 544.579 352.923 550.253 331.385 553.822C240.691 568.902 144.517 546.042 86.2555 494.628" stroke="#8A76FF" stroke-width="2" stroke-miterlimit="10"/>
<path d="M1838.02 -79.7038C1829.57 -27.735 1791.38 26.8843 1734.78 63.9051C1688 94.4933 1632.2 112.933 1575.1 127.393C1558.78 131.54 1542.46 135.347 1526.62 139.022C1455.67 155.402 1394.67 167.068 1342.8 168.891C1307.9 170.083 1276.85 166.721 1246.37 160.986C1233.98 158.677 1219.22 155.677 1202.8 153.935C1181.41 151.672 1156.78 152.16 1130.81 161.983C1091.55 176.77 1064.2 206.193 1037.12 229.569C1029.94 235.728 1022.93 241.469 1015.87 246.637C980.518 272.687 935.974 285.651 885.099 285.75C877.219 285.789 869.209 285.465 860.852 284.96C803.652 281.338 762.024 256.717 715.95 250.644C708.502 249.639 701.011 249.077 693.477 248.959C666.372 248.626 638.58 254.367 614.647 268.765C595.562 280.272 582.501 300.634 572.558 320.251C570.18 324.979 567.976 329.628 566.074 334.223C555.053 359.499 547.496 385.226 534.395 409.757C506.984 461.066 453.589 504.923 389.007 529.66C368.967 537.368 347.885 543.18 326.455 546.779C236.061 562.292 139.792 539.404 81.8625 488.003" stroke="#8978FF" stroke-width="2" stroke-miterlimit="10"/>
<path d="M1843.78 -66.6375C1832.9 -14.513 1793.94 39.2395 1737.8 76.4086C1691.45 107.241 1636.12 126.824 1579.09 141.328C1562.76 145.479 1546.59 149.212 1530.65 152.762C1459.41 168.329 1397.09 177.276 1343.09 175.643C1306.85 174.547 1274.21 168.841 1242.48 160.261C1229.69 156.856 1214.39 152.393 1197.57 149.556C1175.51 145.806 1150.37 145.071 1124.07 154.282C1084.12 168.282 1057.71 198.154 1031.5 222.756C1024.62 229.208 1017.86 235.346 1011.1 240.806C976.801 268.683 932.388 283.619 881.161 284.789C873.229 284.933 865.125 284.817 856.89 284.337C799.504 281.364 759.091 255.715 712.97 247.598C705.515 246.253 698.016 245.352 690.475 244.894C663.039 243.258 634.047 247.76 609.007 261.399C589.036 272.299 575.312 292.559 565.099 312.15C562.719 316.884 560.513 321.538 558.522 326.009C547.403 351.187 540.489 377.074 527.809 401.607C501.282 453.158 448.267 497.381 384.099 522.356C364.169 530.099 343.283 536.074 321.789 539.782C231.61 555.6 135.333 532.813 77.7801 481.319" stroke="#897AFF" stroke-width="2" stroke-miterlimit="10"/>
<path d="M1849.73 -53.6256C1836.23 -1.26432 1796.71 51.4366 1740.99 88.86C1694.94 119.914 1640.25 140.562 1583.39 155.24C1566.99 159.502 1550.86 163.136 1534.98 166.48C1463.54 181.362 1399.73 187.325 1343.63 182.461C1306.02 179.176 1271.87 170.91 1239.02 159.504C1225.74 154.869 1209.95 149.176 1192.63 145.109C1169.94 139.764 1144.3 137.803 1117.58 146.61C1077.07 159.847 1051.29 190.224 1026.19 215.87C1019.6 222.616 1013.01 229.023 1006.51 234.88C973.254 264.59 928.844 281.478 877.524 283.773C869.628 284.152 861.472 284.141 853.186 283.765C795.442 281.521 756.247 254.84 710.166 244.466C702.703 242.78 695.197 241.538 687.518 240.714C659.837 237.902 629.559 241.031 603.322 253.78C582.333 264.046 567.946 284.205 557.766 303.716C555.253 308.43 553.044 313.091 551.052 317.567C539.966 342.673 533.479 368.565 521.307 393.231C495.665 445.027 443.207 489.539 379.367 514.961C359.504 522.845 338.729 528.852 317.257 532.8C227.251 549.029 131.141 526.264 73.8355 474.651" stroke="#887CFF" stroke-width="2" stroke-miterlimit="10"/>
<path d="M1855.51 -40.526C1839.44 11.9688 1799.18 63.696 1743.97 101.506C1698.36 132.807 1644.14 154.604 1587.48 169.353C1571.2 173.645 1555.09 177.179 1539.12 180.398C1467.52 194.489 1402.08 197.773 1344.02 189.355C1305.02 183.876 1269.19 173.123 1235.39 158.803C1221.71 153.066 1205.33 146.008 1187.61 140.84C1164.37 134.025 1138.1 130.81 1111.05 139.001C1069.98 151.474 1044.95 182.384 1020.83 209.052C1014.49 216.198 1008.2 222.899 1002 229.051C969.802 260.598 925.481 279.574 873.809 282.946C865.863 283.431 857.786 283.55 849.405 283.383C791.433 281.895 753.502 254.074 707.245 241.622C699.775 239.593 692.304 237.904 684.444 236.819C656.432 232.697 624.864 234.451 597.603 246.567C575.725 256.223 560.716 276.176 550.222 295.766C547.751 300.382 545.54 305.049 543.546 309.531C532.449 334.669 526.52 360.592 514.728 385.368C489.886 437.279 437.942 482.186 374.476 507.954C354.681 515.978 333.973 522.124 312.611 526.102C222.91 542.769 126.707 519.975 69.7815 468.265" stroke="#887FFF" stroke-width="2" stroke-miterlimit="10"/>
<path d="M1861.3 -27.42C1842.61 25.3178 1801.66 75.9676 1747.01 114.062C1701.7 145.588 1648.08 168.565 1591.49 183.36C1575.2 187.658 1559.07 191.197 1543.17 194.21C1471.28 207.484 1404.43 207.898 1344.27 196.232C1303.92 188.446 1266.53 175.224 1231.44 158.141C1217.26 151.167 1200.44 142.766 1182.18 136.467C1158.26 128.154 1131.53 123.6 1104.11 131.281C1062.52 142.883 1038.11 174.304 1015.01 202.235C1008.84 209.652 1002.94 216.779 996.858 223.305C965.675 256.803 921.355 277.743 869.503 282.116C861.462 282.811 853.334 283.035 845.075 282.893C786.742 282.139 750.034 253.278 703.817 238.555C696.339 236.183 688.861 234.152 680.862 232.699C652.518 227.263 619.744 227.768 591.282 238.99C568.556 247.93 552.837 267.888 542.203 287.48C539.729 292.102 537.385 296.75 535.389 301.239C524.325 326.307 518.825 352.237 507.543 377.149C483.59 429.311 432.03 474.593 368.98 500.603C349.427 508.69 328.654 514.949 307.359 519.063C217.874 536.04 121.665 513.344 64.9437 461.614" stroke="#8781FF" stroke-width="2" stroke-miterlimit="10"/>
<path d="M1867.11 -14.28C1845.92 38.7293 1804.27 88.3007 1750.05 126.657C1705.04 158.41 1652.07 182.466 1595.65 197.438C1579.47 201.768 1563.37 205.206 1547.23 208.068C1475.15 220.653 1406.79 218.059 1344.56 203.028C1302.87 192.93 1263.79 177.206 1227.7 157.297C1212.99 149.188 1195.84 139.465 1177.08 131.927C1152.49 122.11 1125.25 116.319 1097.5 123.383C1055.21 134.192 1031.57 166.152 1009.58 195.14C1003.71 202.855 998.103 210.28 992.148 217.181C962.024 252.531 917.836 275.468 865.63 280.923C857.668 281.75 849.445 282.185 841.135 282.148C782.615 282.049 746.958 252.223 700.738 235.329C693.383 232.638 685.637 230.211 677.629 228.416C648.908 221.767 615.014 220.81 585.262 231.346C561.643 239.674 545.256 259.533 534.524 279.022C531.917 283.625 529.702 288.305 527.704 292.8C516.672 317.799 511.689 343.869 500.701 368.762C477.638 421.178 426.507 466.731 363.831 493.092C344.346 501.32 323.64 507.719 302.455 511.865C213.144 529.258 116.971 506.556 60.6299 454.724" stroke="#8783FF" stroke-width="2" stroke-miterlimit="10"/>
<path d="M1872.96 -1.21191C1829.4 96.0896 1723.85 178.285 1599.85 211.453C1461.25 248.478 1329.05 220.749 1224.13 156.372C1189.06 134.931 1140.43 103.892 1090.88 115.463C1036.62 128.16 1014.32 176.708 987.561 211.069C954.06 253.895 900.47 280.72 837.321 281.432C769.077 282.17 733.811 240.321 674.7 224.07C645.645 216.1 610.541 213.886 579.715 223.55C549.367 233.08 530.618 261.044 520.228 284.158C509.098 309.063 504.676 335.168 494.156 360.306C465.118 429.271 386.815 486.874 297.854 504.606C208.849 522.443 112.714 499.733 56.6234 447.771" stroke="#8685FF" stroke-width="2" stroke-miterlimit="10"/>
<path d="M1870.6 -11.0493C1848.93 38.6978 1812.11 84.7957 1764.61 122.893C1718.17 160.172 1661.44 189.867 1599.62 206.969C1552.59 220.035 1505.9 225.439 1460.68 223.856C1417.95 222.418 1376.9 214.833 1338.47 202.302C1309.61 192.897 1282.36 180.625 1256.41 166.221C1245.61 160.241 1235.12 153.866 1224.76 147.175C1212.09 138.896 1197.55 129.341 1181.7 121.235C1154.71 107.308 1123.28 96.9459 1091.65 104.162C1057.49 112.021 1035.49 134.537 1017.67 158.554C1007.15 172.748 998.108 187.459 988.501 200.468C979.719 212.161 969.675 222.811 958.368 232.077C932.796 252.984 901.04 267.337 864.62 272.479C857.701 273.511 850.521 274.15 843.341 274.449C804.134 276.089 774.924 263.433 745.625 249.282C724.816 239.181 704.137 228.424 679.371 221.753C678.5 221.469 677.586 221.29 676.715 221.006C647.988 213.673 613.869 211.536 583.85 221.001C563.401 227.453 548.051 242.064 537.097 257.992C531.447 266.206 527.015 274.886 523.67 282.984C519.761 292.107 516.896 301.435 514.292 310.815C509.649 327.524 506.006 344.202 499.97 360.525C492.848 379.818 482.114 398.289 468.55 415.411C443.509 446.993 408.151 474.168 366.345 492.35C348.248 500.285 328.931 506.391 309.134 510.583C301.432 512.143 293.687 513.468 285.942 514.451C201.962 525.394 114.996 501.538 63.5205 452.578" stroke="#8B88FB" stroke-width="2" stroke-miterlimit="10"/>
<path d="M1868.42 -20.9331C1847.02 29.4872 1811.14 76.3903 1764.38 115.487C1718.58 153.635 1661.91 184.658 1599.83 202.475C1552.62 216.05 1505.53 221.816 1459.53 219.847C1416.39 218.098 1375.12 209.789 1337.15 196.223C1308.66 185.989 1282.04 172.942 1256.85 157.792C1246.32 151.529 1236.1 144.872 1226.01 137.9C1213.52 129.211 1199.25 119.377 1183.55 110.966C1156.88 96.6613 1125.09 85.5532 1093.04 92.7896C1058.7 100.483 1036.28 123.341 1018.73 147.38C1008.31 161.688 999.493 176.538 990.241 189.713C981.815 201.574 972.17 212.287 961.438 221.88C937.061 243.333 906.592 258.37 871.115 264.707C864.376 265.998 857.377 266.898 850.246 267.432C811.679 270.325 782.016 259.18 752.264 245.861C731.08 236.376 709.983 226.001 685.193 219.443C684.324 219.159 683.41 218.981 682.497 218.802C653.619 211.557 619.223 209.136 589.054 218.669C568.144 225.247 552.415 240.105 541.557 256.485C535.954 264.925 531.483 273.7 528.184 282.023C524.452 291.397 521.633 300.95 519.249 310.474C514.914 327.45 511.84 344.446 506.505 361.113C500.216 380.771 490.621 399.556 478.025 417.071C454.787 449.42 421.067 478.126 379.078 497.493C360.953 505.865 341.347 512.357 321.175 516.809C313.437 518.472 305.524 519.875 297.611 520.936C212.091 532.687 122.846 508.058 71.1931 457.638" stroke="#8F8BF6" stroke-width="2" stroke-miterlimit="10"/>
<path d="M1866.1 -30.8423C1845.02 20.1471 1810.04 67.9608 1763.88 108.031C1718.82 147.179 1662.14 179.292 1599.77 197.928C1552.51 212.038 1504.81 218.01 1457.97 215.759C1414.43 213.701 1372.97 204.565 1335.42 190.069C1307.26 179.113 1281.44 165.213 1256.88 149.291C1246.67 142.642 1236.54 135.783 1226.71 128.53C1214.41 119.43 1200.41 109.319 1184.72 100.577C1158.38 85.8944 1126.05 74.1213 1093.81 81.1934C1059.37 88.8525 1036.44 111.923 1019.13 136.091C1008.8 150.512 1000.21 165.501 991.31 178.843C983.238 190.871 974.079 201.78 963.746 211.438C940.432 233.411 911.465 249.287 876.799 256.791C870.153 258.211 863.333 259.371 856.251 260.14C818.325 264.283 788.208 254.645 758.002 242.154C736.445 233.285 714.931 223.289 689.943 216.924C689.031 216.745 688.162 216.461 687.249 216.283C658.177 209.231 623.721 206.342 593.228 216.023C571.814 222.831 555.837 237.962 544.857 254.638C539.173 263.278 534.922 272.198 531.67 280.748C527.984 290.346 525.385 300.044 523.35 309.739C519.454 327.007 516.947 344.321 512.355 361.227C506.939 381.147 498.308 400.324 486.765 418.364C465.415 451.608 433.244 481.714 391.072 502.264C372.918 511.071 353.024 517.95 332.477 522.66C324.528 524.506 316.491 525.882 308.541 527.047C221.351 539.578 129.961 514.203 78.2613 462.349" stroke="#948DF2" stroke-width="2" stroke-miterlimit="10"/>
<path d="M1863.77 -40.7209C1842.85 10.9166 1808.98 59.4555 1763.51 100.627C1719.09 140.644 1662.46 174.08 1599.79 193.534C1552.35 208.152 1504.12 214.46 1456.67 211.744C1412.74 209.376 1371.05 199.52 1334.1 184.018C1306.26 172.341 1281.29 157.485 1257.27 141.003C1247.32 134.073 1237.5 126.827 1227.77 119.373C1215.61 109.969 1201.97 99.3703 1186.38 90.4286C1160.36 75.3689 1127.66 62.8526 1095.02 69.9452C1060.51 77.4654 1037.05 100.853 1020 125.044C1009.77 139.58 1001.44 154.603 992.86 168.216C985.185 180.307 976.381 191.385 966.621 201.369C944.541 223.782 916.814 240.445 883.089 249.138C876.621 250.818 869.85 252.211 862.948 253.239C825.835 258.55 795.135 250.39 764.433 238.831C742.504 230.575 720.616 220.855 695.432 214.68C694.52 214.502 693.652 214.218 692.74 214.04C663.387 207.05 628.785 203.903 598.317 213.573C576.442 220.507 560.087 235.884 549.117 252.881C543.393 261.617 539.146 270.867 536.114 279.563C532.649 289.306 530.225 299.253 528.279 309.068C524.82 326.629 522.88 344.26 518.9 361.379C514.314 381.665 506.818 401.155 496.197 419.693C476.601 453.806 446.106 485.334 403.926 506.985C385.7 516.332 365.562 523.492 344.641 528.46C336.524 530.384 328.407 531.967 320.203 533.08C231.391 546.285 137.946 520.296 85.9394 466.959" stroke="#9990EE" stroke-width="2" stroke-miterlimit="10"/>
<path d="M1861.59 -50.5688C1840.98 1.63689 1808.01 51.0841 1763.15 93.2263C1719.37 134.109 1662.79 168.867 1599.86 189.032C1552.25 204.157 1503.63 210.826 1455.39 207.725C1411.05 205.049 1369.14 194.474 1332.65 177.942C1305.18 165.44 1280.83 149.814 1257.57 132.59C1247.89 125.378 1238.34 117.852 1228.92 110.012C1216.94 100.2 1203.58 89.3248 1188.13 80.0789C1162.39 64.7472 1129.37 51.3848 1096.37 58.3931C1061.8 65.7748 1037.92 89.504 1020.89 113.669C1010.79 128.214 1002.65 143.481 994.42 157.259C987.098 169.519 978.648 180.765 969.374 190.945C948.353 213.876 922.124 231.375 889.251 241.125C882.963 243.063 876.371 244.716 869.562 245.873C833.086 252.428 801.979 245.664 770.783 235.034C748.481 227.39 726.178 218.048 700.84 211.959C699.929 211.781 699.062 211.498 698.15 211.32C668.605 204.521 633.9 201.013 603.153 210.726C580.95 217.811 564.088 233.409 553.084 250.831C547.408 259.792 543.121 269.137 540.135 278.057C536.716 288.025 534.512 298.117 532.871 308.206C529.805 326.163 528.344 343.982 525.191 361.47C521.304 382.095 514.942 401.897 505.241 420.933C487.527 455.939 458.403 488.94 416.214 511.69C397.96 521.471 377.535 529.017 356.371 534.268C348.218 536.294 339.804 537.929 331.52 539.251C241.175 553.259 145.464 526.5 93.4117 471.734" stroke="#9D93E9" stroke-width="2" stroke-miterlimit="10"/>
<path d="M1859.27 -60.4423C1838.94 -7.56306 1806.95 42.5832 1762.77 85.8251C1719.72 127.705 1663.28 163.573 1599.8 184.502C1552 200.134 1502.9 207.033 1453.97 203.678C1409.28 200.589 1367.14 189.296 1331.06 171.841C1303.92 158.62 1280.37 142.146 1257.74 124.154C1248.32 116.662 1239.04 108.856 1229.76 100.711C1218.09 90.5164 1204.74 79.3132 1189.43 69.7634C1164.15 54.0807 1130.59 40.057 1097.35 47.0069C1062.73 54.2508 1038.3 78.2966 1021.5 102.591C1011.5 117.251 1003.58 132.657 995.575 146.576C988.52 158.873 980.684 170.339 971.851 180.819C952.061 204.189 927.024 222.577 895.089 233.512C888.892 235.578 882.479 237.489 875.676 238.984C839.881 246.677 808.28 241.514 776.633 231.707C753.959 224.672 731.241 215.707 705.751 209.705C704.841 209.527 703.973 209.244 703.063 209.066C673.368 202.354 638.431 198.459 607.666 208.267C584.96 215.581 567.852 231.45 556.727 249.168C550.97 258.328 546.903 267.819 543.963 276.965C540.72 287.181 538.604 297.393 537.182 307.627C534.552 325.876 533.656 344.012 531.113 361.712C528.095 382.598 522.65 402.897 514.083 422.245C498.291 458.04 470.665 492.537 428.338 516.36C410.012 526.678 389.344 534.504 367.807 540.013C359.487 542.116 351.037 543.854 342.456 545.227C250.452 560.012 152.607 532.51 100.379 476.291" stroke="#A296E5" stroke-width="2" stroke-miterlimit="10"/>
<path d="M1857.05 -70.1706C1837.04 -16.7234 1805.95 34.3298 1762.41 78.4349C1720.01 121.179 1663.61 158.365 1599.88 180.002C1551.91 196.14 1502.32 203.269 1452.56 199.636C1407.48 196.24 1365.11 184.23 1329.46 165.853C1302.64 151.915 1279.76 134.569 1257.88 115.837C1248.78 107.96 1239.63 99.8488 1230.71 91.5541C1219.22 80.9528 1206.13 69.4735 1190.93 59.7248C1165.97 43.6662 1132.05 28.9036 1098.45 35.7699C1063.72 42.9806 1038.79 67.2382 1022.27 91.5578C1012.23 106.307 1004.71 121.772 997.014 135.962C990.311 148.427 982.828 160.062 974.521 170.632C955.788 194.52 932.288 213.636 901.159 225.728C895.142 228.052 888.777 230.195 882.196 231.843C847.168 240.802 814.988 237.106 782.891 228.12C759.847 221.694 736.714 213.106 711.072 207.189C710.163 207.011 709.296 206.728 708.387 206.551C678.543 199.924 643.332 195.749 612.419 205.625C589.255 213.064 571.772 229.18 560.613 247.322C554.947 256.602 550.754 266.396 547.903 275.662C544.749 285.998 542.939 296.483 541.691 306.966C539.497 325.506 539.165 343.959 537.317 362.003C535.124 383.253 530.81 403.863 523.16 423.708C509.114 460.368 483.158 496.28 440.65 521.277C422.296 532.028 401.342 540.238 379.434 546.004C370.947 548.183 362.331 549.999 353.714 551.475C260.054 567.035 160.21 538.817 107.677 481.121" stroke="#A799E1" stroke-width="2" stroke-miterlimit="10"/>
<path d="M1854.74 -80.0128C1835.01 -25.8928 1804.97 25.9878 1762.04 71.0602C1720.23 114.773 1663.92 153.17 1599.94 175.516C1551.88 192.289 1501.69 199.622 1451.32 195.527C1405.84 191.824 1363.25 179.098 1328.06 159.697C1301.61 144.939 1279.48 126.852 1258.22 107.355C1249.39 99.1981 1240.51 90.8076 1231.72 82.2083C1220.42 71.2005 1207.6 59.4453 1192.4 49.3682C1167.77 32.934 1133.44 17.5378 1099.52 24.2166C1064.74 31.2902 1039.32 55.7597 1022.98 80.3139C1013.04 95.1772 1005.74 110.782 998.392 125.138C992.085 137.666 985.084 149.495 977.217 160.364C959.711 184.69 937.529 204.717 907.249 217.86C901.41 220.441 895.224 222.841 888.691 224.722C854.342 234.814 821.584 232.583 788.995 224.52C765.581 218.701 742.165 210.514 716.371 204.682C715.462 204.504 714.553 204.326 713.557 204.019C683.522 197.583 648.253 192.944 617.019 202.967C593.399 210.532 575.627 227.022 564.391 245.355C558.643 254.834 554.54 264.748 551.865 274.263C548.888 284.848 547.122 295.557 546.135 306.08C544.332 325.016 544.476 343.656 543.365 361.937C541.998 383.552 538.682 404.449 532.077 424.814C519.904 462.365 495.485 499.664 452.797 525.834C434.415 537.017 413.176 545.611 390.896 551.633C382.373 553.914 373.591 555.807 364.808 557.361C269.625 573.719 167.526 544.735 114.949 485.615" stroke="#AC9CDC" stroke-width="2" stroke-miterlimit="10"/>
<path d="M1852.43 -89.8417C1833.01 -35.1547 1803.92 17.5264 1761.54 63.6681C1720.5 108.269 1664.15 147.849 1599.88 171.006C1551.65 188.282 1500.94 195.949 1449.92 191.498C1404.04 187.488 1361.27 173.945 1326.63 153.651C1300.5 138.178 1279.04 119.222 1258.49 99.091C1249.92 90.6556 1241.31 81.9862 1232.79 73.1084C1221.67 61.6949 1209.12 49.6644 1194.07 39.2849C1169.71 22.5803 1134.94 6.31798 1100.75 13.0434C1065.78 19.9547 1039.94 44.7654 1023.75 69.3197C1013.9 84.2973 1006.69 100.016 999.875 114.458C993.789 127.128 987.27 139.151 980.015 150.24C963.692 175.107 942.739 195.914 913.264 210.21C907.516 212.918 901.509 215.575 895.155 217.713C861.484 228.935 828.236 228.296 795.2 221.049C771.417 215.837 747.632 207.92 721.643 202.277C720.735 202.099 719.827 201.922 718.789 201.719C688.607 195.368 653.064 190.449 621.857 200.463C597.911 208.177 579.636 224.887 568.366 243.643C562.537 253.321 558.654 263.38 555.981 273.224C553.049 284.032 551.501 294.885 550.688 305.656C549.32 324.882 550.026 343.838 549.652 362.357C549.15 384.232 546.918 405.543 541.227 426.404C530.794 464.817 507.997 503.631 465.345 530.788C446.893 542.506 425.413 551.379 402.763 557.656C394.075 560.014 385.127 561.983 376.178 563.615C279.347 580.745 175.172 550.917 122.379 490.455" stroke="#B09ED8" stroke-width="2" stroke-miterlimit="10"/>
<path d="M1850.25 -99.6406C1831.12 -44.2811 1802.95 9.20094 1761.3 56.3331C1720.86 101.9 1664.6 142.688 1599.95 166.526C1551.54 184.307 1500.44 192.331 1448.65 187.499C1402.38 183.184 1359.38 168.928 1325.2 147.612C1299.4 131.425 1278.77 111.522 1258.8 90.733C1250.5 82.0187 1242.16 73.0709 1233.77 63.8894C1222.83 52.0705 1210.59 39.6605 1195.64 29.083C1171.61 12.0035 1136.43 -4.89016 1101.92 1.64847C1066.89 8.42355 1040.65 33.5757 1024.6 58.1311C1014.85 73.2236 1007.9 88.9774 1001.39 103.69C995.656 116.528 989.531 128.614 982.715 140.002C967.485 165.281 947.977 187.022 919.348 202.365C913.778 205.329 907.948 208.242 901.513 210.587C868.649 222.963 834.782 223.886 801.299 217.455C777.147 212.847 752.95 205.304 726.811 199.745C725.904 199.568 724.867 199.365 723.959 199.188C693.629 192.922 657.987 187.645 626.46 197.806C602.015 205.749 583.41 222.601 572.107 241.78C566.326 251.682 562.36 261.939 559.776 271.903C557.063 282.855 555.689 293.956 555.092 304.871C554.157 324.388 555.468 343.557 555.612 362.497C555.932 384.735 554.696 406.333 549.961 427.584C541.395 466.885 520.129 507.082 477.298 535.409C458.819 547.557 437.011 556.916 414.034 563.345C405.18 565.78 396.197 567.852 387.083 569.56C288.605 587.462 182.443 556.92 129.477 495.011" stroke="#B5A1D4" stroke-width="2" stroke-miterlimit="10"/>
<path d="M1847.95 -109.447C1829.13 -53.5208 1801.9 0.760431 1760.8 48.9596C1721 95.3872 1664.92 137.51 1599.86 162.131C1551.27 180.414 1499.7 188.667 1447.21 183.584C1400.55 178.964 1357.33 163.996 1323.61 141.661C1298.17 124.658 1278.17 103.993 1258.95 82.4677C1250.96 73.3712 1242.88 64.1453 1234.58 54.7648C1223.96 42.5667 1211.73 29.8316 1196.92 18.9524C1173.21 1.49888 1137.68 -16.1289 1102.76 -9.56863C1067.64 -2.82556 1040.9 22.538 1025.07 47.2238C1015.42 62.4307 1008.96 78.3742 1002.54 93.2015C996.935 106.052 991.507 118.486 985.214 129.965C971.034 155.758 953.01 178.327 925.227 194.715C919.834 197.934 914.096 200.974 907.797 203.679C875.609 217.182 841.297 219.586 807.325 214.072C782.807 210.068 758.199 202.898 731.91 197.423C731.003 197.246 729.967 197.043 729.061 196.866C698.541 190.79 662.669 185.129 631.17 195.281C606.272 203.348 587.381 220.574 576.087 240.072C570.268 250.068 566.349 260.548 563.94 270.761C561.272 281.935 560.116 293.18 559.693 304.344C559.061 324.126 560.932 343.609 561.939 362.812C563.079 385.414 562.794 407.4 559.142 429.066C552.354 469.125 532.575 510.806 489.695 540.325C471.146 553.007 449.098 562.644 425.753 569.328C416.734 571.839 407.586 573.987 398.437 575.798C298.447 594.495 190.045 563.19 136.95 499.734" stroke="#BAA4CF" stroke-width="2" stroke-miterlimit="10"/>
<path d="M1845.78 -119.215C1827.11 -62.642 1800.93 -7.53523 1760.56 41.6524C1721.4 88.941 1665.37 132.373 1600.06 157.698C1551.3 176.484 1499.21 185.069 1445.99 179.501C1398.94 174.577 1355.5 158.898 1322.23 135.545C1297.12 117.83 1277.91 96.3249 1259.3 74.039C1251.58 64.6644 1243.64 55.1354 1235.74 45.5024C1225.29 32.9001 1213.33 19.8903 1198.66 8.70945C1175.28 -9.11814 1139.38 -27.4795 1104.24 -20.9759C1069.05 -14.3684 1041.78 11.3112 1026.23 36.0245C1016.67 51.3463 1010.21 67.2748 1004.23 82.3972C999.105 95.4406 993.94 107.914 988.084 119.69C975.124 145.921 958.28 169.37 931.427 186.93C926.211 190.405 920.521 193.675 914.443 196.533C882.93 211.16 848.131 215.147 813.713 210.444C788.828 207.042 763.81 200.244 737.37 194.853C736.464 194.676 735.429 194.474 734.524 194.297C703.728 188.279 667.843 182.391 636.068 192.586C610.717 200.778 591.453 218.249 580.17 238.066C574.27 248.26 570.44 258.86 568.076 269.296C565.454 280.694 564.514 292.082 564.437 303.415C564.194 323.591 566.667 343.287 568.278 362.702C570.279 385.564 571.073 407.965 568.33 430.124C563.402 471.07 545.151 514.13 502.135 544.712C483.559 557.823 461.228 567.841 437.644 574.805C428.546 577.522 419.233 579.747 409.833 581.505C308.203 600.971 197.692 568.929 144.425 504.029" stroke="#BEA7CB" stroke-width="2" stroke-miterlimit="10"/>
<path d="M1843.45 -128.914C1825.1 -71.774 1799.81 -15.7655 1760.03 34.3828C1721.59 82.6591 1665.57 127.163 1599.97 153.296C1551.17 172.608 1498.44 181.499 1444.57 175.578C1397.13 170.349 1353.51 153.858 1320.66 129.592C1295.87 111.167 1277.33 88.7981 1259.43 65.8823C1251.97 56.2304 1244.33 46.3203 1236.53 36.4889C1226.26 23.4831 1214.57 10.1995 1199.92 -1.30751C1176.81 -19.4044 1140.56 -38.4976 1105.06 -32.076C1069.82 -25.6039 1042 0.390865 1026.6 25.1058C1017.13 40.5421 1010.89 56.6098 1005.26 71.8973C1000.53 85.0041 995.672 97.7489 990.425 109.744C978.51 136.488 963.147 160.763 937.137 179.365C932.012 182.966 926.5 186.491 920.427 189.682C889.589 205.433 854.304 210.998 819.401 207.209C794.106 204.512 768.766 197.877 742.091 192.778C741.186 192.601 740.152 192.399 739.247 192.222C708.306 186.289 672.194 180.019 640.36 190.412C614.558 198.728 595.01 216.573 583.607 236.682C577.755 247.1 573.972 257.922 571.697 268.478C569.293 280.019 568.483 291.759 568.492 303.209C568.68 323.675 571.712 343.686 574.011 363.442C576.829 386.666 578.613 409.352 576.951 431.925C573.881 473.755 557.111 518.296 513.962 549.937C495.445 563.606 472.746 573.875 448.795 581.094C439.534 583.886 430.056 586.188 420.622 588.048C317.357 608.281 204.745 575.503 151.438 509.189" stroke="#D1B5D6" stroke-width="2" stroke-miterlimit="10"/>
<path d="M1841.17 -138.681C1823.09 -80.8699 1798.76 -24.1668 1759.67 27.0713C1721.87 76.2064 1665.9 122.016 1600.05 148.851C1551.07 168.664 1497.96 177.912 1443.32 171.611C1395.49 166.079 1351.65 148.879 1319.34 123.727C1294.92 104.489 1277.12 81.3863 1259.84 57.7119C1252.64 47.7829 1245.27 37.5958 1237.73 27.4873C1227.65 14.0785 1216.23 0.521024 1201.71 -11.2867C1179.05 -29.7316 1142.32 -49.5812 1106.46 -43.2412C1071.17 -36.9041 1042.94 -10.5686 1027.64 14.2527C1018.14 29.7786 1012.12 45.9859 1006.97 61.4642C1002.46 74.7132 998.248 87.5725 993.35 99.7364C982.609 127.02 968.637 151.99 943.425 171.736C938.477 175.591 933.142 179.371 927.16 182.688C896.995 199.56 861.269 206.598 825.88 203.721C800.091 201.599 774.472 195.36 747.777 190.369C746.743 190.167 745.839 189.99 744.806 189.788C713.676 184.043 677.466 177.417 645.402 187.75C619.234 196.319 599.229 214.279 587.794 234.81C581.904 245.322 578.167 256.367 576.066 267.171C573.708 278.934 573.114 290.818 573.468 302.438C574.086 323.193 577.546 343.494 580.575 363.487C584.08 387.049 586.982 410.045 586.355 433.136C585.01 475.825 569.892 521.766 526.609 554.467C508.065 568.563 485.085 579.212 460.767 586.685C451.341 589.554 441.829 591.957 432.231 593.894C327.463 614.919 212.752 581.406 159.145 513.627" stroke="#C8ADC2" stroke-width="2" stroke-miterlimit="10"/>
<path d="M1839.02 -148.431C1821.22 -89.9494 1797.82 -32.4488 1759.32 19.7486C1722.11 69.8449 1666.23 116.854 1600.01 144.365C1550.86 164.678 1497.24 174.257 1441.96 167.603C1393.7 161.872 1349.68 143.861 1317.83 117.695C1293.6 97.7233 1276.72 73.8098 1260.06 49.378C1253.17 39.0686 1246.02 28.7087 1238.61 18.2983C1228.84 4.51222 1217.56 -9.34392 1203.14 -21.3483C1180.76 -40.0622 1143.54 -60.6671 1107.45 -54.3833C1071.93 -48.1023 1043.35 -21.5301 1028.31 3.31913C1018.91 18.9599 1013.15 35.2029 1008.31 50.9501C1004.14 64.3665 1000.28 77.3934 995.991 89.776C986.335 117.469 973.666 143.34 949.381 164.254C944.609 168.363 939.322 172.372 933.518 175.944C904.026 193.936 867.816 202.547 831.985 200.477C805.832 198.953 779.934 193.109 752.962 188.176C751.929 187.974 751.026 187.798 749.994 187.596C718.719 181.934 682.282 174.928 650.031 185.433C623.414 194.127 603.126 212.459 591.572 233.283C585.601 243.993 581.954 255.157 579.898 266.184C577.584 278.168 577.207 290.195 577.732 302.062C578.738 323.211 582.797 343.723 586.554 363.953C590.917 387.774 594.892 411.183 595.039 434.741C595.546 478.313 581.948 525.627 538.618 559.514C520.048 574.037 496.787 585.066 472.103 592.793C462.643 595.762 452.838 598.217 443.076 600.231C336.68 622.021 219.875 587.773 166.229 518.582" stroke="#D1B5D6" stroke-width="2" stroke-miterlimit="10"/>
<path d="M1836.75 -158.189C1819.26 -99.1397 1796.92 -40.8154 1759.01 12.3417C1722.56 63.3213 1666.78 111.53 1600.14 139.82C1550.82 160.634 1496.68 170.543 1440.68 163.408C1392.03 157.373 1347.83 138.552 1316.4 111.477C1292.49 90.7976 1276.31 65.9195 1260.35 40.8595C1253.59 30.2482 1246.88 19.5334 1239.56 8.9249C1229.97 -5.26357 1218.83 -19.4185 1204.55 -31.7232C1182.49 -50.81 1144.91 -72.1444 1108.47 -65.9416C1072.9 -59.7948 1043.78 -32.9069 1028.97 -7.92514C1019.7 7.72727 1014.13 24.2138 1009.63 40.1265C1005.86 53.6068 1002.34 66.8016 998.484 79.4814C989.868 107.688 978.672 134.382 955.224 156.333C950.629 160.697 945.433 164.831 939.806 168.657C910.984 187.766 874.291 197.949 838.019 196.684C811.503 195.758 785.197 190.283 758.076 185.432C757.045 185.231 756.142 185.054 755.068 184.956C723.648 179.378 686.942 172.095 654.718 182.591C627.651 191.408 606.994 209.986 595.45 231.127C589.528 242.06 585.841 253.318 583.958 264.593C581.862 276.721 581.657 288.995 582.396 301.006C583.831 322.444 588.446 343.272 592.759 363.817C597.935 388.001 602.895 411.695 604.074 435.77C606.343 480.096 594.176 528.99 550.841 563.959C532.201 579.013 508.703 590.318 483.654 598.298C474.03 601.344 464.191 603.899 454.265 605.99C346.371 628.57 227.346 593.563 173.529 522.934" stroke="#D1B5D6" stroke-width="2" stroke-miterlimit="10"/>
<path d="M1834.62 -167.91C1817.4 -108.189 1795.98 -49.0674 1758.67 5.04866C1722.85 56.8854 1667.11 106.395 1600.24 135.386C1550.88 156.725 1496.22 166.963 1439.45 159.452C1390.29 153.089 1346 133.588 1315.02 105.501C1291.47 84.0111 1276.04 58.4018 1260.69 32.5856C1254.2 21.6981 1247.75 10.7071 1240.7 -0.177612C1231.29 -14.7679 1220.41 -29.196 1206.27 -41.8007C1184.53 -61.26 1146.56 -83.2196 1109.89 -77.0724C1074.26 -71.0595 1044.61 -43.856 1029.95 -18.8704C1020.77 -3.10262 1015.41 13.5237 1011.26 29.6019C1007.71 43.2246 1004.67 56.6124 1001.42 69.5107C994.011 98.1517 984.114 125.747 961.503 148.733C956.998 153.221 952.064 157.738 946.356 161.768C918.204 181.994 881.029 193.745 844.317 193.284C817.437 192.954 790.726 187.847 763.457 183.079C762.426 182.878 761.524 182.702 760.451 182.604C728.844 177.212 692.083 169.471 659.544 180.115C631.985 189.159 611.003 207.878 599.426 229.44C593.466 240.467 589.912 252.077 588.117 263.47C586.065 275.82 586.075 288.238 587.029 300.392C588.892 322.12 593.932 343.237 599.101 364.045C605.088 388.591 611.118 412.699 613.284 437.058C617.398 482.266 606.745 532.531 563.277 568.556C544.611 584.035 520.832 595.72 495.419 603.953C485.632 607.075 475.629 609.706 465.54 611.874C356.024 635.218 235.082 599.398 180.925 527.411" stroke="#D1B5D6" stroke-width="2" stroke-miterlimit="10"/>
<path d="M1832.36 -177.652C1815.46 -117.364 1794.92 -57.3424 1758.32 -2.24393C1723.1 50.552 1667.46 101.258 1600.3 131.051C1550.72 152.992 1495.65 163.353 1438.2 155.594C1388.64 148.929 1344.14 128.724 1313.62 99.6264C1290.39 77.4312 1275.61 50.9634 1260.96 24.5207C1254.73 13.3574 1248.55 2.09073 1241.63 -9.09493C1232.4 -24.0864 1221.79 -38.7873 1207.67 -51.7166C1186.2 -71.4445 1147.92 -94.235 1110.9 -88.1684C1075.21 -82.2891 1045.07 -54.874 1030.63 -29.7558C1021.55 -13.8729 1016.33 2.7645 1012.48 19.1113C1009.32 32.7979 1006.76 46.3783 1003.98 59.4697C997.607 88.6228 989.178 117.038 967.403 141.058C963.074 145.8 958.23 150.442 952.699 154.725C925.217 176.066 887.475 189.255 850.281 189.699C823.04 189.965 795.966 185.122 768.507 180.54C767.477 180.338 766.533 180.266 765.503 180.064C733.753 174.755 696.724 166.738 664.172 177.477C636.294 186.67 614.902 205.736 603.207 227.591C597.167 238.815 593.701 250.543 591.951 262.159C590.073 274.756 590.126 287.395 591.422 299.718C593.67 321.837 599.306 343.166 605.157 364.314C611.997 389.119 618.966 413.614 622.16 438.489C628.116 484.579 618.975 536.212 575.331 573.393C556.597 589.402 532.582 601.362 506.806 609.848C496.984 613.07 486.819 615.778 476.568 618.022C365.432 642.128 242.41 605.576 188.214 532.18" stroke="#D1B5D6" stroke-width="2" stroke-miterlimit="10"/>
<path d="M1830.11 -187.382C1813.49 -126.424 1793.9 -65.709 1757.86 -9.55043C1723.27 44.1009 1667.67 96.1051 1600.27 126.597C1550.53 149.036 1494.95 159.727 1436.86 151.616C1386.92 144.65 1342.24 123.637 1312.26 93.6597C1289.35 70.7596 1275.36 43.4594 1261.32 16.2624C1255.4 4.7202 1249.35 -6.84713 1242.78 -18.1799C1233.85 -33.5471 1223.38 -48.5458 1209.4 -61.7744C1188.25 -81.874 1149.62 -105.391 1112.25 -99.405C1076.46 -93.5557 1045.96 -65.9036 1031.63 -40.6777C1022.64 -24.6795 1017.63 -7.90224 1014.13 8.60973C1011.19 22.4386 1009.1 36.2116 1006.79 49.496C1001.63 79.083 994.493 108.396 973.51 133.552C969.357 138.547 964.56 143.417 959.206 147.954C932.392 170.407 894.127 185.263 856.539 186.405C828.893 187.369 801.458 182.79 773.852 178.289C772.823 178.088 771.751 177.99 770.851 177.814C738.829 172.563 701.79 164.321 669.009 175C640.685 184.317 618.926 203.627 607.199 225.901C601.207 237.349 597.701 249.17 596.082 261.137C594.292 273.852 594.516 286.737 596.026 299.203C598.7 321.612 604.889 343.255 611.335 364.614C618.984 389.781 626.932 414.561 631.152 439.951C638.818 486.896 631.315 539.922 587.54 578.156C568.779 594.59 544.486 606.928 518.347 615.667C508.363 618.964 498.035 621.748 487.75 624.093C375.129 648.987 249.9 611.677 195.537 536.849" stroke="#D1B5D6" stroke-width="2" stroke-miterlimit="10"/>
<path d="M1827.98 -196.966C1811.66 -135.442 1792.96 -73.8276 1757.63 -16.6883C1723.75 37.9457 1668.3 91.0399 1600.36 122.282C1550.45 145.219 1494.36 156.239 1435.64 147.778C1385.32 140.511 1340.42 118.795 1310.85 87.9131C1288.26 64.3092 1274.92 36.1525 1261.63 8.22735C1255.96 -3.58993 1250.17 -15.4323 1243.74 -27.0655C1234.99 -42.833 1224.66 -58.1291 1210.95 -71.6313C1190.08 -91.9991 1151.09 -116.242 1113.37 -110.336C1077.53 -104.62 1046.5 -76.6527 1032.43 -51.3972C1023.41 -35.3089 1018.8 -18.4701 1015.6 -1.68984C1013 12.3062 1011.3 26.1433 1009.55 39.7488C1005.42 69.8472 999.748 99.979 979.598 126.166C975.62 131.414 970.913 136.407 965.607 141.172C939.46 164.737 900.76 181.051 862.692 183.096C834.687 184.653 806.849 180.441 779.224 176.047C778.196 175.846 777.126 175.748 776.226 175.573C744.019 170.506 706.799 161.783 673.834 172.635C645.064 182.076 623.025 201.757 611.352 224.245C605.28 235.889 601.821 247.933 600.288 260.018C598.671 272.979 599.109 286.007 600.789 298.72C603.762 321.392 610.502 343.35 617.798 364.97C626.254 390.499 635.309 415.587 640.425 441.467C649.969 489.188 643.887 543.786 600.11 583.096C581.323 599.954 556.753 612.67 530.381 621.687C520.191 625.163 509.83 628.047 499.298 630.34C385.065 655.995 257.765 617.954 203.364 541.719" stroke="#D1B5D6" stroke-width="2" stroke-miterlimit="10"/>
<path d="M1825.74 -206.697C1809.58 -144.526 1791.95 -82.1925 1757.17 -23.9932C1723.93 31.4966 1668.52 85.8881 1600.34 117.828C1550.26 141.264 1493.79 152.637 1434.22 143.672C1383.52 136.104 1338.4 113.686 1309.28 81.7964C1287.06 57.3855 1274.46 28.5005 1261.77 -0.178175C1256.37 -12.2707 1250.88 -24.4915 1244.67 -36.297C1236.23 -52.4399 1226.03 -68.0336 1212.33 -81.8601C1191.61 -102.522 1152.31 -127.593 1114.36 -121.742C1078.47 -116.158 1046.92 -87.8755 1032.99 -62.6143C1024.06 -46.4101 1019.53 -29.4559 1016.81 -12.4851C1014.47 1.55042 1013.32 15.7086 1011.92 29.4821C1008.99 60.0145 1004.61 91.0432 985.292 118.261C981.531 123.658 976.957 129.007 971.698 134C946.088 158.651 907.038 176.55 868.533 179.393C840.168 181.542 811.926 177.696 784.154 173.383C783.127 173.183 782.058 173.085 781.031 172.884C748.681 167.9 711.321 158.927 678.213 169.849C648.955 179.516 626.594 199.339 614.888 222.247C608.907 234.011 605.493 246.276 604.005 258.583C602.433 271.766 603.084 284.937 604.977 297.794C608.375 320.755 615.708 342.925 623.512 364.963C632.817 390.751 642.806 416.227 648.859 442.494C660.106 491.071 655.529 547.035 611.704 587.524C592.849 604.911 568.043 617.901 541.309 627.17C531.086 630.746 520.434 633.681 509.868 636.076C394.024 662.491 264.78 623.744 210.082 546.051" stroke="#D1B5D6" stroke-width="2" stroke-miterlimit="10"/>
<path d="M1823.66 -216.368C1807.81 -153.629 1791.06 -90.3979 1756.99 -31.2192C1724.33 25.2271 1669.02 80.8099 1600.6 113.447C1550.48 137.404 1493.42 148.977 1433.18 139.766C1382.09 131.897 1336.81 108.675 1308.1 75.8829C1286.19 50.7697 1274.29 20.927 1262.29 -8.37547C1257.16 -20.7427 1251.93 -33.238 1245.85 -45.3433C1237.59 -61.8858 1227.66 -77.7515 1214.05 -91.7732C1193.78 -112.781 1153.96 -138.498 1115.66 -132.727C1079.59 -127.301 1047.63 -98.678 1033.93 -73.2834C1025.1 -56.9638 1020.79 -39.8698 1018.41 -22.734C1016.41 -8.53118 1015.65 5.69111 1014.85 19.6822C1012.95 50.7255 1010.03 82.571 991.498 110.921C987.783 116.545 983.427 122.043 978.344 127.288C953.272 153.022 913.874 172.503 874.934 176.144C846.21 178.885 817.738 175.325 789.607 171.275C788.581 171.075 787.512 170.977 786.486 170.777C753.952 165.977 716.412 156.524 683.164 167.515C653.462 177.306 630.864 197.397 618.998 220.7C612.938 232.66 609.613 245.044 608.297 257.598C606.811 270.898 607.634 284.316 609.824 297.443C613.604 320.796 621.529 343.177 630.053 365.452C640.162 391.601 651.082 417.463 658.199 444.142C671.275 493.597 668.199 550.923 624.244 592.462C605.364 610.272 580.281 623.639 553.187 633.159C542.802 636.811 532.118 639.847 521.39 642.318C404.07 669.518 272.635 630.015 217.772 550.893" stroke="#D1B5D6" stroke-width="2" stroke-miterlimit="10"/>
<path d="M1821.45 -226.07C1805.87 -162.661 1790.03 -98.6332 1756.55 -38.4997C1701.19 60.7699 1575.83 158.489 1431.88 135.806C1380.41 127.637 1334.91 103.714 1306.78 69.9414C1285.19 44.1262 1274.06 13.4542 1262.64 -16.497C1251.25 -46.5512 1238.89 -76.9088 1215.68 -101.817C1195.71 -123.195 1155.55 -149.637 1117.03 -143.92C1080.86 -138.523 1048.42 -109.688 1034.99 -84.262C1018.99 -54.3275 1018.46 -21.9269 1017.72 9.65253C1016.98 41.232 1015.42 73.7661 997.677 103.247C976.819 137.907 928.666 167.233 881.135 172.635C851.027 176.1 821.043 172.577 791.784 168.304C759.108 163.587 721.303 153.859 688.041 164.945C658.025 174.884 634.892 195.297 623.037 218.916C610.457 243.952 609.88 271.112 614.385 296.704C623.564 348.145 652.343 395.069 667.117 445.377C681.89 495.686 680.441 554.4 636.313 597.09C610.194 622.374 571.726 639.01 532.313 648.225C413.39 676.184 279.893 635.951 224.993 555.424" stroke="#D1B5D6" stroke-width="2" stroke-miterlimit="10"/>
</g>
<defs>
<clipPath id="clip0_2001_140">
<rect width="1263.15" height="1566.08" fill="white" transform="matrix(-0.344494 0.938789 -0.976616 -0.214991 1964.6 -250.947)"/>
</clipPath>
</defs>
</svg>
