<svg width="127" height="58" viewBox="0 0 127 58" fill="none" xmlns="http://www.w3.org/2000/svg">
<g filter="url(#filter0_d_115_1574)">
<path d="M19.9767 13.8503L5.51953 5.05029L8.66239 22.0217L12.4338 15.736L19.9767 13.8503Z" fill="#7906FC"/>
<path d="M5.84668 4.51318L20.3037 13.313L21.5879 14.0952L20.1289 14.4604L12.8379 16.2827L9.20117 22.3452L8.34668 23.769L8.04395 22.1362L4.90137 5.16455L4.64551 3.78271L5.84668 4.51318Z" stroke="white" stroke-width="1.25714"/>
</g>
<g filter="url(#filter1_d_115_1574)">
<rect width="73.0571" height="22.0286" transform="translate(21.8623 27.6787)" fill="#7906FC"/>
<path d="M31.959 34.1357H33.1768V41.325C33.1768 41.9667 33.059 42.5118 32.8233 42.9603C32.5875 43.4088 32.2552 43.7493 31.8264 43.9817C31.3975 44.2142 30.8917 44.3304 30.309 44.3304C29.759 44.3304 29.2695 44.2305 28.8407 44.0308C28.4118 43.8278 28.0746 43.5397 27.8291 43.1665C27.5835 42.7933 27.4608 42.3497 27.4608 41.8357H28.659C28.659 42.1205 28.7294 42.3694 28.8701 42.5822C29.0142 42.7917 29.2106 42.9554 29.4594 43.0732C29.7082 43.1911 29.9914 43.25 30.309 43.25C30.6593 43.25 30.9572 43.1764 31.2027 43.029C31.4483 42.8817 31.6349 42.6656 31.7625 42.3808C31.8935 42.0927 31.959 41.7408 31.959 41.325V34.1357ZM38.5937 44.35C37.9128 44.35 37.3153 44.188 36.8013 43.8639C36.2906 43.5397 35.8912 43.0863 35.6031 42.5036C35.3183 41.9208 35.1759 41.2399 35.1759 40.4607C35.1759 39.675 35.3183 38.9892 35.6031 38.4031C35.8912 37.8171 36.2906 37.3621 36.8013 37.038C37.3153 36.7139 37.9128 36.5518 38.5937 36.5518C39.2747 36.5518 39.8705 36.7139 40.3812 37.038C40.8952 37.3621 41.2946 37.8171 41.5795 38.4031C41.8675 38.9892 42.0116 39.675 42.0116 40.4607C42.0116 41.2399 41.8675 41.9208 41.5795 42.5036C41.2946 43.0863 40.8952 43.5397 40.3812 43.8639C39.8705 44.188 39.2747 44.35 38.5937 44.35ZM38.5937 43.3089C39.111 43.3089 39.5366 43.1764 39.8705 42.9112C40.2045 42.646 40.4516 42.2973 40.612 41.8652C40.7725 41.433 40.8527 40.9649 40.8527 40.4607C40.8527 39.9566 40.7725 39.4868 40.612 39.0514C40.4516 38.6159 40.2045 38.264 39.8705 37.9955C39.5366 37.7271 39.111 37.5929 38.5937 37.5929C38.0765 37.5929 37.6509 37.7271 37.317 37.9955C36.983 38.264 36.7359 38.6159 36.5754 39.0514C36.415 39.4868 36.3348 39.9566 36.3348 40.4607C36.3348 40.9649 36.415 41.433 36.5754 41.8652C36.7359 42.2973 36.983 42.646 37.317 42.9112C37.6509 43.1764 38.0765 43.3089 38.5937 43.3089ZM45.0088 39.6554V44.1929H43.8498V34.1357H45.0088V37.8286H45.107C45.2838 37.439 45.5489 37.1296 45.9025 36.9005C46.2593 36.668 46.734 36.5518 47.3266 36.5518C47.8406 36.5518 48.2907 36.6549 48.6771 36.8612C49.0634 37.0642 49.3629 37.3768 49.5757 37.7991C49.7918 38.2182 49.8998 38.7518 49.8998 39.4V44.1929H48.7409V39.4786C48.7409 38.8795 48.5854 38.4162 48.2744 38.0889C47.9666 37.7582 47.5394 37.5929 46.9927 37.5929C46.6129 37.5929 46.2724 37.6731 45.9713 37.8335C45.6733 37.9939 45.4376 38.228 45.2641 38.5357C45.0939 38.8435 45.0088 39.2167 45.0088 39.6554ZM53.2481 39.6554V44.1929H52.0892V36.65H53.2088V37.8286H53.307C53.4838 37.4456 53.7523 37.1378 54.1124 36.9054C54.4725 36.6697 54.9374 36.5518 55.507 36.5518C56.0177 36.5518 56.4646 36.6566 56.8476 36.8661C57.2307 37.0723 57.5286 37.3866 57.7414 37.8089C57.9542 38.228 58.0606 38.7583 58.0606 39.4V44.1929H56.9017V39.4786C56.9017 38.886 56.7478 38.4244 56.4401 38.0938C56.1323 37.7598 55.71 37.5929 55.1731 37.5929C54.8032 37.5929 54.4725 37.6731 54.1811 37.8335C53.893 37.9939 53.6655 38.228 53.4985 38.5357C53.3316 38.8435 53.2481 39.2167 53.2481 39.6554ZM67.4666 44.1929H64.3631V34.1357H67.6041C68.5797 34.1357 69.4145 34.3371 70.1086 34.7397C70.8026 35.1392 71.3346 35.7137 71.7046 36.4634C72.0745 37.2098 72.2595 38.1036 72.2595 39.1447C72.2595 40.1923 72.0729 41.0942 71.6997 41.8505C71.3264 42.6034 70.783 43.1829 70.0693 43.5889C69.3556 43.9915 68.4881 44.1929 67.4666 44.1929ZM65.5809 43.1125H67.3881C68.2196 43.1125 68.9087 42.9521 69.4555 42.6313C70.0022 42.3104 70.4098 41.8537 70.6782 41.2612C70.9467 40.6686 71.0809 39.9631 71.0809 39.1447C71.0809 38.3328 70.9483 37.6338 70.6831 37.0478C70.418 36.4585 70.0218 36.0067 69.4947 35.6924C68.9677 35.3749 68.3113 35.2161 67.5256 35.2161H65.5809V43.1125ZM77.2786 44.35C76.5977 44.35 76.0002 44.188 75.4862 43.8639C74.9755 43.5397 74.5761 43.0863 74.288 42.5036C74.0032 41.9208 73.8608 41.2399 73.8608 40.4607C73.8608 39.675 74.0032 38.9892 74.288 38.4031C74.5761 37.8171 74.9755 37.3621 75.4862 37.038C76.0002 36.7139 76.5977 36.5518 77.2786 36.5518C77.9596 36.5518 78.5554 36.7139 79.0661 37.038C79.5801 37.3621 79.9795 37.8171 80.2643 38.4031C80.5524 38.9892 80.6965 39.675 80.6965 40.4607C80.6965 41.2399 80.5524 41.9208 80.2643 42.5036C79.9795 43.0863 79.5801 43.5397 79.0661 43.8639C78.5554 44.188 77.9596 44.35 77.2786 44.35ZM77.2786 43.3089C77.7959 43.3089 78.2215 43.1764 78.5554 42.9112C78.8893 42.646 79.1365 42.2973 79.2969 41.8652C79.4573 41.433 79.5376 40.9649 79.5376 40.4607C79.5376 39.9566 79.4573 39.4868 79.2969 39.0514C79.1365 38.6159 78.8893 38.264 78.5554 37.9955C78.2215 37.7271 77.7959 37.5929 77.2786 37.5929C76.7614 37.5929 76.3358 37.7271 76.0018 37.9955C75.6679 38.264 75.4207 38.6159 75.2603 39.0514C75.0999 39.4868 75.0197 39.9566 75.0197 40.4607C75.0197 40.9649 75.0999 41.433 75.2603 41.8652C75.4207 42.2973 75.6679 42.646 76.0018 42.9112C76.3358 43.1764 76.7614 43.3089 77.2786 43.3089ZM85.6972 44.35C84.9704 44.35 84.3435 44.1896 83.8164 43.8688C83.2926 43.5447 82.8883 43.0929 82.6035 42.5134C82.3219 41.9307 82.1811 41.253 82.1811 40.4804C82.1811 39.7078 82.3219 39.0268 82.6035 38.4375C82.8883 37.845 83.2844 37.3833 83.7919 37.0527C84.3026 36.7188 84.8984 36.5518 85.5794 36.5518C85.9722 36.5518 86.3602 36.6173 86.7432 36.7482C87.1262 36.8792 87.4749 37.092 87.7892 37.3866C88.1035 37.678 88.3539 38.0643 88.5405 38.5456C88.7271 39.0268 88.8204 39.6194 88.8204 40.3232V40.8143H83.0061V39.8125H87.6419C87.6419 39.3869 87.5567 39.0072 87.3865 38.6732C87.2195 38.3393 86.9805 38.0758 86.6695 37.8826C86.3618 37.6894 85.9984 37.5929 85.5794 37.5929C85.1177 37.5929 84.7183 37.7075 84.3811 37.9366C84.0472 38.1625 83.7902 38.4572 83.6102 38.8205C83.4301 39.1839 83.3401 39.5735 83.3401 39.9893V40.6572C83.3401 41.2268 83.4383 41.7097 83.6347 42.1058C83.8344 42.4987 84.111 42.7982 84.4646 43.0045C84.8182 43.2075 85.2291 43.3089 85.6972 43.3089C86.0017 43.3089 86.2767 43.2664 86.5222 43.1813C86.771 43.0929 86.9855 42.9619 87.1655 42.7884C87.3456 42.6116 87.4847 42.3923 87.5829 42.1304L88.7026 42.4447C88.5847 42.8244 88.3866 43.1583 88.1084 43.4464C87.8301 43.7313 87.4863 43.9539 87.0771 44.1143C86.6679 44.2714 86.2079 44.35 85.6972 44.35Z" fill="white"/>
</g>
<defs>
<filter id="filter0_d_115_1574" x="5.60284e-05" y="0.000362873" width="26.9711" height="30.5453" filterUnits="userSpaceOnUse" color-interpolation-filters="sRGB">
<feFlood flood-opacity="0" result="BackgroundImageFix"/>
<feColorMatrix in="SourceAlpha" type="matrix" values="0 0 0 0 0 0 0 0 0 0 0 0 0 0 0 0 0 0 127 0" result="hardAlpha"/>
<feOffset dy="1.25714"/>
<feGaussianBlur stdDeviation="1.88571"/>
<feColorMatrix type="matrix" values="0 0 0 0 0 0 0 0 0 0 0 0 0 0 0 0 0 0 0.4 0"/>
<feBlend mode="normal" in2="BackgroundImageFix" result="effect1_dropShadow_115_1574"/>
<feBlend mode="normal" in="SourceGraphic" in2="effect1_dropShadow_115_1574" result="shape"/>
</filter>
<filter id="filter1_d_115_1574" x="16.8337" y="25.1644" width="83.1143" height="32.086" filterUnits="userSpaceOnUse" color-interpolation-filters="sRGB">
<feFlood flood-opacity="0" result="BackgroundImageFix"/>
<feColorMatrix in="SourceAlpha" type="matrix" values="0 0 0 0 0 0 0 0 0 0 0 0 0 0 0 0 0 0 127 0" result="hardAlpha"/>
<feOffset dy="2.51429"/>
<feGaussianBlur stdDeviation="2.51429"/>
<feColorMatrix type="matrix" values="0 0 0 0 0 0 0 0 0 0 0 0 0 0 0 0 0 0 0.12 0"/>
<feBlend mode="normal" in2="BackgroundImageFix" result="effect1_dropShadow_115_1574"/>
<feBlend mode="normal" in="SourceGraphic" in2="effect1_dropShadow_115_1574" result="shape"/>
</filter>
</defs>
</svg>
