<svg width="1440" height="1341" viewBox="0 0 1440 1341" fill="none" xmlns="http://www.w3.org/2000/svg">
<g clip-path="url(#clip0_1359_4731)">
<mask id="mask0_1359_4731" style="mask-type:alpha" maskUnits="userSpaceOnUse" x="381" y="-69" width="1382" height="1024">
<rect width="1381.39" height="1024" transform="matrix(-1 0 0 1 1762.39 -69)" fill="url(#paint0_radial_1359_4731)"/>
</mask>
<g mask="url(#mask0_1359_4731)">
<g opacity="0.7">
<mask id="mask1_1359_4731" style="mask-type:alpha" maskUnits="userSpaceOnUse" x="143" y="140" width="1893" height="853">
<rect width="1892.35" height="853" transform="matrix(-1 0 0 1 2035.69 140)" fill="url(#paint1_radial_1359_4731)"/>
</mask>
<g mask="url(#mask1_1359_4731)">
<rect width="1892.35" height="853" transform="matrix(-1 0 0 1 2035.69 140)" fill="url(#paint2_radial_1359_4731)"/>
</g>
</g>
<rect x="1524.76" y="895.366" width="150.812" height="150.812" transform="rotate(180 1524.76 895.366)" stroke="#5582EE" stroke-width="1.26733"/>
<rect x="1373.95" y="895.366" width="150.812" height="150.812" transform="rotate(180 1373.95 895.366)" stroke="#5582EE" stroke-width="1.26733"/>
<rect x="1223.14" y="895.366" width="150.812" height="150.812" transform="rotate(180 1223.14 895.366)" stroke="#5582EE" stroke-width="1.26733"/>
<rect x="1072.33" y="895.366" width="150.812" height="150.812" transform="rotate(180 1072.33 895.366)" stroke="#5582EE" stroke-width="1.26733"/>
<rect x="1524.76" y="744.554" width="150.812" height="150.812" transform="rotate(180 1524.76 744.554)" fill="#5582EE" fill-opacity="0.2" stroke="#5582EE" stroke-width="1.26733"/>
<rect x="1373.95" y="744.554" width="150.812" height="150.812" transform="rotate(180 1373.95 744.554)" stroke="#5582EE" stroke-width="1.26733"/>
<rect x="1223.14" y="744.554" width="150.812" height="150.812" transform="rotate(180 1223.14 744.554)" stroke="#5582EE" stroke-width="1.26733"/>
<rect x="1072.33" y="744.554" width="150.812" height="150.812" transform="rotate(180 1072.33 744.554)" stroke="#5582EE" stroke-width="1.26733"/>
<rect x="1524.76" y="593.743" width="150.812" height="150.812" transform="rotate(180 1524.76 593.743)" stroke="#5582EE" stroke-width="1.26733"/>
<rect x="1373.95" y="593.743" width="150.812" height="150.812" transform="rotate(180 1373.95 593.743)" stroke="#5582EE" stroke-width="1.26733"/>
<rect x="1223.14" y="593.743" width="150.812" height="150.812" transform="rotate(180 1223.14 593.743)" fill="#5582EE" fill-opacity="0.2" stroke="#5582EE" stroke-width="1.26733"/>
<rect x="1072.33" y="593.743" width="150.812" height="150.812" transform="rotate(180 1072.33 593.743)" stroke="#5582EE" stroke-width="1.26733"/>
<rect x="1524.76" y="442.931" width="150.812" height="150.812" transform="rotate(180 1524.76 442.931)" stroke="#5582EE" stroke-width="1.26733"/>
<rect x="1373.95" y="442.931" width="150.812" height="150.812" transform="rotate(180 1373.95 442.931)" fill="#5582EE" fill-opacity="0.2" stroke="#5582EE" stroke-width="1.26733"/>
<rect x="1223.14" y="442.931" width="150.812" height="150.812" transform="rotate(180 1223.14 442.931)" stroke="#5582EE" stroke-width="1.26733"/>
<rect x="1072.33" y="442.931" width="150.812" height="150.812" transform="rotate(180 1072.33 442.931)" fill="#5582EE" fill-opacity="0.2" stroke="#5582EE" stroke-width="1.26733"/>
<rect x="1524.76" y="292.118" width="150.812" height="150.812" transform="rotate(180 1524.76 292.118)" stroke="#5582EE" stroke-width="1.26733"/>
<rect x="1373.95" y="292.118" width="150.812" height="150.812" transform="rotate(180 1373.95 292.118)" fill="#5582EE" fill-opacity="0.2" stroke="#5582EE" stroke-width="1.26733"/>
<rect x="1223.14" y="292.118" width="150.812" height="150.812" transform="rotate(180 1223.14 292.118)" stroke="#5582EE" stroke-width="1.26733"/>
<rect x="1072.33" y="292.118" width="150.812" height="150.812" transform="rotate(180 1072.33 292.118)" stroke="#5582EE" stroke-width="1.26733"/>
<rect x="1524.76" y="141.308" width="150.812" height="150.812" transform="rotate(180 1524.76 141.308)" stroke="#5582EE" stroke-width="1.26733"/>
<rect x="1373.95" y="141.308" width="150.812" height="150.812" transform="rotate(180 1373.95 141.308)" stroke="#5582EE" stroke-width="1.26733"/>
<rect x="1223.14" y="141.308" width="150.812" height="150.812" transform="rotate(180 1223.14 141.308)" stroke="#5582EE" stroke-width="1.26733"/>
<rect x="1072.33" y="141.308" width="150.812" height="150.812" transform="rotate(180 1072.33 141.308)" stroke="#5582EE" stroke-width="1.26733"/>
</g>
</g>
<g clip-path="url(#clip1_1359_4731)">
<mask id="mask2_1359_4731" style="mask-type:alpha" maskUnits="userSpaceOnUse" x="-692" y="-69" width="1382" height="1024">
<rect width="1381.39" height="1024" transform="matrix(-1 0 0 1 689.387 -69)" fill="url(#paint3_radial_1359_4731)"/>
</mask>
<g mask="url(#mask2_1359_4731)">
<g opacity="0.7">
<mask id="mask3_1359_4731" style="mask-type:alpha" maskUnits="userSpaceOnUse" x="-930" y="140" width="1893" height="853">
<rect width="1892.35" height="853" transform="matrix(-1 0 0 1 962.693 140)" fill="url(#paint4_radial_1359_4731)"/>
</mask>
<g mask="url(#mask3_1359_4731)">
<rect width="1892.35" height="853" transform="matrix(-1 0 0 1 962.693 140)" fill="url(#paint5_radial_1359_4731)"/>
</g>
</g>
<rect x="602.575" y="895.366" width="150.812" height="150.812" transform="rotate(180 602.575 895.366)" stroke="#5582EE" stroke-width="1.26733"/>
<rect x="451.763" y="895.366" width="150.812" height="150.812" transform="rotate(180 451.763 895.366)" stroke="#5582EE" stroke-width="1.26733"/>
<rect x="300.951" y="895.366" width="150.812" height="150.812" transform="rotate(180 300.951 895.366)" stroke="#5582EE" stroke-width="1.26733"/>
<rect x="150.14" y="895.366" width="150.812" height="150.812" transform="rotate(180 150.14 895.366)" stroke="#5582EE" stroke-width="1.26733"/>
<rect x="602.575" y="744.554" width="150.812" height="150.812" transform="rotate(180 602.575 744.554)" stroke="#5582EE" stroke-width="1.26733"/>
<rect x="451.763" y="744.554" width="150.812" height="150.812" transform="rotate(180 451.763 744.554)" fill="#5582EE" fill-opacity="0.2" stroke="#5582EE" stroke-width="1.26733"/>
<rect x="300.951" y="744.554" width="150.812" height="150.812" transform="rotate(180 300.951 744.554)" stroke="#5582EE" stroke-width="1.26733"/>
<rect x="150.14" y="744.554" width="150.812" height="150.812" transform="rotate(180 150.14 744.554)" stroke="#5582EE" stroke-width="1.26733"/>
<rect x="602.575" y="593.743" width="150.812" height="150.812" transform="rotate(180 602.575 593.743)" stroke="#5582EE" stroke-width="1.26733"/>
<rect x="451.763" y="593.743" width="150.812" height="150.812" transform="rotate(180 451.763 593.743)" stroke="#5582EE" stroke-width="1.26733"/>
<rect x="300.951" y="593.743" width="150.812" height="150.812" transform="rotate(180 300.951 593.743)" stroke="#5582EE" stroke-width="1.26733"/>
<rect x="150.14" y="593.743" width="150.812" height="150.812" transform="rotate(180 150.14 593.743)" fill="#5582EE" fill-opacity="0.2" stroke="#5582EE" stroke-width="1.26733"/>
<rect x="602.575" y="442.931" width="150.812" height="150.812" transform="rotate(180 602.575 442.931)" stroke="#5582EE" stroke-width="1.26733"/>
<rect x="451.763" y="442.931" width="150.812" height="150.812" transform="rotate(180 451.763 442.931)" stroke="#5582EE" stroke-width="1.26733"/>
<rect x="300.951" y="442.931" width="150.812" height="150.812" transform="rotate(180 300.951 442.931)" fill="#5582EE" fill-opacity="0.2" stroke="#5582EE" stroke-width="1.26733"/>
<rect x="150.14" y="442.931" width="150.812" height="150.812" transform="rotate(180 150.14 442.931)" stroke="#5582EE" stroke-width="1.26733"/>
<rect x="602.575" y="292.118" width="150.812" height="150.812" transform="rotate(180 602.575 292.118)" stroke="#5582EE" stroke-width="1.26733"/>
<rect x="451.763" y="292.118" width="150.812" height="150.812" transform="rotate(180 451.763 292.118)" stroke="#5582EE" stroke-width="1.26733"/>
<rect x="300.951" y="292.118" width="150.812" height="150.812" transform="rotate(180 300.951 292.118)" fill="#5582EE" fill-opacity="0.2" stroke="#5582EE" stroke-width="1.26733"/>
<rect x="150.14" y="292.118" width="150.812" height="150.812" transform="rotate(180 150.14 292.118)" stroke="#5582EE" stroke-width="1.26733"/>
<rect x="602.575" y="141.308" width="150.812" height="150.812" transform="rotate(180 602.575 141.308)" stroke="#5582EE" stroke-width="1.26733"/>
<rect x="451.763" y="141.308" width="150.812" height="150.812" transform="rotate(180 451.763 141.308)" stroke="#5582EE" stroke-width="1.26733"/>
<rect x="300.951" y="141.308" width="150.812" height="150.812" transform="rotate(180 300.951 141.308)" stroke="#5582EE" stroke-width="1.26733"/>
<rect x="150.14" y="141.308" width="150.812" height="150.812" transform="rotate(180 150.14 141.308)" stroke="#5582EE" stroke-width="1.26733"/>
</g>
</g>
<defs>
<radialGradient id="paint0_radial_1359_4731" cx="0" cy="0" r="1" gradientUnits="userSpaceOnUse" gradientTransform="translate(523.5 362) rotate(118.999) scale(300.127 404.875)">
<stop stop-color="#5582EE" stop-opacity="0.2"/>
<stop offset="0.475962" stop-color="#DBFF75" stop-opacity="0"/>
</radialGradient>
<radialGradient id="paint1_radial_1359_4731" cx="0" cy="0" r="1" gradientTransform="matrix(946.175 426.5 -946.175 426.5 946.175 426.5)" gradientUnits="userSpaceOnUse">
<stop stop-color="white"/>
<stop offset="1" stop-opacity="0"/>
</radialGradient>
<radialGradient id="paint2_radial_1359_4731" cx="0" cy="0" r="1" gradientTransform="matrix(1919.82 368.956 -818.517 5238.3 -125.139 289.411)" gradientUnits="userSpaceOnUse">
<stop stop-color="#5582EE"/>
<stop offset="0.46875" stop-color="#A3BEFF"/>
<stop offset="1" stop-color="#2563EB"/>
</radialGradient>
<radialGradient id="paint3_radial_1359_4731" cx="0" cy="0" r="1" gradientUnits="userSpaceOnUse" gradientTransform="translate(483.5 500.5) rotate(65.788) scale(505.208 681.531)">
<stop stop-color="#5582EE" stop-opacity="0.2"/>
<stop offset="0.475962" stop-color="#DBFF75" stop-opacity="0"/>
</radialGradient>
<radialGradient id="paint4_radial_1359_4731" cx="0" cy="0" r="1" gradientTransform="matrix(946.175 426.5 -946.175 426.5 946.175 426.5)" gradientUnits="userSpaceOnUse">
<stop stop-color="white"/>
<stop offset="1" stop-opacity="0"/>
</radialGradient>
<radialGradient id="paint5_radial_1359_4731" cx="0" cy="0" r="1" gradientTransform="matrix(1919.82 368.956 -818.517 5238.3 -125.139 289.411)" gradientUnits="userSpaceOnUse">
<stop stop-color="#5582EE"/>
<stop offset="0.46875" stop-color="#A3BEFF"/>
<stop offset="1" stop-color="#2563EB"/>
</radialGradient>
<clipPath id="clip0_1359_4731">
<rect width="495" height="860" fill="white" transform="matrix(-1 0 0 1 1440 66)"/>
</clipPath>
<clipPath id="clip1_1359_4731">
<rect width="495" height="860" fill="white" transform="matrix(-1 0 0 1 495 66)"/>
</clipPath>
</defs>
</svg>
