<svg width="631" height="430" viewBox="0 0 631 430" fill="none" xmlns="http://www.w3.org/2000/svg">
<g opacity="0.2" filter="url(#filter0_f_421_520)">
<rect x="85.4352" y="61.0293" width="463.481" height="272.022" fill="url(#paint0_linear_421_520)"/>
</g>
<g filter="url(#filter1_d_421_520)">
<rect x="53.4513" y="19.1802" width="523.594" height="319.974" rx="8.71846" fill="white"/>
<rect x="53.8872" y="19.6161" width="522.722" height="319.102" rx="8.28254" stroke="#E4E4E7" stroke-width="0.871846"/>
</g>
<rect x="81.7794" y="115.004" width="249.342" height="94.578" rx="9.01392" fill="#F5F5F5"/>
<rect x="81.7794" y="236.809" width="212.084" height="15.763" rx="7.8815" fill="#F5F5F5"/>
<rect x="81.7794" y="269.768" width="159.063" height="15.763" rx="7.8815" fill="#F5F5F5"/>
<path d="M85.1273 85.3504C84.6158 85.3504 84.1427 85.2577 83.7079 85.0723C83.2796 84.8869 82.9024 84.628 82.5763 84.2955C82.2566 83.963 82.0073 83.573 81.8282 83.1255C81.6492 82.6779 81.5597 82.1888 81.5597 81.6582C81.5597 81.1275 81.646 80.6384 81.8187 80.1909C81.9977 79.7369 82.247 79.3469 82.5667 79.0208C82.8928 78.6884 83.2732 78.4326 83.7079 78.2536C84.1427 78.0682 84.6158 77.9755 85.1273 77.9755C85.6388 77.9755 86.0959 78.0618 86.4987 78.2344C86.9079 78.4071 87.2532 78.6372 87.5345 78.9249C87.8158 79.2062 88.0172 79.5163 88.1387 79.8552L86.9686 80.4018C86.8344 80.0438 86.6074 79.7497 86.2877 79.5195C85.9681 79.283 85.5813 79.1647 85.1273 79.1647C84.6798 79.1647 84.2834 79.2702 83.9381 79.4812C83.5993 79.6922 83.3339 79.9831 83.1421 80.3539C82.9567 80.7247 82.864 81.1595 82.864 81.6582C82.864 82.1569 82.9567 82.5948 83.1421 82.972C83.3339 83.3429 83.5993 83.6338 83.9381 83.8448C84.2834 84.0557 84.6798 84.1612 85.1273 84.1612C85.5813 84.1612 85.9681 84.0462 86.2877 83.816C86.6074 83.5794 86.8344 83.2821 86.9686 82.9241L88.1387 83.4707C88.0172 83.8096 87.8158 84.1229 87.5345 84.4106C87.2532 84.6919 86.9079 84.9189 86.4987 85.0915C86.0959 85.2641 85.6388 85.3504 85.1273 85.3504ZM93.5891 85.3504C93.0648 85.3504 92.5757 85.2577 92.1217 85.0723C91.6678 84.8869 91.2714 84.628 90.9325 84.2955C90.5937 83.963 90.3284 83.573 90.1365 83.1255C89.9511 82.6715 89.8584 82.1824 89.8584 81.6582C89.8584 81.1275 89.9511 80.6384 90.1365 80.1909C90.322 79.7433 90.5841 79.3533 90.923 79.0208C91.2618 78.6884 91.6582 78.4326 92.1122 78.2536C92.5661 78.0682 93.0584 77.9755 93.5891 77.9755C94.1197 77.9755 94.612 78.0682 95.066 78.2536C95.5199 78.439 95.9163 78.698 96.2552 79.0304C96.594 79.3565 96.8562 79.7433 97.0416 80.1909C97.2334 80.6384 97.3293 81.1275 97.3293 81.6582C97.3293 82.1824 97.2334 82.6715 97.0416 83.1255C96.8498 83.573 96.5844 83.963 96.2456 84.2955C95.9067 84.628 95.5103 84.8869 95.0564 85.0723C94.6088 85.2577 94.1197 85.3504 93.5891 85.3504ZM93.5891 84.1612C93.9407 84.1612 94.2636 84.1005 94.5577 83.979C94.8518 83.8512 95.1075 83.6753 95.3249 83.4516C95.5487 83.2278 95.7181 82.9624 95.8332 82.6556C95.9547 82.3487 96.0154 82.0162 96.0154 81.6582C96.0154 81.3001 95.9547 80.9709 95.8332 80.6704C95.7181 80.3635 95.5487 80.0981 95.3249 79.8744C95.1075 79.6442 94.8518 79.4684 94.5577 79.3469C94.2636 79.2254 93.9407 79.1647 93.5891 79.1647C93.2438 79.1647 92.9241 79.2254 92.63 79.3469C92.3359 79.4684 92.077 79.6442 91.8532 79.8744C91.6358 80.0981 91.4664 80.3635 91.3449 80.6704C91.2234 80.9709 91.1627 81.3001 91.1627 81.6582C91.1627 82.0162 91.2234 82.3487 91.3449 82.6556C91.4664 82.9624 91.6358 83.2278 91.8532 83.4516C92.077 83.6753 92.3359 83.8512 92.63 83.979C92.9241 84.1005 93.2438 84.1612 93.5891 84.1612ZM102.113 85.3504C101.563 85.3504 101.074 85.2354 100.646 85.0052C100.224 84.775 99.8915 84.4585 99.6486 84.0557C99.4056 83.653 99.2842 83.1958 99.2842 82.6843V78.0906H100.588V82.6172C100.588 82.9113 100.652 83.1766 100.78 83.4132C100.915 83.6498 101.097 83.8352 101.327 83.9694C101.557 84.0973 101.819 84.1612 102.113 84.1612C102.414 84.1612 102.676 84.0973 102.9 83.9694C103.13 83.8352 103.309 83.6498 103.437 83.4132C103.571 83.1766 103.638 82.9113 103.638 82.6172V78.0906H104.942V82.6843C104.942 83.1958 104.821 83.653 104.578 84.0557C104.335 84.4585 103.999 84.775 103.571 85.0052C103.149 85.2354 102.663 85.3504 102.113 85.3504ZM107.116 85.2354V78.0906H109.773C110.259 78.0906 110.687 78.1801 111.058 78.3591C111.435 78.5317 111.729 78.7875 111.94 79.1263C112.151 79.4588 112.257 79.8648 112.257 80.3443C112.257 80.8366 112.139 81.2554 111.902 81.6006C111.672 81.9459 111.359 82.2016 110.962 82.3679L112.602 85.2354H111.125L109.37 82.0993L110.214 82.598H108.421V85.2354H107.116ZM108.421 81.4472H109.792C110.029 81.4472 110.233 81.4024 110.406 81.3129C110.578 81.217 110.713 81.0859 110.809 80.9197C110.905 80.7535 110.953 80.5617 110.953 80.3443C110.953 80.1205 110.905 79.9287 110.809 79.7689C110.713 79.6026 110.578 79.4748 110.406 79.3853C110.233 79.2894 110.029 79.2414 109.792 79.2414H108.421V81.4472ZM116.88 85.3504C116.426 85.3504 116.004 85.2673 115.614 85.1011C115.23 84.9349 114.898 84.7047 114.616 84.4106C114.341 84.1101 114.14 83.7616 114.012 83.3652L115.096 82.8953C115.269 83.3045 115.518 83.6274 115.844 83.8639C116.17 84.0941 116.538 84.2092 116.947 84.2092C117.177 84.2092 117.375 84.174 117.541 84.1037C117.714 84.027 117.845 83.9247 117.935 83.7968C118.031 83.6689 118.079 83.5155 118.079 83.3365C118.079 83.1255 118.015 82.9529 117.887 82.8186C117.765 82.6779 117.58 82.5692 117.33 82.4925L115.959 82.0514C115.403 81.8787 114.984 81.6198 114.703 81.2746C114.421 80.9293 114.281 80.5233 114.281 80.0566C114.281 79.6474 114.38 79.2862 114.578 78.9729C114.783 78.6596 115.064 78.4166 115.422 78.244C115.786 78.065 116.202 77.9755 116.669 77.9755C117.097 77.9755 117.49 78.0522 117.848 78.2057C118.206 78.3527 118.513 78.5605 118.769 78.829C119.031 79.0912 119.226 79.4012 119.354 79.7593L118.28 80.2388C118.139 79.8808 117.928 79.6058 117.647 79.414C117.366 79.2158 117.04 79.1167 116.669 79.1167C116.451 79.1167 116.26 79.1551 116.093 79.2318C115.927 79.3021 115.796 79.4044 115.7 79.5387C115.611 79.6666 115.566 79.82 115.566 79.999C115.566 80.1972 115.63 80.3731 115.758 80.5265C115.886 80.6736 116.081 80.7886 116.343 80.8718L117.657 81.2841C118.226 81.4696 118.651 81.7253 118.932 82.0514C119.22 82.3774 119.364 82.7802 119.364 83.2597C119.364 83.6689 119.258 84.0302 119.047 84.3435C118.836 84.6567 118.545 84.9029 118.174 85.0819C117.804 85.2609 117.372 85.3504 116.88 85.3504ZM121.41 85.2354V78.0906H126.157V79.2414H122.714V81.0732H125.965V82.224H122.714V84.0845H126.157V85.2354H121.41ZM130.536 85.3504C130.082 85.3504 129.66 85.2673 129.27 85.1011C128.887 84.9349 128.554 84.7047 128.273 84.4106C127.998 84.1101 127.797 83.7616 127.669 83.3652L128.753 82.8953C128.925 83.3045 129.175 83.6274 129.501 83.8639C129.827 84.0941 130.194 84.2092 130.604 84.2092C130.834 84.2092 131.032 84.174 131.198 84.1037C131.371 84.027 131.502 83.9247 131.591 83.7968C131.687 83.6689 131.735 83.5155 131.735 83.3365C131.735 83.1255 131.671 82.9529 131.543 82.8186C131.422 82.6779 131.236 82.5692 130.987 82.4925L129.616 82.0514C129.059 81.8787 128.641 81.6198 128.359 81.2746C128.078 80.9293 127.937 80.5233 127.937 80.0566C127.937 79.6474 128.036 79.2862 128.235 78.9729C128.439 78.6596 128.721 78.4166 129.079 78.244C129.443 78.065 129.859 77.9755 130.325 77.9755C130.754 77.9755 131.147 78.0522 131.505 78.2057C131.863 78.3527 132.17 78.5605 132.426 78.829C132.688 79.0912 132.883 79.4012 133.011 79.7593L131.937 80.2388C131.796 79.8808 131.585 79.6058 131.304 79.414C131.022 79.2158 130.696 79.1167 130.325 79.1167C130.108 79.1167 129.916 79.1551 129.75 79.2318C129.584 79.3021 129.453 79.4044 129.357 79.5387C129.267 79.6666 129.222 79.82 129.222 79.999C129.222 80.1972 129.286 80.3731 129.414 80.5265C129.542 80.6736 129.737 80.7886 129.999 80.8718L131.313 81.2841C131.882 81.4696 132.307 81.7253 132.589 82.0514C132.876 82.3774 133.02 82.7802 133.02 83.2597C133.02 83.6689 132.915 84.0302 132.704 84.3435C132.493 84.6567 132.202 84.9029 131.831 85.0819C131.46 85.2609 131.029 85.3504 130.536 85.3504Z" fill="#3F3F46"/>
<ellipse cx="70.6232" cy="34.8734" rx="4.35602" ry="4.35923" fill="#FF4444"/>
<ellipse cx="85.4332" cy="34.8734" rx="4.35602" ry="4.35923" fill="#FDB241"/>
<ellipse cx="100.245" cy="34.8734" rx="4.35602" ry="4.35923" fill="#65D81F"/>
<line x1="54.0718" y1="49.2589" x2="577.666" y2="49.2589" stroke="#F4F4F5" stroke-width="0.871846"/>
<g filter="url(#filter2_d_421_520)">
<path d="M441.908 233.98L427.451 225.18L430.594 242.152L434.366 235.866L441.908 233.98Z" fill="#1794EF"/>
<path d="M427.778 224.643L442.235 233.443L443.52 234.225L442.061 234.59L434.77 236.413L431.133 242.475L430.278 243.899L429.976 242.266L426.833 225.294L426.577 223.913L427.778 224.643Z" stroke="white" stroke-width="1.25714"/>
</g>
<g filter="url(#filter3_d_421_520)">
<rect width="104.057" height="22.0286" transform="translate(443.794 247.809)" fill="#1794EF"/>
<path d="M450.041 264.323V254.266H453.439C454.228 254.266 454.873 254.408 455.374 254.693C455.878 254.974 456.251 255.356 456.494 255.837C456.736 256.318 456.857 256.855 456.857 257.448C456.857 258.04 456.736 258.579 456.494 259.063C456.255 259.548 455.885 259.934 455.384 260.222C454.883 260.507 454.241 260.65 453.459 260.65H451.023V259.569H453.419C453.96 259.569 454.393 259.476 454.721 259.289C455.048 259.103 455.285 258.851 455.433 258.533C455.583 258.212 455.659 257.85 455.659 257.448C455.659 257.045 455.583 256.685 455.433 256.367C455.285 256.05 455.047 255.801 454.716 255.621C454.385 255.438 453.947 255.346 453.4 255.346H451.259V264.323H450.041ZM459.89 259.785V264.323H458.731V254.266H459.89V257.958H459.988C460.165 257.569 460.43 257.26 460.783 257.03C461.14 256.798 461.615 256.682 462.208 256.682C462.722 256.682 463.172 256.785 463.558 256.991C463.944 257.194 464.244 257.507 464.457 257.929C464.673 258.348 464.781 258.882 464.781 259.53V264.323H463.622V259.608C463.622 259.009 463.466 258.546 463.155 258.219C462.848 257.888 462.42 257.723 461.874 257.723C461.494 257.723 461.153 257.803 460.852 257.963C460.554 258.124 460.319 258.358 460.145 258.666C459.975 258.973 459.89 259.347 459.89 259.785ZM470.034 264.48C469.353 264.48 468.756 264.318 468.242 263.994C467.731 263.67 467.332 263.216 467.044 262.633C466.759 262.051 466.617 261.37 466.617 260.591C466.617 259.805 466.759 259.119 467.044 258.533C467.332 257.947 467.731 257.492 468.242 257.168C468.756 256.844 469.353 256.682 470.034 256.682C470.715 256.682 471.311 256.844 471.822 257.168C472.336 257.492 472.735 257.947 473.02 258.533C473.308 259.119 473.452 259.805 473.452 260.591C473.452 261.37 473.308 262.051 473.02 262.633C472.735 263.216 472.336 263.67 471.822 263.994C471.311 264.318 470.715 264.48 470.034 264.48ZM470.034 263.439C470.552 263.439 470.977 263.306 471.311 263.041C471.645 262.776 471.892 262.427 472.053 261.995C472.213 261.563 472.293 261.095 472.293 260.591C472.293 260.086 472.213 259.617 472.053 259.181C471.892 258.746 471.645 258.394 471.311 258.125C470.977 257.857 470.552 257.723 470.034 257.723C469.517 257.723 469.092 257.857 468.758 258.125C468.424 258.394 468.176 258.746 468.016 259.181C467.856 259.617 467.775 260.086 467.775 260.591C467.775 261.095 467.856 261.563 468.016 261.995C468.176 262.427 468.424 262.776 468.758 263.041C469.092 263.306 469.517 263.439 470.034 263.439ZM478.453 264.48C477.726 264.48 477.099 264.319 476.572 263.999C476.048 263.675 475.644 263.223 475.359 262.643C475.078 262.061 474.937 261.383 474.937 260.61C474.937 259.838 475.078 259.157 475.359 258.567C475.644 257.975 476.04 257.513 476.548 257.183C477.058 256.849 477.654 256.682 478.335 256.682C478.728 256.682 479.116 256.747 479.499 256.878C479.882 257.009 480.231 257.222 480.545 257.517C480.859 257.808 481.11 258.194 481.296 258.675C481.483 259.157 481.576 259.749 481.576 260.453V260.944H475.762V259.942H480.398C480.398 259.517 480.312 259.137 480.142 258.803C479.975 258.469 479.736 258.206 479.425 258.012C479.118 257.819 478.754 257.723 478.335 257.723C477.874 257.723 477.474 257.837 477.137 258.067C476.803 258.292 476.546 258.587 476.366 258.95C476.186 259.314 476.096 259.703 476.096 260.119V260.787C476.096 261.357 476.194 261.84 476.39 262.236C476.59 262.629 476.867 262.928 477.22 263.134C477.574 263.337 477.985 263.439 478.453 263.439C478.757 263.439 479.032 263.396 479.278 263.311C479.527 263.223 479.741 263.092 479.921 262.918C480.101 262.742 480.24 262.522 480.339 262.26L481.458 262.575C481.34 262.954 481.142 263.288 480.864 263.576C480.586 263.861 480.242 264.084 479.833 264.244C479.424 264.401 478.964 264.48 478.453 264.48ZM484.567 259.785V264.323H483.408V256.78H484.528V257.958H484.626C484.803 257.575 485.071 257.268 485.431 257.035C485.792 256.8 486.256 256.682 486.826 256.682C487.337 256.682 487.784 256.786 488.167 256.996C488.55 257.202 488.848 257.517 489.061 257.939C489.273 258.358 489.38 258.888 489.38 259.53V264.323H488.221V259.608C488.221 259.016 488.067 258.554 487.759 258.224C487.451 257.89 487.029 257.723 486.492 257.723C486.122 257.723 485.792 257.803 485.5 257.963C485.212 258.124 484.985 258.358 484.818 258.666C484.651 258.973 484.567 259.347 484.567 259.785ZM491.567 264.323V256.78H492.726V264.323H491.567ZM492.156 255.523C491.93 255.523 491.735 255.446 491.571 255.292C491.411 255.138 491.331 254.953 491.331 254.737C491.331 254.521 491.411 254.336 491.571 254.182C491.735 254.028 491.93 253.951 492.156 253.951C492.382 253.951 492.575 254.028 492.735 254.182C492.899 254.336 492.981 254.521 492.981 254.737C492.981 254.953 492.899 255.138 492.735 255.292C492.575 255.446 492.382 255.523 492.156 255.523ZM495.782 256.78L497.589 259.864L499.396 256.78H500.732L498.296 260.551L500.732 264.323H499.396L497.589 261.396L495.782 264.323H494.446L496.842 260.551L494.446 256.78H495.782ZM506.57 264.323V254.266H510.086C510.787 254.266 511.364 254.387 511.82 254.629C512.275 254.868 512.613 255.19 512.836 255.596C513.059 255.999 513.17 256.446 513.17 256.937C513.17 257.369 513.093 257.726 512.939 258.008C512.789 258.289 512.589 258.512 512.34 258.675C512.095 258.839 511.828 258.96 511.54 259.039V259.137C511.847 259.157 512.157 259.265 512.468 259.461C512.779 259.658 513.039 259.939 513.249 260.306C513.458 260.672 513.563 261.121 513.563 261.651C513.563 262.155 513.448 262.609 513.219 263.012C512.99 263.414 512.628 263.733 512.134 263.969C511.639 264.205 510.996 264.323 510.204 264.323H506.57ZM507.788 263.242H510.204C510.999 263.242 511.564 263.089 511.898 262.781C512.235 262.47 512.404 262.093 512.404 261.651C512.404 261.311 512.317 260.997 512.144 260.708C511.97 260.417 511.723 260.185 511.402 260.011C511.081 259.834 510.702 259.746 510.263 259.746H507.788V263.242ZM507.788 258.685H510.047C510.413 258.685 510.744 258.613 511.039 258.469C511.337 258.325 511.572 258.122 511.746 257.86C511.923 257.598 512.011 257.291 512.011 256.937C512.011 256.495 511.857 256.12 511.549 255.812C511.242 255.501 510.754 255.346 510.086 255.346H507.788V258.685ZM517.696 264.5C517.218 264.5 516.784 264.41 516.394 264.229C516.005 264.046 515.695 263.783 515.466 263.439C515.237 263.092 515.122 262.673 515.122 262.182C515.122 261.75 515.208 261.399 515.378 261.131C515.548 260.859 515.776 260.646 516.06 260.492C516.345 260.339 516.659 260.224 517.003 260.149C517.35 260.07 517.699 260.008 518.049 259.962C518.508 259.903 518.879 259.859 519.164 259.829C519.452 259.797 519.662 259.743 519.792 259.667C519.927 259.592 519.994 259.461 519.994 259.275V259.235C519.994 258.751 519.861 258.374 519.596 258.106C519.334 257.837 518.936 257.703 518.403 257.703C517.849 257.703 517.416 257.824 517.101 258.067C516.787 258.309 516.566 258.567 516.438 258.842L515.338 258.45C515.535 257.991 515.797 257.634 516.124 257.379C516.455 257.12 516.815 256.94 517.205 256.839C517.597 256.734 517.984 256.682 518.363 256.682C518.606 256.682 518.884 256.711 519.198 256.77C519.516 256.826 519.822 256.942 520.117 257.119C520.415 257.296 520.662 257.562 520.858 257.919C521.055 258.276 521.153 258.754 521.153 259.353V264.323H519.994V263.301H519.935C519.856 263.465 519.725 263.64 519.542 263.827C519.359 264.013 519.115 264.172 518.81 264.303C518.506 264.434 518.134 264.5 517.696 264.5ZM517.872 263.458C518.331 263.458 518.717 263.368 519.031 263.188C519.349 263.008 519.588 262.776 519.748 262.491C519.912 262.206 519.994 261.907 519.994 261.592V260.532C519.945 260.591 519.837 260.645 519.67 260.694C519.506 260.74 519.316 260.78 519.1 260.817C518.887 260.849 518.679 260.879 518.476 260.905C518.277 260.928 518.115 260.947 517.99 260.964C517.689 261.003 517.408 261.067 517.146 261.155C516.887 261.24 516.677 261.37 516.517 261.543C516.36 261.714 516.281 261.946 516.281 262.241C516.281 262.643 516.43 262.948 516.728 263.154C517.029 263.357 517.411 263.458 517.872 263.458ZM524.418 261.573L524.398 260.139H524.634L527.934 256.78H529.368L525.851 260.335H525.753L524.418 261.573ZM523.337 264.323V254.266H524.496V264.323H523.337ZM528.13 264.323L525.184 260.591L526.009 259.785L529.603 264.323H528.13ZM533.78 264.48C533.053 264.48 532.426 264.319 531.899 263.999C531.376 263.675 530.971 263.223 530.686 262.643C530.405 262.061 530.264 261.383 530.264 260.61C530.264 259.838 530.405 259.157 530.686 258.567C530.971 257.975 531.367 257.513 531.875 257.183C532.386 256.849 532.981 256.682 533.662 256.682C534.055 256.682 534.443 256.747 534.826 256.878C535.209 257.009 535.558 257.222 535.872 257.517C536.186 257.808 536.437 258.194 536.624 258.675C536.81 259.157 536.903 259.749 536.903 260.453V260.944H531.089V259.942H535.725C535.725 259.517 535.64 259.137 535.469 258.803C535.303 258.469 535.064 258.206 534.753 258.012C534.445 257.819 534.081 257.723 533.662 257.723C533.201 257.723 532.801 257.837 532.464 258.067C532.13 258.292 531.873 258.587 531.693 258.95C531.513 259.314 531.423 259.703 531.423 260.119V260.787C531.423 261.357 531.521 261.84 531.718 262.236C531.917 262.629 532.194 262.928 532.548 263.134C532.901 263.337 533.312 263.439 533.78 263.439C534.085 263.439 534.36 263.396 534.605 263.311C534.854 263.223 535.068 263.092 535.249 262.918C535.429 262.742 535.568 262.522 535.666 262.26L536.786 262.575C536.668 262.954 536.47 263.288 536.191 263.576C535.913 263.861 535.569 264.084 535.16 264.244C534.751 264.401 534.291 264.48 533.78 264.48ZM538.736 264.323V256.78H539.855V257.919H539.934C540.071 257.546 540.32 257.243 540.68 257.011C541.04 256.778 541.446 256.662 541.898 256.662C541.983 256.662 542.09 256.664 542.217 256.667C542.345 256.67 542.441 256.675 542.507 256.682V257.86C542.468 257.85 542.378 257.836 542.237 257.816C542.099 257.793 541.954 257.782 541.8 257.782C541.433 257.782 541.106 257.859 540.818 258.012C540.533 258.163 540.307 258.373 540.14 258.641C539.976 258.906 539.894 259.209 539.894 259.55V264.323H538.736Z" fill="white"/>
</g>
<defs>
<filter id="filter0_f_421_520" x="24.406" y="8.01086e-05" width="585.539" height="394.08" filterUnits="userSpaceOnUse" color-interpolation-filters="sRGB">
<feFlood flood-opacity="0" result="BackgroundImageFix"/>
<feBlend mode="normal" in="SourceGraphic" in2="BackgroundImageFix" result="shape"/>
<feGaussianBlur stdDeviation="30.5146" result="effect1_foregroundBlur_421_520"/>
</filter>
<filter id="filter1_d_421_520" x="-2.67029e-05" y="2.73362" width="630.497" height="426.877" filterUnits="userSpaceOnUse" color-interpolation-filters="sRGB">
<feFlood flood-opacity="0" result="BackgroundImageFix"/>
<feColorMatrix in="SourceAlpha" type="matrix" values="0 0 0 0 0 0 0 0 0 0 0 0 0 0 0 0 0 0 127 0" result="hardAlpha"/>
<feOffset dy="37.0048"/>
<feGaussianBlur stdDeviation="26.7257"/>
<feComposite in2="hardAlpha" operator="out"/>
<feColorMatrix type="matrix" values="0 0 0 0 0 0 0 0 0 0 0 0 0 0 0 0 0 0 0.08 0"/>
<feBlend mode="normal" in2="BackgroundImageFix" result="effect1_dropShadow_421_520"/>
<feBlend mode="normal" in="SourceGraphic" in2="effect1_dropShadow_421_520" result="shape"/>
</filter>
<filter id="filter2_d_421_520" x="421.932" y="220.13" width="26.9711" height="30.5453" filterUnits="userSpaceOnUse" color-interpolation-filters="sRGB">
<feFlood flood-opacity="0" result="BackgroundImageFix"/>
<feColorMatrix in="SourceAlpha" type="matrix" values="0 0 0 0 0 0 0 0 0 0 0 0 0 0 0 0 0 0 127 0" result="hardAlpha"/>
<feOffset dy="1.25714"/>
<feGaussianBlur stdDeviation="1.88571"/>
<feColorMatrix type="matrix" values="0 0 0 0 0 0 0 0 0 0 0 0 0 0 0 0 0 0 0.4 0"/>
<feBlend mode="normal" in2="BackgroundImageFix" result="effect1_dropShadow_421_520"/>
<feBlend mode="normal" in="SourceGraphic" in2="effect1_dropShadow_421_520" result="shape"/>
</filter>
<filter id="filter3_d_421_520" x="438.766" y="245.294" width="114.114" height="32.086" filterUnits="userSpaceOnUse" color-interpolation-filters="sRGB">
<feFlood flood-opacity="0" result="BackgroundImageFix"/>
<feColorMatrix in="SourceAlpha" type="matrix" values="0 0 0 0 0 0 0 0 0 0 0 0 0 0 0 0 0 0 127 0" result="hardAlpha"/>
<feOffset dy="2.51429"/>
<feGaussianBlur stdDeviation="2.51429"/>
<feColorMatrix type="matrix" values="0 0 0 0 0 0 0 0 0 0 0 0 0 0 0 0 0 0 0.12 0"/>
<feBlend mode="normal" in2="BackgroundImageFix" result="effect1_dropShadow_421_520"/>
<feBlend mode="normal" in="SourceGraphic" in2="effect1_dropShadow_421_520" result="shape"/>
</filter>
<linearGradient id="paint0_linear_421_520" x1="82.8969" y1="197.04" x2="545.87" y2="197.04" gradientUnits="userSpaceOnUse">
<stop stop-color="#44FF9A"/>
<stop offset="0.234375" stop-color="#44B0FF"/>
<stop offset="0.489583" stop-color="#8B44FF"/>
<stop offset="0.739583" stop-color="#FF6644"/>
<stop offset="1" stop-color="#EBFF70"/>
</linearGradient>
</defs>
</svg>
