<svg width="566" height="431" viewBox="0 0 566 431" fill="none" xmlns="http://www.w3.org/2000/svg">
<g filter="url(#filter0_d_430_545)">
<g clip-path="url(#clip0_430_545)">
<path d="M53.4513 25.1652C53.4513 20.3501 57.3547 16.4468 62.1698 16.4468H503.84C508.655 16.4468 512.559 20.3502 512.559 25.1652V331.19C512.559 336.005 508.655 339.909 503.84 339.909H62.1698C57.3547 339.909 53.4513 336.005 53.4513 331.19V25.1652Z" fill="white"/>
<g clip-path="url(#clip1_430_545)">
<path d="M84.7539 210.785C84.7539 202.141 91.7613 195.133 100.405 195.133H465.604C474.249 195.133 481.256 202.141 481.256 210.785V330.779H84.7539V210.785Z" fill="url(#paint0_linear_430_545)" fill-opacity="0.06"/>
<path d="M327.35 85.5737H238.659C232.897 85.5737 228.225 90.2453 228.225 96.008C228.225 101.771 232.897 106.442 238.659 106.442H327.35C333.113 106.442 337.785 101.771 337.785 96.008C337.785 90.2453 333.113 85.5737 327.35 85.5737Z" fill="#75749C"/>
<path d="M296.048 153.396H269.962C265.64 153.396 262.136 156.9 262.136 161.222C262.136 165.544 265.64 169.048 269.962 169.048H296.048C300.37 169.048 303.873 165.544 303.873 161.222C303.873 156.9 300.37 153.396 296.048 153.396Z" fill="#BEA9F7"/>
<path d="M356.045 119.485H209.965C208.524 119.485 207.356 120.653 207.356 122.093C207.356 123.534 208.524 124.702 209.965 124.702H356.045C357.485 124.702 358.653 123.534 358.653 122.093C358.653 120.653 357.485 119.485 356.045 119.485Z" fill="#22328A" fill-opacity="0.08"/>
<path d="M332.568 132.528H233.442C232.001 132.528 230.834 133.696 230.834 135.136C230.834 136.577 232.001 137.745 233.442 137.745H332.568C334.008 137.745 335.176 136.577 335.176 135.136C335.176 133.696 334.008 132.528 332.568 132.528Z" fill="#22328A" fill-opacity="0.08"/>
<path d="M76.9282 33.4027C78.3689 33.4027 79.5368 32.2348 79.5368 30.7941C79.5368 29.3534 78.3689 28.1855 76.9282 28.1855C75.4876 28.1855 74.3197 29.3534 74.3197 30.7941C74.3197 32.2348 75.4876 33.4027 76.9282 33.4027Z" fill="#22328A" fill-opacity="0.12"/>
<path d="M92.5796 33.4027C94.0203 33.4027 95.1882 32.2348 95.1882 30.7941C95.1882 29.3534 94.0203 28.1855 92.5796 28.1855C91.139 28.1855 89.9711 29.3534 89.9711 30.7941C89.9711 32.2348 91.139 33.4027 92.5796 33.4027Z" fill="#22328A" fill-opacity="0.12"/>
<path d="M108.231 33.4027C109.672 33.4027 110.84 32.2348 110.84 30.7941C110.84 29.3534 109.672 28.1855 108.231 28.1855C106.79 28.1855 105.622 29.3534 105.622 30.7941C105.622 32.2348 106.79 33.4027 108.231 33.4027Z" fill="#22328A" fill-opacity="0.12"/>
<path d="M489.081 33.4027C490.522 33.4027 491.69 32.2348 491.69 30.7941C491.69 29.3534 490.522 28.1855 489.081 28.1855C487.641 28.1855 486.473 29.3534 486.473 30.7941C486.473 32.2348 487.641 33.4027 489.081 33.4027Z" fill="#22328A" fill-opacity="0.12"/>
<path d="M402.999 25.5767H163.011C160.13 25.5767 157.794 27.9124 157.794 30.7938C157.794 33.6751 160.13 36.0109 163.011 36.0109H402.999C405.88 36.0109 408.216 33.6751 408.216 30.7938C408.216 27.9124 405.88 25.5767 402.999 25.5767Z" fill="#22328A" fill-opacity="0.08"/>
</g>
</g>
<path d="M62.1701 16.8823H503.84C508.414 16.8823 512.122 20.5912 512.122 25.1655V331.19C512.122 335.764 508.414 339.473 503.84 339.473H62.1701C57.5958 339.473 53.8869 335.764 53.8869 331.19V25.1655C53.8869 20.5912 57.5958 16.8823 62.1701 16.8823Z" stroke="#E4E4E7" stroke-width="0.871846"/>
</g>
<g filter="url(#filter1_dd_430_545)">
<rect x="249.451" y="264.909" width="302" height="114" rx="8" fill="white"/>
<path d="M270.771 296.077C269.81 296.077 268.979 295.867 268.279 295.447C267.589 295.017 267.052 294.425 266.669 293.669C266.296 292.903 266.109 292.017 266.109 291.009C266.109 290.01 266.296 289.128 266.669 288.363C267.052 287.597 267.589 287.005 268.279 286.585C268.979 286.155 269.81 285.941 270.771 285.941C271.919 285.941 272.848 286.216 273.557 286.767C274.276 287.317 274.733 288.092 274.929 289.091H273.389C273.249 288.512 272.96 288.05 272.521 287.705C272.092 287.359 271.509 287.187 270.771 287.187C270.109 287.187 269.535 287.341 269.049 287.649C268.564 287.957 268.191 288.395 267.929 288.965C267.668 289.534 267.537 290.215 267.537 291.009C267.537 291.802 267.668 292.488 267.929 293.067C268.191 293.636 268.564 294.075 269.049 294.383C269.535 294.681 270.109 294.831 270.771 294.831C271.509 294.831 272.092 294.667 272.521 294.341C272.96 294.005 273.249 293.552 273.389 292.983H274.929C274.733 293.953 274.276 294.714 273.557 295.265C272.848 295.806 271.919 296.077 270.771 296.077ZM276.534 295.909V285.829H277.934V290.001C278.168 289.59 278.49 289.268 278.9 289.035C279.32 288.801 279.782 288.685 280.286 288.685C280.846 288.685 281.327 288.801 281.728 289.035C282.13 289.259 282.438 289.599 282.652 290.057C282.867 290.505 282.974 291.069 282.974 291.751V295.909H281.588V291.891C281.588 291.237 281.448 290.743 281.168 290.407C280.888 290.061 280.473 289.889 279.922 289.889C279.549 289.889 279.213 289.977 278.914 290.155C278.616 290.332 278.378 290.593 278.2 290.939C278.023 291.275 277.934 291.685 277.934 292.171V295.909H276.534ZM287.985 296.077C287.322 296.077 286.725 295.923 286.193 295.615C285.67 295.307 285.255 294.877 284.947 294.327C284.648 293.767 284.499 293.123 284.499 292.395C284.499 291.648 284.653 290.999 284.961 290.449C285.269 289.889 285.689 289.455 286.221 289.147C286.753 288.839 287.35 288.685 288.013 288.685C288.685 288.685 289.282 288.839 289.805 289.147C290.327 289.455 290.738 289.884 291.037 290.435C291.345 290.985 291.499 291.634 291.499 292.381C291.499 293.127 291.345 293.776 291.037 294.327C290.738 294.877 290.323 295.307 289.791 295.615C289.259 295.923 288.657 296.077 287.985 296.077ZM287.985 294.873C288.367 294.873 288.713 294.779 289.021 294.593C289.338 294.406 289.59 294.131 289.777 293.767C289.973 293.393 290.071 292.931 290.071 292.381C290.071 291.83 289.977 291.373 289.791 291.009C289.604 290.635 289.352 290.355 289.035 290.169C288.727 289.982 288.386 289.889 288.013 289.889C287.639 289.889 287.294 289.982 286.977 290.169C286.659 290.355 286.403 290.635 286.207 291.009C286.02 291.373 285.927 291.83 285.927 292.381C285.927 292.931 286.02 293.393 286.207 293.767C286.403 294.131 286.655 294.406 286.963 294.593C287.28 294.779 287.621 294.873 287.985 294.873ZM296.366 296.077C295.703 296.077 295.106 295.923 294.574 295.615C294.051 295.307 293.636 294.877 293.328 294.327C293.029 293.767 292.88 293.123 292.88 292.395C292.88 291.648 293.034 290.999 293.342 290.449C293.65 289.889 294.07 289.455 294.602 289.147C295.134 288.839 295.731 288.685 296.394 288.685C297.066 288.685 297.663 288.839 298.186 289.147C298.708 289.455 299.119 289.884 299.418 290.435C299.726 290.985 299.88 291.634 299.88 292.381C299.88 293.127 299.726 293.776 299.418 294.327C299.119 294.877 298.704 295.307 298.172 295.615C297.64 295.923 297.038 296.077 296.366 296.077ZM296.366 294.873C296.748 294.873 297.094 294.779 297.402 294.593C297.719 294.406 297.971 294.131 298.158 293.767C298.354 293.393 298.452 292.931 298.452 292.381C298.452 291.83 298.358 291.373 298.172 291.009C297.985 290.635 297.733 290.355 297.416 290.169C297.108 289.982 296.767 289.889 296.394 289.889C296.02 289.889 295.675 289.982 295.358 290.169C295.04 290.355 294.784 290.635 294.588 291.009C294.401 291.373 294.308 291.83 294.308 292.381C294.308 292.931 294.401 293.393 294.588 293.767C294.784 294.131 295.036 294.406 295.344 294.593C295.661 294.779 296.002 294.873 296.366 294.873ZM304.256 296.077C303.659 296.077 303.136 295.979 302.688 295.783C302.24 295.587 301.886 295.311 301.624 294.957C301.363 294.602 301.204 294.187 301.148 293.711H302.576C302.623 293.935 302.712 294.14 302.842 294.327C302.982 294.513 303.169 294.663 303.402 294.775C303.645 294.887 303.93 294.943 304.256 294.943C304.564 294.943 304.816 294.901 305.012 294.817C305.218 294.723 305.367 294.602 305.46 294.453C305.554 294.294 305.6 294.126 305.6 293.949C305.6 293.687 305.535 293.491 305.404 293.361C305.283 293.221 305.096 293.113 304.844 293.039C304.602 292.955 304.308 292.88 303.962 292.815C303.636 292.759 303.318 292.684 303.01 292.591C302.712 292.488 302.441 292.362 302.198 292.213C301.965 292.063 301.778 291.877 301.638 291.653C301.498 291.419 301.428 291.135 301.428 290.799C301.428 290.397 301.536 290.038 301.75 289.721C301.965 289.394 302.268 289.142 302.66 288.965C303.062 288.778 303.533 288.685 304.074 288.685C304.858 288.685 305.488 288.871 305.964 289.245C306.44 289.618 306.72 290.145 306.804 290.827H305.446C305.409 290.509 305.269 290.267 305.026 290.099C304.784 289.921 304.462 289.833 304.06 289.833C303.659 289.833 303.351 289.912 303.136 290.071C302.922 290.229 302.814 290.439 302.814 290.701C302.814 290.869 302.875 291.018 302.996 291.149C303.118 291.279 303.295 291.391 303.528 291.485C303.771 291.569 304.065 291.648 304.41 291.723C304.905 291.816 305.348 291.933 305.74 292.073C306.132 292.213 306.445 292.418 306.678 292.689C306.912 292.959 307.028 293.347 307.028 293.851C307.038 294.289 306.926 294.677 306.692 295.013C306.468 295.349 306.146 295.61 305.726 295.797C305.316 295.983 304.826 296.077 304.256 296.077ZM311.869 296.077C311.197 296.077 310.599 295.923 310.077 295.615C309.554 295.307 309.143 294.877 308.845 294.327C308.555 293.776 308.411 293.137 308.411 292.409C308.411 291.662 308.555 291.013 308.845 290.463C309.143 289.903 309.554 289.469 310.077 289.161C310.599 288.843 311.206 288.685 311.897 288.685C312.587 288.685 313.18 288.839 313.675 289.147C314.169 289.455 314.552 289.865 314.823 290.379C315.093 290.883 315.229 291.443 315.229 292.059C315.229 292.152 315.224 292.255 315.215 292.367C315.215 292.469 315.21 292.586 315.201 292.717H309.433V291.723H313.829C313.801 291.135 313.605 290.677 313.241 290.351C312.877 290.015 312.424 289.847 311.883 289.847C311.5 289.847 311.15 289.935 310.833 290.113C310.515 290.281 310.259 290.533 310.063 290.869C309.876 291.195 309.783 291.611 309.783 292.115V292.507C309.783 293.029 309.876 293.473 310.063 293.837C310.259 294.191 310.515 294.462 310.833 294.649C311.15 294.826 311.495 294.915 311.869 294.915C312.317 294.915 312.685 294.817 312.975 294.621C313.264 294.425 313.479 294.159 313.619 293.823H315.019C314.897 294.252 314.692 294.639 314.403 294.985C314.113 295.321 313.754 295.587 313.325 295.783C312.905 295.979 312.419 296.077 311.869 296.077ZM322.704 296.077C322.126 296.077 321.645 295.979 321.262 295.783C320.88 295.587 320.595 295.325 320.408 294.999C320.222 294.663 320.128 294.303 320.128 293.921C320.128 293.454 320.25 293.057 320.492 292.731C320.735 292.395 321.08 292.138 321.528 291.961C321.976 291.783 322.513 291.695 323.138 291.695H324.972C324.972 291.284 324.912 290.943 324.79 290.673C324.669 290.402 324.487 290.201 324.244 290.071C324.011 289.931 323.712 289.861 323.348 289.861C322.928 289.861 322.569 289.963 322.27 290.169C321.972 290.365 321.785 290.659 321.71 291.051H320.31C320.366 290.556 320.534 290.136 320.814 289.791C321.104 289.436 321.472 289.165 321.92 288.979C322.368 288.783 322.844 288.685 323.348 288.685C324.011 288.685 324.566 288.801 325.014 289.035C325.462 289.268 325.798 289.599 326.022 290.029C326.256 290.449 326.372 290.953 326.372 291.541V295.909H325.154L325.042 294.719C324.94 294.905 324.818 295.083 324.678 295.251C324.538 295.419 324.37 295.563 324.174 295.685C323.988 295.806 323.768 295.899 323.516 295.965C323.274 296.039 323.003 296.077 322.704 296.077ZM322.97 294.943C323.269 294.943 323.54 294.882 323.782 294.761C324.025 294.639 324.23 294.476 324.398 294.271C324.576 294.056 324.706 293.818 324.79 293.557C324.884 293.286 324.935 293.011 324.944 292.731V292.689H323.278C322.877 292.689 322.55 292.74 322.298 292.843C322.056 292.936 321.878 293.067 321.766 293.235C321.654 293.403 321.598 293.599 321.598 293.823C321.598 294.056 321.65 294.257 321.752 294.425C321.864 294.583 322.023 294.709 322.228 294.803C322.434 294.896 322.681 294.943 322.97 294.943ZM334.653 295.909C334.205 295.909 333.818 295.839 333.491 295.699C333.165 295.559 332.913 295.325 332.735 294.999C332.558 294.672 332.469 294.229 332.469 293.669V290.043H331.251V288.853H332.469L332.637 287.089H333.869V288.853H335.871V290.043H333.869V293.683C333.869 294.084 333.953 294.359 334.121 294.509C334.289 294.649 334.579 294.719 334.989 294.719H335.801V295.909H334.653ZM337.415 295.909V285.829H338.815V290.001C339.048 289.59 339.37 289.268 339.781 289.035C340.201 288.801 340.663 288.685 341.167 288.685C341.727 288.685 342.208 288.801 342.609 289.035C343.01 289.259 343.318 289.599 343.533 290.057C343.748 290.505 343.855 291.069 343.855 291.751V295.909H342.469V291.891C342.469 291.237 342.329 290.743 342.049 290.407C341.769 290.061 341.354 289.889 340.803 289.889C340.43 289.889 340.094 289.977 339.795 290.155C339.496 290.332 339.258 290.593 339.081 290.939C338.904 291.275 338.815 291.685 338.815 292.171V295.909H337.415ZM348.838 296.077C348.166 296.077 347.568 295.923 347.046 295.615C346.523 295.307 346.112 294.877 345.814 294.327C345.524 293.776 345.38 293.137 345.38 292.409C345.38 291.662 345.524 291.013 345.814 290.463C346.112 289.903 346.523 289.469 347.046 289.161C347.568 288.843 348.175 288.685 348.866 288.685C349.556 288.685 350.149 288.839 350.644 289.147C351.138 289.455 351.521 289.865 351.792 290.379C352.062 290.883 352.198 291.443 352.198 292.059C352.198 292.152 352.193 292.255 352.184 292.367C352.184 292.469 352.179 292.586 352.17 292.717H346.402V291.723H350.798C350.77 291.135 350.574 290.677 350.21 290.351C349.846 290.015 349.393 289.847 348.852 289.847C348.469 289.847 348.119 289.935 347.802 290.113C347.484 290.281 347.228 290.533 347.032 290.869C346.845 291.195 346.752 291.611 346.752 292.115V292.507C346.752 293.029 346.845 293.473 347.032 293.837C347.228 294.191 347.484 294.462 347.802 294.649C348.119 294.826 348.464 294.915 348.838 294.915C349.286 294.915 349.654 294.817 349.944 294.621C350.233 294.425 350.448 294.159 350.588 293.823H351.988C351.866 294.252 351.661 294.639 351.372 294.985C351.082 295.321 350.723 295.587 350.294 295.783C349.874 295.979 349.388 296.077 348.838 296.077ZM353.753 295.909V288.853H355.013L355.111 289.847C355.335 289.483 355.634 289.198 356.007 288.993C356.38 288.787 356.8 288.685 357.267 288.685C357.622 288.685 357.944 288.736 358.233 288.839C358.522 288.932 358.779 289.077 359.003 289.273C359.227 289.469 359.409 289.711 359.549 290.001C359.801 289.59 360.137 289.268 360.557 289.035C360.986 288.801 361.439 288.685 361.915 288.685C362.484 288.685 362.974 288.801 363.385 289.035C363.796 289.259 364.108 289.599 364.323 290.057C364.538 290.505 364.645 291.065 364.645 291.737V295.909H363.259V291.877C363.259 291.223 363.124 290.729 362.853 290.393C362.592 290.057 362.204 289.889 361.691 289.889C361.346 289.889 361.038 289.977 360.767 290.155C360.496 290.332 360.282 290.589 360.123 290.925C359.974 291.261 359.899 291.671 359.899 292.157V295.909H358.499V291.877C358.499 291.223 358.364 290.729 358.093 290.393C357.832 290.057 357.444 289.889 356.931 289.889C356.604 289.889 356.306 289.977 356.035 290.155C355.764 290.332 355.55 290.589 355.391 290.925C355.232 291.261 355.153 291.671 355.153 292.157V295.909H353.753ZM369.646 296.077C368.974 296.077 368.377 295.923 367.854 295.615C367.331 295.307 366.921 294.877 366.622 294.327C366.333 293.776 366.188 293.137 366.188 292.409C366.188 291.662 366.333 291.013 366.622 290.463C366.921 289.903 367.331 289.469 367.854 289.161C368.377 288.843 368.983 288.685 369.674 288.685C370.365 288.685 370.957 288.839 371.452 289.147C371.947 289.455 372.329 289.865 372.6 290.379C372.871 290.883 373.006 291.443 373.006 292.059C373.006 292.152 373.001 292.255 372.992 292.367C372.992 292.469 372.987 292.586 372.978 292.717H367.21V291.723H371.606C371.578 291.135 371.382 290.677 371.018 290.351C370.654 290.015 370.201 289.847 369.66 289.847C369.277 289.847 368.927 289.935 368.61 290.113C368.293 290.281 368.036 290.533 367.84 290.869C367.653 291.195 367.56 291.611 367.56 292.115V292.507C367.56 293.029 367.653 293.473 367.84 293.837C368.036 294.191 368.293 294.462 368.61 294.649C368.927 294.826 369.273 294.915 369.646 294.915C370.094 294.915 370.463 294.817 370.752 294.621C371.041 294.425 371.256 294.159 371.396 293.823H372.796C372.675 294.252 372.469 294.639 372.18 294.985C371.891 295.321 371.531 295.587 371.102 295.783C370.682 295.979 370.197 296.077 369.646 296.077ZM381.406 296.077C380.724 296.077 380.118 295.923 379.586 295.615C379.054 295.297 378.634 294.863 378.326 294.313C378.027 293.762 377.878 293.123 377.878 292.395C377.878 291.657 378.027 291.013 378.326 290.463C378.634 289.903 379.054 289.469 379.586 289.161C380.118 288.843 380.724 288.685 381.406 288.685C382.264 288.685 382.983 288.909 383.562 289.357C384.14 289.805 384.509 290.411 384.668 291.177H383.212C383.118 290.766 382.904 290.449 382.568 290.225C382.241 290.001 381.849 289.889 381.392 289.889C381.018 289.889 380.673 289.987 380.356 290.183C380.038 290.369 379.782 290.649 379.586 291.023C379.399 291.387 379.306 291.839 379.306 292.381C379.306 292.782 379.362 293.141 379.474 293.459C379.586 293.767 379.735 294.028 379.922 294.243C380.118 294.457 380.342 294.621 380.594 294.733C380.846 294.835 381.112 294.887 381.392 294.887C381.7 294.887 381.975 294.84 382.218 294.747C382.47 294.644 382.68 294.495 382.848 294.299C383.025 294.103 383.146 293.869 383.212 293.599H384.668C384.509 294.345 384.14 294.947 383.562 295.405C382.983 295.853 382.264 296.077 381.406 296.077ZM389.526 296.077C388.863 296.077 388.266 295.923 387.734 295.615C387.211 295.307 386.796 294.877 386.488 294.327C386.189 293.767 386.04 293.123 386.04 292.395C386.04 291.648 386.194 290.999 386.502 290.449C386.81 289.889 387.23 289.455 387.762 289.147C388.294 288.839 388.891 288.685 389.554 288.685C390.226 288.685 390.823 288.839 391.346 289.147C391.868 289.455 392.279 289.884 392.578 290.435C392.886 290.985 393.04 291.634 393.04 292.381C393.04 293.127 392.886 293.776 392.578 294.327C392.279 294.877 391.864 295.307 391.332 295.615C390.8 295.923 390.198 296.077 389.526 296.077ZM389.526 294.873C389.908 294.873 390.254 294.779 390.562 294.593C390.879 294.406 391.131 294.131 391.318 293.767C391.514 293.393 391.612 292.931 391.612 292.381C391.612 291.83 391.518 291.373 391.332 291.009C391.145 290.635 390.893 290.355 390.576 290.169C390.268 289.982 389.927 289.889 389.554 289.889C389.18 289.889 388.835 289.982 388.518 290.169C388.2 290.355 387.944 290.635 387.748 291.009C387.561 291.373 387.468 291.83 387.468 292.381C387.468 292.931 387.561 293.393 387.748 293.767C387.944 294.131 388.196 294.406 388.504 294.593C388.821 294.779 389.162 294.873 389.526 294.873ZM394.687 295.909V285.829H396.087V295.909H394.687ZM401.229 296.077C400.566 296.077 399.969 295.923 399.437 295.615C398.914 295.307 398.499 294.877 398.191 294.327C397.892 293.767 397.743 293.123 397.743 292.395C397.743 291.648 397.897 290.999 398.205 290.449C398.513 289.889 398.933 289.455 399.465 289.147C399.997 288.839 400.594 288.685 401.257 288.685C401.929 288.685 402.526 288.839 403.049 289.147C403.571 289.455 403.982 289.884 404.281 290.435C404.589 290.985 404.743 291.634 404.743 292.381C404.743 293.127 404.589 293.776 404.281 294.327C403.982 294.877 403.567 295.307 403.035 295.615C402.503 295.923 401.901 296.077 401.229 296.077ZM401.229 294.873C401.611 294.873 401.957 294.779 402.265 294.593C402.582 294.406 402.834 294.131 403.021 293.767C403.217 293.393 403.315 292.931 403.315 292.381C403.315 291.83 403.221 291.373 403.035 291.009C402.848 290.635 402.596 290.355 402.279 290.169C401.971 289.982 401.63 289.889 401.257 289.889C400.883 289.889 400.538 289.982 400.221 290.169C399.903 290.355 399.647 290.635 399.451 291.009C399.264 291.373 399.171 291.83 399.171 292.381C399.171 292.931 399.264 293.393 399.451 293.767C399.647 294.131 399.899 294.406 400.207 294.593C400.524 294.779 400.865 294.873 401.229 294.873ZM406.39 295.909V288.853H407.65L407.776 290.183C407.934 289.865 408.14 289.599 408.392 289.385C408.644 289.161 408.938 288.988 409.274 288.867C409.619 288.745 410.011 288.685 410.45 288.685V290.169H409.946C409.656 290.169 409.381 290.206 409.12 290.281C408.858 290.346 408.625 290.463 408.42 290.631C408.224 290.799 408.07 291.027 407.958 291.317C407.846 291.606 407.79 291.965 407.79 292.395V295.909H406.39ZM412.487 295.979C412.216 295.979 411.992 295.895 411.815 295.727C411.647 295.549 411.563 295.339 411.563 295.097C411.563 294.845 411.647 294.635 411.815 294.467C411.992 294.289 412.216 294.201 412.487 294.201C412.757 294.201 412.977 294.289 413.145 294.467C413.313 294.635 413.397 294.845 413.397 295.097C413.397 295.339 413.313 295.549 413.145 295.727C412.977 295.895 412.757 295.979 412.487 295.979ZM412.487 290.463C412.216 290.463 411.992 290.379 411.815 290.211C411.647 290.033 411.563 289.823 411.563 289.581C411.563 289.329 411.647 289.119 411.815 288.951C411.992 288.773 412.216 288.685 412.487 288.685C412.757 288.685 412.977 288.773 413.145 288.951C413.313 289.119 413.397 289.329 413.397 289.581C413.397 289.823 413.313 290.033 413.145 290.211C412.977 290.379 412.757 290.463 412.487 290.463Z" fill="#4B5563"/>
<path d="M265.451 326.909C265.451 321.386 269.928 316.909 275.451 316.909H301.451C306.974 316.909 311.451 321.386 311.451 326.909V352.909C311.451 358.432 306.974 362.909 301.451 362.909H275.451C269.928 362.909 265.451 358.432 265.451 352.909V326.909Z" fill="#E0E7FF"/>
<rect x="267.451" y="318.909" width="42" height="42" rx="9" fill="white"/>
<path d="M270.451 327.909C270.451 324.595 273.138 321.909 276.451 321.909H300.451C303.765 321.909 306.451 324.595 306.451 327.909V351.909C306.451 355.222 303.765 357.909 300.451 357.909H276.451C273.138 357.909 270.451 355.222 270.451 351.909V327.909Z" fill="#4F46E5"/>
<path d="M298.483 332.877C299.092 333.44 299.092 334.424 298.483 334.987L286.483 346.987C285.92 347.596 284.936 347.596 284.373 346.987L278.373 340.987C277.764 340.424 277.764 339.44 278.373 338.877C278.936 338.268 279.92 338.268 280.483 338.877L285.404 343.799L296.373 332.877C296.936 332.268 297.92 332.268 298.483 332.877Z" fill="white"/>
<rect x="331.451" y="321.909" width="36" height="36" rx="6" fill="#2563EB"/>
<rect x="387.451" y="321.909" width="36" height="36" rx="6" fill="#B5BCF1"/>
<rect x="443.451" y="321.909" width="36" height="36" rx="6" fill="#F4EECE"/>
<path d="M499.451 325.909C499.451 323.7 501.242 321.909 503.451 321.909H531.451C533.66 321.909 535.451 323.7 535.451 325.909V353.909C535.451 356.118 533.66 357.909 531.451 357.909H503.451C501.242 357.909 499.451 356.118 499.451 353.909V325.909Z" fill="#F3F4F6"/>
<path d="M523.139 339.659C523.139 340.151 522.729 340.561 522.264 340.561H518.326V344.499C518.326 344.963 517.916 345.346 517.451 345.346C516.959 345.346 516.576 344.963 516.576 344.499V340.561H512.639C512.147 340.561 511.764 340.151 511.764 339.659C511.764 339.194 512.147 338.811 512.639 338.811H516.576V334.874C516.576 334.381 516.959 333.971 517.451 333.971C517.916 333.971 518.326 334.381 518.326 334.874V338.811H522.264C522.729 338.784 523.139 339.194 523.139 339.659Z" fill="#030712"/>
</g>
<g filter="url(#filter2_d_430_545)">
<path d="M413.908 133.709L399.451 124.909L402.594 141.88L406.366 135.594L413.908 133.709Z" fill="#67C23A"/>
<path d="M399.778 124.372L414.236 133.171L415.52 133.954L414.061 134.319L406.77 136.141L403.133 142.204L402.278 143.627L401.976 141.995L398.833 125.023L398.577 123.641L399.778 124.372Z" stroke="white" stroke-width="1.25714"/>
</g>
<g filter="url(#filter3_d_430_545)">
<rect width="77.0571" height="22.0286" transform="translate(415.794 147.538)" fill="#67C23A"/>
<path d="M425.12 164.052H422.034V154.052H425.256C426.226 154.052 427.056 154.252 427.746 154.652C428.437 155.049 428.966 155.621 429.333 156.366C429.701 157.108 429.885 157.997 429.885 159.032C429.885 160.074 429.7 160.971 429.329 161.723C428.957 162.471 428.417 163.048 427.707 163.451C426.998 163.852 426.135 164.052 425.12 164.052ZM423.245 162.978H425.041C425.868 162.978 426.553 162.818 427.097 162.499C427.641 162.18 428.046 161.726 428.313 161.137C428.58 160.548 428.713 159.846 428.713 159.032C428.713 158.225 428.581 157.53 428.318 156.947C428.054 156.361 427.66 155.912 427.136 155.6C426.612 155.284 425.959 155.126 425.178 155.126H423.245V162.978ZM434.973 164.208C434.251 164.208 433.627 164.049 433.103 163.729C432.582 163.407 432.18 162.958 431.897 162.382C431.617 161.802 431.477 161.129 431.477 160.36C431.477 159.592 431.617 158.915 431.897 158.329C432.18 157.74 432.574 157.281 433.079 156.952C433.587 156.62 434.179 156.454 434.856 156.454C435.247 156.454 435.633 156.519 436.013 156.649C436.394 156.78 436.741 156.991 437.054 157.284C437.366 157.574 437.615 157.958 437.801 158.437C437.986 158.915 438.079 159.504 438.079 160.204V160.692H432.298V159.696H436.907C436.907 159.273 436.822 158.896 436.653 158.563C436.487 158.231 436.249 157.969 435.94 157.777C435.634 157.585 435.273 157.489 434.856 157.489C434.397 157.489 434 157.603 433.665 157.831C433.333 158.056 433.077 158.349 432.898 158.71C432.719 159.071 432.63 159.459 432.63 159.872V160.536C432.63 161.103 432.727 161.583 432.923 161.977C433.121 162.367 433.396 162.665 433.748 162.87C434.099 163.072 434.508 163.173 434.973 163.173C435.276 163.173 435.55 163.131 435.794 163.046C436.041 162.958 436.254 162.828 436.433 162.655C436.612 162.479 436.751 162.261 436.848 162.001L437.962 162.313C437.845 162.691 437.648 163.023 437.371 163.31C437.094 163.593 436.752 163.814 436.346 163.974C435.939 164.13 435.481 164.208 434.973 164.208ZM445.805 156.552L443.032 164.052H441.86L439.086 156.552H440.336L442.407 162.528H442.485L444.555 156.552H445.805ZM450.271 164.208C449.548 164.208 448.925 164.049 448.401 163.729C447.88 163.407 447.478 162.958 447.195 162.382C446.915 161.802 446.775 161.129 446.775 160.36C446.775 159.592 446.915 158.915 447.195 158.329C447.478 157.74 447.872 157.281 448.376 156.952C448.884 156.62 449.477 156.454 450.154 156.454C450.544 156.454 450.93 156.519 451.311 156.649C451.692 156.78 452.038 156.991 452.351 157.284C452.663 157.574 452.912 157.958 453.098 158.437C453.284 158.915 453.376 159.504 453.376 160.204V160.692H447.595V159.696H452.204C452.204 159.273 452.12 158.896 451.951 158.563C451.785 158.231 451.547 157.969 451.238 157.777C450.932 157.585 450.57 157.489 450.154 157.489C449.695 157.489 449.298 157.603 448.962 157.831C448.63 158.056 448.375 158.349 448.196 158.71C448.017 159.071 447.927 159.459 447.927 159.872V160.536C447.927 161.103 448.025 161.583 448.22 161.977C448.419 162.367 448.694 162.665 449.045 162.87C449.397 163.072 449.805 163.173 450.271 163.173C450.574 163.173 450.847 163.131 451.091 163.046C451.339 162.958 451.552 162.828 451.731 162.655C451.91 162.479 452.048 162.261 452.146 162.001L453.259 162.313C453.142 162.691 452.945 163.023 452.668 163.31C452.392 163.593 452.05 163.814 451.643 163.974C451.236 164.13 450.779 164.208 450.271 164.208ZM456.35 154.052V164.052H455.198V154.052H456.35ZM461.577 164.208C460.899 164.208 460.305 164.047 459.794 163.725C459.287 163.402 458.889 162.951 458.603 162.372C458.32 161.793 458.178 161.116 458.178 160.341C458.178 159.56 458.32 158.878 458.603 158.295C458.889 157.712 459.287 157.26 459.794 156.937C460.305 156.615 460.899 156.454 461.577 156.454C462.254 156.454 462.846 156.615 463.354 156.937C463.865 157.26 464.262 157.712 464.545 158.295C464.832 158.878 464.975 159.56 464.975 160.341C464.975 161.116 464.832 161.793 464.545 162.372C464.262 162.951 463.865 163.402 463.354 163.725C462.846 164.047 462.254 164.208 461.577 164.208ZM461.577 163.173C462.091 163.173 462.514 163.041 462.846 162.777C463.178 162.514 463.424 162.167 463.583 161.737C463.743 161.308 463.823 160.842 463.823 160.341C463.823 159.84 463.743 159.372 463.583 158.939C463.424 158.507 463.178 158.157 462.846 157.89C462.514 157.623 462.091 157.489 461.577 157.489C461.062 157.489 460.639 157.623 460.307 157.89C459.975 158.157 459.729 158.507 459.57 158.939C459.41 159.372 459.33 159.84 459.33 160.341C459.33 160.842 459.41 161.308 459.57 161.737C459.729 162.167 459.975 162.514 460.307 162.777C460.639 163.041 461.062 163.173 461.577 163.173ZM466.803 166.864V156.552H467.916V157.743H468.053C468.137 157.613 468.255 157.447 468.404 157.245C468.557 157.04 468.775 156.858 469.059 156.698C469.345 156.535 469.732 156.454 470.221 156.454C470.852 156.454 471.409 156.612 471.891 156.928C472.372 157.243 472.748 157.691 473.019 158.271C473.289 158.85 473.424 159.534 473.424 160.321C473.424 161.116 473.289 161.804 473.019 162.387C472.748 162.966 472.374 163.415 471.896 163.734C471.417 164.05 470.865 164.208 470.24 164.208C469.759 164.208 469.373 164.128 469.083 163.969C468.793 163.806 468.57 163.622 468.414 163.417C468.258 163.209 468.137 163.036 468.053 162.899H467.955V166.864H466.803ZM467.936 160.302C467.936 160.868 468.019 161.368 468.185 161.801C468.351 162.23 468.593 162.567 468.912 162.812C469.231 163.052 469.622 163.173 470.084 163.173C470.566 163.173 470.968 163.046 471.29 162.792C471.616 162.535 471.86 162.19 472.023 161.757C472.189 161.321 472.272 160.836 472.272 160.302C472.272 159.774 472.19 159.299 472.027 158.876C471.868 158.45 471.625 158.113 471.3 157.865C470.978 157.615 470.572 157.489 470.084 157.489C469.615 157.489 469.221 157.608 468.902 157.846C468.583 158.08 468.343 158.409 468.18 158.832C468.017 159.252 467.936 159.742 467.936 160.302ZM478.395 164.208C477.672 164.208 477.049 164.049 476.525 163.729C476.004 163.407 475.602 162.958 475.319 162.382C475.039 161.802 474.899 161.129 474.899 160.36C474.899 159.592 475.039 158.915 475.319 158.329C475.602 157.74 475.996 157.281 476.5 156.952C477.008 156.62 477.601 156.454 478.278 156.454C478.668 156.454 479.054 156.519 479.435 156.649C479.816 156.78 480.163 156.991 480.475 157.284C480.788 157.574 481.037 157.958 481.222 158.437C481.408 158.915 481.5 159.504 481.5 160.204V160.692H475.719V159.696H480.329C480.329 159.273 480.244 158.896 480.075 158.563C479.909 158.231 479.671 157.969 479.362 157.777C479.056 157.585 478.694 157.489 478.278 157.489C477.819 157.489 477.422 157.603 477.086 157.831C476.754 158.056 476.499 158.349 476.32 158.71C476.141 159.071 476.051 159.459 476.051 159.872V160.536C476.051 161.103 476.149 161.583 476.344 161.977C476.543 162.367 476.818 162.665 477.169 162.87C477.521 163.072 477.929 163.173 478.395 163.173C478.698 163.173 478.971 163.131 479.215 163.046C479.463 162.958 479.676 162.828 479.855 162.655C480.034 162.479 480.172 162.261 480.27 162.001L481.383 162.313C481.266 162.691 481.069 163.023 480.792 163.31C480.516 163.593 480.174 163.814 479.767 163.974C479.36 164.13 478.903 164.208 478.395 164.208ZM483.322 164.052V156.552H484.435V157.685H484.514C484.65 157.313 484.898 157.012 485.256 156.781C485.614 156.55 486.017 156.435 486.467 156.435C486.551 156.435 486.657 156.436 486.784 156.439C486.911 156.443 487.007 156.448 487.072 156.454V157.626C487.033 157.616 486.944 157.602 486.804 157.582C486.667 157.559 486.522 157.548 486.369 157.548C486.004 157.548 485.679 157.624 485.392 157.777C485.109 157.927 484.885 158.135 484.719 158.402C484.556 158.666 484.474 158.967 484.474 159.306V164.052H483.322Z" fill="white"/>
</g>
<defs>
<filter id="filter0_d_430_545" x="3.8147e-06" y="0.000217438" width="566.01" height="430.365" filterUnits="userSpaceOnUse" color-interpolation-filters="sRGB">
<feFlood flood-opacity="0" result="BackgroundImageFix"/>
<feColorMatrix in="SourceAlpha" type="matrix" values="0 0 0 0 0 0 0 0 0 0 0 0 0 0 0 0 0 0 127 0" result="hardAlpha"/>
<feOffset dy="37.0048"/>
<feGaussianBlur stdDeviation="26.7257"/>
<feComposite in2="hardAlpha" operator="out"/>
<feColorMatrix type="matrix" values="0 0 0 0 0 0 0 0 0 0 0 0 0 0 0 0 0 0 0.08 0"/>
<feBlend mode="normal" in2="BackgroundImageFix" result="effect1_dropShadow_430_545"/>
<feBlend mode="normal" in="SourceGraphic" in2="effect1_dropShadow_430_545" result="shape"/>
</filter>
<filter id="filter1_dd_430_545" x="241.451" y="260.909" width="318" height="130" filterUnits="userSpaceOnUse" color-interpolation-filters="sRGB">
<feFlood flood-opacity="0" result="BackgroundImageFix"/>
<feColorMatrix in="SourceAlpha" type="matrix" values="0 0 0 0 0 0 0 0 0 0 0 0 0 0 0 0 0 0 127 0" result="hardAlpha"/>
<feOffset dy="4"/>
<feGaussianBlur stdDeviation="4"/>
<feColorMatrix type="matrix" values="0 0 0 0 0 0 0 0 0 0 0 0 0 0 0 0 0 0 0.06 0"/>
<feBlend mode="normal" in2="BackgroundImageFix" result="effect1_dropShadow_430_545"/>
<feColorMatrix in="SourceAlpha" type="matrix" values="0 0 0 0 0 0 0 0 0 0 0 0 0 0 0 0 0 0 127 0" result="hardAlpha"/>
<feOffset/>
<feGaussianBlur stdDeviation="2"/>
<feColorMatrix type="matrix" values="0 0 0 0 0 0 0 0 0 0 0 0 0 0 0 0 0 0 0.04 0"/>
<feBlend mode="normal" in2="effect1_dropShadow_430_545" result="effect2_dropShadow_430_545"/>
<feBlend mode="normal" in="SourceGraphic" in2="effect2_dropShadow_430_545" result="shape"/>
</filter>
<filter id="filter2_d_430_545" x="393.932" y="119.859" width="26.9711" height="30.5453" filterUnits="userSpaceOnUse" color-interpolation-filters="sRGB">
<feFlood flood-opacity="0" result="BackgroundImageFix"/>
<feColorMatrix in="SourceAlpha" type="matrix" values="0 0 0 0 0 0 0 0 0 0 0 0 0 0 0 0 0 0 127 0" result="hardAlpha"/>
<feOffset dy="1.25714"/>
<feGaussianBlur stdDeviation="1.88571"/>
<feColorMatrix type="matrix" values="0 0 0 0 0 0 0 0 0 0 0 0 0 0 0 0 0 0 0.4 0"/>
<feBlend mode="normal" in2="BackgroundImageFix" result="effect1_dropShadow_430_545"/>
<feBlend mode="normal" in="SourceGraphic" in2="effect1_dropShadow_430_545" result="shape"/>
</filter>
<filter id="filter3_d_430_545" x="410.766" y="145.023" width="87.1143" height="32.086" filterUnits="userSpaceOnUse" color-interpolation-filters="sRGB">
<feFlood flood-opacity="0" result="BackgroundImageFix"/>
<feColorMatrix in="SourceAlpha" type="matrix" values="0 0 0 0 0 0 0 0 0 0 0 0 0 0 0 0 0 0 127 0" result="hardAlpha"/>
<feOffset dy="2.51429"/>
<feGaussianBlur stdDeviation="2.51429"/>
<feColorMatrix type="matrix" values="0 0 0 0 0 0 0 0 0 0 0 0 0 0 0 0 0 0 0.12 0"/>
<feBlend mode="normal" in2="BackgroundImageFix" result="effect1_dropShadow_430_545"/>
<feBlend mode="normal" in="SourceGraphic" in2="effect1_dropShadow_430_545" result="shape"/>
</filter>
<linearGradient id="paint0_linear_430_545" x1="283.005" y1="195.133" x2="283.005" y2="330.779" gradientUnits="userSpaceOnUse">
<stop stop-color="#22328A"/>
<stop offset="1" stop-color="#22328A" stop-opacity="0"/>
</linearGradient>
<clipPath id="clip0_430_545">
<path d="M53.4513 25.1652C53.4513 20.3501 57.3547 16.4468 62.1698 16.4468H503.84C508.655 16.4468 512.559 20.3502 512.559 25.1652V331.19C512.559 336.005 508.655 339.909 503.84 339.909H62.1698C57.3547 339.909 53.4513 336.005 53.4513 331.19V25.1652Z" fill="white"/>
</clipPath>
<clipPath id="clip1_430_545">
<rect width="417.37" height="305.202" fill="white" transform="translate(74.3198 25.5767)"/>
</clipPath>
</defs>
</svg>
